<?xml version="1.0" encoding="UTF-8" standalone="no"?>
<!DOCTYPE svg PUBLIC "-//W3C//DTD SVG 1.1//EN"
 "http://www.w3.org/Graphics/SVG/1.1/DTD/svg11.dtd">
<!-- Generated by graphviz version 2.40.1 (20161225.0304)
 -->
<!-- Title: G Pages: 1 -->
<svg width="307pt" height="356pt"
 viewBox="0.00 0.00 306.92 356.00" xmlns="http://www.w3.org/2000/svg" xmlns:xlink="http://www.w3.org/1999/xlink">
<g id="graph0" class="graph" transform="scale(1 1) rotate(0) translate(4 352)">
<title>G</title>
<polygon fill="#ffffff" stroke="transparent" points="-4,4 -4,-352 302.917,-352 302.917,4 -4,4"/>
<!-- n1p1 -->
<!-- n1p2 -->
<!-- n1p1&#45;&gt;n1p2 -->
<!-- n6 -->
<!-- derive -->
<g id="n6" class="node">
<title>n6</title>
<polygon fill="none" stroke="#000000" points="54,-273 54,-297 102,-297 102,-273 54,-273"/>
<text text-anchor="start" x="58.9346" y="-280.8" font-family="Serif" font-size="14.00" fill="#000000">derive</text>
</g>
<!-- n1p1&#45;&gt;n6 -->
<!-- Formulation -->
<g id="e3" class="edge">
<title>n1p1:s&#45;&gt;n6:n</title>
<path fill="none" stroke="#000000" d="M12,-347C12,-332.7777 3.7548,-326.5288 12.083,-315 25.7208,-296.1211 60.0355,-318.2228 65.3139,-301.9988"/>
<polygon fill="#000000" stroke="#000000" points="67.0538,-302.1916 66,-297 63.5863,-301.7156 67.0538,-302.1916"/>
<text text-anchor="middle" x="49.9585" y="-317.8" font-family="Serif" font-size="14.00" fill="#000000">Formulation</text>
</g>
<!-- n1p3 -->
<!-- n1p2&#45;&gt;n1p3 -->
<!-- n1p2&#45;&gt;n6 -->
<!-- Framework -->
<g id="e4" class="edge">
<title>n1p2:s&#45;&gt;n6:n</title>
<path fill="none" stroke="#000000" d="M90,-347C90,-326.6875 90,-320.3002 90,-302.3811"/>
<polygon fill="#000000" stroke="#000000" points="91.7501,-302 90,-297 88.2501,-302 91.7501,-302"/>
<text text-anchor="middle" x="125.0034" y="-317.8" font-family="Serif" font-size="14.00" fill="#000000">Framework</text>
</g>
<!-- n1p4 -->
<!-- n1p3&#45;&gt;n1p4 -->
<!-- n3 -->
<!-- implement -->
<g id="n3" class="node">
<title>n3</title>
<polygon fill="none" stroke="#000000" points="119,-199 119,-223 193,-223 193,-199 119,-199"/>
<text text-anchor="start" x="123.7104" y="-206.8" font-family="Serif" font-size="14.00" fill="#000000">implement</text>
</g>
<!-- n1p3&#45;&gt;n3 -->
<!-- Library -->
<g id="e1" class="edge">
<title>n1p3:s&#45;&gt;n3:n</title>
<path fill="none" stroke="#000000" d="M175,-347C175,-293.6111 175,-279.0126 175,-228.0481"/>
<polygon fill="#000000" stroke="#000000" points="176.7501,-228 175,-223 173.2501,-228 176.7501,-228"/>
<text text-anchor="middle" x="196.3965" y="-280.8" font-family="Serif" font-size="14.00" fill="#000000">Library</text>
</g>
<!-- n4 -->
<!-- run -->
<g id="n4" class="node">
<title>n4</title>
<polygon fill="none" stroke="#000000" points="182,-51 182,-75 230,-75 230,-51 182,-51"/>
<text text-anchor="start" x="195.8828" y="-58.8" font-family="Serif" font-size="14.00" fill="#000000">run</text>
</g>
<!-- n1p4&#45;&gt;n4 -->
<!-- Machine -->
<g id="e2" class="edge">
<title>n1p4:s&#45;&gt;n4:n</title>
<path fill="none" stroke="#000000" d="M240,-347C240,-319.3157 246,-312.6843 246,-285 246,-285 246,-285 246,-137 246,-116.4784 241.5591,-111.1593 232,-93 228.238,-85.8534 221.5816,-85.1023 219.0326,-79.9635"/>
<polygon fill="#000000" stroke="#000000" points="220.7318,-79.5387 218,-75 217.3051,-80.2517 220.7318,-79.5387"/>
<text text-anchor="middle" x="272.4585" y="-206.8" font-family="Serif" font-size="14.00" fill="#000000">Machine</text>
</g>
<!-- n2p1 -->
<!-- n5 -->
<!-- generate -->
<g id="n5" class="node">
<title>n5</title>
<polygon fill="none" stroke="#000000" points="129,-125 129,-149 194,-149 194,-125 129,-125"/>
<text text-anchor="start" x="133.8657" y="-132.8" font-family="Serif" font-size="14.00" fill="#000000">generate</text>
</g>
<!-- n3&#45;&gt;n5 -->
<!-- Code -->
<g id="e5" class="edge">
<title>n3:s&#45;&gt;n5:n</title>
<path fill="none" stroke="#000000" d="M156,-199C156,-178.5418 161.0131,-172.4083 161.8747,-154.4122"/>
<polygon fill="#000000" stroke="#000000" points="163.6337,-154.0392 162,-149 160.1346,-153.9581 163.6337,-154.0392"/>
<text text-anchor="middle" x="176.7344" y="-169.8" font-family="Serif" font-size="14.00" fill="#000000">Code</text>
</g>
<!-- n4&#45;&gt;n2p1 -->
<!-- Solution -->
<g id="e6" class="edge">
<title>n4:s&#45;&gt;n2p1:n</title>
<path fill="none" stroke="#000000" d="M206,-51C206,-30.6875 206,-24.3002 206,-6.3811"/>
<polygon fill="#000000" stroke="#000000" points="207.7501,-6 206,-1 204.2501,-6 207.7501,-6"/>
<text text-anchor="middle" x="231.2964" y="-21.8" font-family="Serif" font-size="14.00" fill="#000000">Solution</text>
</g>
<!-- n5&#45;&gt;n4 -->
<!-- Program -->
<g id="e7" class="edge">
<title>n5:s&#45;&gt;n4:n</title>
<path fill="none" stroke="#000000" d="M162,-125C162,-109.0355 169.3807,-106.2288 178.3174,-93 183.0505,-85.9937 190.1988,-85.4613 192.9075,-80.1649"/>
<polygon fill="#000000" stroke="#000000" points="194.6774,-80.2539 194,-75 191.2531,-79.5296 194.6774,-80.2539"/>
<text text-anchor="middle" x="204.8413" y="-95.8" font-family="Serif" font-size="14.00" fill="#000000">Program</text>
</g>
<!-- n6&#45;&gt;n3 -->
<!-- Model -->
<g id="e8" class="edge">
<title>n6:s&#45;&gt;n3:n</title>
<path fill="none" stroke="#000000" d="M78,-273C78,-257.4252 126.4561,-243.1299 135.5416,-227.795"/>
<polygon fill="#000000" stroke="#000000" points="137.2192,-228.2929 137,-223 133.8707,-227.2744 137.2192,-228.2929"/>
<text text-anchor="middle" x="139.0654" y="-243.8" font-family="Serif" font-size="14.00" fill="#000000">Model</text>
</g>
</g>
</svg>
