<?xml version="1.0" encoding="UTF-8" standalone="no"?>
<!DOCTYPE svg PUBLIC "-//W3C//DTD SVG 1.1//EN"
 "http://www.w3.org/Graphics/SVG/1.1/DTD/svg11.dtd">
<!-- Generated by graphviz version 2.40.1 (20161225.0304)
 -->
<!-- Title: G Pages: 1 -->
<svg width="212pt" height="208pt"
 viewBox="0.00 0.00 212.00 208.00" xmlns="http://www.w3.org/2000/svg" xmlns:xlink="http://www.w3.org/1999/xlink">
<g id="graph0" class="graph" transform="scale(1 1) rotate(0) translate(4 204)">
<title>G</title>
<polygon fill="#ffffff" stroke="transparent" points="-4,4 -4,-204 208,-204 208,4 -4,4"/>
<!-- n1p1 -->
<!-- n1p2 -->
<!-- n1p1&#45;&gt;n1p2 -->
<!-- n3 -->
<!-- fit -->
<g id="n3" class="node">
<title>n3</title>
<polygon fill="none" stroke="#000000" points="36,-125 36,-149 84,-149 84,-125 36,-125"/>
<text text-anchor="start" x="54.5552" y="-132.8" font-family="Serif" font-size="14.00" fill="#000000">fit</text>
</g>
<!-- n1p1&#45;&gt;n3 -->
<!-- X -->
<g id="e2" class="edge">
<title>n1p1:s&#45;&gt;n3:n</title>
<path fill="none" stroke="#000000" d="M12,-199C12,-173.4354 43.3775,-175.8918 47.5448,-154.0487"/>
<polygon fill="#000000" stroke="#000000" points="49.2939,-154.137 48,-149 45.808,-153.8226 49.2939,-154.137"/>
<text text-anchor="middle" x="44.6689" y="-169.8" font-family="Serif" font-size="14.00" fill="#000000">X</text>
</g>
<!-- n1p3 -->
<!-- n1p2&#45;&gt;n1p3 -->
<!-- n1p2&#45;&gt;n3 -->
<!-- Y -->
<g id="e3" class="edge">
<title>n1p2:s&#45;&gt;n3:n</title>
<path fill="none" stroke="#000000" d="M72,-199C72,-178.6875 72,-172.3002 72,-154.3811"/>
<polygon fill="#000000" stroke="#000000" points="73.7501,-154 72,-149 70.2501,-154 73.7501,-154"/>
<text text-anchor="middle" x="77.6689" y="-169.8" font-family="Serif" font-size="14.00" fill="#000000">Y</text>
</g>
<!-- n1p4 -->
<!-- n1p3&#45;&gt;n1p4 -->
<!-- n4 -->
<!-- predict -->
<g id="n4" class="node">
<title>n4</title>
<polygon fill="none" stroke="#000000" points="93,-51 93,-75 145,-75 145,-51 93,-51"/>
<text text-anchor="start" x="97.9897" y="-58.8" font-family="Serif" font-size="14.00" fill="#000000">predict</text>
</g>
<!-- n1p3&#45;&gt;n4 -->
<!-- X -->
<g id="e4" class="edge">
<title>n1p3:s&#45;&gt;n4:n</title>
<path fill="none" stroke="#000000" d="M132,-199C132,-145.6111 132,-131.0126 132,-80.0481"/>
<polygon fill="#000000" stroke="#000000" points="133.7501,-80 132,-75 130.2501,-80 133.7501,-80"/>
<text text-anchor="middle" x="136.6689" y="-132.8" font-family="Serif" font-size="14.00" fill="#000000">X</text>
</g>
<!-- n2p2 -->
<!-- n1p4&#45;&gt;n2p2 -->
<!-- Y -->
<g id="e1" class="edge">
<title>n1p4:s&#45;&gt;n2p2:n</title>
<path fill="none" stroke="#000000" d="M192,-199C192,-112.7143 190.0774,-89.8887 190.0023,-6.082"/>
<polygon fill="#000000" stroke="#000000" points="191.7523,-5.9992 190,-1 188.2523,-6.0008 191.7523,-5.9992"/>
<text text-anchor="middle" x="195.6689" y="-95.8" font-family="Serif" font-size="14.00" fill="#000000">Y</text>
</g>
<!-- n2p1 -->
<!-- n2p1&#45;&gt;n2p2 -->
<!-- n3&#45;&gt;n4 -->
<!-- β -->
<g id="e5" class="edge">
<title>n3:s&#45;&gt;n4:n</title>
<path fill="none" stroke="#000000" d="M60,-125C60,-96.6912 100.4297,-104.0556 105.4834,-80.2059"/>
<polygon fill="#000000" stroke="#000000" points="107.2476,-80.1484 106,-75 103.7647,-79.8027 107.2476,-80.1484"/>
<text text-anchor="middle" x="100.2759" y="-95.8" font-family="Serif" font-size="14.00" fill="#000000">β</text>
</g>
<!-- n4&#45;&gt;n2p1 -->
<!-- Y -->
<g id="e6" class="edge">
<title>n4:s&#45;&gt;n2p1:n</title>
<path fill="none" stroke="#000000" d="M119,-51C119,-30.3611 126.5196,-24.5425 127.812,-6.4508"/>
<polygon fill="#000000" stroke="#000000" points="129.5765,-6.0574 128,-1 126.0786,-5.9367 129.5765,-6.0574"/>
<text text-anchor="middle" x="129.6689" y="-21.8" font-family="Serif" font-size="14.00" fill="#000000">Y</text>
</g>
</g>
</svg>
