<?xml version="1.0" encoding="UTF-8" standalone="no"?>
<!DOCTYPE svg PUBLIC "-//W3C//DTD SVG 1.1//EN"
 "http://www.w3.org/Graphics/SVG/1.1/DTD/svg11.dtd">
<!-- Generated by graphviz version 2.40.1 (20161225.0304)
 -->
<!-- Title: G Pages: 1 -->
<svg width="212pt" height="208pt"
 viewBox="0.00 0.00 212.00 208.00" xmlns="http://www.w3.org/2000/svg" xmlns:xlink="http://www.w3.org/1999/xlink">
<g id="graph0" class="graph" transform="scale(1 1) rotate(0) translate(4 204)">
<title>G</title>
<polygon fill="#ffffff" stroke="transparent" points="-4,4 -4,-204 208,-204 208,4 -4,4"/>
<!-- n1p1 -->
<!-- n1p2 -->
<!-- n1p1&#45;&gt;n1p2 -->
<!-- n7 -->
<!-- fit -->
<g id="n7" class="node">
<title>n7</title>
<polygon fill="none" stroke="#000000" points="36,-125 36,-149 84,-149 84,-125 36,-125"/>
<text text-anchor="start" x="54.5552" y="-132.8" font-family="Serif" font-size="14.00" fill="#000000">fit</text>
</g>
<!-- n1p1&#45;&gt;n7 -->
<!-- X -->
<g id="e3" class="edge">
<title>n1p1:s&#45;&gt;n7:n</title>
<path fill="none" stroke="#000000" d="M12,-199C12,-173.4354 43.3775,-175.8918 47.5448,-154.0487"/>
<polygon fill="#000000" stroke="#000000" points="49.2939,-154.137 48,-149 45.808,-153.8226 49.2939,-154.137"/>
<text text-anchor="middle" x="44.6689" y="-169.8" font-family="Serif" font-size="14.00" fill="#000000">X</text>
</g>
<!-- n1p3 -->
<!-- n1p2&#45;&gt;n1p3 -->
<!-- n1p2&#45;&gt;n7 -->
<!-- Y -->
<g id="e4" class="edge">
<title>n1p2:s&#45;&gt;n7:n</title>
<path fill="none" stroke="#000000" d="M72,-199C72,-178.6875 72,-172.3002 72,-154.3811"/>
<polygon fill="#000000" stroke="#000000" points="73.7501,-154 72,-149 70.2501,-154 73.7501,-154"/>
<text text-anchor="middle" x="77.6689" y="-169.8" font-family="Serif" font-size="14.00" fill="#000000">Y</text>
</g>
<!-- n1p4 -->
<!-- n1p3&#45;&gt;n1p4 -->
<!-- n5 -->
<!-- id -->
<g id="n5" class="node">
<title>n5</title>
<polygon fill="none" stroke="#000000" points="120,-125 120,-149 144,-149 144,-125 120,-125"/>
<text text-anchor="start" x="126.5518" y="-132.8" font-family="Serif" font-size="14.00" fill="#000000">id</text>
</g>
<!-- n1p3&#45;&gt;n5 -->
<!-- X -->
<g id="e1" class="edge">
<title>n1p3:s&#45;&gt;n5:n</title>
<path fill="none" stroke="#000000" d="M132,-199C132,-178.6875 132,-172.3002 132,-154.3811"/>
<polygon fill="#000000" stroke="#000000" points="133.7501,-154 132,-149 130.2501,-154 133.7501,-154"/>
<text text-anchor="middle" x="136.6689" y="-169.8" font-family="Serif" font-size="14.00" fill="#000000">X</text>
</g>
<!-- n6 -->
<!-- id -->
<g id="n6" class="node">
<title>n6</title>
<polygon fill="none" stroke="#000000" points="179,-125 179,-149 203,-149 203,-125 179,-125"/>
<text text-anchor="start" x="185.5518" y="-132.8" font-family="Serif" font-size="14.00" fill="#000000">id</text>
</g>
<!-- n1p4&#45;&gt;n6 -->
<!-- Y -->
<g id="e2" class="edge">
<title>n1p4:s&#45;&gt;n6:n</title>
<path fill="none" stroke="#000000" d="M192,-199C192,-178.6834 191.1645,-172.3032 191.0209,-154.3819"/>
<polygon fill="#000000" stroke="#000000" points="192.7695,-153.9931 191,-149 189.2695,-154.0068 192.7695,-153.9931"/>
<text text-anchor="middle" x="195.6689" y="-169.8" font-family="Serif" font-size="14.00" fill="#000000">Y</text>
</g>
<!-- n2p1 -->
<!-- n2p2 -->
<!-- n2p1&#45;&gt;n2p2 -->
<!-- n3 -->
<!-- predict -->
<g id="n3" class="node">
<title>n3</title>
<polygon fill="none" stroke="#000000" points="93,-51 93,-75 145,-75 145,-51 93,-51"/>
<text text-anchor="start" x="97.9897" y="-58.8" font-family="Serif" font-size="14.00" fill="#000000">predict</text>
</g>
<!-- n3&#45;&gt;n2p1 -->
<!-- Y -->
<g id="e5" class="edge">
<title>n3:s&#45;&gt;n2p1:n</title>
<path fill="none" stroke="#000000" d="M119,-51C119,-30.4291 125.6841,-24.4919 126.8329,-6.4362"/>
<polygon fill="#000000" stroke="#000000" points="128.5955,-6.0514 127,-1 125.0971,-5.9438 128.5955,-6.0514"/>
<text text-anchor="middle" x="128.6689" y="-21.8" font-family="Serif" font-size="14.00" fill="#000000">Y</text>
</g>
<!-- n4 -->
<!-- id -->
<g id="n4" class="node">
<title>n4</title>
<polygon fill="none" stroke="#000000" points="179,-51 179,-75 203,-75 203,-51 179,-51"/>
<text text-anchor="start" x="185.5518" y="-58.8" font-family="Serif" font-size="14.00" fill="#000000">id</text>
</g>
<!-- n4&#45;&gt;n2p2 -->
<!-- Y -->
<g id="e6" class="edge">
<title>n4:s&#45;&gt;n2p2:n</title>
<path fill="none" stroke="#000000" d="M191,-51C191,-30.651 188.4935,-24.3273 188.0627,-6.3889"/>
<polygon fill="#000000" stroke="#000000" points="189.8081,-5.9793 188,-1 186.3083,-6.02 189.8081,-5.9793"/>
<text text-anchor="middle" x="194.6689" y="-21.8" font-family="Serif" font-size="14.00" fill="#000000">Y</text>
</g>
<!-- n5&#45;&gt;n3 -->
<!-- X -->
<g id="e7" class="edge">
<title>n5:s&#45;&gt;n3:n</title>
<path fill="none" stroke="#000000" d="M132,-125C132,-104.6875 132,-98.3002 132,-80.3811"/>
<polygon fill="#000000" stroke="#000000" points="133.7501,-80 132,-75 130.2501,-80 133.7501,-80"/>
<text text-anchor="middle" x="136.6689" y="-95.8" font-family="Serif" font-size="14.00" fill="#000000">X</text>
</g>
<!-- n6&#45;&gt;n4 -->
<!-- Y -->
<g id="e8" class="edge">
<title>n6:s&#45;&gt;n4:n</title>
<path fill="none" stroke="#000000" d="M191,-125C191,-104.6875 191,-98.3002 191,-80.3811"/>
<polygon fill="#000000" stroke="#000000" points="192.7501,-80 191,-75 189.2501,-80 192.7501,-80"/>
<text text-anchor="middle" x="195.6689" y="-95.8" font-family="Serif" font-size="14.00" fill="#000000">Y</text>
</g>
<!-- n7&#45;&gt;n3 -->
<!-- β -->
<g id="e9" class="edge">
<title>n7:s&#45;&gt;n3:n</title>
<path fill="none" stroke="#000000" d="M60,-125C60,-96.6912 100.4297,-104.0556 105.4834,-80.2059"/>
<polygon fill="#000000" stroke="#000000" points="107.2476,-80.1484 106,-75 103.7647,-79.8027 107.2476,-80.1484"/>
<text text-anchor="middle" x="100.2759" y="-95.8" font-family="Serif" font-size="14.00" fill="#000000">β</text>
</g>
</g>
</svg>
