<?xml version="1.0" encoding="UTF-8" standalone="no"?>
<!DOCTYPE svg PUBLIC "-//W3C//DTD SVG 1.1//EN"
 "http://www.w3.org/Graphics/SVG/1.1/DTD/svg11.dtd">
<!-- Generated by graphviz version 2.40.1 (20161225.0304)
 -->
<!-- Title: G Pages: 1 -->
<svg width="394pt" height="282pt"
 viewBox="0.00 0.00 394.00 282.00" xmlns="http://www.w3.org/2000/svg" xmlns:xlink="http://www.w3.org/1999/xlink">
<g id="graph0" class="graph" transform="scale(1 1) rotate(0) translate(4 278)">
<title>G</title>
<polygon fill="#ffffff" stroke="transparent" points="-4,4 -4,-278 390,-278 390,4 -4,4"/>
<!-- n1p1 -->
<!-- n1p2 -->
<!-- n1p1&#45;&gt;n1p2 -->
<!-- n5 -->
<!-- construct -->
<g id="n5" class="node">
<title>n5</title>
<polygon fill="none" stroke="#000000" points="55,-199 55,-223 127,-223 127,-199 55,-199"/>
<text text-anchor="start" x="62.6001" y="-206.8" font-family="Serif" font-size="14.00" fill="#000000">construct</text>
</g>
<!-- n1p1&#45;&gt;n5 -->
<!-- Model -->
<g id="e5" class="edge">
<title>n1p1:s&#45;&gt;n5:n</title>
<path fill="none" stroke="#000000" d="M12,-273C12,-256.9226 17.2529,-252.1151 28.8691,-241 40.9285,-229.461 61.753,-239.0631 66.1641,-228.0624"/>
<polygon fill="#000000" stroke="#000000" points="67.912,-228.2183 67,-223 64.4587,-227.6481 67.912,-228.2183"/>
<text text-anchor="middle" x="48.0654" y="-243.8" font-family="Serif" font-size="14.00" fill="#000000">Model</text>
</g>
<!-- n1p3 -->
<!-- n1p2&#45;&gt;n1p3 -->
<!-- n1p2&#45;&gt;n5 -->
<!-- Model -->
<g id="e6" class="edge">
<title>n1p2:s&#45;&gt;n5:n</title>
<path fill="none" stroke="#000000" d="M72,-273C72,-258.7725 67.2229,-254.0591 72.8691,-241 76.5305,-232.5317 86.2113,-233.4376 89.7129,-227.9845"/>
<polygon fill="#000000" stroke="#000000" points="91.4443,-228.2788 91,-223 88.0554,-227.4037 91.4443,-228.2788"/>
<text text-anchor="middle" x="92.0654" y="-243.8" font-family="Serif" font-size="14.00" fill="#000000">Model</text>
</g>
<!-- n1p4 -->
<!-- n1p3&#45;&gt;n1p4 -->
<!-- n1p3&#45;&gt;n5 -->
<!-- Model -->
<g id="e7" class="edge">
<title>n1p3:s&#45;&gt;n5:n</title>
<path fill="none" stroke="#000000" d="M133,-273C133,-251.2268 117.7026,-247.1774 115.3124,-228.1736"/>
<polygon fill="#000000" stroke="#000000" points="117.0483,-227.8854 115,-223 113.5547,-228.0964 117.0483,-227.8854"/>
<text text-anchor="middle" x="147.0654" y="-243.8" font-family="Serif" font-size="14.00" fill="#000000">Model</text>
</g>
<!-- n1p5 -->
<!-- n1p4&#45;&gt;n1p5 -->
<!-- n3 -->
<!-- construct -->
<g id="n3" class="node">
<title>n3</title>
<polygon fill="none" stroke="#000000" points="219,-199 219,-223 291,-223 291,-199 219,-199"/>
<text text-anchor="start" x="226.6001" y="-206.8" font-family="Serif" font-size="14.00" fill="#000000">construct</text>
</g>
<!-- n1p4&#45;&gt;n3 -->
<!-- Model -->
<g id="e1" class="edge">
<title>n1p4:s&#45;&gt;n3:n</title>
<path fill="none" stroke="#000000" d="M194,-273C194,-256.7106 201.8489,-253.8429 211.8691,-241 217.7041,-233.5214 226.6866,-234.0197 229.8499,-228.2076"/>
<polygon fill="#000000" stroke="#000000" points="231.6305,-228.2598 231,-223 228.2128,-227.5049 231.6305,-228.2598"/>
<text text-anchor="middle" x="230.0654" y="-243.8" font-family="Serif" font-size="14.00" fill="#000000">Model</text>
</g>
<!-- n1p6 -->
<!-- n1p5&#45;&gt;n1p6 -->
<!-- n1p5&#45;&gt;n3 -->
<!-- Model -->
<g id="e2" class="edge">
<title>n1p5:s&#45;&gt;n3:n</title>
<path fill="none" stroke="#000000" d="M254,-273C254,-252.6834 254.8355,-246.3032 254.9791,-228.3819"/>
<polygon fill="#000000" stroke="#000000" points="256.7305,-228.0068 255,-223 253.2305,-227.9931 256.7305,-228.0068"/>
<text text-anchor="middle" x="273.0654" y="-243.8" font-family="Serif" font-size="14.00" fill="#000000">Model</text>
</g>
<!-- n1p7 -->
<!-- n1p6&#45;&gt;n1p7 -->
<!-- n1p6&#45;&gt;n3 -->
<!-- Model -->
<g id="e3" class="edge">
<title>n1p6:s&#45;&gt;n3:n</title>
<path fill="none" stroke="#000000" d="M314,-273C314,-256.2285 303.8357,-254.5847 294,-241 289.1334,-234.2784 282.4978,-233.452 280.0029,-228.124"/>
<polygon fill="#000000" stroke="#000000" points="281.6779,-227.5707 279,-223 278.2431,-228.2431 281.6779,-227.5707"/>
<text text-anchor="middle" x="325.0654" y="-243.8" font-family="Serif" font-size="14.00" fill="#000000">Model</text>
</g>
<!-- n4 -->
<!-- rewrite -->
<g id="n4" class="node">
<title>n4</title>
<polygon fill="none" stroke="#000000" points="242,-125 242,-149 294,-149 294,-125 242,-125"/>
<text text-anchor="start" x="246.9966" y="-132.8" font-family="Serif" font-size="14.00" fill="#000000">rewrite</text>
</g>
<!-- n1p7&#45;&gt;n4 -->
<!-- Model -->
<g id="e4" class="edge">
<title>n1p7:s&#45;&gt;n4:n</title>
<path fill="none" stroke="#000000" d="M374,-273C374,-257.056 294.2924,-179.1172 282.4608,-153.9708"/>
<polygon fill="#000000" stroke="#000000" points="284.0888,-153.3037 281,-149 280.7308,-154.2906 284.0888,-153.3037"/>
<text text-anchor="middle" x="355.0654" y="-206.8" font-family="Serif" font-size="14.00" fill="#000000">Model</text>
</g>
<!-- n2p1 -->
<!-- n3&#45;&gt;n4 -->
<!-- Rule -->
<g id="e8" class="edge">
<title>n3:s&#45;&gt;n4:n</title>
<path fill="none" stroke="#000000" d="M255,-199C255,-178.6875 255,-172.3002 255,-154.3811"/>
<polygon fill="#000000" stroke="#000000" points="256.7501,-154 255,-149 253.2501,-154 256.7501,-154"/>
<text text-anchor="middle" x="269.3965" y="-169.8" font-family="Serif" font-size="14.00" fill="#000000">Rule</text>
</g>
<!-- n6 -->
<!-- rewrite -->
<g id="n6" class="node">
<title>n6</title>
<polygon fill="none" stroke="#000000" points="166,-51 166,-75 218,-75 218,-51 166,-51"/>
<text text-anchor="start" x="170.9966" y="-58.8" font-family="Serif" font-size="14.00" fill="#000000">rewrite</text>
</g>
<!-- n4&#45;&gt;n6 -->
<!-- Model -->
<g id="e9" class="edge">
<title>n4:s&#45;&gt;n6:n</title>
<path fill="none" stroke="#000000" d="M281,-125C281,-86.463 211.958,-112.6953 205.4853,-80.2305"/>
<polygon fill="#000000" stroke="#000000" points="207.2046,-79.8169 205,-75 203.7195,-80.1403 207.2046,-79.8169"/>
<text text-anchor="middle" x="288.0654" y="-95.8" font-family="Serif" font-size="14.00" fill="#000000">Model</text>
</g>
<!-- n5&#45;&gt;n6 -->
<!-- Rule -->
<g id="e10" class="edge">
<title>n5:s&#45;&gt;n6:n</title>
<path fill="none" stroke="#000000" d="M91,-199C91,-133.1369 174.588,-142.0631 178.8327,-79.9979"/>
<polygon fill="#000000" stroke="#000000" points="180.5816,-80.0558 179,-75 177.0836,-79.9386 180.5816,-80.0558"/>
<text text-anchor="middle" x="166.3965" y="-132.8" font-family="Serif" font-size="14.00" fill="#000000">Rule</text>
</g>
<!-- n6&#45;&gt;n2p1 -->
<!-- Model -->
<g id="e11" class="edge">
<title>n6:s&#45;&gt;n2p1:n</title>
<path fill="none" stroke="#000000" d="M205,-51C205,-30.6875 205,-24.3002 205,-6.3811"/>
<polygon fill="#000000" stroke="#000000" points="206.7501,-6 205,-1 203.2501,-6 206.7501,-6"/>
<text text-anchor="middle" x="224.0654" y="-21.8" font-family="Serif" font-size="14.00" fill="#000000">Model</text>
</g>
</g>
</svg>
