<?xml version="1.0" encoding="UTF-8" standalone="no"?>
<!DOCTYPE svg PUBLIC "-//W3C//DTD SVG 1.1//EN"
 "http://www.w3.org/Graphics/SVG/1.1/DTD/svg11.dtd">
<!-- Generated by graphviz version 2.40.1 (20161225.0304)
 -->
<!-- Title: G Pages: 1 -->
<svg width="222pt" height="208pt"
 viewBox="0.00 0.00 222.13 208.00" xmlns="http://www.w3.org/2000/svg" xmlns:xlink="http://www.w3.org/1999/xlink">
<g id="graph0" class="graph" transform="scale(1 1) rotate(0) translate(4 204)">
<title>G</title>
<polygon fill="#ffffff" stroke="transparent" points="-4,4 -4,-204 218.1309,-204 218.1309,4 -4,4"/>
<!-- n1p1 -->
<!-- n1p2 -->
<!-- n1p1&#45;&gt;n1p2 -->
<!-- n3 -->
<!-- construct -->
<g id="n3" class="node">
<title>n3</title>
<polygon fill="none" stroke="#000000" points="55,-125 55,-149 127,-149 127,-125 55,-125"/>
<text text-anchor="start" x="62.6001" y="-132.8" font-family="Serif" font-size="14.00" fill="#000000">construct</text>
</g>
<!-- n1p1&#45;&gt;n3 -->
<!-- Model -->
<g id="e1" class="edge">
<title>n1p1:s&#45;&gt;n3:n</title>
<path fill="none" stroke="#000000" d="M12,-199C12,-182.9226 17.2529,-178.1151 28.8691,-167 40.9285,-155.461 61.753,-165.0631 66.1641,-154.0624"/>
<polygon fill="#000000" stroke="#000000" points="67.912,-154.2183 67,-149 64.4587,-153.6481 67.912,-154.2183"/>
<text text-anchor="middle" x="48.0654" y="-169.8" font-family="Serif" font-size="14.00" fill="#000000">Model</text>
</g>
<!-- n1p3 -->
<!-- n1p2&#45;&gt;n1p3 -->
<!-- n1p2&#45;&gt;n3 -->
<!-- Model -->
<g id="e2" class="edge">
<title>n1p2:s&#45;&gt;n3:n</title>
<path fill="none" stroke="#000000" d="M72,-199C72,-184.7535 68.1969,-180.0685 73.8691,-167 77.4419,-158.7687 86.518,-159.3212 89.7959,-153.894"/>
<polygon fill="#000000" stroke="#000000" points="91.5047,-154.2733 91,-149 88.106,-153.4371 91.5047,-154.2733"/>
<text text-anchor="middle" x="93.0654" y="-169.8" font-family="Serif" font-size="14.00" fill="#000000">Model</text>
</g>
<!-- n1p4 -->
<!-- n1p3&#45;&gt;n1p4 -->
<!-- n1p3&#45;&gt;n3 -->
<!-- Model -->
<g id="e3" class="edge">
<title>n1p3:s&#45;&gt;n3:n</title>
<path fill="none" stroke="#000000" d="M132,-199C132,-177.3622 117.5525,-173.0738 115.2951,-154.1468"/>
<polygon fill="#000000" stroke="#000000" points="117.0334,-153.8916 115,-149 113.5391,-154.092 117.0334,-153.8916"/>
<text text-anchor="middle" x="146.0654" y="-169.8" font-family="Serif" font-size="14.00" fill="#000000">Model</text>
</g>
<!-- n4 -->
<!-- rewrite -->
<g id="n4" class="node">
<title>n4</title>
<polygon fill="none" stroke="#000000" points="106,-51 106,-75 158,-75 158,-51 106,-51"/>
<text text-anchor="start" x="110.9966" y="-58.8" font-family="Serif" font-size="14.00" fill="#000000">rewrite</text>
</g>
<!-- n1p4&#45;&gt;n4 -->
<!-- Model -->
<g id="e4" class="edge">
<title>n1p4:s&#45;&gt;n4:n</title>
<path fill="none" stroke="#000000" d="M192,-199C192,-141.7896 147.7136,-134.3414 145.1187,-80.0467"/>
<polygon fill="#000000" stroke="#000000" points="146.8671,-79.9575 145,-75 143.3681,-80.0398 146.8671,-79.9575"/>
<text text-anchor="middle" x="195.0654" y="-132.8" font-family="Serif" font-size="14.00" fill="#000000">Model</text>
</g>
<!-- n2p1 -->
<!-- n2p2 -->
<!-- n2p1&#45;&gt;n2p2 -->
<!-- n3&#45;&gt;n4 -->
<!-- Rule -->
<g id="e5" class="edge">
<title>n3:s&#45;&gt;n4:n</title>
<path fill="none" stroke="#000000" d="M91,-125C91,-101.3214 115.2009,-100.468 118.6042,-79.9991"/>
<polygon fill="#000000" stroke="#000000" points="120.3498,-80.1226 119,-75 116.8607,-79.8462 120.3498,-80.1226"/>
<text text-anchor="middle" x="126.3965" y="-95.8" font-family="Serif" font-size="14.00" fill="#000000">Rule</text>
</g>
<!-- n4&#45;&gt;n2p1 -->
<!-- Model -->
<g id="e6" class="edge">
<title>n4:s&#45;&gt;n2p1:n</title>
<path fill="none" stroke="#000000" d="M119,-51C119,-40.2576 106.8429,-42.9803 102.8691,-33 98.3051,-21.5373 101.0032,-16.59 101.8004,-6.1998"/>
<polygon fill="#000000" stroke="#000000" points="103.5568,-6.0635 102,-1 100.0594,-5.9292 103.5568,-6.0635"/>
<text text-anchor="middle" x="122.0654" y="-21.8" font-family="Serif" font-size="14.00" fill="#000000">Model</text>
</g>
<!-- n4&#45;&gt;n2p2 -->
<!-- Model -->
<g id="e7" class="edge">
<title>n4:s&#45;&gt;n2p2:n</title>
<path fill="none" stroke="#000000" d="M145,-51C145,-29.3622 159.4475,-25.0738 161.7049,-6.1468"/>
<polygon fill="#000000" stroke="#000000" points="163.4609,-6.092 162,-1 159.9666,-5.8916 163.4609,-6.092"/>
<text text-anchor="middle" x="176.0654" y="-21.8" font-family="Serif" font-size="14.00" fill="#000000">Model</text>
</g>
</g>
</svg>
