<?xml version="1.0" encoding="UTF-8" standalone="no"?>
<!DOCTYPE svg PUBLIC "-//W3C//DTD SVG 1.1//EN"
 "http://www.w3.org/Graphics/SVG/1.1/DTD/svg11.dtd">
<!-- Generated by graphviz version 2.40.1 (20161225.0304)
 -->
<!-- Title: G Pages: 1 -->
<svg width="412pt" height="208pt"
 viewBox="0.00 0.00 412.13 208.00" xmlns="http://www.w3.org/2000/svg" xmlns:xlink="http://www.w3.org/1999/xlink">
<g id="graph0" class="graph" transform="scale(1 1) rotate(0) translate(4 204)">
<title>G</title>
<polygon fill="#ffffff" stroke="transparent" points="-4,4 -4,-204 408.1309,-204 408.1309,4 -4,4"/>
<!-- n1p1 -->
<!-- n1p2 -->
<!-- n1p1&#45;&gt;n1p2 -->
<!-- n4 -->
<!-- dpor -->
<g id="n4" class="node">
<title>n4</title>
<polygon fill="none" stroke="#000000" points="68,-51 68,-75 164,-75 164,-51 68,-51"/>
<text text-anchor="start" x="101.9897" y="-58.8" font-family="Serif" font-size="14.00" fill="#000000">dpor</text>
</g>
<!-- n1p1&#45;&gt;n4 -->
<!-- Model -->
<g id="e5" class="edge">
<title>n1p1:s&#45;&gt;n4:n</title>
<path fill="none" stroke="#000000" d="M12,-199C12,-164.0102 21.5339,-155.3937 38.8691,-125 52.2343,-101.567 76.69,-103.4161 79.6947,-80.0289"/>
<polygon fill="#000000" stroke="#000000" points="81.4437,-80.0969 80,-75 77.9501,-79.8847 81.4437,-80.0969"/>
<text text-anchor="middle" x="58.0654" y="-132.8" font-family="Serif" font-size="14.00" fill="#000000">Model</text>
</g>
<!-- n1p3 -->
<!-- n1p2&#45;&gt;n1p3 -->
<!-- n1p2&#45;&gt;n4 -->
<!-- Model -->
<g id="e6" class="edge">
<title>n1p2:s&#45;&gt;n4:n</title>
<path fill="none" stroke="#000000" d="M73,-199C73,-165.4537 79.4013,-157.4599 87.8691,-125 93.3028,-104.1712 102.427,-99.097 103.8195,-80.1374"/>
<polygon fill="#000000" stroke="#000000" points="105.5733,-80.0584 104,-75 102.0754,-79.9354 105.5733,-80.0584"/>
<text text-anchor="middle" x="107.0654" y="-132.8" font-family="Serif" font-size="14.00" fill="#000000">Model</text>
</g>
<!-- n1p4 -->
<!-- n1p3&#45;&gt;n1p4 -->
<!-- n1p3&#45;&gt;n4 -->
<!-- Model -->
<g id="e7" class="edge">
<title>n1p3:s&#45;&gt;n4:n</title>
<path fill="none" stroke="#000000" d="M133,-199C133,-145.5677 128.3076,-131.0519 128.0143,-80.0519"/>
<polygon fill="#000000" stroke="#000000" points="129.7643,-79.995 128,-75 126.2643,-80.005 129.7643,-79.995"/>
<text text-anchor="middle" x="151.0654" y="-132.8" font-family="Serif" font-size="14.00" fill="#000000">Model</text>
</g>
<!-- n1p5 -->
<!-- n1p4&#45;&gt;n1p5 -->
<!-- n3 -->
<!-- dpor -->
<g id="n3" class="node">
<title>n3</title>
<polygon fill="none" stroke="#000000" points="216,-125 216,-149 312,-149 312,-125 216,-125"/>
<text text-anchor="start" x="249.9897" y="-132.8" font-family="Serif" font-size="14.00" fill="#000000">dpor</text>
</g>
<!-- n1p4&#45;&gt;n3 -->
<!-- Model -->
<g id="e1" class="edge">
<title>n1p4:s&#45;&gt;n3:n</title>
<path fill="none" stroke="#000000" d="M193,-199C193,-182.7106 201.207,-180.1144 210.8691,-167 216.1916,-159.7758 224.1741,-159.6988 226.9804,-154.0002"/>
<polygon fill="#000000" stroke="#000000" points="228.7157,-154.2489 228,-149 225.2862,-153.5495 228.7157,-154.2489"/>
<text text-anchor="middle" x="230.0654" y="-169.8" font-family="Serif" font-size="14.00" fill="#000000">Model</text>
</g>
<!-- n1p6 -->
<!-- n1p5&#45;&gt;n1p6 -->
<!-- n1p5&#45;&gt;n3 -->
<!-- Model -->
<g id="e2" class="edge">
<title>n1p5:s&#45;&gt;n3:n</title>
<path fill="none" stroke="#000000" d="M253,-199C253,-178.6834 252.1645,-172.3032 252.0209,-154.3819"/>
<polygon fill="#000000" stroke="#000000" points="253.7695,-153.9931 252,-149 250.2695,-154.0068 253.7695,-153.9931"/>
<text text-anchor="middle" x="272.0654" y="-169.8" font-family="Serif" font-size="14.00" fill="#000000">Model</text>
</g>
<!-- n1p7 -->
<!-- n1p6&#45;&gt;n1p7 -->
<!-- n1p6&#45;&gt;n3 -->
<!-- Model -->
<g id="e3" class="edge">
<title>n1p6:s&#45;&gt;n3:n</title>
<path fill="none" stroke="#000000" d="M313,-199C313,-181.7409 301.4245,-180.7552 291,-167 285.9878,-160.3863 279.4386,-159.4958 276.9849,-154.1373"/>
<polygon fill="#000000" stroke="#000000" points="278.6602,-153.5811 276,-149 275.2228,-154.2401 278.6602,-153.5811"/>
<text text-anchor="middle" x="323.0654" y="-169.8" font-family="Serif" font-size="14.00" fill="#000000">Model</text>
</g>
<!-- n1p7&#45;&gt;n3 -->
<!-- Model -->
<g id="e4" class="edge">
<title>n1p7:s&#45;&gt;n3:n</title>
<path fill="none" stroke="#000000" d="M374,-199C374,-180.102 361.4629,-177.8644 346,-167 329.7208,-155.562 305.1683,-168.1027 300.7078,-154.2144"/>
<polygon fill="#000000" stroke="#000000" points="302.4067,-153.7191 300,-149 298.9386,-154.19 302.4067,-153.7191"/>
<text text-anchor="middle" x="385.0654" y="-169.8" font-family="Serif" font-size="14.00" fill="#000000">Model</text>
</g>
<!-- n2p1 -->
<!-- n3&#45;&gt;n4 -->
<!-- Model -->
<g id="e8" class="edge">
<title>n3:s&#45;&gt;n4:n</title>
<path fill="none" stroke="#000000" d="M264,-125C264,-99.5536 166.3811,-101.7972 153.4161,-80.0283"/>
<polygon fill="#000000" stroke="#000000" points="155.0399,-79.3384 152,-75 151.671,-80.2872 155.0399,-79.3384"/>
<text text-anchor="middle" x="256.0654" y="-95.8" font-family="Serif" font-size="14.00" fill="#000000">Model</text>
</g>
<!-- n4&#45;&gt;n2p1 -->
<!-- Model -->
<g id="e9" class="edge">
<title>n4:s&#45;&gt;n2p1:n</title>
<path fill="none" stroke="#000000" d="M116,-51C116,-30.6875 116,-24.3002 116,-6.3811"/>
<polygon fill="#000000" stroke="#000000" points="117.7501,-6 116,-1 114.2501,-6 117.7501,-6"/>
<text text-anchor="middle" x="135.0654" y="-21.8" font-family="Serif" font-size="14.00" fill="#000000">Model</text>
</g>
</g>
</svg>
