<?xml version="1.0" encoding="UTF-8" standalone="no"?>
<!DOCTYPE svg PUBLIC "-//W3C//DTD SVG 1.1//EN"
 "http://www.w3.org/Graphics/SVG/1.1/DTD/svg11.dtd">
<!-- Generated by graphviz version 2.40.1 (20161225.0304)
 -->
<!-- Title: G Pages: 1 -->
<svg width="415pt" height="430pt"
 viewBox="0.00 0.00 415.13 430.00" xmlns="http://www.w3.org/2000/svg" xmlns:xlink="http://www.w3.org/1999/xlink">
<g id="graph0" class="graph" transform="scale(1 1) rotate(0) translate(4 426)">
<title>G</title>
<polygon fill="#ffffff" stroke="transparent" points="-4,4 -4,-426 411.1309,-426 411.1309,4 -4,4"/>
<!-- n1p1 -->
<!-- n1p2 -->
<!-- n1p1&#45;&gt;n1p2 -->
<!-- n9 -->
<!-- construct -->
<g id="n9" class="node">
<title>n9</title>
<polygon fill="none" stroke="#000000" points="55,-347 55,-371 127,-371 127,-347 55,-347"/>
<text text-anchor="start" x="62.6001" y="-354.8" font-family="Serif" font-size="14.00" fill="#000000">construct</text>
</g>
<!-- n1p1&#45;&gt;n9 -->
<!-- Model -->
<g id="e5" class="edge">
<title>n1p1:s&#45;&gt;n9:n</title>
<path fill="none" stroke="#000000" d="M12,-421C12,-404.9226 17.2529,-400.1151 28.8691,-389 40.9285,-377.461 61.753,-387.0631 66.1641,-376.0624"/>
<polygon fill="#000000" stroke="#000000" points="67.912,-376.2183 67,-371 64.4587,-375.6481 67.912,-376.2183"/>
<text text-anchor="middle" x="48.0654" y="-391.8" font-family="Serif" font-size="14.00" fill="#000000">Model</text>
</g>
<!-- n1p3 -->
<!-- n1p2&#45;&gt;n1p3 -->
<!-- n1p2&#45;&gt;n9 -->
<!-- Model -->
<g id="e6" class="edge">
<title>n1p2:s&#45;&gt;n9:n</title>
<path fill="none" stroke="#000000" d="M72,-421C72,-406.7725 67.2229,-402.0591 72.8691,-389 76.5305,-380.5317 86.2113,-381.4376 89.7129,-375.9845"/>
<polygon fill="#000000" stroke="#000000" points="91.4443,-376.2788 91,-371 88.0554,-375.4037 91.4443,-376.2788"/>
<text text-anchor="middle" x="92.0654" y="-391.8" font-family="Serif" font-size="14.00" fill="#000000">Model</text>
</g>
<!-- n1p4 -->
<!-- n1p3&#45;&gt;n1p4 -->
<!-- n1p3&#45;&gt;n9 -->
<!-- Model -->
<g id="e7" class="edge">
<title>n1p3:s&#45;&gt;n9:n</title>
<path fill="none" stroke="#000000" d="M133,-421C133,-399.2268 117.7026,-395.1774 115.3124,-376.1736"/>
<polygon fill="#000000" stroke="#000000" points="117.0483,-375.8854 115,-371 113.5547,-376.0964 117.0483,-375.8854"/>
<text text-anchor="middle" x="147.0654" y="-391.8" font-family="Serif" font-size="14.00" fill="#000000">Model</text>
</g>
<!-- n1p5 -->
<!-- n1p4&#45;&gt;n1p5 -->
<!-- n3 -->
<!-- construct -->
<g id="n3" class="node">
<title>n3</title>
<polygon fill="none" stroke="#000000" points="219,-347 219,-371 291,-371 291,-347 219,-347"/>
<text text-anchor="start" x="226.6001" y="-354.8" font-family="Serif" font-size="14.00" fill="#000000">construct</text>
</g>
<!-- n1p4&#45;&gt;n3 -->
<!-- Model -->
<g id="e1" class="edge">
<title>n1p4:s&#45;&gt;n3:n</title>
<path fill="none" stroke="#000000" d="M194,-421C194,-404.4894 202.7344,-402.0342 212.8691,-389 218.5322,-381.7167 226.962,-381.882 229.9241,-376.1095"/>
<polygon fill="#000000" stroke="#000000" points="231.6821,-376.2533 231,-371 228.2572,-375.5321 231.6821,-376.2533"/>
<text text-anchor="middle" x="231.0654" y="-391.8" font-family="Serif" font-size="14.00" fill="#000000">Model</text>
</g>
<!-- n1p6 -->
<!-- n1p5&#45;&gt;n1p6 -->
<!-- n1p5&#45;&gt;n3 -->
<!-- Model -->
<g id="e2" class="edge">
<title>n1p5:s&#45;&gt;n3:n</title>
<path fill="none" stroke="#000000" d="M255,-421C255,-400.6875 255,-394.3002 255,-376.3811"/>
<polygon fill="#000000" stroke="#000000" points="256.7501,-376 255,-371 253.2501,-376 256.7501,-376"/>
<text text-anchor="middle" x="274.0654" y="-391.8" font-family="Serif" font-size="14.00" fill="#000000">Model</text>
</g>
<!-- n1p7 -->
<!-- n1p6&#45;&gt;n1p7 -->
<!-- n1p6&#45;&gt;n3 -->
<!-- Model -->
<g id="e3" class="edge">
<title>n1p6:s&#45;&gt;n3:n</title>
<path fill="none" stroke="#000000" d="M316,-421C316,-403.7409 304.4245,-402.7552 294,-389 288.9878,-382.3863 282.4386,-381.4958 279.9849,-376.1373"/>
<polygon fill="#000000" stroke="#000000" points="281.6602,-375.5811 279,-371 278.2228,-376.2401 281.6602,-375.5811"/>
<text text-anchor="middle" x="326.0654" y="-391.8" font-family="Serif" font-size="14.00" fill="#000000">Model</text>
</g>
<!-- n7 -->
<!-- id -->
<g id="n7" class="node">
<title>n7</title>
<polygon fill="none" stroke="#000000" points="337,-347 337,-371 361,-371 361,-347 337,-347"/>
<text text-anchor="start" x="343.5518" y="-354.8" font-family="Serif" font-size="14.00" fill="#000000">id</text>
</g>
<!-- n1p7&#45;&gt;n7 -->
<!-- Model -->
<g id="e4" class="edge">
<title>n1p7:s&#45;&gt;n7:n</title>
<path fill="none" stroke="#000000" d="M376,-421C376,-397.6192 352.8591,-396.3214 349.4241,-376.2185"/>
<polygon fill="#000000" stroke="#000000" points="351.1493,-375.8418 349,-371 347.6608,-376.1254 351.1493,-375.8418"/>
<text text-anchor="middle" x="388.0654" y="-391.8" font-family="Serif" font-size="14.00" fill="#000000">Model</text>
</g>
<!-- n2p1 -->
<!-- n8 -->
<!-- rewrite -->
<g id="n8" class="node">
<title>n8</title>
<polygon fill="none" stroke="#000000" points="242,-273 242,-297 294,-297 294,-273 242,-273"/>
<text text-anchor="start" x="246.9966" y="-280.8" font-family="Serif" font-size="14.00" fill="#000000">rewrite</text>
</g>
<!-- n3&#45;&gt;n8 -->
<!-- Rule -->
<g id="e8" class="edge">
<title>n3:s&#45;&gt;n8:n</title>
<path fill="none" stroke="#000000" d="M255,-347C255,-326.6875 255,-320.3002 255,-302.3811"/>
<polygon fill="#000000" stroke="#000000" points="256.7501,-302 255,-297 253.2501,-302 256.7501,-302"/>
<text text-anchor="middle" x="269.3965" y="-317.8" font-family="Serif" font-size="14.00" fill="#000000">Rule</text>
</g>
<!-- n4 -->
<!-- id -->
<g id="n4" class="node">
<title>n4</title>
<polygon fill="none" stroke="#000000" points="186,-51 186,-75 210,-75 210,-51 186,-51"/>
<text text-anchor="start" x="192.5518" y="-58.8" font-family="Serif" font-size="14.00" fill="#000000">id</text>
</g>
<!-- n4&#45;&gt;n2p1 -->
<!-- Model -->
<g id="e9" class="edge">
<title>n4:s&#45;&gt;n2p1:n</title>
<path fill="none" stroke="#000000" d="M198,-51C198,-30.6875 198,-24.3002 198,-6.3811"/>
<polygon fill="#000000" stroke="#000000" points="199.7501,-6 198,-1 196.2501,-6 199.7501,-6"/>
<text text-anchor="middle" x="217.0654" y="-21.8" font-family="Serif" font-size="14.00" fill="#000000">Model</text>
</g>
<!-- n5 -->
<!-- id -->
<g id="n5" class="node">
<title>n5</title>
<polygon fill="none" stroke="#000000" points="212,-199 212,-223 236,-223 236,-199 212,-199"/>
<text text-anchor="start" x="218.5518" y="-206.8" font-family="Serif" font-size="14.00" fill="#000000">id</text>
</g>
<!-- n6 -->
<!-- rewrite -->
<g id="n6" class="node">
<title>n6</title>
<polygon fill="none" stroke="#000000" points="159,-125 159,-149 211,-149 211,-125 159,-125"/>
<text text-anchor="start" x="163.9966" y="-132.8" font-family="Serif" font-size="14.00" fill="#000000">rewrite</text>
</g>
<!-- n5&#45;&gt;n6 -->
<!-- Model -->
<g id="e10" class="edge">
<title>n5:s&#45;&gt;n6:n</title>
<path fill="none" stroke="#000000" d="M224,-199C224,-175.8118 201.7162,-174.1716 198.4084,-154.182"/>
<polygon fill="#000000" stroke="#000000" points="200.1375,-153.847 198,-149 196.6483,-154.1221 200.1375,-153.847"/>
<text text-anchor="middle" x="236.0654" y="-169.8" font-family="Serif" font-size="14.00" fill="#000000">Model</text>
</g>
<!-- n6&#45;&gt;n4 -->
<!-- Model -->
<g id="e11" class="edge">
<title>n6:s&#45;&gt;n4:n</title>
<path fill="none" stroke="#000000" d="M198,-125C198,-104.6875 198,-98.3002 198,-80.3811"/>
<polygon fill="#000000" stroke="#000000" points="199.7501,-80 198,-75 196.2501,-80 199.7501,-80"/>
<text text-anchor="middle" x="217.0654" y="-95.8" font-family="Serif" font-size="14.00" fill="#000000">Model</text>
</g>
<!-- n7&#45;&gt;n8 -->
<!-- Model -->
<g id="e12" class="edge">
<title>n7:s&#45;&gt;n8:n</title>
<path fill="none" stroke="#000000" d="M349,-347C349,-311.3922 287.7309,-332.1324 281.5083,-302.2474"/>
<polygon fill="#000000" stroke="#000000" points="283.224,-301.808 281,-297 279.7403,-302.1455 283.224,-301.808"/>
<text text-anchor="middle" x="356.0654" y="-317.8" font-family="Serif" font-size="14.00" fill="#000000">Model</text>
</g>
<!-- n8&#45;&gt;n5 -->
<!-- Model -->
<g id="e13" class="edge">
<title>n8:s&#45;&gt;n5:n</title>
<path fill="none" stroke="#000000" d="M281,-273C281,-241.1442 230.0639,-254.9487 224.4928,-228.087"/>
<polygon fill="#000000" stroke="#000000" points="226.224,-227.8079 224,-223 222.7403,-228.1455 226.224,-227.8079"/>
<text text-anchor="middle" x="289.0654" y="-243.8" font-family="Serif" font-size="14.00" fill="#000000">Model</text>
</g>
<!-- n9&#45;&gt;n6 -->
<!-- Rule -->
<g id="e14" class="edge">
<title>n9:s&#45;&gt;n6:n</title>
<path fill="none" stroke="#000000" d="M91,-347C91,-253.6852 169.022,-244.4 171.9174,-154.2035"/>
<polygon fill="#000000" stroke="#000000" points="173.6703,-154.0272 172,-149 170.1707,-153.9716 173.6703,-154.0272"/>
<text text-anchor="middle" x="150.3965" y="-243.8" font-family="Serif" font-size="14.00" fill="#000000">Rule</text>
</g>
</g>
</svg>
