<?xml version="1.0" encoding="UTF-8" standalone="no"?>
<!DOCTYPE svg PUBLIC "-//W3C//DTD SVG 1.1//EN"
 "http://www.w3.org/Graphics/SVG/1.1/DTD/svg11.dtd">
<!-- Generated by graphviz version 2.40.1 (20161225.0304)
 -->
<!-- Title: G Pages: 1 -->
<svg width="415pt" height="208pt"
 viewBox="0.00 0.00 415.13 208.00" xmlns="http://www.w3.org/2000/svg" xmlns:xlink="http://www.w3.org/1999/xlink">
<g id="graph0" class="graph" transform="scale(1 1) rotate(0) translate(4 204)">
<title>G</title>
<polygon fill="#ffffff" stroke="transparent" points="-4,4 -4,-204 411.1309,-204 411.1309,4 -4,4"/>
<!-- n1p1 -->
<!-- n1p2 -->
<!-- n1p1&#45;&gt;n1p2 -->
<!-- n5 -->
<!-- id -->
<g id="n5" class="node">
<title>n5</title>
<polygon fill="none" stroke="#000000" points="0,-125 0,-149 24,-149 24,-125 0,-125"/>
<text text-anchor="start" x="6.5518" y="-132.8" font-family="Serif" font-size="14.00" fill="#000000">id</text>
</g>
<!-- n1p1&#45;&gt;n5 -->
<!-- Model -->
<g id="e2" class="edge">
<title>n1p1:s&#45;&gt;n5:n</title>
<path fill="none" stroke="#000000" d="M13,-199C13,-178.6834 12.1645,-172.3032 12.0209,-154.3819"/>
<polygon fill="#000000" stroke="#000000" points="13.7695,-153.9931 12,-149 10.2695,-154.0068 13.7695,-153.9931"/>
<text text-anchor="middle" x="32.0654" y="-169.8" font-family="Serif" font-size="14.00" fill="#000000">Model</text>
</g>
<!-- n1p3 -->
<!-- n1p2&#45;&gt;n1p3 -->
<!-- n7 -->
<!-- id -->
<g id="n7" class="node">
<title>n7</title>
<polygon fill="none" stroke="#000000" points="61,-125 61,-149 85,-149 85,-125 61,-125"/>
<text text-anchor="start" x="67.5518" y="-132.8" font-family="Serif" font-size="14.00" fill="#000000">id</text>
</g>
<!-- n1p2&#45;&gt;n7 -->
<!-- Model -->
<g id="e7" class="edge">
<title>n1p2:s&#45;&gt;n7:n</title>
<path fill="none" stroke="#000000" d="M73,-199C73,-178.6875 73,-172.3002 73,-154.3811"/>
<polygon fill="#000000" stroke="#000000" points="74.7501,-154 73,-149 71.2501,-154 74.7501,-154"/>
<text text-anchor="middle" x="92.0654" y="-169.8" font-family="Serif" font-size="14.00" fill="#000000">Model</text>
</g>
<!-- n1p4 -->
<!-- n1p3&#45;&gt;n1p4 -->
<!-- n3 -->
<!-- id -->
<g id="n3" class="node">
<title>n3</title>
<polygon fill="none" stroke="#000000" points="122,-125 122,-149 146,-149 146,-125 122,-125"/>
<text text-anchor="start" x="128.5518" y="-132.8" font-family="Serif" font-size="14.00" fill="#000000">id</text>
</g>
<!-- n1p3&#45;&gt;n3 -->
<!-- Model -->
<g id="e1" class="edge">
<title>n1p3:s&#45;&gt;n3:n</title>
<path fill="none" stroke="#000000" d="M134,-199C134,-178.6875 134,-172.3002 134,-154.3811"/>
<polygon fill="#000000" stroke="#000000" points="135.7501,-154 134,-149 132.2501,-154 135.7501,-154"/>
<text text-anchor="middle" x="153.0654" y="-169.8" font-family="Serif" font-size="14.00" fill="#000000">Model</text>
</g>
<!-- n1p5 -->
<!-- n1p4&#45;&gt;n1p5 -->
<!-- n6 -->
<!-- dpor -->
<g id="n6" class="node">
<title>n6</title>
<polygon fill="none" stroke="#000000" points="220,-125 220,-149 316,-149 316,-125 220,-125"/>
<text text-anchor="start" x="253.9897" y="-132.8" font-family="Serif" font-size="14.00" fill="#000000">dpor</text>
</g>
<!-- n1p4&#45;&gt;n6 -->
<!-- Model -->
<g id="e3" class="edge">
<title>n1p4:s&#45;&gt;n6:n</title>
<path fill="none" stroke="#000000" d="M195,-199C195,-182.4894 203.7344,-180.0342 213.8691,-167 219.5322,-159.7167 227.962,-159.882 230.9241,-154.1095"/>
<polygon fill="#000000" stroke="#000000" points="232.6821,-154.2533 232,-149 229.2572,-153.5321 232.6821,-154.2533"/>
<text text-anchor="middle" x="232.0654" y="-169.8" font-family="Serif" font-size="14.00" fill="#000000">Model</text>
</g>
<!-- n1p6 -->
<!-- n1p5&#45;&gt;n1p6 -->
<!-- n1p5&#45;&gt;n6 -->
<!-- Model -->
<g id="e4" class="edge">
<title>n1p5:s&#45;&gt;n6:n</title>
<path fill="none" stroke="#000000" d="M256,-199C256,-178.6875 256,-172.3002 256,-154.3811"/>
<polygon fill="#000000" stroke="#000000" points="257.7501,-154 256,-149 254.2501,-154 257.7501,-154"/>
<text text-anchor="middle" x="275.0654" y="-169.8" font-family="Serif" font-size="14.00" fill="#000000">Model</text>
</g>
<!-- n1p7 -->
<!-- n1p6&#45;&gt;n1p7 -->
<!-- n1p6&#45;&gt;n6 -->
<!-- Model -->
<g id="e5" class="edge">
<title>n1p6:s&#45;&gt;n6:n</title>
<path fill="none" stroke="#000000" d="M317,-199C317,-181.7409 305.4245,-180.7552 295,-167 289.9878,-160.3863 283.4386,-159.4958 280.9849,-154.1373"/>
<polygon fill="#000000" stroke="#000000" points="282.6602,-153.5811 280,-149 279.2228,-154.2401 282.6602,-153.5811"/>
<text text-anchor="middle" x="327.0654" y="-169.8" font-family="Serif" font-size="14.00" fill="#000000">Model</text>
</g>
<!-- n1p7&#45;&gt;n6 -->
<!-- Model -->
<g id="e6" class="edge">
<title>n1p7:s&#45;&gt;n6:n</title>
<path fill="none" stroke="#000000" d="M377,-199C377,-180.3916 365.1291,-177.8343 350,-167 333.8242,-155.4162 309.1877,-168.0754 304.7106,-154.2106"/>
<polygon fill="#000000" stroke="#000000" points="306.4096,-153.7177 304,-149 302.9417,-154.1906 306.4096,-153.7177"/>
<text text-anchor="middle" x="388.0654" y="-169.8" font-family="Serif" font-size="14.00" fill="#000000">Model</text>
</g>
<!-- n2p1 -->
<!-- n4 -->
<!-- dpor -->
<g id="n4" class="node">
<title>n4</title>
<polygon fill="none" stroke="#000000" points="55,-51 55,-75 151,-75 151,-51 55,-51"/>
<text text-anchor="start" x="88.9897" y="-58.8" font-family="Serif" font-size="14.00" fill="#000000">dpor</text>
</g>
<!-- n3&#45;&gt;n4 -->
<!-- Model -->
<g id="e8" class="edge">
<title>n3:s&#45;&gt;n4:n</title>
<path fill="none" stroke="#000000" d="M134,-125C134,-103.0846 117.8528,-99.2863 115.3298,-80.2017"/>
<polygon fill="#000000" stroke="#000000" points="117.0629,-79.8792 115,-75 113.57,-80.1007 117.0629,-79.8792"/>
<text text-anchor="middle" x="147.0654" y="-95.8" font-family="Serif" font-size="14.00" fill="#000000">Model</text>
</g>
<!-- n4&#45;&gt;n2p1 -->
<!-- Model -->
<g id="e9" class="edge">
<title>n4:s&#45;&gt;n2p1:n</title>
<path fill="none" stroke="#000000" d="M103,-51C103,-30.6875 103,-24.3002 103,-6.3811"/>
<polygon fill="#000000" stroke="#000000" points="104.7501,-6 103,-1 101.2501,-6 104.7501,-6"/>
<text text-anchor="middle" x="122.0654" y="-21.8" font-family="Serif" font-size="14.00" fill="#000000">Model</text>
</g>
<!-- n5&#45;&gt;n4 -->
<!-- Model -->
<g id="e10" class="edge">
<title>n5:s&#45;&gt;n4:n</title>
<path fill="none" stroke="#000000" d="M12,-125C12,-108.7106 18.0223,-104.1802 29.8691,-93 41.7481,-81.7895 61.9203,-90.817 66.1909,-79.9698"/>
<polygon fill="#000000" stroke="#000000" points="67.9238,-80.2163 67,-75 64.4692,-79.6538 67.9238,-80.2163"/>
<text text-anchor="middle" x="49.0654" y="-95.8" font-family="Serif" font-size="14.00" fill="#000000">Model</text>
</g>
<!-- n6&#45;&gt;n4 -->
<!-- Model -->
<g id="e11" class="edge">
<title>n6:s&#45;&gt;n4:n</title>
<path fill="none" stroke="#000000" d="M268,-125C268,-111.0688 162.0537,-93.9486 142.1888,-79.4195"/>
<polygon fill="#000000" stroke="#000000" points="143.3448,-78.0308 139,-75 140.5065,-80.0787 143.3448,-78.0308"/>
<text text-anchor="middle" x="245.0654" y="-95.8" font-family="Serif" font-size="14.00" fill="#000000">Model</text>
</g>
<!-- n7&#45;&gt;n4 -->
<!-- Model -->
<g id="e12" class="edge">
<title>n7:s&#45;&gt;n4:n</title>
<path fill="none" stroke="#000000" d="M73,-125C73,-110.7725 68.4086,-106.1379 73.8691,-93 77.3131,-84.714 86.4697,-85.3007 89.7823,-79.8883"/>
<polygon fill="#000000" stroke="#000000" points="91.4894,-80.2748 91,-75 88.0932,-79.4287 91.4894,-80.2748"/>
<text text-anchor="middle" x="93.0654" y="-95.8" font-family="Serif" font-size="14.00" fill="#000000">Model</text>
</g>
</g>
</svg>
