<?xml version="1.0" encoding="UTF-8" standalone="no"?>
<!DOCTYPE svg PUBLIC "-//W3C//DTD SVG 1.1//EN"
 "http://www.w3.org/Graphics/SVG/1.1/DTD/svg11.dtd">
<!-- Generated by graphviz version 2.40.1 (20161225.0304)
 -->
<!-- Title: G Pages: 1 -->
<svg width="235pt" height="208pt"
 viewBox="0.00 0.00 235.13 208.00" xmlns="http://www.w3.org/2000/svg" xmlns:xlink="http://www.w3.org/1999/xlink">
<g id="graph0" class="graph" transform="scale(1 1) rotate(0) translate(4 204)">
<title>G</title>
<polygon fill="#ffffff" stroke="transparent" points="-4,4 -4,-204 231.1309,-204 231.1309,4 -4,4"/>
<!-- n1p1 -->
<!-- n1p2 -->
<!-- n1p1&#45;&gt;n1p2 -->
<!-- n5 -->
<!-- construct -->
<g id="n5" class="node">
<title>n5</title>
<polygon fill="none" stroke="#000000" points="50,-125 50,-149 122,-149 122,-125 50,-125"/>
<text text-anchor="start" x="57.6001" y="-132.8" font-family="Serif" font-size="14.00" fill="#000000">construct</text>
</g>
<!-- n1p1&#45;&gt;n5 -->
<!-- Model -->
<g id="e2" class="edge">
<title>n1p1:s&#45;&gt;n5:n</title>
<path fill="none" stroke="#000000" d="M12,-199C12,-182.9226 17.5722,-178.4395 28.8691,-167 39.1722,-156.5669 56.8107,-163.4406 61.0594,-154.0957"/>
<polygon fill="#000000" stroke="#000000" points="62.8132,-154.2346 62,-149 59.3714,-153.5992 62.8132,-154.2346"/>
<text text-anchor="middle" x="48.0654" y="-169.8" font-family="Serif" font-size="14.00" fill="#000000">Model</text>
</g>
<!-- n1p3 -->
<!-- n1p2&#45;&gt;n1p3 -->
<!-- n1p2&#45;&gt;n5 -->
<!-- Model -->
<g id="e3" class="edge">
<title>n1p2:s&#45;&gt;n5:n</title>
<path fill="none" stroke="#000000" d="M72,-199C72,-184.7725 68.2763,-180.4658 72.8691,-167 75.3665,-159.6779 81.9762,-158.8542 84.7484,-154.1224"/>
<polygon fill="#000000" stroke="#000000" points="86.5131,-154.2725 86,-149 83.1132,-153.4417 86.5131,-154.2725"/>
<text text-anchor="middle" x="92.0654" y="-169.8" font-family="Serif" font-size="14.00" fill="#000000">Model</text>
</g>
<!-- n1p4 -->
<!-- n1p3&#45;&gt;n1p4 -->
<!-- n1p3&#45;&gt;n5 -->
<!-- Model -->
<g id="e4" class="edge">
<title>n1p3:s&#45;&gt;n5:n</title>
<path fill="none" stroke="#000000" d="M133,-199C133,-176.4504 113.4534,-173.7719 110.3992,-154.3271"/>
<polygon fill="#000000" stroke="#000000" points="112.1188,-153.8552 110,-149 108.6286,-154.1168 112.1188,-153.8552"/>
<text text-anchor="middle" x="145.0654" y="-169.8" font-family="Serif" font-size="14.00" fill="#000000">Model</text>
</g>
<!-- n3 -->
<!-- id -->
<g id="n3" class="node">
<title>n3</title>
<polygon fill="none" stroke="#000000" points="168,-125 168,-149 192,-149 192,-125 168,-125"/>
<text text-anchor="start" x="174.5518" y="-132.8" font-family="Serif" font-size="14.00" fill="#000000">id</text>
</g>
<!-- n1p4&#45;&gt;n3 -->
<!-- Model -->
<g id="e1" class="edge">
<title>n1p4:s&#45;&gt;n3:n</title>
<path fill="none" stroke="#000000" d="M193,-199C193,-177.8328 181.9519,-172.7135 180.2256,-154.0537"/>
<polygon fill="#000000" stroke="#000000" points="181.9714,-153.9169 180,-149 178.4749,-154.0731 181.9714,-153.9169"/>
<text text-anchor="middle" x="208.0654" y="-169.8" font-family="Serif" font-size="14.00" fill="#000000">Model</text>
</g>
<!-- n2p1 -->
<!-- n2p2 -->
<!-- n2p1&#45;&gt;n2p2 -->
<!-- n4 -->
<!-- rewrite -->
<g id="n4" class="node">
<title>n4</title>
<polygon fill="none" stroke="#000000" points="93,-51 93,-75 145,-75 145,-51 93,-51"/>
<text text-anchor="start" x="97.9966" y="-58.8" font-family="Serif" font-size="14.00" fill="#000000">rewrite</text>
</g>
<!-- n3&#45;&gt;n4 -->
<!-- Model -->
<g id="e5" class="edge">
<title>n3:s&#45;&gt;n4:n</title>
<path fill="none" stroke="#000000" d="M180,-125C180,-96.0001 137.4602,-104.59 132.4751,-79.9951"/>
<polygon fill="#000000" stroke="#000000" points="134.2156,-79.8118 132,-75 130.7314,-80.1433 134.2156,-79.8118"/>
<text text-anchor="middle" x="188.0654" y="-95.8" font-family="Serif" font-size="14.00" fill="#000000">Model</text>
</g>
<!-- n4&#45;&gt;n2p1 -->
<!-- Model -->
<g id="e6" class="edge">
<title>n4:s&#45;&gt;n2p1:n</title>
<path fill="none" stroke="#000000" d="M106,-51C106,-40.2576 93.8429,-42.9803 89.8691,-33 85.3051,-21.5373 88.0032,-16.59 88.8004,-6.1998"/>
<polygon fill="#000000" stroke="#000000" points="90.5568,-6.0635 89,-1 87.0594,-5.9292 90.5568,-6.0635"/>
<text text-anchor="middle" x="109.0654" y="-21.8" font-family="Serif" font-size="14.00" fill="#000000">Model</text>
</g>
<!-- n4&#45;&gt;n2p2 -->
<!-- Model -->
<g id="e7" class="edge">
<title>n4:s&#45;&gt;n2p2:n</title>
<path fill="none" stroke="#000000" d="M132,-51C132,-29.3622 146.4475,-25.0738 148.7049,-6.1468"/>
<polygon fill="#000000" stroke="#000000" points="150.4609,-6.092 149,-1 146.9666,-5.8916 150.4609,-6.092"/>
<text text-anchor="middle" x="163.0654" y="-21.8" font-family="Serif" font-size="14.00" fill="#000000">Model</text>
</g>
<!-- n5&#45;&gt;n4 -->
<!-- Rule -->
<g id="e8" class="edge">
<title>n5:s&#45;&gt;n4:n</title>
<path fill="none" stroke="#000000" d="M86,-125C86,-109.9308 91.3994,-106.9051 97.207,-93 99.8342,-86.7098 103.5928,-84.7193 105.2103,-80.1359"/>
<polygon fill="#000000" stroke="#000000" points="106.9697,-80.2079 106,-75 103.5104,-79.6759 106.9697,-80.2079"/>
<text text-anchor="middle" x="112.3965" y="-95.8" font-family="Serif" font-size="14.00" fill="#000000">Rule</text>
</g>
</g>
</svg>
