<?xml version="1.0" encoding="UTF-8" standalone="no"?>
<!DOCTYPE svg PUBLIC "-//W3C//DTD SVG 1.1//EN"
 "http://www.w3.org/Graphics/SVG/1.1/DTD/svg11.dtd">
<!-- Generated by graphviz version 2.38.0 (20140413.2041)
 -->
<!-- Title: H Pages: 1 -->
<svg width="717pt" height="247pt"
 viewBox="0.00 0.00 717.00 247.00" xmlns="http://www.w3.org/2000/svg" xmlns:xlink="http://www.w3.org/1999/xlink">
<g id="graph0" class="graph" transform="scale(1 1) rotate(0) translate(4 243)">
<title>H</title>
<polygon fill="white" stroke="none" points="-4,4 -4,-243 713,-243 713,4 -4,4"/>
<g id="clust1" class="cluster"><title>cluster_1</title>
<polygon fill="none" stroke="black" points="8,-48 8,-231 338,-231 338,-48 8,-48"/>
<text text-anchor="middle" x="173" y="-215.8" font-family="Times,serif" font-size="14.00">Extraction</text>
</g>
<g id="clust2" class="cluster"><title>cluster_2</title>
<polygon fill="none" stroke="black" points="359,-8 359,-159 570,-159 570,-8 359,-8"/>
<text text-anchor="middle" x="464.5" y="-143.8" font-family="Times,serif" font-size="14.00">Model Creation</text>
</g>
<g id="clust4" class="cluster"><title>cluster_3</title>
<polygon fill="none" stroke="black" points="591,-9 591,-158 701,-158 701,-9 591,-9"/>
<text text-anchor="middle" x="646" y="-142.8" font-family="Times,serif" font-size="14.00">Solving</text>
</g>
<!-- a -->
<g id="node1" class="node"><title>a</title>
<polygon fill="#5dade2" stroke="#5dade2" points="16,-72.5 16,-141.5 131,-141.5 131,-72.5 16,-72.5"/>
<text text-anchor="middle" x="73.5" y="-126.3" font-family="Times,serif" font-size="14.00">literature</text>
<polyline fill="none" stroke="#5dade2" points="16,-118.5 131,-118.5 "/>
<text text-anchor="middle" x="73.5" y="-103.3" font-family="Times,serif" font-size="14.00">code</text>
<polyline fill="none" stroke="#5dade2" points="16,-95.5 131,-95.5 "/>
<text text-anchor="middle" x="73.5" y="-80.3" font-family="Times,serif" font-size="14.00">documetation</text>
</g>
<!-- b -->
<g id="node2" class="node"><title>b</title>
<polygon fill="#5dade2" stroke="#5dade2" points="307.5,-200 253.5,-200 253.5,-164 307.5,-164 307.5,-200"/>
<text text-anchor="middle" x="280.5" y="-178.3" font-family="Times,serif" font-size="14.00">rules</text>
</g>
<!-- a&#45;&gt;b -->
<g id="edge1" class="edge"><title>a&#45;&gt;b</title>
<path fill="none" stroke="black" d="M131.188,-132.849C137.166,-135.353 143.184,-137.783 149,-140 180.553,-152.027 217.214,-163.623 243.63,-171.572"/>
<polygon fill="black" stroke="black" points="242.638,-174.928 253.221,-174.433 244.639,-168.22 242.638,-174.928"/>
<text text-anchor="middle" x="181" y="-165.8" font-family="Times,serif" font-size="14.00">text</text>
</g>
<!-- c -->
<g id="node3" class="node"><title>c</title>
<polygon fill="#5dade2" stroke="#5dade2" points="330,-146 231,-146 231,-110 330,-110 330,-146"/>
<text text-anchor="middle" x="280.5" y="-124.3" font-family="Times,serif" font-size="14.00">parameters</text>
</g>
<!-- a&#45;&gt;c -->
<g id="edge2" class="edge"><title>a&#45;&gt;c</title>
<path fill="none" stroke="black" d="M131.06,-112.794C158.925,-115.648 192.502,-119.088 220.668,-121.973"/>
<polygon fill="black" stroke="black" points="220.475,-125.472 230.78,-123.009 221.189,-118.508 220.475,-125.472"/>
<text text-anchor="middle" x="181" y="-124.8" font-family="Times,serif" font-size="14.00">data</text>
</g>
<!-- d -->
<g id="node4" class="node"><title>d</title>
<polygon fill="#5dade2" stroke="#5dade2" points="322,-92 239,-92 239,-56 322,-56 322,-92"/>
<text text-anchor="middle" x="280.5" y="-70.3" font-family="Times,serif" font-size="14.00">functions</text>
</g>
<!-- a&#45;&gt;d -->
<g id="edge3" class="edge"><title>a&#45;&gt;d</title>
<path fill="none" stroke="black" d="M131.06,-97.8952C161.592,-92.9803 198.981,-86.9617 228.596,-82.1943"/>
<polygon fill="black" stroke="black" points="229.406,-85.609 238.723,-80.5641 228.294,-78.698 229.406,-85.609"/>
<text text-anchor="middle" x="181" y="-98.8" font-family="Times,serif" font-size="14.00">formulas</text>
</g>
<!-- h -->
<g id="node5" class="node"><title>h</title>
<polygon fill="lightblue" stroke="lightblue" points="463,-54 369,-54 369,-16 463,-16 463,-54"/>
<text text-anchor="middle" x="416" y="-38.8" font-family="Times,serif" font-size="14.00">knowledge</text>
<text text-anchor="middle" x="416" y="-23.8" font-family="Times,serif" font-size="14.00">graph</text>
</g>
<!-- a&#45;&gt;h -->
<g id="edge12" class="edge"><title>a&#45;&gt;h</title>
<path fill="none" stroke="black" d="M131.196,-80.5164C160.371,-68.1212 196.89,-54.4707 231,-47 273.161,-37.766 321.949,-34.9299 358.689,-34.3139"/>
<polygon fill="black" stroke="black" points="358.759,-37.8134 368.717,-34.1955 358.676,-30.8139 358.759,-37.8134"/>
</g>
<!-- e -->
<g id="node6" class="node"><title>e</title>
<polygon fill="lightblue" stroke="lightblue" points="465,-128 367,-128 367,-90 465,-90 465,-128"/>
<text text-anchor="middle" x="416" y="-112.8" font-family="Times,serif" font-size="14.00">model</text>
<text text-anchor="middle" x="416" y="-97.8" font-family="Times,serif" font-size="14.00">constraints</text>
</g>
<!-- b&#45;&gt;e -->
<g id="edge7" class="edge"><title>b&#45;&gt;e</title>
<path fill="none" stroke="black" d="M307.629,-170.132C317.272,-165.59 328.227,-160.24 338,-155 350.467,-148.316 363.782,-140.583 375.774,-133.387"/>
<polygon fill="black" stroke="black" points="377.907,-136.188 384.65,-128.016 374.282,-130.199 377.907,-136.188"/>
</g>
<!-- c&#45;&gt;e -->
<g id="edge8" class="edge"><title>c&#45;&gt;e</title>
<path fill="none" stroke="black" d="M330.074,-121.087C338.741,-119.853 347.85,-118.557 356.754,-117.29"/>
<polygon fill="black" stroke="black" points="357.278,-120.75 366.685,-115.876 356.292,-113.82 357.278,-120.75"/>
</g>
<!-- d&#45;&gt;e -->
<g id="edge9" class="edge"><title>d&#45;&gt;e</title>
<path fill="none" stroke="black" d="M322.28,-84.6913C333.302,-87.5812 345.445,-90.7645 357.209,-93.8487"/>
<polygon fill="black" stroke="black" points="356.408,-97.257 366.968,-96.4075 358.183,-90.4858 356.408,-97.257"/>
</g>
<!-- h&#45;&gt;e -->
<g id="edge11" class="edge"><title>h&#45;&gt;e</title>
<path fill="none" stroke="black" d="M416,-54.0781C416,-62.6105 416,-71.1429 416,-79.6753"/>
<polygon fill="black" stroke="black" points="412.5,-79.6915 416,-89.6915 419.5,-79.6916 412.5,-79.6915"/>
</g>
<!-- i -->
<g id="node8" class="node"><title>i</title>
<polygon fill="#48c9b0" stroke="#48c9b0" points="676,-53 616,-53 616,-17 676,-17 676,-53"/>
<text text-anchor="middle" x="646" y="-31.3" font-family="Times,serif" font-size="14.00">solver</text>
</g>
<!-- h&#45;&gt;i -->
<g id="edge10" class="edge"><title>h&#45;&gt;i</title>
<path fill="none" stroke="black" d="M463.139,-35C505.065,-35 566.245,-35 605.841,-35"/>
<polygon fill="black" stroke="black" points="605.91,-38.5001 615.91,-35 605.91,-31.5001 605.91,-38.5001"/>
</g>
<!-- f -->
<g id="node7" class="node"><title>f</title>
<polygon fill="lightblue" stroke="lightblue" points="562,-127 502,-127 502,-89 562,-89 562,-127"/>
<text text-anchor="middle" x="532" y="-111.8" font-family="Times,serif" font-size="14.00">likely</text>
<text text-anchor="middle" x="532" y="-96.8" font-family="Times,serif" font-size="14.00">model</text>
</g>
<!-- e&#45;&gt;f -->
<g id="edge4" class="edge"><title>e&#45;&gt;f</title>
<path fill="none" stroke="black" d="M465.016,-108.579C473.928,-108.501 483.14,-108.42 491.752,-108.344"/>
<polygon fill="black" stroke="black" points="491.929,-111.843 501.898,-108.255 491.867,-104.843 491.929,-111.843"/>
</g>
<!-- g -->
<g id="node9" class="node"><title>g</title>
<polygon fill="#48c9b0" stroke="#48c9b0" points="693,-127 599,-127 599,-89 693,-89 693,-127"/>
<text text-anchor="middle" x="646" y="-111.8" font-family="Times,serif" font-size="14.00">code</text>
<text text-anchor="middle" x="646" y="-96.8" font-family="Times,serif" font-size="14.00">generation</text>
</g>
<!-- f&#45;&gt;g -->
<g id="edge6" class="edge"><title>f&#45;&gt;g</title>
<path fill="none" stroke="black" d="M562.134,-108C570.234,-108 579.317,-108 588.42,-108"/>
<polygon fill="black" stroke="black" points="588.655,-111.5 598.655,-108 588.655,-104.5 588.655,-111.5"/>
</g>
<!-- i&#45;&gt;g -->
<g id="edge5" class="edge"><title>i&#45;&gt;g</title>
<path fill="none" stroke="black" d="M646,-53.25C646,-61.6632 646,-70.0764 646,-78.4897"/>
<polygon fill="black" stroke="black" points="642.5,-78.7519 646,-88.752 649.5,-78.752 642.5,-78.7519"/>
</g>
</g>
</svg>
