<?xml version="1.0" encoding="UTF-8" standalone="no"?>
<!DOCTYPE svg PUBLIC "-//W3C//DTD SVG 1.1//EN"
 "http://www.w3.org/Graphics/SVG/1.1/DTD/svg11.dtd">
<!-- Generated by graphviz version 2.43.20190912.0211 (20190912.0211)
 -->
<!-- Title: G Pages: 1 -->
<svg width="397pt" height="199pt"
 viewBox="0.00 0.00 397.19 199.00" xmlns="http://www.w3.org/2000/svg" xmlns:xlink="http://www.w3.org/1999/xlink">
<g id="graph0" class="graph" transform="scale(1 1) rotate(0) translate(4 195)">
<title>G</title>
<polygon fill="white" stroke="transparent" points="-4,4 -4,-195 393.19,-195 393.19,4 -4,4"/>
<!-- X₁ -->
<g id="node1" class="node">
<title>X₁</title>
<ellipse fill="#1c86ee" stroke="#1c86ee" cx="72.8" cy="-23.5" rx="20.6" ry="20.6"/>
<text text-anchor="middle" x="72.8" y="-19.8" font-family="Times,serif" font-size="14.00">X₁</text>
</g>
<!-- T1 -->
<g id="node4" class="node">
<title>T1</title>
<polygon fill="forestgreen" stroke="forestgreen" points="175.6,-69.5 139.6,-69.5 139.6,-33.5 175.6,-33.5 175.6,-69.5"/>
<text text-anchor="middle" x="157.6" y="-47.8" font-family="Times,serif" font-size="14.00">T1</text>
</g>
<!-- X₁&#45;&gt;T1 -->
<g id="edge1" class="edge">
<title>X₁&#45;&gt;T1</title>
<path fill="none" stroke="black" d="M93,-29.99C103.97,-33.7 117.9,-38.41 129.92,-42.48"/>
<polygon fill="black" stroke="black" points="128.87,-45.82 139.47,-45.71 131.11,-39.19 128.87,-45.82"/>
<text text-anchor="middle" x="116.6" y="-43.3" font-family="Times,serif" font-size="14.00">1</text>
</g>
<!-- O1 -->
<g id="node9" class="node">
<title>O1</title>
<polygon fill="white" stroke="transparent" points="168.1,-15 147.1,-15 147.1,0 168.1,0 168.1,-15"/>
<text text-anchor="middle" x="157.6" y="-3.8" font-family="Times,serif" font-size="14.00">O1</text>
</g>
<!-- X₁&#45;&gt;O1 -->
<g id="edge10" class="edge">
<title>X₁&#45;&gt;O1</title>
<path fill="none" stroke="black" stroke-dasharray="5,2" d="M93.42,-19.71C106.57,-17.17 123.82,-13.83 136.97,-11.29"/>
<polygon fill="black" stroke="black" points="137.72,-14.71 146.88,-9.38 136.39,-7.84 137.72,-14.71"/>
</g>
<!-- X₂ -->
<g id="node2" class="node">
<title>X₂</title>
<ellipse fill="#1c86ee" stroke="#1c86ee" cx="264.39" cy="-168.5" rx="20.6" ry="20.6"/>
<text text-anchor="middle" x="264.39" y="-164.8" font-family="Times,serif" font-size="14.00">X₂</text>
</g>
<!-- T2 -->
<g id="node5" class="node">
<title>T2</title>
<polygon fill="forestgreen" stroke="forestgreen" points="389.19,-133.5 353.19,-133.5 353.19,-97.5 389.19,-97.5 389.19,-133.5"/>
<text text-anchor="middle" x="371.19" y="-111.8" font-family="Times,serif" font-size="14.00">T2</text>
</g>
<!-- X₂&#45;&gt;T2 -->
<g id="edge4" class="edge">
<title>X₂&#45;&gt;T2</title>
<path fill="none" stroke="black" d="M283.17,-159.51C299.86,-151.07 325.02,-138.34 344,-128.74"/>
<polygon fill="black" stroke="black" points="345.68,-131.82 353.02,-124.18 342.52,-125.57 345.68,-131.82"/>
<text text-anchor="middle" x="319.19" y="-151.3" font-family="Times,serif" font-size="14.00">1</text>
</g>
<!-- O2 -->
<g id="node10" class="node">
<title>O2</title>
<polygon fill="white" stroke="transparent" points="381.69,-191 360.69,-191 360.69,-176 381.69,-176 381.69,-191"/>
<text text-anchor="middle" x="371.19" y="-179.8" font-family="Times,serif" font-size="14.00">O2</text>
</g>
<!-- X₂&#45;&gt;O2 -->
<g id="edge11" class="edge">
<title>X₂&#45;&gt;O2</title>
<path fill="none" stroke="black" stroke-dasharray="5,2" d="M285.11,-171.32C303.85,-174 331.89,-178.02 350.6,-180.7"/>
<polygon fill="black" stroke="black" points="350.24,-184.18 360.64,-182.13 351.23,-177.25 350.24,-184.18"/>
</g>
<!-- X₃ -->
<g id="node3" class="node">
<title>X₃</title>
<ellipse fill="#1c86ee" stroke="#1c86ee" cx="264.39" cy="-77.5" rx="20.6" ry="20.6"/>
<text text-anchor="middle" x="264.39" y="-73.8" font-family="Times,serif" font-size="14.00">X₃</text>
</g>
<!-- X₃&#45;&gt;T1 -->
<g id="edge2" class="edge">
<title>X₃&#45;&gt;T1</title>
<path fill="none" stroke="black" d="M251.36,-60.79C244.74,-53.05 235.8,-44.66 225.6,-40.5 212.98,-35.35 198.09,-37.1 185.56,-40.56"/>
<polygon fill="black" stroke="black" points="184.12,-37.35 175.68,-43.76 186.28,-44.01 184.12,-37.35"/>
<text text-anchor="middle" x="209.6" y="-44.3" font-family="Times,serif" font-size="14.00">1</text>
</g>
<!-- X₃&#45;&gt;T2 -->
<g id="edge5" class="edge">
<title>X₃&#45;&gt;T2</title>
<path fill="none" stroke="black" d="M283.73,-85.62C289.87,-88.25 296.79,-91.1 303.19,-93.5 316.27,-98.4 330.99,-103.31 343.3,-107.23"/>
<polygon fill="black" stroke="black" points="342.39,-110.62 352.98,-110.28 344.5,-103.94 342.39,-110.62"/>
<text text-anchor="middle" x="319.19" y="-108.3" font-family="Times,serif" font-size="14.00">1</text>
</g>
<!-- O3 -->
<g id="node11" class="node">
<title>O3</title>
<polygon fill="white" stroke="transparent" points="381.69,-52 360.69,-52 360.69,-37 381.69,-37 381.69,-52"/>
<text text-anchor="middle" x="371.19" y="-40.8" font-family="Times,serif" font-size="14.00">O3</text>
</g>
<!-- X₃&#45;&gt;O3 -->
<g id="edge12" class="edge">
<title>X₃&#45;&gt;O3</title>
<path fill="none" stroke="black" stroke-dasharray="5,2" d="M283.05,-67.43C289.27,-64.21 296.4,-60.87 303.19,-58.5 318.62,-53.11 336.8,-49.48 350.33,-47.26"/>
<polygon fill="black" stroke="black" points="351.08,-50.69 360.44,-45.73 350.03,-43.77 351.08,-50.69"/>
</g>
<!-- T1&#45;&gt;X₃ -->
<g id="edge3" class="edge">
<title>T1&#45;&gt;X₃</title>
<path fill="none" stroke="black" d="M175.9,-55.79C191.7,-59.71 215.36,-65.58 234.1,-70.23"/>
<polygon fill="black" stroke="black" points="233.38,-73.66 243.92,-72.67 235.06,-66.86 233.38,-73.66"/>
<text text-anchor="middle" x="209.6" y="-72.3" font-family="Times,serif" font-size="14.00">1.15</text>
</g>
<!-- T2&#45;&gt;X₃ -->
<g id="edge6" class="edge">
<title>T2&#45;&gt;X₃</title>
<path fill="none" stroke="black" d="M359.99,-97.49C354,-88.82 345.56,-79.28 335.19,-74.5 322.68,-68.73 307.52,-68.67 294.54,-70.39"/>
<polygon fill="black" stroke="black" points="293.94,-66.94 284.68,-72.08 295.12,-73.84 293.94,-66.94"/>
<text text-anchor="middle" x="319.19" y="-78.3" font-family="Times,serif" font-size="14.00">1.15</text>
</g>
<!-- I1 -->
<g id="node6" class="node">
<title>I1</title>
<polygon fill="white" stroke="transparent" points="15,-31 0,-31 0,-16 15,-16 15,-31"/>
<text text-anchor="middle" x="7.5" y="-19.8" font-family="Times,serif" font-size="14.00">I1</text>
</g>
<!-- I1&#45;&gt;X₁ -->
<g id="edge7" class="edge">
<title>I1&#45;&gt;X₁</title>
<path fill="none" stroke="black" stroke-dasharray="5,2" d="M15.27,-23.5C21.71,-23.5 31.86,-23.5 41.79,-23.5"/>
<polygon fill="black" stroke="black" points="41.9,-27 51.9,-23.5 41.9,-20 41.9,-27"/>
</g>
<!-- I2 -->
<g id="node7" class="node">
<title>I2</title>
<polygon fill="white" stroke="transparent" points="165.1,-176 150.1,-176 150.1,-161 165.1,-161 165.1,-176"/>
<text text-anchor="middle" x="157.6" y="-164.8" font-family="Times,serif" font-size="14.00">I2</text>
</g>
<!-- I2&#45;&gt;X₂ -->
<g id="edge8" class="edge">
<title>I2&#45;&gt;X₂</title>
<path fill="none" stroke="black" stroke-dasharray="5,2" d="M165.15,-168.5C178.52,-168.5 209.66,-168.5 233.33,-168.5"/>
<polygon fill="black" stroke="black" points="233.58,-172 243.58,-168.5 233.58,-165 233.58,-172"/>
</g>
<!-- I3 -->
<g id="node8" class="node">
<title>I3</title>
<polygon fill="white" stroke="transparent" points="165.1,-115 150.1,-115 150.1,-100 165.1,-100 165.1,-115"/>
<text text-anchor="middle" x="157.6" y="-103.8" font-family="Times,serif" font-size="14.00">I3</text>
</g>
<!-- I3&#45;&gt;X₃ -->
<g id="edge9" class="edge">
<title>I3&#45;&gt;X₃</title>
<path fill="none" stroke="black" stroke-dasharray="5,2" d="M165.15,-105.62C178.72,-101.74 210.59,-92.62 234.38,-85.81"/>
<polygon fill="black" stroke="black" points="235.35,-89.17 244,-83.05 233.42,-82.44 235.35,-89.17"/>
</g>
</g>
</svg>
