<?xml version="1.0" encoding="UTF-8" standalone="no"?>
<!DOCTYPE svg PUBLIC "-//W3C//DTD SVG 1.1//EN"
 "http://www.w3.org/Graphics/SVG/1.1/DTD/svg11.dtd">
<!-- Generated by graphviz version 2.43.20190912.0211 (20190912.0211)
 -->
<!-- Title: G Pages: 1 -->
<svg width="615pt" height="220pt"
 viewBox="0.00 0.00 615.00 219.50" xmlns="http://www.w3.org/2000/svg" xmlns:xlink="http://www.w3.org/1999/xlink">
<g id="graph0" class="graph" transform="scale(1 1) rotate(0) translate(4 215.5)">
<title>G</title>
<polygon fill="white" stroke="transparent" points="-4,4 -4,-215.5 611,-215.5 611,4 -4,4"/>
<!-- n1p1 -->
<!-- n1p2 -->
<!-- n1p1&#45;&gt;n1p2 -->
<!-- n7 -->
<!-- inf¹³₂₃ -->
<g id="n7" class="node">
<title>n7</title>
<polygon fill="none" stroke="black" points="37,-103.5 37,-175.5 87,-175.5 87,-103.5 37,-103.5"/>
<text text-anchor="start" x="42" y="-135.8" font-family="Serif" font-size="14.00">inf¹³₂₃</text>
</g>
<!-- n1p1&#45;&gt;n7 -->
<!-- X -->
<g id="e2" class="edge">
<title>n1p1:e&#45;&gt;n7:w</title>
<path fill="none" stroke="black" d="M1,-199.5C21.68,-199.5 15.73,-169.42 31.83,-164.25"/>
<polygon fill="black" stroke="black" points="32.3,-165.95 37,-163.5 31.8,-162.49 32.3,-165.95"/>
</g>
<!-- n1p3 -->
<!-- n1p2&#45;&gt;n1p3 -->
<!-- n1p2&#45;&gt;n7 -->
<!-- X -->
<g id="e3" class="edge">
<title>n1p2:e&#45;&gt;n7:w</title>
<path fill="none" stroke="black" d="M1,-157.5C16.93,-157.5 18.85,-143.22 31.72,-140.1"/>
<polygon fill="black" stroke="black" points="32.23,-141.8 37,-139.5 31.83,-138.32 32.23,-141.8"/>
</g>
<!-- n1p4 -->
<!-- n1p3&#45;&gt;n1p4 -->
<!-- n1p3&#45;&gt;n7 -->
<!-- X -->
<g id="e4" class="edge">
<title>n1p3:e&#45;&gt;n7:w</title>
<path fill="none" stroke="black" d="M1,-115.5C15.12,-115.5 19.9,-115.5 31.83,-115.5"/>
<polygon fill="black" stroke="black" points="32,-117.25 37,-115.5 32,-113.75 32,-117.25"/>
</g>
<!-- n1p5 -->
<!-- n1p4&#45;&gt;n1p5 -->
<!-- n8 -->
<!-- inf¹³₂₃ -->
<g id="n8" class="node">
<title>n8</title>
<polygon fill="none" stroke="black" points="123,-61.5 123,-133.5 173,-133.5 173,-61.5 123,-61.5"/>
<text text-anchor="start" x="128" y="-93.8" font-family="Serif" font-size="14.00">inf¹³₂₃</text>
</g>
<!-- n1p4&#45;&gt;n8 -->
<!-- X -->
<g id="e5" class="edge">
<title>n1p4:e&#45;&gt;n8:w</title>
<path fill="none" stroke="black" d="M1,-73.5C40.35,-73.5 51.43,-77.69 87,-94.5 103.39,-102.24 103.21,-118.13 117.92,-121.04"/>
<polygon fill="black" stroke="black" points="117.86,-122.79 123,-121.5 118.18,-119.3 117.86,-122.79"/>
</g>
<!-- n5 -->
<!-- predation -->
<g id="n5" class="node">
<title>n5</title>
<polygon fill="none" stroke="black" points="287,-20.5 287,-68.5 367,-68.5 367,-20.5 287,-20.5"/>
<text text-anchor="start" x="292" y="-40.8" font-family="Serif" font-size="14.00">predation</text>
</g>
<!-- n1p5&#45;&gt;n5 -->
<!-- X -->
<g id="e1" class="edge">
<title>n1p5:e&#45;&gt;n5:w</title>
<path fill="none" stroke="black" d="M1,-31.5C126.37,-31.5 159,-32.47 281.84,-32.5"/>
<polygon fill="black" stroke="black" points="282,-34.25 287,-32.5 282,-30.75 282,-34.25"/>
</g>
<!-- n2p1 -->
<!-- n2p2 -->
<!-- n2p1&#45;&gt;n2p2 -->
<!-- n2p3 -->
<!-- n2p2&#45;&gt;n2p3 -->
<!-- n2p4 -->
<!-- n2p3&#45;&gt;n2p4 -->
<!-- n2p5 -->
<!-- n2p4&#45;&gt;n2p5 -->
<!-- n3 -->
<!-- birth -->
<g id="n3" class="node">
<title>n3</title>
<polygon fill="none" stroke="black" points="521.5,-42.5 521.5,-67.5 567.5,-67.5 567.5,-42.5 521.5,-42.5"/>
<text text-anchor="start" x="526.5" y="-51.3" font-family="Serif" font-size="14.00">birth</text>
</g>
<!-- n3&#45;&gt;n2p4 -->
<!-- X -->
<g id="e6" class="edge">
<title>n3:e&#45;&gt;n2p4:w</title>
<path fill="none" stroke="black" d="M568.5,-54.5C583.34,-54.5 588.27,-54.5 600.95,-54.5"/>
<polygon fill="black" stroke="black" points="601,-56.25 606,-54.5 601,-52.75 601,-56.25"/>
</g>
<!-- n4 -->
<!-- death -->
<g id="n4" class="node">
<title>n4</title>
<polygon fill="none" stroke="black" points="418,-127.5 418,-152.5 469,-152.5 469,-127.5 418,-127.5"/>
<text text-anchor="start" x="423" y="-136.3" font-family="Serif" font-size="14.00">death</text>
</g>
<!-- n4&#45;&gt;n2p2 -->
<!-- X -->
<g id="e7" class="edge">
<title>n4:e&#45;&gt;n2p2:w</title>
<path fill="none" stroke="black" d="M470,-139.5C528.67,-139.5 544.63,-139.5 600.8,-139.5"/>
<polygon fill="black" stroke="black" points="601,-141.25 606,-139.5 601,-137.75 601,-141.25"/>
</g>
<!-- n6 -->
<!-- predation -->
<g id="n6" class="node">
<title>n6</title>
<polygon fill="none" stroke="black" points="403,-19.5 403,-67.5 483,-67.5 483,-19.5 403,-19.5"/>
<text text-anchor="start" x="408" y="-39.8" font-family="Serif" font-size="14.00">predation</text>
</g>
<!-- n5&#45;&gt;n6 -->
<!-- X -->
<g id="e8" class="edge">
<title>n5:e&#45;&gt;n6:w</title>
<path fill="none" stroke="black" d="M367,-32.5C381.13,-32.5 385.89,-31.72 397.83,-31.54"/>
<polygon fill="black" stroke="black" points="398.01,-33.29 403,-31.5 397.99,-29.79 398.01,-33.29"/>
</g>
<!-- n11 -->
<!-- death -->
<g id="n11" class="node">
<title>n11</title>
<polygon fill="none" stroke="black" points="519.5,-85.5 519.5,-110.5 570.5,-110.5 570.5,-85.5 519.5,-85.5"/>
<text text-anchor="start" x="524.5" y="-94.3" font-family="Serif" font-size="14.00">death</text>
</g>
<!-- n5&#45;&gt;n11 -->
<!-- X -->
<g id="e9" class="edge">
<title>n5:e&#45;&gt;n11:w</title>
<path fill="none" stroke="black" d="M367,-56.5C385.3,-56.5 385.76,-70.34 403,-76.5 450.7,-93.54 465.62,-97.26 513.9,-97.49"/>
<polygon fill="black" stroke="black" points="514,-99.24 519,-97.5 514,-95.74 514,-99.24"/>
</g>
<!-- n6&#45;&gt;n3 -->
<!-- X -->
<g id="e10" class="edge">
<title>n6:e&#45;&gt;n3:w</title>
<path fill="none" stroke="black" d="M483,-55.5C497.85,-55.5 502.77,-54.71 515.45,-54.53"/>
<polygon fill="black" stroke="black" points="515.51,-56.28 520.5,-54.5 515.49,-52.78 515.51,-56.28"/>
</g>
<!-- n12 -->
<!-- death -->
<g id="n12" class="node">
<title>n12</title>
<polygon fill="none" stroke="black" points="519.5,0.5 519.5,-24.5 570.5,-24.5 570.5,0.5 519.5,0.5"/>
<text text-anchor="start" x="524.5" y="-8.3" font-family="Serif" font-size="14.00">death</text>
</g>
<!-- n6&#45;&gt;n12 -->
<!-- X -->
<g id="e11" class="edge">
<title>n6:e&#45;&gt;n12:w</title>
<path fill="none" stroke="black" d="M483,-31.5C499.44,-31.5 500.62,-15.36 513.97,-12.08"/>
<polygon fill="black" stroke="black" points="514.23,-13.81 519,-11.5 513.83,-10.33 514.23,-13.81"/>
</g>
<!-- n7&#45;&gt;n8 -->
<!-- X -->
<g id="e12" class="edge">
<title>n7:e&#45;&gt;n8:w</title>
<path fill="none" stroke="black" d="M87,-115.5C102.93,-115.5 104.85,-101.22 117.72,-98.1"/>
<polygon fill="black" stroke="black" points="118.23,-99.8 123,-97.5 117.83,-96.32 118.23,-99.8"/>
</g>
<!-- n7&#45;&gt;n8 -->
<!-- X -->
<g id="e13" class="edge">
<title>n7:e&#45;&gt;n8:w</title>
<path fill="none" stroke="black" d="M87,-139.5C118.46,-139.5 92.98,-81.01 117.76,-74.15"/>
<polygon fill="black" stroke="black" points="118.26,-75.86 123,-73.5 117.82,-72.38 118.26,-75.86"/>
</g>
<!-- n9 -->
<!-- cure -->
<g id="n9" class="node">
<title>n9</title>
<polygon fill="none" stroke="black" points="209,-127.5 209,-175.5 251,-175.5 251,-127.5 209,-127.5"/>
<text text-anchor="start" x="214" y="-147.8" font-family="Serif" font-size="14.00">cure</text>
</g>
<!-- n7&#45;&gt;n9 -->
<!-- X -->
<g id="e14" class="edge">
<title>n7:e&#45;&gt;n9:w</title>
<path fill="none" stroke="black" d="M87,-163.5C139.42,-163.5 153.83,-163.5 203.73,-163.5"/>
<polygon fill="black" stroke="black" points="204,-165.25 209,-163.5 204,-161.75 204,-165.25"/>
</g>
<!-- n8&#45;&gt;n9 -->
<!-- X -->
<g id="e15" class="edge">
<title>n8:e&#45;&gt;n9:w</title>
<path fill="none" stroke="black" d="M173,-73.5C204.46,-73.5 178.98,-131.99 203.76,-138.85"/>
<polygon fill="black" stroke="black" points="203.82,-140.62 209,-139.5 204.26,-137.14 203.82,-140.62"/>
</g>
<!-- n10 -->
<!-- cure -->
<g id="n10" class="node">
<title>n10</title>
<polygon fill="none" stroke="black" points="209,-61.5 209,-109.5 251,-109.5 251,-61.5 209,-61.5"/>
<text text-anchor="start" x="214" y="-81.8" font-family="Serif" font-size="14.00">cure</text>
</g>
<!-- n8&#45;&gt;n10 -->
<!-- X -->
<g id="e16" class="edge">
<title>n8:e&#45;&gt;n10:w</title>
<path fill="none" stroke="black" d="M173,-121.5C190.28,-121.5 190.05,-102.13 203.77,-98.19"/>
<polygon fill="black" stroke="black" points="204.27,-99.89 209,-97.5 203.81,-96.42 204.27,-99.89"/>
</g>
<!-- n8&#45;&gt;n10 -->
<!-- X -->
<g id="e17" class="edge">
<title>n8:e&#45;&gt;n10:w</title>
<path fill="none" stroke="black" d="M173,-97.5C190.28,-97.5 190.05,-78.13 203.77,-74.19"/>
<polygon fill="black" stroke="black" points="204.27,-75.89 209,-73.5 203.81,-72.42 204.27,-75.89"/>
</g>
<!-- n9&#45;&gt;n4 -->
<!-- X -->
<g id="e18" class="edge">
<title>n9:e&#45;&gt;n4:w</title>
<path fill="none" stroke="black" d="M251,-139.5C323.05,-139.5 342.33,-139.5 411.9,-139.5"/>
<polygon fill="black" stroke="black" points="412,-141.25 417,-139.5 412,-137.75 412,-141.25"/>
</g>
<!-- n13 -->
<!-- birth -->
<g id="n13" class="node">
<title>n13</title>
<polygon fill="none" stroke="black" points="304,-168.5 304,-193.5 350,-193.5 350,-168.5 304,-168.5"/>
<text text-anchor="start" x="309" y="-177.3" font-family="Serif" font-size="14.00">birth</text>
</g>
<!-- n9&#45;&gt;n13 -->
<!-- X -->
<g id="e19" class="edge">
<title>n9:e&#45;&gt;n13:w</title>
<path fill="none" stroke="black" d="M251,-163.5C273.51,-163.5 278.07,-178.07 297.92,-180.23"/>
<polygon fill="black" stroke="black" points="297.92,-181.99 303,-180.5 298.1,-178.49 297.92,-181.99"/>
</g>
<!-- n10&#45;&gt;n5 -->
<!-- X -->
<g id="e20" class="edge">
<title>n10:e&#45;&gt;n5:w</title>
<path fill="none" stroke="black" d="M251,-73.5C266.76,-73.5 268.97,-60.02 281.76,-57.07"/>
<polygon fill="black" stroke="black" points="282.22,-58.78 287,-56.5 281.84,-55.3 282.22,-58.78"/>
</g>
<!-- n10&#45;&gt;n6 -->
<!-- X -->
<g id="e21" class="edge">
<title>n10:e&#45;&gt;n6:w</title>
<path fill="none" stroke="black" d="M251,-97.5C303.32,-97.5 318.03,-95.91 367,-77.5 382.77,-71.57 384.13,-58.54 397.84,-55.95"/>
<polygon fill="black" stroke="black" points="398.17,-57.68 403,-55.5 397.87,-54.19 398.17,-57.68"/>
</g>
<!-- n11&#45;&gt;n2p3 -->
<!-- X -->
<g id="e22" class="edge">
<title>n11:e&#45;&gt;n2p3:w</title>
<path fill="none" stroke="black" d="M570,-97.5C584.12,-97.5 588.9,-97.5 600.83,-97.5"/>
<polygon fill="black" stroke="black" points="601,-99.25 606,-97.5 601,-95.75 601,-99.25"/>
</g>
<!-- n12&#45;&gt;n2p5 -->
<!-- X -->
<g id="e23" class="edge">
<title>n12:e&#45;&gt;n2p5:w</title>
<path fill="none" stroke="black" d="M570,-11.5C584.13,-11.5 588.89,-12.28 600.83,-12.46"/>
<polygon fill="black" stroke="black" points="600.99,-14.21 606,-12.5 601.01,-10.71 600.99,-14.21"/>
</g>
<!-- n13&#45;&gt;n2p1 -->
<!-- X -->
<g id="e24" class="edge">
<title>n13:e&#45;&gt;n2p1:w</title>
<path fill="none" stroke="black" d="M351,-180.5C462.56,-180.5 491.76,-181.47 600.75,-181.5"/>
<polygon fill="black" stroke="black" points="601,-183.25 606,-181.5 601,-179.75 601,-183.25"/>
</g>
</g>
</svg>
