<?xml version="1.0" encoding="UTF-8" standalone="no"?>
<!DOCTYPE svg PUBLIC "-//W3C//DTD SVG 1.1//EN"
 "http://www.w3.org/Graphics/SVG/1.1/DTD/svg11.dtd">
<!-- Generated by graphviz version 2.43.20190912.0211 (20190912.0211)
 -->
<!-- Title: G Pages: 1 -->
<svg width="956pt" height="356pt"
 viewBox="0.00 0.00 955.58 355.80" xmlns="http://www.w3.org/2000/svg" xmlns:xlink="http://www.w3.org/1999/xlink">
<g id="graph0" class="graph" transform="scale(1 1) rotate(0) translate(4 351.8)">
<title>G</title>
<polygon fill="white" stroke="transparent" points="-4,4 -4,-351.8 951.58,-351.8 951.58,4 -4,4"/>
<!-- X₁ -->
<g id="node1" class="node">
<title>X₁</title>
<ellipse fill="#1c86ee" stroke="#1c86ee" cx="72.8" cy="-95.8" rx="20.6" ry="20.6"/>
<text text-anchor="middle" x="72.8" y="-92.1" font-family="Times,serif" font-size="14.00">X₁</text>
</g>
<!-- T1 -->
<g id="node9" class="node">
<title>T1</title>
<polygon fill="forestgreen" stroke="forestgreen" points="175.6,-143.8 139.6,-143.8 139.6,-107.8 175.6,-107.8 175.6,-143.8"/>
<text text-anchor="middle" x="157.6" y="-122.1" font-family="Times,serif" font-size="14.00">T1</text>
</g>
<!-- X₁&#45;&gt;T1 -->
<g id="edge1" class="edge">
<title>X₁&#45;&gt;T1</title>
<path fill="none" stroke="black" d="M92.59,-102.61C103.62,-106.6 117.74,-111.72 129.92,-116.13"/>
<polygon fill="black" stroke="black" points="128.98,-119.51 139.57,-119.63 131.36,-112.93 128.98,-119.51"/>
</g>
<!-- T7 -->
<g id="node15" class="node">
<title>T7</title>
<polygon fill="forestgreen" stroke="forestgreen" points="175.6,-89.8 139.6,-89.8 139.6,-53.8 175.6,-53.8 175.6,-89.8"/>
<text text-anchor="middle" x="157.6" y="-68.1" font-family="Times,serif" font-size="14.00">T7</text>
</g>
<!-- X₁&#45;&gt;T7 -->
<g id="edge19" class="edge">
<title>X₁&#45;&gt;T7</title>
<path fill="none" stroke="black" d="M90.96,-85.56C97.25,-82.24 104.55,-78.89 111.6,-76.8 117.15,-75.15 123.24,-74.04 129.1,-73.29"/>
<polygon fill="black" stroke="black" points="129.61,-76.75 139.22,-72.29 128.92,-69.79 129.61,-76.75"/>
</g>
<!-- O1 -->
<g id="node25" class="node">
<title>O1</title>
<polygon fill="white" stroke="transparent" points="168.1,-35.3 147.1,-35.3 147.1,-20.3 168.1,-20.3 168.1,-35.3"/>
<text text-anchor="middle" x="157.6" y="-24.1" font-family="Times,serif" font-size="14.00">O1</text>
</g>
<!-- X₁&#45;&gt;O1 -->
<g id="edge34" class="edge">
<title>X₁&#45;&gt;O1</title>
<path fill="none" stroke="black" stroke-dasharray="5,2" d="M89.37,-83.01C103.63,-71.3 124.68,-54.01 139.42,-41.91"/>
<polygon fill="black" stroke="black" points="141.76,-44.51 147.27,-35.46 137.32,-39.1 141.76,-44.51"/>
</g>
<!-- X₂ -->
<g id="node2" class="node">
<title>X₂</title>
<ellipse fill="#1c86ee" stroke="#1c86ee" cx="233.39" cy="-205.8" rx="20.6" ry="20.6"/>
<text text-anchor="middle" x="233.39" y="-202.1" font-family="Times,serif" font-size="14.00">X₂</text>
</g>
<!-- T2 -->
<g id="node10" class="node">
<title>T2</title>
<polygon fill="forestgreen" stroke="forestgreen" points="327.19,-205.8 291.19,-205.8 291.19,-169.8 327.19,-169.8 327.19,-205.8"/>
<text text-anchor="middle" x="309.19" y="-184.1" font-family="Times,serif" font-size="14.00">T2</text>
</g>
<!-- X₂&#45;&gt;T2 -->
<g id="edge6" class="edge">
<title>X₂&#45;&gt;T2</title>
<path fill="none" stroke="black" d="M251.88,-195.69C260.59,-192.67 271.3,-189.82 281.04,-187.88"/>
<polygon fill="black" stroke="black" points="281.81,-191.3 291.08,-186.17 280.64,-184.4 281.81,-191.3"/>
</g>
<!-- T3 -->
<g id="node11" class="node">
<title>T3</title>
<polygon fill="forestgreen" stroke="forestgreen" points="327.19,-347.8 291.19,-347.8 291.19,-311.8 327.19,-311.8 327.19,-347.8"/>
<text text-anchor="middle" x="309.19" y="-326.1" font-family="Times,serif" font-size="14.00">T3</text>
</g>
<!-- X₂&#45;&gt;T3 -->
<g id="edge9" class="edge">
<title>X₂&#45;&gt;T3</title>
<path fill="none" stroke="black" d="M244.49,-223.42C255.71,-242.94 274.48,-275.28 291.19,-302.8 291.25,-302.89 291.3,-302.98 291.35,-303.06"/>
<polygon fill="black" stroke="black" points="288.36,-304.88 296.59,-311.55 294.32,-301.2 288.36,-304.88"/>
</g>
<!-- T8 -->
<g id="node16" class="node">
<title>T8</title>
<polygon fill="forestgreen" stroke="forestgreen" points="327.19,-259.8 291.19,-259.8 291.19,-223.8 327.19,-223.8 327.19,-259.8"/>
<text text-anchor="middle" x="309.19" y="-238.1" font-family="Times,serif" font-size="14.00">T8</text>
</g>
<!-- X₂&#45;&gt;T8 -->
<g id="edge21" class="edge">
<title>X₂&#45;&gt;T8</title>
<path fill="none" stroke="black" d="M252.64,-214.7C261.47,-219.01 272.24,-224.26 281.94,-228.99"/>
<polygon fill="black" stroke="black" points="280.65,-232.26 291.17,-233.5 283.72,-225.97 280.65,-232.26"/>
</g>
<!-- O2 -->
<g id="node26" class="node">
<title>O2</title>
<polygon fill="white" stroke="transparent" points="319.69,-293.3 298.69,-293.3 298.69,-278.3 319.69,-278.3 319.69,-293.3"/>
<text text-anchor="middle" x="309.19" y="-282.1" font-family="Times,serif" font-size="14.00">O2</text>
</g>
<!-- X₂&#45;&gt;O2 -->
<g id="edge35" class="edge">
<title>X₂&#45;&gt;O2</title>
<path fill="none" stroke="black" stroke-dasharray="5,2" d="M247.72,-221.02C259.1,-233.9 275.98,-252.78 291.19,-268.8 291.85,-269.49 292.52,-270.19 293.2,-270.89"/>
<polygon fill="black" stroke="black" points="290.97,-273.62 300.49,-278.26 295.95,-268.69 290.97,-273.62"/>
</g>
<!-- X₃ -->
<g id="node3" class="node">
<title>X₃</title>
<ellipse fill="#1c86ee" stroke="#1c86ee" cx="384.99" cy="-99.8" rx="20.6" ry="20.6"/>
<text text-anchor="middle" x="384.99" y="-96.1" font-family="Times,serif" font-size="14.00">X₃</text>
</g>
<!-- X₃&#45;&gt;T1 -->
<g id="edge2" class="edge">
<title>X₃&#45;&gt;T1</title>
<path fill="none" stroke="black" d="M365.04,-105.94C325.19,-114.03 232.54,-124.94 186.13,-127.23"/>
<polygon fill="black" stroke="black" points="185.77,-123.74 175.91,-127.61 186.03,-130.74 185.77,-123.74"/>
</g>
<!-- T4 -->
<g id="node12" class="node">
<title>T4</title>
<polygon fill="forestgreen" stroke="forestgreen" points="478.79,-164.8 442.79,-164.8 442.79,-128.8 478.79,-128.8 478.79,-164.8"/>
<text text-anchor="middle" x="460.79" y="-143.1" font-family="Times,serif" font-size="14.00">T4</text>
</g>
<!-- X₃&#45;&gt;T4 -->
<g id="edge11" class="edge">
<title>X₃&#45;&gt;T4</title>
<path fill="none" stroke="black" d="M403.11,-110.7C412.33,-116.57 423.89,-123.93 434.16,-130.48"/>
<polygon fill="black" stroke="black" points="432.45,-133.54 442.77,-135.96 436.21,-127.63 432.45,-133.54"/>
</g>
<!-- T5 -->
<g id="node13" class="node">
<title>T5</title>
<polygon fill="forestgreen" stroke="forestgreen" points="864.98,-162.8 828.98,-162.8 828.98,-126.8 864.98,-126.8 864.98,-162.8"/>
<text text-anchor="middle" x="846.98" y="-141.1" font-family="Times,serif" font-size="14.00">T5</text>
</g>
<!-- X₃&#45;&gt;T5 -->
<g id="edge13" class="edge">
<title>X₃&#45;&gt;T5</title>
<path fill="none" stroke="black" d="M406.04,-100.22C420.88,-100.49 441.59,-100.8 459.79,-100.8 459.79,-100.8 459.79,-100.8 737.18,-100.8 767.18,-100.8 798.65,-115.35 819.99,-127.71"/>
<polygon fill="black" stroke="black" points="818.39,-130.84 828.76,-133.01 822,-124.84 818.39,-130.84"/>
<text text-anchor="middle" x="580.39" y="-104.6" font-family="Times,serif" font-size="14.00">1</text>
</g>
<!-- T9 -->
<g id="node17" class="node">
<title>T9</title>
<polygon fill="forestgreen" stroke="forestgreen" points="478.79,-38.8 442.79,-38.8 442.79,-2.8 478.79,-2.8 478.79,-38.8"/>
<text text-anchor="middle" x="460.79" y="-17.1" font-family="Times,serif" font-size="14.00">T9</text>
</g>
<!-- X₃&#45;&gt;T9 -->
<g id="edge23" class="edge">
<title>X₃&#45;&gt;T9</title>
<path fill="none" stroke="black" d="M399.87,-84.94C409.97,-74.13 423.89,-59.22 435.78,-46.5"/>
<polygon fill="black" stroke="black" points="438.59,-48.62 442.86,-38.92 433.48,-43.84 438.59,-48.62"/>
</g>
<!-- O3 -->
<g id="node27" class="node">
<title>O3</title>
<polygon fill="white" stroke="transparent" points="471.29,-72.3 450.29,-72.3 450.29,-57.3 471.29,-57.3 471.29,-72.3"/>
<text text-anchor="middle" x="460.79" y="-61.1" font-family="Times,serif" font-size="14.00">O3</text>
</g>
<!-- X₃&#45;&gt;O3 -->
<g id="edge36" class="edge">
<title>X₃&#45;&gt;O3</title>
<path fill="none" stroke="black" stroke-dasharray="5,2" d="M404.23,-91.15C415.34,-85.88 429.52,-79.15 440.77,-73.82"/>
<polygon fill="black" stroke="black" points="442.57,-76.84 450.11,-69.39 439.57,-70.51 442.57,-76.84"/>
</g>
<!-- X₄ -->
<g id="node4" class="node">
<title>X₄</title>
<ellipse fill="#1c86ee" stroke="#1c86ee" cx="536.59" cy="-192.8" rx="20.6" ry="20.6"/>
<text text-anchor="middle" x="536.59" y="-189.1" font-family="Times,serif" font-size="14.00">X₄</text>
</g>
<!-- X₄&#45;&gt;T2 -->
<g id="edge5" class="edge">
<title>X₄&#45;&gt;T2</title>
<path fill="none" stroke="black" d="M515.66,-192.36C475.27,-191.46 383.65,-189.43 337.64,-188.41"/>
<polygon fill="black" stroke="black" points="337.58,-184.9 327.5,-188.18 337.42,-191.9 337.58,-184.9"/>
</g>
<!-- T6 -->
<g id="node14" class="node">
<title>T6</title>
<polygon fill="forestgreen" stroke="forestgreen" points="643.39,-226.8 607.39,-226.8 607.39,-190.8 643.39,-190.8 643.39,-226.8"/>
<text text-anchor="middle" x="625.39" y="-205.1" font-family="Times,serif" font-size="14.00">T6</text>
</g>
<!-- X₄&#45;&gt;T6 -->
<g id="edge16" class="edge">
<title>X₄&#45;&gt;T6</title>
<path fill="none" stroke="black" d="M557.28,-196.43C569.01,-198.59 584.06,-201.36 596.93,-203.74"/>
<polygon fill="black" stroke="black" points="596.65,-207.24 607.12,-205.61 597.92,-200.36 596.65,-207.24"/>
<text text-anchor="middle" x="580.39" y="-204.6" font-family="Times,serif" font-size="14.00">1</text>
</g>
<!-- T10 -->
<g id="node18" class="node">
<title>T10</title>
<polygon fill="forestgreen" stroke="forestgreen" points="647.39,-172.8 603.39,-172.8 603.39,-128.8 647.39,-128.8 647.39,-172.8"/>
<text text-anchor="middle" x="625.39" y="-147.1" font-family="Times,serif" font-size="14.00">T10</text>
</g>
<!-- X₄&#45;&gt;T10 -->
<g id="edge25" class="edge">
<title>X₄&#45;&gt;T10</title>
<path fill="none" stroke="black" d="M555.57,-184.1C566.76,-178.68 581.43,-171.58 594.34,-165.33"/>
<polygon fill="black" stroke="black" points="595.89,-168.47 603.37,-160.97 592.84,-162.17 595.89,-168.47"/>
</g>
<!-- O4 -->
<g id="node28" class="node">
<title>O4</title>
<polygon fill="white" stroke="transparent" points="635.89,-260.3 614.89,-260.3 614.89,-245.3 635.89,-245.3 635.89,-260.3"/>
<text text-anchor="middle" x="625.39" y="-249.1" font-family="Times,serif" font-size="14.00">O4</text>
</g>
<!-- X₄&#45;&gt;O4 -->
<g id="edge37" class="edge">
<title>X₄&#45;&gt;O4</title>
<path fill="none" stroke="black" stroke-dasharray="5,2" d="M554.08,-204.73C560.67,-209.46 568.36,-214.93 575.39,-219.8 585.5,-226.81 596.9,-234.5 606.15,-240.69"/>
<polygon fill="black" stroke="black" points="604.31,-243.67 614.57,-246.3 608.19,-237.84 604.31,-243.67"/>
</g>
<!-- X₅ -->
<g id="node5" class="node">
<title>X₅</title>
<ellipse fill="#1c86ee" stroke="#1c86ee" cx="736.18" cy="-212.8" rx="20.6" ry="20.6"/>
<text text-anchor="middle" x="736.18" y="-209.1" font-family="Times,serif" font-size="14.00">X₅</text>
</g>
<!-- X₅&#45;&gt;T5 -->
<g id="edge14" class="edge">
<title>X₅&#45;&gt;T5</title>
<path fill="none" stroke="black" d="M742.5,-192.79C747.87,-176.98 757.87,-155.95 774.98,-145.8 787.99,-138.08 804.84,-137.53 818.86,-139.05"/>
<polygon fill="black" stroke="black" points="818.52,-142.54 828.92,-140.53 819.54,-135.61 818.52,-142.54"/>
<text text-anchor="middle" x="790.98" y="-149.6" font-family="Times,serif" font-size="14.00">1</text>
</g>
<!-- X₅&#45;&gt;T6 -->
<g id="edge17" class="edge">
<title>X₅&#45;&gt;T6</title>
<path fill="none" stroke="black" d="M716.71,-204.47C710.68,-202.15 703.86,-199.96 697.39,-198.8 683.39,-196.29 679.5,-197.02 665.39,-198.8 661.55,-199.28 657.56,-200.02 653.65,-200.89"/>
<polygon fill="black" stroke="black" points="652.53,-197.56 643.68,-203.37 654.23,-204.35 652.53,-197.56"/>
<text text-anchor="middle" x="681.39" y="-202.6" font-family="Times,serif" font-size="14.00">1</text>
</g>
<!-- T11 -->
<g id="node19" class="node">
<title>T11</title>
<polygon fill="forestgreen" stroke="forestgreen" points="868.98,-282.8 824.98,-282.8 824.98,-238.8 868.98,-238.8 868.98,-282.8"/>
<text text-anchor="middle" x="846.98" y="-257.1" font-family="Times,serif" font-size="14.00">T11</text>
</g>
<!-- X₅&#45;&gt;T11 -->
<g id="edge27" class="edge">
<title>X₅&#45;&gt;T11</title>
<path fill="none" stroke="black" d="M755.64,-220.94C772.03,-228.17 796.3,-238.88 815.55,-247.37"/>
<polygon fill="black" stroke="black" points="814.26,-250.63 824.82,-251.46 817.09,-244.22 814.26,-250.63"/>
</g>
<!-- O5 -->
<g id="node29" class="node">
<title>O5</title>
<polygon fill="white" stroke="transparent" points="857.48,-220.3 836.48,-220.3 836.48,-205.3 857.48,-205.3 857.48,-220.3"/>
<text text-anchor="middle" x="846.98" y="-209.1" font-family="Times,serif" font-size="14.00">O5</text>
</g>
<!-- X₅&#45;&gt;O5 -->
<g id="edge38" class="edge">
<title>X₅&#45;&gt;O5</title>
<path fill="none" stroke="black" stroke-dasharray="5,2" d="M757.14,-212.8C776.73,-212.8 806.44,-212.8 826.03,-212.8"/>
<polygon fill="black" stroke="black" points="826.24,-216.3 836.24,-212.8 826.24,-209.3 826.24,-216.3"/>
</g>
<!-- X₆ -->
<g id="node6" class="node">
<title>X₆</title>
<ellipse fill="#1c86ee" stroke="#1c86ee" cx="384.99" cy="-241.8" rx="20.6" ry="20.6"/>
<text text-anchor="middle" x="384.99" y="-238.1" font-family="Times,serif" font-size="14.00">X₆</text>
</g>
<!-- X₇ -->
<g id="node7" class="node">
<title>X₇</title>
<ellipse fill="#1c86ee" stroke="#1c86ee" cx="536.59" cy="-20.8" rx="20.6" ry="20.6"/>
<text text-anchor="middle" x="536.59" y="-17.1" font-family="Times,serif" font-size="14.00">X₇</text>
</g>
<!-- X₈ -->
<g id="node8" class="node">
<title>X₈</title>
<ellipse fill="#1c86ee" stroke="#1c86ee" cx="926.78" cy="-260.8" rx="20.6" ry="20.6"/>
<text text-anchor="middle" x="926.78" y="-257.1" font-family="Times,serif" font-size="14.00">X₈</text>
</g>
<!-- T1&#45;&gt;X₂ -->
<g id="edge3" class="edge">
<title>T1&#45;&gt;X₂</title>
<path fill="none" stroke="black" d="M175.34,-143.95C186.09,-155.6 200.12,-170.81 211.58,-183.23"/>
<polygon fill="black" stroke="black" points="209.33,-185.95 218.68,-190.93 214.47,-181.21 209.33,-185.95"/>
</g>
<!-- T1&#45;&gt;X₃ -->
<g id="edge4" class="edge">
<title>T1&#45;&gt;X₃</title>
<path fill="none" stroke="black" d="M175.91,-119.99C214.15,-112.01 306.2,-101.07 354.02,-98.49"/>
<polygon fill="black" stroke="black" points="354.23,-101.99 364.07,-98.06 353.93,-94.99 354.23,-101.99"/>
</g>
<!-- T2&#45;&gt;X₂ -->
<g id="edge8" class="edge">
<title>T2&#45;&gt;X₂</title>
<path fill="none" stroke="black" d="M290.88,-197.84C282.89,-200.63 273.17,-203.27 264.07,-205.19"/>
<polygon fill="black" stroke="black" points="263.36,-201.77 254.17,-207.03 264.64,-208.65 263.36,-201.77"/>
</g>
<!-- T2&#45;&gt;X₃ -->
<g id="edge7" class="edge">
<title>T2&#45;&gt;X₃</title>
<path fill="none" stroke="black" d="M325.48,-169.56C336.71,-156.18 352.05,-137.89 364.2,-123.39"/>
<polygon fill="black" stroke="black" points="367.2,-125.27 370.94,-115.36 361.83,-120.77 367.2,-125.27"/>
</g>
<!-- T3&#45;&gt;X₁ -->
<g id="edge10" class="edge">
<title>T3&#45;&gt;X₁</title>
<path fill="none" stroke="black" d="M291.05,-322.62C258.05,-308.08 184.91,-272.26 139.6,-222.8 113.15,-193.93 94.33,-152.46 83.76,-124.85"/>
<polygon fill="black" stroke="black" points="87,-123.52 80.25,-115.36 80.44,-125.95 87,-123.52"/>
</g>
<!-- T4&#45;&gt;X₄ -->
<g id="edge12" class="edge">
<title>T4&#45;&gt;X₄</title>
<path fill="none" stroke="black" d="M478.91,-157.47C488.13,-163.21 499.69,-170.42 509.96,-176.82"/>
<polygon fill="black" stroke="black" points="508.23,-179.87 518.56,-182.19 511.93,-173.93 508.23,-179.87"/>
</g>
<!-- T5&#45;&gt;X₅ -->
<g id="edge15" class="edge">
<title>T5&#45;&gt;X₅</title>
<path fill="none" stroke="black" d="M828.74,-155.57C811.03,-166.64 783.25,-184.01 762.93,-196.71"/>
<polygon fill="black" stroke="black" points="760.81,-193.91 754.18,-202.17 764.52,-199.84 760.81,-193.91"/>
<text text-anchor="middle" x="790.98" y="-192.6" font-family="Times,serif" font-size="14.00">1.15</text>
</g>
<!-- T6&#45;&gt;X₅ -->
<g id="edge18" class="edge">
<title>T6&#45;&gt;X₅</title>
<path fill="none" stroke="black" d="M643.43,-211.46C650.24,-212.4 658.16,-213.34 665.39,-213.8 679.58,-214.7 683.16,-213.99 697.39,-213.8 699.91,-213.76 702.53,-213.72 705.17,-213.66"/>
<polygon fill="black" stroke="black" points="705.26,-217.16 715.18,-213.43 705.1,-210.17 705.26,-217.16"/>
<text text-anchor="middle" x="681.39" y="-217.6" font-family="Times,serif" font-size="14.00">1.15</text>
</g>
<!-- T7&#45;&gt;X₁ -->
<g id="edge20" class="edge">
<title>T7&#45;&gt;X₁</title>
<path fill="none" stroke="black" d="M139.47,-76.76C128.89,-79.83 115.05,-83.84 102.81,-87.39"/>
<polygon fill="black" stroke="black" points="101.63,-84.09 93,-90.23 103.58,-90.81 101.63,-84.09"/>
<text text-anchor="middle" x="116.6" y="-88.6" font-family="Times,serif" font-size="14.00">2</text>
</g>
<!-- T8&#45;&gt;X₆ -->
<g id="edge22" class="edge">
<title>T8&#45;&gt;X₆</title>
<path fill="none" stroke="black" d="M327.31,-241.8C335.2,-241.8 344.82,-241.8 353.87,-241.8"/>
<polygon fill="black" stroke="black" points="354.09,-245.3 364.09,-241.8 354.09,-238.3 354.09,-245.3"/>
</g>
<!-- T9&#45;&gt;X₇ -->
<g id="edge24" class="edge">
<title>T9&#45;&gt;X₇</title>
<path fill="none" stroke="black" d="M478.91,-20.8C486.8,-20.8 496.41,-20.8 505.46,-20.8"/>
<polygon fill="black" stroke="black" points="505.69,-24.3 515.69,-20.8 505.69,-17.3 505.69,-24.3"/>
</g>
<!-- T10&#45;&gt;X₄ -->
<g id="edge26" class="edge">
<title>T10&#45;&gt;X₄</title>
<path fill="none" stroke="black" d="M603.09,-147.08C594.18,-146.46 583.93,-146.99 575.39,-150.8 567.45,-154.33 560.48,-160.45 554.75,-166.94"/>
<polygon fill="black" stroke="black" points="551.68,-165.19 548.19,-175.2 557.16,-169.55 551.68,-165.19"/>
<text text-anchor="middle" x="580.39" y="-154.6" font-family="Times,serif" font-size="14.00">2</text>
</g>
<!-- T11&#45;&gt;X₈ -->
<g id="edge28" class="edge">
<title>T11&#45;&gt;X₈</title>
<path fill="none" stroke="black" d="M869.24,-260.8C877.45,-260.8 887,-260.8 895.88,-260.8"/>
<polygon fill="black" stroke="black" points="895.88,-264.3 905.88,-260.8 895.88,-257.3 895.88,-264.3"/>
</g>
<!-- I1 -->
<g id="node20" class="node">
<title>I1</title>
<polygon fill="white" stroke="transparent" points="15,-103.3 0,-103.3 0,-88.3 15,-88.3 15,-103.3"/>
<text text-anchor="middle" x="7.5" y="-92.1" font-family="Times,serif" font-size="14.00">I1</text>
</g>
<!-- I1&#45;&gt;X₁ -->
<g id="edge29" class="edge">
<title>I1&#45;&gt;X₁</title>
<path fill="none" stroke="black" stroke-dasharray="5,2" d="M15.27,-95.8C21.71,-95.8 31.86,-95.8 41.79,-95.8"/>
<polygon fill="black" stroke="black" points="41.9,-99.3 51.9,-95.8 41.9,-92.3 41.9,-99.3"/>
</g>
<!-- I2 -->
<g id="node21" class="node">
<title>I2</title>
<polygon fill="white" stroke="transparent" points="165.1,-213.3 150.1,-213.3 150.1,-198.3 165.1,-198.3 165.1,-213.3"/>
<text text-anchor="middle" x="157.6" y="-202.1" font-family="Times,serif" font-size="14.00">I2</text>
</g>
<!-- I2&#45;&gt;X₂ -->
<g id="edge30" class="edge">
<title>I2&#45;&gt;X₂</title>
<path fill="none" stroke="black" stroke-dasharray="5,2" d="M165.15,-205.8C173.52,-205.8 188.6,-205.8 202.35,-205.8"/>
<polygon fill="black" stroke="black" points="202.48,-209.3 212.48,-205.8 202.48,-202.3 202.48,-209.3"/>
</g>
<!-- I3 -->
<g id="node22" class="node">
<title>I3</title>
<polygon fill="white" stroke="transparent" points="316.69,-151.3 301.69,-151.3 301.69,-136.3 316.69,-136.3 316.69,-151.3"/>
<text text-anchor="middle" x="309.19" y="-140.1" font-family="Times,serif" font-size="14.00">I3</text>
</g>
<!-- I3&#45;&gt;X₃ -->
<g id="edge31" class="edge">
<title>I3&#45;&gt;X₃</title>
<path fill="none" stroke="black" stroke-dasharray="5,2" d="M316.74,-139.89C325.91,-134.42 343.12,-124.17 357.83,-115.4"/>
<polygon fill="black" stroke="black" points="359.77,-118.31 366.57,-110.19 356.19,-112.3 359.77,-118.31"/>
</g>
<!-- I4 -->
<g id="node23" class="node">
<title>I4</title>
<polygon fill="white" stroke="transparent" points="468.29,-236.3 453.29,-236.3 453.29,-221.3 468.29,-221.3 468.29,-236.3"/>
<text text-anchor="middle" x="460.79" y="-225.1" font-family="Times,serif" font-size="14.00">I4</text>
</g>
<!-- I4&#45;&gt;X₄ -->
<g id="edge32" class="edge">
<title>I4&#45;&gt;X₄</title>
<path fill="none" stroke="black" stroke-dasharray="5,2" d="M468.34,-225.6C477.31,-221.23 493.96,-213.11 508.44,-206.04"/>
<polygon fill="black" stroke="black" points="510.1,-209.13 517.55,-201.6 507.03,-202.84 510.1,-209.13"/>
</g>
<!-- I5 -->
<g id="node24" class="node">
<title>I5</title>
<polygon fill="white" stroke="transparent" points="632.89,-293.3 617.89,-293.3 617.89,-278.3 632.89,-278.3 632.89,-293.3"/>
<text text-anchor="middle" x="625.39" y="-282.1" font-family="Times,serif" font-size="14.00">I5</text>
</g>
<!-- I5&#45;&gt;X₅ -->
<g id="edge33" class="edge">
<title>I5&#45;&gt;X₅</title>
<path fill="none" stroke="black" stroke-dasharray="5,2" d="M633.19,-281.23C648.19,-271.17 684.74,-246.64 709.75,-229.86"/>
<polygon fill="black" stroke="black" points="712.03,-232.55 718.39,-224.07 708.13,-226.73 712.03,-232.55"/>
</g>
</g>
</svg>
