<?xml version="1.0" encoding="UTF-8" standalone="no"?>
<!DOCTYPE svg PUBLIC "-//W3C//DTD SVG 1.1//EN"
 "http://www.w3.org/Graphics/SVG/1.1/DTD/svg11.dtd">
<!-- Generated by graphviz version 2.43.20190912.0211 (20190912.0211)
 -->
<!-- Title: G Pages: 1 -->
<svg width="278pt" height="116pt"
 viewBox="0.00 0.00 278.00 116.00" xmlns="http://www.w3.org/2000/svg" xmlns:xlink="http://www.w3.org/1999/xlink">
<g id="graph0" class="graph" transform="scale(1 1) rotate(0) translate(4 112)">
<title>G</title>
<polygon fill="white" stroke="transparent" points="-4,4 -4,-112 274,-112 274,4 -4,4"/>
<!-- n1p1 -->
<!-- n1p2 -->
<!-- n1p1&#45;&gt;n1p2 -->
<!-- n3 -->
<!-- predation -->
<g id="n3" class="node">
<title>n3</title>
<polygon fill="none" stroke="black" points="37,-60 37,-108 117,-108 117,-60 37,-60"/>
<text text-anchor="start" x="42" y="-80.3" font-family="Serif" font-size="14.00">predation</text>
</g>
<!-- n1p1&#45;&gt;n3 -->
<!-- X -->
<g id="e1" class="edge">
<title>n1p1:e&#45;&gt;n3:w</title>
<path fill="none" stroke="black" d="M1,-96C15.12,-96 19.9,-96 31.83,-96"/>
<polygon fill="black" stroke="black" points="32,-97.75 37,-96 32,-94.25 32,-97.75"/>
</g>
<!-- n1p3 -->
<!-- n1p2&#45;&gt;n1p3 -->
<!-- n4 -->
<!-- predation -->
<g id="n4" class="node">
<title>n4</title>
<polygon fill="none" stroke="black" points="153,-9 153,-57 233,-57 233,-9 153,-9"/>
<text text-anchor="start" x="158" y="-29.3" font-family="Serif" font-size="14.00">predation</text>
</g>
<!-- n1p2&#45;&gt;n4 -->
<!-- X -->
<g id="e3" class="edge">
<title>n1p2:e&#45;&gt;n4:w</title>
<path fill="none" stroke="black" d="M1,-54C17.06,-54 20.98,-52.08 37,-51 86.8,-47.64 100.48,-45.17 147.98,-45.01"/>
<polygon fill="black" stroke="black" points="148,-46.76 153,-45 148,-43.26 148,-46.76"/>
</g>
<!-- n1p3&#45;&gt;n3 -->
<!-- X -->
<g id="e2" class="edge">
<title>n1p3:e&#45;&gt;n3:w</title>
<path fill="none" stroke="black" d="M1,-12C30.15,-12 8.95,-64.73 31.81,-71.33"/>
<polygon fill="black" stroke="black" points="31.82,-73.09 37,-72 32.27,-69.62 31.82,-73.09"/>
</g>
<!-- n2p1 -->
<!-- n2p2 -->
<!-- n2p1&#45;&gt;n2p2 -->
<!-- n2p3 -->
<!-- n2p2&#45;&gt;n2p3 -->
<!-- n3&#45;&gt;n2p1 -->
<!-- X -->
<g id="e4" class="edge">
<title>n3:e&#45;&gt;n2p1:w</title>
<path fill="none" stroke="black" d="M117,-96C182.84,-96 200.55,-96 263.95,-96"/>
<polygon fill="black" stroke="black" points="264,-97.75 269,-96 264,-94.25 264,-97.75"/>
</g>
<!-- n3&#45;&gt;n4 -->
<!-- X -->
<g id="e5" class="edge">
<title>n3:e&#45;&gt;n4:w</title>
<path fill="none" stroke="black" d="M117,-72C142.79,-72 127.76,-27.92 147.82,-21.72"/>
<polygon fill="black" stroke="black" points="148.29,-23.42 153,-21 147.81,-19.96 148.29,-23.42"/>
</g>
<!-- n4&#45;&gt;n2p2 -->
<!-- X -->
<g id="e6" class="edge">
<title>n4:e&#45;&gt;n2p2:w</title>
<path fill="none" stroke="black" d="M233,-45C247.56,-45 251.62,-52.01 263.71,-53.66"/>
<polygon fill="black" stroke="black" points="263.9,-55.42 269,-54 264.12,-51.93 263.9,-55.42"/>
</g>
<!-- n4&#45;&gt;n2p3 -->
<!-- X -->
<g id="e7" class="edge">
<title>n4:e&#45;&gt;n2p3:w</title>
<path fill="none" stroke="black" d="M233,-21C247.56,-21 251.62,-13.99 263.71,-12.34"/>
<polygon fill="black" stroke="black" points="264.12,-14.07 269,-12 263.9,-10.58 264.12,-14.07"/>
</g>
</g>
</svg>
