<?xml version="1.0" encoding="UTF-8" standalone="no"?>
<!DOCTYPE svg PUBLIC "-//W3C//DTD SVG 1.1//EN"
 "http://www.w3.org/Graphics/SVG/1.1/DTD/svg11.dtd">
<!-- Generated by graphviz version 2.43.20190912.0211 (20190912.0211)
 -->
<!-- Title: G Pages: 1 -->
<svg width="445pt" height="165pt"
 viewBox="0.00 0.00 444.79 165.00" xmlns="http://www.w3.org/2000/svg" xmlns:xlink="http://www.w3.org/1999/xlink">
<g id="graph0" class="graph" transform="scale(1 1) rotate(0) translate(4 161)">
<title>G</title>
<polygon fill="white" stroke="transparent" points="-4,4 -4,-161 440.79,-161 440.79,4 -4,4"/>
<!-- X₁ -->
<g id="node1" class="node">
<title>X₁</title>
<ellipse fill="#1c86ee" stroke="#1c86ee" cx="72.8" cy="-64.5" rx="20.6" ry="20.6"/>
<text text-anchor="middle" x="72.8" y="-60.8" font-family="Times,serif" font-size="14.00">X₁</text>
</g>
<!-- T1 -->
<g id="node4" class="node">
<title>T1</title>
<polygon fill="forestgreen" stroke="forestgreen" points="175.6,-123.5 139.6,-123.5 139.6,-87.5 175.6,-87.5 175.6,-123.5"/>
<text text-anchor="middle" x="157.6" y="-101.8" font-family="Times,serif" font-size="14.00">T1</text>
</g>
<!-- X₁&#45;&gt;T1 -->
<g id="edge1" class="edge">
<title>X₁&#45;&gt;T1</title>
<path fill="none" stroke="black" d="M86.58,-80.13C93.27,-87.22 102.05,-95.01 111.6,-99.5 116.95,-102.02 123.02,-103.57 128.94,-104.52"/>
<polygon fill="black" stroke="black" points="128.92,-108.03 139.24,-105.63 129.67,-101.08 128.92,-108.03"/>
</g>
<!-- T2 -->
<g id="node5" class="node">
<title>T2</title>
<polygon fill="forestgreen" stroke="forestgreen" points="175.6,-69.5 139.6,-69.5 139.6,-33.5 175.6,-33.5 175.6,-69.5"/>
<text text-anchor="middle" x="157.6" y="-47.8" font-family="Times,serif" font-size="14.00">T2</text>
</g>
<!-- X₁&#45;&gt;T2 -->
<g id="edge3" class="edge">
<title>X₁&#45;&gt;T2</title>
<path fill="none" stroke="black" d="M91.28,-54.19C97.48,-51.08 104.65,-48.07 111.6,-46.5 117.25,-45.22 123.38,-45.1 129.25,-45.56"/>
<polygon fill="black" stroke="black" points="128.97,-49.06 139.35,-46.93 129.91,-42.12 128.97,-49.06"/>
<text text-anchor="middle" x="116.6" y="-50.3" font-family="Times,serif" font-size="14.00">1</text>
</g>
<!-- O1 -->
<g id="node9" class="node">
<title>O1</title>
<polygon fill="white" stroke="transparent" points="168.1,-15 147.1,-15 147.1,0 168.1,0 168.1,-15"/>
<text text-anchor="middle" x="157.6" y="-3.8" font-family="Times,serif" font-size="14.00">O1</text>
</g>
<!-- X₁&#45;&gt;O1 -->
<g id="edge10" class="edge">
<title>X₁&#45;&gt;O1</title>
<path fill="none" stroke="black" stroke-dasharray="5,2" d="M90.55,-52.97C104.51,-43.36 124.34,-29.71 138.62,-19.88"/>
<polygon fill="black" stroke="black" points="140.84,-22.6 147.09,-14.05 136.87,-16.83 140.84,-22.6"/>
</g>
<!-- X₂ -->
<g id="node2" class="node">
<title>X₂</title>
<ellipse fill="#1c86ee" stroke="#1c86ee" cx="264.39" cy="-89.5" rx="20.6" ry="20.6"/>
<text text-anchor="middle" x="264.39" y="-85.8" font-family="Times,serif" font-size="14.00">X₂</text>
</g>
<!-- X₂&#45;&gt;T2 -->
<g id="edge4" class="edge">
<title>X₂&#45;&gt;T2</title>
<path fill="none" stroke="black" d="M251.34,-72.86C244.71,-65.13 235.77,-56.74 225.6,-52.5 213.3,-47.38 198.61,-46.64 186.12,-47.38"/>
<polygon fill="black" stroke="black" points="185.45,-43.93 175.82,-48.35 186.11,-50.9 185.45,-43.93"/>
<text text-anchor="middle" x="209.6" y="-56.3" font-family="Times,serif" font-size="14.00">1</text>
</g>
<!-- T3 -->
<g id="node6" class="node">
<title>T3</title>
<polygon fill="forestgreen" stroke="forestgreen" points="358.19,-139.5 322.19,-139.5 322.19,-103.5 358.19,-103.5 358.19,-139.5"/>
<text text-anchor="middle" x="340.19" y="-117.8" font-family="Times,serif" font-size="14.00">T3</text>
</g>
<!-- X₂&#45;&gt;T3 -->
<g id="edge6" class="edge">
<title>X₂&#45;&gt;T3</title>
<path fill="none" stroke="black" d="M283.64,-97.41C292.47,-101.24 303.24,-105.91 312.94,-110.12"/>
<polygon fill="black" stroke="black" points="311.61,-113.35 322.17,-114.12 314.39,-106.93 311.61,-113.35"/>
</g>
<!-- O2 -->
<g id="node10" class="node">
<title>O2</title>
<polygon fill="white" stroke="transparent" points="350.69,-85 329.69,-85 329.69,-70 350.69,-70 350.69,-85"/>
<text text-anchor="middle" x="340.19" y="-73.8" font-family="Times,serif" font-size="14.00">O2</text>
</g>
<!-- X₂&#45;&gt;O2 -->
<g id="edge11" class="edge">
<title>X₂&#45;&gt;O2</title>
<path fill="none" stroke="black" stroke-dasharray="5,2" d="M285.17,-86.28C295.82,-84.55 308.91,-82.42 319.54,-80.7"/>
<polygon fill="black" stroke="black" points="320.21,-84.13 329.52,-79.07 319.08,-77.22 320.21,-84.13"/>
</g>
<!-- X₃ -->
<g id="node3" class="node">
<title>X₃</title>
<ellipse fill="#1c86ee" stroke="#1c86ee" cx="415.99" cy="-121.5" rx="20.6" ry="20.6"/>
<text text-anchor="middle" x="415.99" y="-117.8" font-family="Times,serif" font-size="14.00">X₃</text>
</g>
<!-- T1&#45;&gt;X₁ -->
<g id="edge2" class="edge">
<title>T1&#45;&gt;X₁</title>
<path fill="none" stroke="black" d="M139.44,-91.71C133.96,-87.73 127.72,-83.62 121.6,-80.5 115.76,-77.53 109.26,-74.92 102.97,-72.73"/>
<polygon fill="black" stroke="black" points="103.99,-69.38 93.4,-69.62 101.83,-76.04 103.99,-69.38"/>
<text text-anchor="middle" x="116.6" y="-84.3" font-family="Times,serif" font-size="14.00">2</text>
</g>
<!-- T2&#45;&gt;X₂ -->
<g id="edge5" class="edge">
<title>T2&#45;&gt;X₂</title>
<path fill="none" stroke="black" d="M175.86,-59.9C181.46,-62.49 187.73,-65.25 193.6,-67.5 206.88,-72.61 221.91,-77.46 234.61,-81.3"/>
<polygon fill="black" stroke="black" points="233.63,-84.66 244.22,-84.15 235.62,-77.95 233.63,-84.66"/>
<text text-anchor="middle" x="209.6" y="-82.3" font-family="Times,serif" font-size="14.00">1.15</text>
</g>
<!-- T3&#45;&gt;X₃ -->
<g id="edge7" class="edge">
<title>T3&#45;&gt;X₃</title>
<path fill="none" stroke="black" d="M358.31,-121.5C366.2,-121.5 375.82,-121.5 384.87,-121.5"/>
<polygon fill="black" stroke="black" points="385.09,-125 395.09,-121.5 385.09,-118 385.09,-125"/>
</g>
<!-- I1 -->
<g id="node7" class="node">
<title>I1</title>
<polygon fill="white" stroke="transparent" points="15,-72 0,-72 0,-57 15,-57 15,-72"/>
<text text-anchor="middle" x="7.5" y="-60.8" font-family="Times,serif" font-size="14.00">I1</text>
</g>
<!-- I1&#45;&gt;X₁ -->
<g id="edge8" class="edge">
<title>I1&#45;&gt;X₁</title>
<path fill="none" stroke="black" stroke-dasharray="5,2" d="M15.27,-64.5C21.71,-64.5 31.86,-64.5 41.79,-64.5"/>
<polygon fill="black" stroke="black" points="41.9,-68 51.9,-64.5 41.9,-61 41.9,-68"/>
</g>
<!-- I2 -->
<g id="node8" class="node">
<title>I2</title>
<polygon fill="white" stroke="transparent" points="165.1,-157 150.1,-157 150.1,-142 165.1,-142 165.1,-157"/>
<text text-anchor="middle" x="157.6" y="-145.8" font-family="Times,serif" font-size="14.00">I2</text>
</g>
<!-- I2&#45;&gt;X₂ -->
<g id="edge9" class="edge">
<title>I2&#45;&gt;X₂</title>
<path fill="none" stroke="black" stroke-dasharray="5,2" d="M165.15,-145.75C179.23,-137.68 213.05,-118.33 237.06,-104.58"/>
<polygon fill="black" stroke="black" points="239.09,-107.45 246.03,-99.44 235.62,-101.37 239.09,-107.45"/>
</g>
</g>
</svg>
