<?xml version="1.0" encoding="UTF-8" standalone="no"?>
<!DOCTYPE svg PUBLIC "-//W3C//DTD SVG 1.1//EN"
 "http://www.w3.org/Graphics/SVG/1.1/DTD/svg11.dtd">
<!-- Generated by graphviz version 2.40.1 (20161225.0304)
 -->
<!-- Title: G Pages: 1 -->
<svg width="172pt" height="282pt"
 viewBox="0.00 0.00 172.00 282.00" xmlns="http://www.w3.org/2000/svg" xmlns:xlink="http://www.w3.org/1999/xlink">
<g id="graph0" class="graph" transform="scale(1 1) rotate(0) translate(4 278)">
<title>G</title>
<polygon fill="#ffffff" stroke="transparent" points="-4,4 -4,-278 168,-278 168,4 -4,4"/>
<!-- n1p1 -->
<!-- n1p2 -->
<!-- n1p1&#45;&gt;n1p2 -->
<!-- n7 -->
<!-- exposure -->
<g id="n7" class="node">
<title>n7</title>
<polygon fill="none" stroke="#000000" points="67.5,-199 67.5,-223 134.5,-223 134.5,-199 67.5,-199"/>
<text text-anchor="start" x="72.2036" y="-206.8" font-family="Serif" font-size="14.00" fill="#000000">exposure</text>
</g>
<!-- n1p1&#45;&gt;n7 -->
<!-- S -->
<g id="e1" class="edge">
<title>n1p1:s&#45;&gt;n7:n</title>
<path fill="none" stroke="#000000" d="M65.5,-273C65.5,-251.0846 81.6472,-247.2863 84.1702,-228.2017"/>
<polygon fill="#000000" stroke="#000000" points="85.93,-228.1007 84.5,-223 82.4371,-227.8792 85.93,-228.1007"/>
<text text-anchor="middle" x="84.1689" y="-243.8" font-family="Serif" font-size="14.00" fill="#000000">S</text>
</g>
<!-- n1p2&#45;&gt;n7 -->
<!-- I -->
<g id="e2" class="edge">
<title>n1p2:s&#45;&gt;n7:n</title>
<path fill="none" stroke="#000000" d="M125.5,-273C125.5,-252.4894 119.6514,-246.4472 118.6462,-228.4234"/>
<polygon fill="#000000" stroke="#000000" points="120.3842,-227.951 118.5,-223 116.8855,-228.0454 120.3842,-227.951"/>
<text text-anchor="middle" x="125.4448" y="-243.8" font-family="Serif" font-size="14.00" fill="#000000">I</text>
</g>
<!-- n2p1 -->
<!-- n2p2 -->
<!-- n2p1&#45;&gt;n2p2 -->
<!-- n3 -->
<!-- recovery -->
<g id="n3" class="node">
<title>n3</title>
<polygon fill="none" stroke="#000000" points="21.5,-51 21.5,-75 84.5,-75 84.5,-51 21.5,-51"/>
<text text-anchor="start" x="26.1587" y="-58.8" font-family="Serif" font-size="14.00" fill="#000000">recovery</text>
</g>
<!-- n3&#45;&gt;n2p1 -->
<!-- R -->
<g id="e3" class="edge">
<title>n3:s&#45;&gt;n2p1:n</title>
<path fill="none" stroke="#000000" d="M53.5,-51C53.5,-30.024 62.8484,-24.5671 64.3091,-6.0159"/>
<polygon fill="#000000" stroke="#000000" points="66.0585,-6.063 64.5,-1 62.561,-5.9298 66.0585,-6.063"/>
<text text-anchor="middle" x="67.5552" y="-21.8" font-family="Serif" font-size="14.00" fill="#000000">R</text>
</g>
<!-- n4 -->
<!-- waning -->
<g id="n4" class="node">
<title>n4</title>
<polygon fill="none" stroke="#000000" points="104.5,-51 104.5,-75 158.5,-75 158.5,-51 104.5,-51"/>
<text text-anchor="start" x="109.3174" y="-58.8" font-family="Serif" font-size="14.00" fill="#000000">waning</text>
</g>
<!-- n4&#45;&gt;n2p2 -->
<!-- S -->
<g id="e4" class="edge">
<title>n4:s&#45;&gt;n2p2:n</title>
<path fill="none" stroke="#000000" d="M131.5,-51C131.5,-30.651 128.9935,-24.3273 128.5627,-6.3889"/>
<polygon fill="#000000" stroke="#000000" points="130.3081,-5.9793 128.5,-1 126.8083,-6.02 130.3081,-5.9793"/>
<text text-anchor="middle" x="135.1689" y="-21.8" font-family="Serif" font-size="14.00" fill="#000000">S</text>
</g>
<!-- n5 -->
<!-- progression -->
<g id="n5" class="node">
<title>n5</title>
<polygon fill="none" stroke="#000000" points=".5,-125 .5,-149 83.5,-149 83.5,-125 .5,-125"/>
<text text-anchor="start" x="5.4243" y="-132.8" font-family="Serif" font-size="14.00" fill="#000000">progression</text>
</g>
<!-- n5&#45;&gt;n3 -->
<!-- I -->
<g id="e5" class="edge">
<title>n5:s&#45;&gt;n3:n</title>
<path fill="none" stroke="#000000" d="M42.5,-125C42.5,-104.024 51.8484,-98.5671 53.3091,-80.0159"/>
<polygon fill="#000000" stroke="#000000" points="55.0585,-80.063 53.5,-75 51.561,-79.9298 55.0585,-80.063"/>
<text text-anchor="middle" x="53.4448" y="-95.8" font-family="Serif" font-size="14.00" fill="#000000">I</text>
</g>
<!-- n6 -->
<!-- recovery -->
<g id="n6" class="node">
<title>n6</title>
<polygon fill="none" stroke="#000000" points="101.5,-125 101.5,-149 164.5,-149 164.5,-125 101.5,-125"/>
<text text-anchor="start" x="106.1587" y="-132.8" font-family="Serif" font-size="14.00" fill="#000000">recovery</text>
</g>
<!-- n6&#45;&gt;n4 -->
<!-- R -->
<g id="e6" class="edge">
<title>n6:s&#45;&gt;n4:n</title>
<path fill="none" stroke="#000000" d="M133.5,-125C133.5,-104.6713 131.829,-98.3122 131.5418,-80.3845"/>
<polygon fill="#000000" stroke="#000000" points="133.2888,-79.9862 131.5,-75 129.7889,-80.0135 133.2888,-79.9862"/>
<text text-anchor="middle" x="137.5552" y="-95.8" font-family="Serif" font-size="14.00" fill="#000000">R</text>
</g>
<!-- n7&#45;&gt;n5 -->
<!-- E -->
<g id="e7" class="edge">
<title>n7:s&#45;&gt;n5:n</title>
<path fill="none" stroke="#000000" d="M84.5,-199C84.5,-171.792 47.5859,-177.1612 42.9717,-154.0253"/>
<polygon fill="#000000" stroke="#000000" points="44.7097,-153.8146 42.5,-149 41.225,-154.1417 44.7097,-153.8146"/>
<text text-anchor="middle" x="80.1689" y="-169.8" font-family="Serif" font-size="14.00" fill="#000000">E</text>
</g>
<!-- n7&#45;&gt;n6 -->
<!-- I -->
<g id="e8" class="edge">
<title>n7:s&#45;&gt;n6:n</title>
<path fill="none" stroke="#000000" d="M118.5,-199C118.5,-177.6119 131.2478,-172.8826 133.2396,-154.0974"/>
<polygon fill="#000000" stroke="#000000" points="134.9926,-154.0828 133.5,-149 131.4971,-153.9042 134.9926,-154.0828"/>
<text text-anchor="middle" x="130.4448" y="-169.8" font-family="Serif" font-size="14.00" fill="#000000">I</text>
</g>
</g>
</svg>
