<?xml version="1.0" encoding="UTF-8" standalone="no"?>
<!DOCTYPE svg PUBLIC "-//W3C//DTD SVG 1.1//EN"
 "http://www.w3.org/Graphics/SVG/1.1/DTD/svg11.dtd">
<!-- Generated by graphviz version 2.40.1 (20161225.0304)
 -->
<!-- Title: G Pages: 1 -->
<svg width="172pt" height="208pt"
 viewBox="0.00 0.00 172.00 208.00" xmlns="http://www.w3.org/2000/svg" xmlns:xlink="http://www.w3.org/1999/xlink">
<g id="graph0" class="graph" transform="scale(1 1) rotate(0) translate(4 204)">
<title>G</title>
<polygon fill="#ffffff" stroke="transparent" points="-4,4 -4,-204 168,-204 168,4 -4,4"/>
<!-- n1p1 -->
<!-- n1p2 -->
<!-- n1p1&#45;&gt;n1p2 -->
<!-- n5 -->
<!-- exposure -->
<g id="n5" class="node">
<title>n5</title>
<polygon fill="none" stroke="#000000" points="67.5,-125 67.5,-149 134.5,-149 134.5,-125 67.5,-125"/>
<text text-anchor="start" x="72.2036" y="-132.8" font-family="Serif" font-size="14.00" fill="#000000">exposure</text>
</g>
<!-- n1p1&#45;&gt;n5 -->
<!-- S -->
<g id="e1" class="edge">
<title>n1p1:s&#45;&gt;n5:n</title>
<path fill="none" stroke="#000000" d="M65.5,-199C65.5,-177.0846 81.6472,-173.2863 84.1702,-154.2017"/>
<polygon fill="#000000" stroke="#000000" points="85.93,-154.1007 84.5,-149 82.4371,-153.8792 85.93,-154.1007"/>
<text text-anchor="middle" x="84.1689" y="-169.8" font-family="Serif" font-size="14.00" fill="#000000">S</text>
</g>
<!-- n1p2&#45;&gt;n5 -->
<!-- I -->
<g id="e2" class="edge">
<title>n1p2:s&#45;&gt;n5:n</title>
<path fill="none" stroke="#000000" d="M125.5,-199C125.5,-178.4894 119.6514,-172.4472 118.6462,-154.4234"/>
<polygon fill="#000000" stroke="#000000" points="120.3842,-153.951 118.5,-149 116.8855,-154.0454 120.3842,-153.951"/>
<text text-anchor="middle" x="125.4448" y="-169.8" font-family="Serif" font-size="14.00" fill="#000000">I</text>
</g>
<!-- n2p1 -->
<!-- n2p2 -->
<!-- n2p1&#45;&gt;n2p2 -->
<!-- n3 -->
<!-- progression -->
<g id="n3" class="node">
<title>n3</title>
<polygon fill="none" stroke="#000000" points=".5,-51 .5,-75 83.5,-75 83.5,-51 .5,-51"/>
<text text-anchor="start" x="5.4243" y="-58.8" font-family="Serif" font-size="14.00" fill="#000000">progression</text>
</g>
<!-- n3&#45;&gt;n2p1 -->
<!-- I -->
<g id="e3" class="edge">
<title>n3:s&#45;&gt;n2p1:n</title>
<path fill="none" stroke="#000000" d="M42.5,-51C42.5,-29.0846 58.6472,-25.2863 61.1702,-6.2017"/>
<polygon fill="#000000" stroke="#000000" points="62.93,-6.1007 61.5,-1 59.4371,-5.8792 62.93,-6.1007"/>
<text text-anchor="middle" x="58.4448" y="-21.8" font-family="Serif" font-size="14.00" fill="#000000">I</text>
</g>
<!-- n4 -->
<!-- recovery -->
<g id="n4" class="node">
<title>n4</title>
<polygon fill="none" stroke="#000000" points="101.5,-51 101.5,-75 164.5,-75 164.5,-51 101.5,-51"/>
<text text-anchor="start" x="106.1587" y="-58.8" font-family="Serif" font-size="14.00" fill="#000000">recovery</text>
</g>
<!-- n4&#45;&gt;n2p2 -->
<!-- R -->
<g id="e4" class="edge">
<title>n4:s&#45;&gt;n2p2:n</title>
<path fill="none" stroke="#000000" d="M133.5,-51C133.5,-30.6226 130.158,-24.3483 129.5835,-6.3949"/>
<polygon fill="#000000" stroke="#000000" points="131.3273,-5.9723 129.5,-1 127.8277,-6.0265 131.3273,-5.9723"/>
<text text-anchor="middle" x="136.5552" y="-21.8" font-family="Serif" font-size="14.00" fill="#000000">R</text>
</g>
<!-- n5&#45;&gt;n3 -->
<!-- E -->
<g id="e5" class="edge">
<title>n5:s&#45;&gt;n3:n</title>
<path fill="none" stroke="#000000" d="M84.5,-125C84.5,-97.792 47.5859,-103.1612 42.9717,-80.0253"/>
<polygon fill="#000000" stroke="#000000" points="44.7097,-79.8146 42.5,-75 41.225,-80.1417 44.7097,-79.8146"/>
<text text-anchor="middle" x="80.1689" y="-95.8" font-family="Serif" font-size="14.00" fill="#000000">E</text>
</g>
<!-- n5&#45;&gt;n4 -->
<!-- I -->
<g id="e6" class="edge">
<title>n5:s&#45;&gt;n4:n</title>
<path fill="none" stroke="#000000" d="M118.5,-125C118.5,-103.6119 131.2478,-98.8826 133.2396,-80.0974"/>
<polygon fill="#000000" stroke="#000000" points="134.9926,-80.0828 133.5,-75 131.4971,-79.9042 134.9926,-80.0828"/>
<text text-anchor="middle" x="130.4448" y="-95.8" font-family="Serif" font-size="14.00" fill="#000000">I</text>
</g>
</g>
</svg>
