<?xml version="1.0" encoding="UTF-8" standalone="no"?>
<!DOCTYPE svg PUBLIC "-//W3C//DTD SVG 1.1//EN"
 "http://www.w3.org/Graphics/SVG/1.1/DTD/svg11.dtd">
<!-- Generated by graphviz version 2.40.1 (20161225.0304)
 -->
<!-- Title: G Pages: 1 -->
<svg width="172pt" height="356pt"
 viewBox="0.00 0.00 172.00 356.00" xmlns="http://www.w3.org/2000/svg" xmlns:xlink="http://www.w3.org/1999/xlink">
<g id="graph0" class="graph" transform="scale(1 1) rotate(0) translate(4 352)">
<title>G</title>
<polygon fill="#ffffff" stroke="transparent" points="-4,4 -4,-352 168,-352 168,4 -4,4"/>
<!-- n1p1 -->
<!-- n1p2 -->
<!-- n1p1&#45;&gt;n1p2 -->
<!-- n9 -->
<!-- exposure -->
<g id="n9" class="node">
<title>n9</title>
<polygon fill="none" stroke="#000000" points="67.5,-273 67.5,-297 134.5,-297 134.5,-273 67.5,-273"/>
<text text-anchor="start" x="72.2036" y="-280.8" font-family="Serif" font-size="14.00" fill="#000000">exposure</text>
</g>
<!-- n1p1&#45;&gt;n9 -->
<!-- S -->
<g id="e1" class="edge">
<title>n1p1:s&#45;&gt;n9:n</title>
<path fill="none" stroke="#000000" d="M65.5,-347C65.5,-325.0846 81.6472,-321.2863 84.1702,-302.2017"/>
<polygon fill="#000000" stroke="#000000" points="85.93,-302.1007 84.5,-297 82.4371,-301.8792 85.93,-302.1007"/>
<text text-anchor="middle" x="84.1689" y="-317.8" font-family="Serif" font-size="14.00" fill="#000000">S</text>
</g>
<!-- n1p2&#45;&gt;n9 -->
<!-- I -->
<g id="e2" class="edge">
<title>n1p2:s&#45;&gt;n9:n</title>
<path fill="none" stroke="#000000" d="M125.5,-347C125.5,-326.4894 119.6514,-320.4472 118.6462,-302.4234"/>
<polygon fill="#000000" stroke="#000000" points="120.3842,-301.951 118.5,-297 116.8855,-302.0454 120.3842,-301.951"/>
<text text-anchor="middle" x="125.4448" y="-317.8" font-family="Serif" font-size="14.00" fill="#000000">I</text>
</g>
<!-- n2p1 -->
<!-- n2p2 -->
<!-- n2p1&#45;&gt;n2p2 -->
<!-- n3 -->
<!-- rest -->
<g id="n3" class="node">
<title>n3</title>
<polygon fill="none" stroke="#000000" points="43.5,-51 43.5,-75 76.5,-75 76.5,-51 43.5,-51"/>
<text text-anchor="start" x="48.3311" y="-58.8" font-family="Serif" font-size="14.00" fill="#000000">rest</text>
</g>
<!-- n3&#45;&gt;n2p1 -->
<!-- D -->
<g id="e3" class="edge">
<title>n3:s&#45;&gt;n2p1:n</title>
<path fill="none" stroke="#000000" d="M60.5,-51C60.5,-30.6713 62.171,-24.3122 62.4582,-6.3845"/>
<polygon fill="#000000" stroke="#000000" points="64.2111,-6.0135 62.5,-1 60.7112,-5.9862 64.2111,-6.0135"/>
<text text-anchor="middle" x="67.5552" y="-21.8" font-family="Serif" font-size="14.00" fill="#000000">D</text>
</g>
<!-- n4 -->
<!-- waning -->
<g id="n4" class="node">
<title>n4</title>
<polygon fill="none" stroke="#000000" points="98.5,-51 98.5,-75 152.5,-75 152.5,-51 98.5,-51"/>
<text text-anchor="start" x="103.3174" y="-58.8" font-family="Serif" font-size="14.00" fill="#000000">waning</text>
</g>
<!-- n4&#45;&gt;n2p2 -->
<!-- S -->
<g id="e4" class="edge">
<title>n4:s&#45;&gt;n2p2:n</title>
<path fill="none" stroke="#000000" d="M125.5,-51C125.5,-30.651 122.9935,-24.3273 122.5627,-6.3889"/>
<polygon fill="#000000" stroke="#000000" points="124.3081,-5.9793 122.5,-1 120.8083,-6.02 124.3081,-5.9793"/>
<text text-anchor="middle" x="129.1689" y="-21.8" font-family="Serif" font-size="14.00" fill="#000000">S</text>
</g>
<!-- n5 -->
<!-- die -->
<g id="n5" class="node">
<title>n5</title>
<polygon fill="none" stroke="#000000" points="31.5,-125 31.5,-149 59.5,-149 59.5,-125 31.5,-125"/>
<text text-anchor="start" x="36.1587" y="-132.8" font-family="Serif" font-size="14.00" fill="#000000">die</text>
</g>
<!-- n5&#45;&gt;n3 -->
<!-- D -->
<g id="e5" class="edge">
<title>n5:s&#45;&gt;n3:n</title>
<path fill="none" stroke="#000000" d="M45.5,-125C45.5,-103.6119 58.2478,-98.8826 60.2396,-80.0974"/>
<polygon fill="#000000" stroke="#000000" points="61.9926,-80.0828 60.5,-75 58.4971,-79.9042 61.9926,-80.0828"/>
<text text-anchor="middle" x="61.5552" y="-95.8" font-family="Serif" font-size="14.00" fill="#000000">D</text>
</g>
<!-- n6 -->
<!-- id -->
<g id="n6" class="node">
<title>n6</title>
<polygon fill="none" stroke="#000000" points="120.5,-125 120.5,-149 144.5,-149 144.5,-125 120.5,-125"/>
<text text-anchor="start" x="127.0518" y="-132.8" font-family="Serif" font-size="14.00" fill="#000000">id</text>
</g>
<!-- n6&#45;&gt;n4 -->
<!-- R -->
<g id="e6" class="edge">
<title>n6:s&#45;&gt;n4:n</title>
<path fill="none" stroke="#000000" d="M132.5,-125C132.5,-104.4894 126.6514,-98.4472 125.6462,-80.4234"/>
<polygon fill="#000000" stroke="#000000" points="127.3842,-79.951 125.5,-75 123.8855,-80.0454 127.3842,-79.951"/>
<text text-anchor="middle" x="135.5552" y="-95.8" font-family="Serif" font-size="14.00" fill="#000000">R</text>
</g>
<!-- n7 -->
<!-- progression -->
<g id="n7" class="node">
<title>n7</title>
<polygon fill="none" stroke="#000000" points=".5,-199 .5,-223 83.5,-223 83.5,-199 .5,-199"/>
<text text-anchor="start" x="5.4243" y="-206.8" font-family="Serif" font-size="14.00" fill="#000000">progression</text>
</g>
<!-- n7&#45;&gt;n5 -->
<!-- I -->
<g id="e7" class="edge">
<title>n7:s&#45;&gt;n5:n</title>
<path fill="none" stroke="#000000" d="M42.5,-199C42.5,-178.651 45.0065,-172.3273 45.4373,-154.3889"/>
<polygon fill="#000000" stroke="#000000" points="47.1917,-154.02 45.5,-149 43.6919,-153.9793 47.1917,-154.02"/>
<text text-anchor="middle" x="47.4448" y="-169.8" font-family="Serif" font-size="14.00" fill="#000000">I</text>
</g>
<!-- n8 -->
<!-- recovery -->
<g id="n8" class="node">
<title>n8</title>
<polygon fill="none" stroke="#000000" points="101.5,-199 101.5,-223 164.5,-223 164.5,-199 101.5,-199"/>
<text text-anchor="start" x="106.1587" y="-206.8" font-family="Serif" font-size="14.00" fill="#000000">recovery</text>
</g>
<!-- n8&#45;&gt;n6 -->
<!-- R -->
<g id="e8" class="edge">
<title>n8:s&#45;&gt;n6:n</title>
<path fill="none" stroke="#000000" d="M133.5,-199C133.5,-178.6834 132.6645,-172.3032 132.5209,-154.3819"/>
<polygon fill="#000000" stroke="#000000" points="134.2695,-153.9931 132.5,-149 130.7695,-154.0068 134.2695,-153.9931"/>
<text text-anchor="middle" x="137.5552" y="-169.8" font-family="Serif" font-size="14.00" fill="#000000">R</text>
</g>
<!-- n9&#45;&gt;n7 -->
<!-- E -->
<g id="e9" class="edge">
<title>n9:s&#45;&gt;n7:n</title>
<path fill="none" stroke="#000000" d="M84.5,-273C84.5,-245.792 47.5859,-251.1612 42.9717,-228.0253"/>
<polygon fill="#000000" stroke="#000000" points="44.7097,-227.8146 42.5,-223 41.225,-228.1417 44.7097,-227.8146"/>
<text text-anchor="middle" x="80.1689" y="-243.8" font-family="Serif" font-size="14.00" fill="#000000">E</text>
</g>
<!-- n9&#45;&gt;n8 -->
<!-- I -->
<g id="e10" class="edge">
<title>n9:s&#45;&gt;n8:n</title>
<path fill="none" stroke="#000000" d="M118.5,-273C118.5,-251.6119 131.2478,-246.8826 133.2396,-228.0974"/>
<polygon fill="#000000" stroke="#000000" points="134.9926,-228.0828 133.5,-223 131.4971,-227.9042 134.9926,-228.0828"/>
<text text-anchor="middle" x="130.4448" y="-243.8" font-family="Serif" font-size="14.00" fill="#000000">I</text>
</g>
</g>
</svg>
