<?xml version="1.0" encoding="UTF-8" standalone="no"?>
<!DOCTYPE svg PUBLIC "-//W3C//DTD SVG 1.1//EN"
 "http://www.w3.org/Graphics/SVG/1.1/DTD/svg11.dtd">
<!-- Generated by graphviz version 2.40.1 (20161225.0304)
 -->
<!-- Title: G Pages: 1 -->
<svg width="149pt" height="292pt"
 viewBox="0.00 0.00 149.00 292.00" xmlns="http://www.w3.org/2000/svg" xmlns:xlink="http://www.w3.org/1999/xlink">
<g id="graph0" class="graph" transform="scale(1 1) rotate(0) translate(4 288)">
<title>G</title>
<polygon fill="#ffffff" stroke="transparent" points="-4,4 -4,-288 145,-288 145,4 -4,4"/>
<!-- n1p1 -->
<!-- n1p2 -->
<!-- n1p1&#45;&gt;n1p2 -->
<!-- n3 -->
<!-- exposure -->
<g id="n3" class="node">
<title>n3</title>
<polygon fill="none" stroke="#000000" points="51.5,-209 51.5,-233 118.5,-233 118.5,-209 51.5,-209"/>
<text text-anchor="start" x="56.2036" y="-216.8" font-family="Serif" font-size="14.00" fill="#000000">exposure</text>
</g>
<!-- n1p1&#45;&gt;n3 -->
<!-- S -->
<g id="e1" class="edge">
<title>n1p1:s&#45;&gt;n3:n</title>
<path fill="none" stroke="#000000" d="M49.5,-283C49.5,-261.0846 65.6472,-257.2863 68.1702,-238.2017"/>
<polygon fill="#000000" stroke="#000000" points="69.93,-238.1007 68.5,-233 66.4371,-237.8792 69.93,-238.1007"/>
<text text-anchor="middle" x="68.1689" y="-253.8" font-family="Serif" font-size="14.00" fill="#000000">S</text>
</g>
<!-- n1p2&#45;&gt;n3 -->
<!-- I -->
<g id="e2" class="edge">
<title>n1p2:s&#45;&gt;n3:n</title>
<path fill="none" stroke="#000000" d="M109.5,-283C109.5,-262.4894 103.6514,-256.4472 102.6462,-238.4234"/>
<polygon fill="#000000" stroke="#000000" points="104.3842,-237.951 102.5,-233 100.8855,-238.0454 104.3842,-237.951"/>
<text text-anchor="middle" x="109.4448" y="-253.8" font-family="Serif" font-size="14.00" fill="#000000">I</text>
</g>
<!-- n2p1 -->
<!-- n2p2 -->
<!-- n2p1&#45;&gt;n2p2 -->
<!-- n5 -->
<!-- progression -->
<g id="n5" class="node">
<title>n5</title>
<polygon fill="none" stroke="#000000" points=".5,-135 .5,-159 83.5,-159 83.5,-135 .5,-135"/>
<text text-anchor="start" x="5.4243" y="-142.8" font-family="Serif" font-size="14.00" fill="#000000">progression</text>
</g>
<!-- n3&#45;&gt;n5 -->
<!-- E -->
<g id="e3" class="edge">
<title>n3:s&#45;&gt;n5:n</title>
<path fill="none" stroke="#000000" d="M68.5,-209C68.5,-185.8118 46.2162,-184.1716 42.9084,-164.182"/>
<polygon fill="#000000" stroke="#000000" points="44.6375,-163.847 42.5,-159 41.1483,-164.1221 44.6375,-163.847"/>
<text text-anchor="middle" x="67.1689" y="-179.8" font-family="Serif" font-size="14.00" fill="#000000">E</text>
</g>
<!-- n6 -->
<!-- recovery -->
<g id="n6" class="node">
<title>n6</title>
<polygon fill="none" stroke="#000000" points="78.5,-93 78.5,-117 141.5,-117 141.5,-93 78.5,-93"/>
<text text-anchor="start" x="83.1587" y="-100.8" font-family="Serif" font-size="14.00" fill="#000000">recovery</text>
</g>
<!-- n3&#45;&gt;n6 -->
<!-- I -->
<g id="e4" class="edge">
<title>n3:s&#45;&gt;n6:n</title>
<path fill="none" stroke="#000000" d="M102.5,-209C102.5,-169.7204 109.8273,-158.9526 110.457,-122.1232"/>
<polygon fill="#000000" stroke="#000000" points="112.2078,-122.0146 110.5,-117 108.708,-121.9851 112.2078,-122.0146"/>
<text text-anchor="middle" x="105.4448" y="-179.8" font-family="Serif" font-size="14.00" fill="#000000">I</text>
</g>
<!-- n4 -->
<!-- die -->
<g id="n4" class="node">
<title>n4</title>
<polygon fill="none" stroke="#000000" points="30.5,-51 30.5,-75 58.5,-75 58.5,-51 30.5,-51"/>
<text text-anchor="start" x="35.1587" y="-58.8" font-family="Serif" font-size="14.00" fill="#000000">die</text>
</g>
<!-- n4&#45;&gt;n2p1 -->
<!-- D -->
<g id="e5" class="edge">
<title>n4:s&#45;&gt;n2p1:n</title>
<path fill="none" stroke="#000000" d="M44.5,-51C44.5,-30.5862 48.6776,-24.3754 49.3956,-6.4027"/>
<polygon fill="#000000" stroke="#000000" points="51.153,-6.0329 49.5,-1 47.6536,-5.9652 51.153,-6.0329"/>
<text text-anchor="middle" x="53.5552" y="-21.8" font-family="Serif" font-size="14.00" fill="#000000">D</text>
</g>
<!-- n5&#45;&gt;n4 -->
<!-- I -->
<g id="e6" class="edge">
<title>n5:s&#45;&gt;n4:n</title>
<path fill="none" stroke="#000000" d="M42.5,-135C42.5,-110.0903 44.2432,-102.6514 44.4747,-80.062"/>
<polygon fill="#000000" stroke="#000000" points="46.2249,-80.0087 44.5,-75 42.7249,-79.9912 46.2249,-80.0087"/>
<text text-anchor="middle" x="46.4448" y="-100.8" font-family="Serif" font-size="14.00" fill="#000000">I</text>
</g>
<!-- n6&#45;&gt;n2p2 -->
<!-- R -->
<g id="e7" class="edge">
<title>n6:s&#45;&gt;n2p2:n</title>
<path fill="none" stroke="#000000" d="M110.5,-93C110.5,-53.8681 110.5,-42.824 110.5,-6.1058"/>
<polygon fill="#000000" stroke="#000000" points="112.2501,-6 110.5,-1 108.7501,-6 112.2501,-6"/>
<text text-anchor="middle" x="115.5552" y="-58.8" font-family="Serif" font-size="14.00" fill="#000000">R</text>
</g>
</g>
</svg>
