<?xml version="1.0" encoding="UTF-8" standalone="no"?>
<!DOCTYPE svg PUBLIC "-//W3C//DTD SVG 1.1//EN"
 "http://www.w3.org/Graphics/SVG/1.1/DTD/svg11.dtd">
<!-- Generated by graphviz version 2.42.3 (0)
 -->
<!-- Title: G Pages: 1 -->
<svg width="324pt" height="96pt"
 viewBox="0.00 0.00 324.00 96.00" xmlns="http://www.w3.org/2000/svg" xmlns:xlink="http://www.w3.org/1999/xlink">
<g id="graph0" class="graph" transform="scale(1 1) rotate(0) translate(4 92)">
<title>G</title>
<polygon fill="white" stroke="transparent" points="-4,4 -4,-92 320,-92 320,4 -4,4"/>
<!-- n1p1 -->
<!-- n1p2 -->
<!-- n1p1&#45;&gt;n1p2 -->
<!-- n3 -->
<!-- predation -->
<g id="n3" class="node">
<title>n3</title>
<polygon fill="none" stroke="black" points="60,-40 60,-88 140,-88 140,-40 60,-40"/>
<text text-anchor="start" x="65" y="-60.3" font-family="Serif" font-size="14.00">predation</text>
</g>
<!-- n1p1&#45;&gt;n3 -->
<!-- X -->
<g id="e1" class="edge">
<title>n1p1:e&#45;&gt;n3:w</title>
<path fill="none" stroke="black" d="M24,-76C38.12,-76 42.9,-76 54.83,-76"/>
<polygon fill="black" stroke="black" points="55,-77.75 60,-76 55,-74.25 55,-77.75"/>
</g>
<!-- n1p3 -->
<!-- n1p2&#45;&gt;n1p3 -->
<!-- n4 -->
<!-- predation -->
<g id="n4" class="node">
<title>n4</title>
<polygon fill="none" stroke="black" points="176,0 176,-48 256,-48 256,0 176,0"/>
<text text-anchor="start" x="181" y="-20.3" font-family="Serif" font-size="14.00">predation</text>
</g>
<!-- n1p2&#45;&gt;n4 -->
<!-- X -->
<g id="e3" class="edge">
<title>n1p2:e&#45;&gt;n4:w</title>
<path fill="none" stroke="black" d="M24,-57C43.74,-57 41.22,-37.07 60,-31 93.83,-20.06 104.53,-28.55 140,-31 154.23,-31.98 158.8,-35.13 170.79,-35.85"/>
<polygon fill="black" stroke="black" points="170.95,-37.61 176,-36 171.05,-34.11 170.95,-37.61"/>
</g>
<!-- n1p3&#45;&gt;n3 -->
<!-- X -->
<g id="e2" class="edge">
<title>n1p3:e&#45;&gt;n3:w</title>
<path fill="none" stroke="black" d="M24,-38C39.29,-38 42.28,-49.1 54.88,-51.53"/>
<polygon fill="black" stroke="black" points="54.86,-53.29 60,-52 55.18,-49.8 54.86,-53.29"/>
</g>
<!-- n2p1 -->
<!-- n2p2 -->
<!-- n2p1&#45;&gt;n2p2 -->
<!-- n2p3 -->
<!-- n2p2&#45;&gt;n2p3 -->
<!-- n3&#45;&gt;n2p1 -->
<!-- X -->
<g id="e4" class="edge">
<title>n3:e&#45;&gt;n2p1:w</title>
<path fill="none" stroke="black" d="M140,-76C206.01,-76 223.4,-65.55 286.94,-65.02"/>
<polygon fill="black" stroke="black" points="287.01,-66.77 292,-65 286.99,-63.27 287.01,-66.77"/>
</g>
<!-- n3&#45;&gt;n4 -->
<!-- X -->
<g id="e5" class="edge">
<title>n3:e&#45;&gt;n4:w</title>
<path fill="none" stroke="black" d="M140,-52C162.05,-52 153.71,-18.01 171.01,-12.69"/>
<polygon fill="black" stroke="black" points="171.29,-14.42 176,-12 170.81,-10.96 171.29,-14.42"/>
</g>
<!-- n4&#45;&gt;n2p2 -->
<!-- X -->
<g id="e6" class="edge">
<title>n4:e&#45;&gt;n2p2:w</title>
<path fill="none" stroke="black" d="M256,-36C270.12,-36 274.9,-36 286.83,-36"/>
<polygon fill="black" stroke="black" points="287,-37.75 292,-36 287,-34.25 287,-37.75"/>
</g>
<!-- n4&#45;&gt;n2p3 -->
<!-- X -->
<g id="e7" class="edge">
<title>n4:e&#45;&gt;n2p3:w</title>
<path fill="none" stroke="black" d="M256,-12C270.17,-12 274.87,-14.34 286.82,-14.89"/>
<polygon fill="black" stroke="black" points="286.96,-16.64 292,-15 287.04,-13.14 286.96,-16.64"/>
</g>
</g>
</svg>
