<?xml version="1.0" encoding="UTF-8" standalone="no"?>
<!DOCTYPE svg PUBLIC "-//W3C//DTD SVG 1.1//EN"
 "http://www.w3.org/Graphics/SVG/1.1/DTD/svg11.dtd">
<!-- Generated by graphviz version 2.42.3 (0)
 -->
<!-- Title: G Pages: 1 -->
<svg width="661pt" height="201pt"
 viewBox="0.00 0.00 661.00 201.00" xmlns="http://www.w3.org/2000/svg" xmlns:xlink="http://www.w3.org/1999/xlink">
<g id="graph0" class="graph" transform="scale(1 1) rotate(0) translate(4 197)">
<title>G</title>
<polygon fill="white" stroke="transparent" points="-4,4 -4,-197 657,-197 657,4 -4,4"/>
<!-- n1p1 -->
<!-- n1p2 -->
<!-- n1p1&#45;&gt;n1p2 -->
<!-- n3 -->
<!-- inf¹³₂₃ -->
<g id="n3" class="node">
<title>n3</title>
<polygon fill="none" stroke="black" points="60,-97.5 60,-169.5 110,-169.5 110,-97.5 60,-97.5"/>
<text text-anchor="start" x="65" y="-129.8" font-family="Serif" font-size="14.00">inf¹³₂₃</text>
</g>
<!-- n1p1&#45;&gt;n3 -->
<!-- X -->
<g id="e1" class="edge">
<title>n1p1:e&#45;&gt;n3:w</title>
<path fill="none" stroke="black" d="M24,-154.5C38.17,-154.5 42.87,-156.84 54.82,-157.39"/>
<polygon fill="black" stroke="black" points="54.96,-159.14 60,-157.5 55.04,-155.64 54.96,-159.14"/>
</g>
<!-- n1p3 -->
<!-- n1p2&#45;&gt;n1p3 -->
<!-- n1p2&#45;&gt;n3 -->
<!-- X -->
<g id="e2" class="edge">
<title>n1p2:e&#45;&gt;n3:w</title>
<path fill="none" stroke="black" d="M24,-133.5C38.12,-133.5 42.9,-133.5 54.83,-133.5"/>
<polygon fill="black" stroke="black" points="55,-135.25 60,-133.5 55,-131.75 55,-135.25"/>
</g>
<!-- n1p4 -->
<!-- n1p3&#45;&gt;n1p4 -->
<!-- n1p3&#45;&gt;n3 -->
<!-- X -->
<g id="e3" class="edge">
<title>n1p3:e&#45;&gt;n3:w</title>
<path fill="none" stroke="black" d="M24,-109.5C38.12,-109.5 42.9,-109.5 54.83,-109.5"/>
<polygon fill="black" stroke="black" points="55,-111.25 60,-109.5 55,-107.75 55,-111.25"/>
</g>
<!-- n1p5 -->
<!-- n1p4&#45;&gt;n1p5 -->
<!-- n4 -->
<!-- inf¹³₂₃ -->
<g id="n4" class="node">
<title>n4</title>
<polygon fill="none" stroke="black" points="146,-60.5 146,-132.5 196,-132.5 196,-60.5 146,-60.5"/>
<text text-anchor="start" x="151" y="-92.8" font-family="Serif" font-size="14.00">inf¹³₂₃</text>
</g>
<!-- n1p4&#45;&gt;n4 -->
<!-- X -->
<g id="e4" class="edge">
<title>n1p4:e&#45;&gt;n4:w</title>
<path fill="none" stroke="black" d="M24,-69.5C63.14,-69.5 75.14,-70.7 110,-88.5 127.28,-97.32 125.22,-116.44 140.62,-119.94"/>
<polygon fill="black" stroke="black" points="140.85,-121.72 146,-120.5 141.21,-118.24 140.85,-121.72"/>
</g>
<!-- n7 -->
<!-- predation -->
<g id="n7" class="node">
<title>n7</title>
<polygon fill="none" stroke="black" points="310,-19.5 310,-67.5 390,-67.5 390,-19.5 310,-19.5"/>
<text text-anchor="start" x="315" y="-39.8" font-family="Serif" font-size="14.00">predation</text>
</g>
<!-- n1p5&#45;&gt;n7 -->
<!-- X -->
<g id="e5" class="edge">
<title>n1p5:e&#45;&gt;n7:w</title>
<path fill="none" stroke="black" d="M24,-41.5C149.45,-41.5 181.93,-31.77 304.84,-31.51"/>
<polygon fill="black" stroke="black" points="305,-33.26 310,-31.5 305,-29.76 305,-33.26"/>
</g>
<!-- n2p1 -->
<!-- n2p2 -->
<!-- n2p1&#45;&gt;n2p2 -->
<!-- n2p3 -->
<!-- n2p2&#45;&gt;n2p3 -->
<!-- n2p4 -->
<!-- n2p3&#45;&gt;n2p4 -->
<!-- n2p5 -->
<!-- n2p4&#45;&gt;n2p5 -->
<!-- n3&#45;&gt;n4 -->
<!-- X -->
<g id="e6" class="edge">
<title>n3:e&#45;&gt;n4:w</title>
<path fill="none" stroke="black" d="M110,-109.5C125.15,-109.5 128.38,-99.19 140.92,-96.93"/>
<polygon fill="black" stroke="black" points="141.17,-98.67 146,-96.5 140.87,-95.18 141.17,-98.67"/>
</g>
<!-- n3&#45;&gt;n4 -->
<!-- X -->
<g id="e7" class="edge">
<title>n3:e&#45;&gt;n4:w</title>
<path fill="none" stroke="black" d="M110,-133.5C139.51,-133.5 117.66,-79.89 140.75,-73.19"/>
<polygon fill="black" stroke="black" points="141.27,-74.88 146,-72.5 140.82,-71.41 141.27,-74.88"/>
</g>
<!-- n5 -->
<!-- cure -->
<g id="n5" class="node">
<title>n5</title>
<polygon fill="none" stroke="black" points="232,-125.5 232,-173.5 274,-173.5 274,-125.5 232,-125.5"/>
<text text-anchor="start" x="237" y="-145.8" font-family="Serif" font-size="14.00">cure</text>
</g>
<!-- n3&#45;&gt;n5 -->
<!-- X -->
<g id="e8" class="edge">
<title>n3:e&#45;&gt;n5:w</title>
<path fill="none" stroke="black" d="M110,-157.5C162.45,-157.5 176.81,-161.24 226.73,-161.49"/>
<polygon fill="black" stroke="black" points="227,-163.24 232,-161.5 227,-159.74 227,-163.24"/>
</g>
<!-- n4&#45;&gt;n5 -->
<!-- X -->
<g id="e9" class="edge">
<title>n4:e&#45;&gt;n5:w</title>
<path fill="none" stroke="black" d="M196,-72.5C227.09,-72.5 202.28,-130.11 226.82,-136.86"/>
<polygon fill="black" stroke="black" points="226.82,-138.62 232,-137.5 227.25,-135.15 226.82,-138.62"/>
</g>
<!-- n6 -->
<!-- cure -->
<g id="n6" class="node">
<title>n6</title>
<polygon fill="none" stroke="black" points="232,-59.5 232,-107.5 274,-107.5 274,-59.5 232,-59.5"/>
<text text-anchor="start" x="237" y="-79.8" font-family="Serif" font-size="14.00">cure</text>
</g>
<!-- n4&#45;&gt;n6 -->
<!-- X -->
<g id="e10" class="edge">
<title>n4:e&#45;&gt;n6:w</title>
<path fill="none" stroke="black" d="M196,-120.5C213.5,-120.5 212.89,-100.32 226.71,-96.22"/>
<polygon fill="black" stroke="black" points="227.28,-97.91 232,-95.5 226.81,-94.44 227.28,-97.91"/>
</g>
<!-- n4&#45;&gt;n6 -->
<!-- X -->
<g id="e11" class="edge">
<title>n4:e&#45;&gt;n6:w</title>
<path fill="none" stroke="black" d="M196,-96.5C213.5,-96.5 212.89,-76.32 226.71,-72.22"/>
<polygon fill="black" stroke="black" points="227.28,-73.91 232,-71.5 226.81,-70.44 227.28,-73.91"/>
</g>
<!-- n9 -->
<!-- birth -->
<g id="n9" class="node">
<title>n9</title>
<polygon fill="none" stroke="black" points="443,-167.5 443,-192.5 489,-192.5 489,-167.5 443,-167.5"/>
<text text-anchor="start" x="448" y="-176.3" font-family="Serif" font-size="14.00">birth</text>
</g>
<!-- n5&#45;&gt;n9 -->
<!-- X -->
<g id="e12" class="edge">
<title>n5:e&#45;&gt;n9:w</title>
<path fill="none" stroke="black" d="M274,-161.5C347.33,-161.5 366.04,-178.67 436.81,-179.47"/>
<polygon fill="black" stroke="black" points="436.99,-181.22 442,-179.5 437.01,-177.72 436.99,-181.22"/>
</g>
<!-- n10 -->
<!-- death -->
<g id="n10" class="node">
<title>n10</title>
<polygon fill="none" stroke="black" points="325,-125.5 325,-150.5 376,-150.5 376,-125.5 325,-125.5"/>
<text text-anchor="start" x="330" y="-134.3" font-family="Serif" font-size="14.00">death</text>
</g>
<!-- n5&#45;&gt;n10 -->
<!-- X -->
<g id="e13" class="edge">
<title>n5:e&#45;&gt;n10:w</title>
<path fill="none" stroke="black" d="M274,-137.5C294.31,-137.5 300.7,-137.5 318.62,-137.5"/>
<polygon fill="black" stroke="black" points="319,-139.25 324,-137.5 319,-135.75 319,-139.25"/>
</g>
<!-- n6&#45;&gt;n7 -->
<!-- X -->
<g id="e14" class="edge">
<title>n6:e&#45;&gt;n7:w</title>
<path fill="none" stroke="black" d="M274,-71.5C289.59,-71.5 292.08,-58.81 304.8,-56.03"/>
<polygon fill="black" stroke="black" points="305.2,-57.75 310,-55.5 304.85,-54.27 305.2,-57.75"/>
</g>
<!-- n8 -->
<!-- predation -->
<g id="n8" class="node">
<title>n8</title>
<polygon fill="none" stroke="black" points="426,-18.5 426,-66.5 506,-66.5 506,-18.5 426,-18.5"/>
<text text-anchor="start" x="431" y="-38.8" font-family="Serif" font-size="14.00">predation</text>
</g>
<!-- n6&#45;&gt;n8 -->
<!-- X -->
<g id="e15" class="edge">
<title>n6:e&#45;&gt;n8:w</title>
<path fill="none" stroke="black" d="M274,-95.5C326.24,-95.5 341.02,-94.68 390,-76.5 405.79,-70.64 407.13,-57.55 420.84,-54.95"/>
<polygon fill="black" stroke="black" points="421.17,-56.68 426,-54.5 420.87,-53.19 421.17,-56.68"/>
</g>
<!-- n7&#45;&gt;n8 -->
<!-- X -->
<g id="e16" class="edge">
<title>n7:e&#45;&gt;n8:w</title>
<path fill="none" stroke="black" d="M390,-31.5C404.13,-31.5 408.89,-30.72 420.83,-30.54"/>
<polygon fill="black" stroke="black" points="421.01,-32.29 426,-30.5 420.99,-28.79 421.01,-32.29"/>
</g>
<!-- n11 -->
<!-- death -->
<g id="n11" class="node">
<title>n11</title>
<polygon fill="none" stroke="black" points="542.5,-85.5 542.5,-110.5 593.5,-110.5 593.5,-85.5 542.5,-85.5"/>
<text text-anchor="start" x="547.5" y="-94.3" font-family="Serif" font-size="14.00">death</text>
</g>
<!-- n7&#45;&gt;n11 -->
<!-- X -->
<g id="e17" class="edge">
<title>n7:e&#45;&gt;n11:w</title>
<path fill="none" stroke="black" d="M390,-55.5C408.3,-55.5 408.79,-69.27 426,-75.5 473.7,-92.77 488.54,-97.21 536.9,-97.49"/>
<polygon fill="black" stroke="black" points="537,-99.24 542,-97.5 537,-95.74 537,-99.24"/>
</g>
<!-- n12 -->
<!-- birth -->
<g id="n12" class="node">
<title>n12</title>
<polygon fill="none" stroke="black" points="544.5,-42.5 544.5,-67.5 590.5,-67.5 590.5,-42.5 544.5,-42.5"/>
<text text-anchor="start" x="549.5" y="-51.3" font-family="Serif" font-size="14.00">birth</text>
</g>
<!-- n8&#45;&gt;n12 -->
<!-- X -->
<g id="e18" class="edge">
<title>n8:e&#45;&gt;n12:w</title>
<path fill="none" stroke="black" d="M506,-54.5C520.84,-54.5 525.77,-54.5 538.45,-54.5"/>
<polygon fill="black" stroke="black" points="538.5,-56.25 543.5,-54.5 538.5,-52.75 538.5,-56.25"/>
</g>
<!-- n13 -->
<!-- death -->
<g id="n13" class="node">
<title>n13</title>
<polygon fill="none" stroke="black" points="542.5,0.5 542.5,-24.5 593.5,-24.5 593.5,0.5 542.5,0.5"/>
<text text-anchor="start" x="547.5" y="-8.3" font-family="Serif" font-size="14.00">death</text>
</g>
<!-- n8&#45;&gt;n13 -->
<!-- X -->
<g id="e19" class="edge">
<title>n8:e&#45;&gt;n13:w</title>
<path fill="none" stroke="black" d="M506,-30.5C522.25,-30.5 523.76,-15.16 537.01,-12.05"/>
<polygon fill="black" stroke="black" points="537.22,-13.79 542,-11.5 536.84,-10.31 537.22,-13.79"/>
</g>
<!-- n9&#45;&gt;n2p1 -->
<!-- X -->
<g id="e20" class="edge">
<title>n9:e&#45;&gt;n2p1:w</title>
<path fill="none" stroke="black" d="M490,-179.5C550.16,-179.5 566.11,-169.14 623.67,-168.53"/>
<polygon fill="black" stroke="black" points="624.01,-170.28 629,-168.5 623.99,-166.78 624.01,-170.28"/>
</g>
<!-- n10&#45;&gt;n2p2 -->
<!-- X -->
<g id="e21" class="edge">
<title>n10:e&#45;&gt;n2p2:w</title>
<path fill="none" stroke="black" d="M377,-137.5C487.25,-137.5 516.1,-139.44 623.81,-139.5"/>
<polygon fill="black" stroke="black" points="624,-141.25 629,-139.5 624,-137.75 624,-141.25"/>
</g>
<!-- n11&#45;&gt;n2p3 -->
<!-- X -->
<g id="e22" class="edge">
<title>n11:e&#45;&gt;n2p3:w</title>
<path fill="none" stroke="black" d="M593,-97.5C607.12,-97.5 611.9,-97.5 623.83,-97.5"/>
<polygon fill="black" stroke="black" points="624,-99.25 629,-97.5 624,-95.75 624,-99.25"/>
</g>
<!-- n12&#45;&gt;n2p4 -->
<!-- X -->
<g id="e23" class="edge">
<title>n12:e&#45;&gt;n2p4:w</title>
<path fill="none" stroke="black" d="M591.5,-54.5C606.34,-54.5 611.27,-54.5 623.95,-54.5"/>
<polygon fill="black" stroke="black" points="624,-56.25 629,-54.5 624,-52.75 624,-56.25"/>
</g>
<!-- n13&#45;&gt;n2p5 -->
<!-- X -->
<g id="e24" class="edge">
<title>n13:e&#45;&gt;n2p5:w</title>
<path fill="none" stroke="black" d="M593,-11.5C608.02,-11.5 611.46,-21.02 623.95,-23.1"/>
<polygon fill="black" stroke="black" points="623.88,-24.85 629,-23.5 624.15,-21.36 623.88,-24.85"/>
</g>
</g>
</svg>
