<?xml version="1.0" encoding="UTF-8" standalone="no"?>
<!DOCTYPE svg PUBLIC "-//W3C//DTD SVG 1.1//EN"
 "http://www.w3.org/Graphics/SVG/1.1/DTD/svg11.dtd">
<!-- Generated by graphviz version 2.42.3 (0)
 -->
<!-- Title: G Pages: 1 -->
<svg width="377pt" height="74pt"
 viewBox="0.00 0.00 377.00 74.00" xmlns="http://www.w3.org/2000/svg" xmlns:xlink="http://www.w3.org/1999/xlink">
<g id="graph0" class="graph" transform="scale(1 1) rotate(0) translate(4 70)">
<title>G</title>
<polygon fill="white" stroke="transparent" points="-4,4 -4,-70 373,-70 373,4 -4,4"/>
<!-- n1p1 -->
<!-- n1p2 -->
<!-- n1p1&#45;&gt;n1p2 -->
<!-- n3 -->
<!-- birth -->
<g id="n3" class="node">
<title>n3</title>
<polygon fill="none" stroke="black" points="60,-40.5 60,-65.5 106,-65.5 106,-40.5 60,-40.5"/>
<text text-anchor="start" x="65" y="-49.3" font-family="Serif" font-size="14.00">birth</text>
</g>
<!-- n1p1&#45;&gt;n3 -->
<!-- X -->
<g id="e1" class="edge">
<title>n1p1:e&#45;&gt;n3:w</title>
<path fill="none" stroke="black" d="M24,-46.5C38.32,-46.5 42.77,-51.18 54.78,-52.27"/>
<polygon fill="black" stroke="black" points="54.93,-54.03 60,-52.5 55.08,-50.53 54.93,-54.03"/>
</g>
<!-- n4 -->
<!-- predation -->
<g id="n4" class="node">
<title>n4</title>
<polygon fill="none" stroke="black" points="142,-8.5 142,-56.5 222,-56.5 222,-8.5 142,-8.5"/>
<text text-anchor="start" x="147" y="-28.8" font-family="Serif" font-size="14.00">predation</text>
</g>
<!-- n1p2&#45;&gt;n4 -->
<!-- X -->
<g id="e2" class="edge">
<title>n1p2:e&#45;&gt;n4:w</title>
<path fill="none" stroke="black" d="M24,-22.5C74.71,-22.5 88.63,-20.63 136.9,-20.51"/>
<polygon fill="black" stroke="black" points="137,-22.26 142,-20.5 137,-18.76 137,-22.26"/>
</g>
<!-- n2p1 -->
<!-- n2p2 -->
<!-- n2p1&#45;&gt;n2p2 -->
<!-- n3&#45;&gt;n4 -->
<!-- X -->
<g id="e3" class="edge">
<title>n3:e&#45;&gt;n4:w</title>
<path fill="none" stroke="black" d="M106,-52.5C120.47,-52.5 124.67,-46.27 136.74,-44.8"/>
<polygon fill="black" stroke="black" points="137.11,-46.54 142,-44.5 136.91,-43.04 137.11,-46.54"/>
</g>
<!-- n4&#45;&gt;n2p1 -->
<!-- X -->
<g id="e4" class="edge">
<title>n4:e&#45;&gt;n2p1:w</title>
<path fill="none" stroke="black" d="M222,-44.5C274.97,-44.5 289.42,-47.32 339.99,-47.49"/>
<polygon fill="black" stroke="black" points="340,-49.24 345,-47.5 340,-45.74 340,-49.24"/>
</g>
<!-- n5 -->
<!-- death -->
<g id="n5" class="node">
<title>n5</title>
<polygon fill="none" stroke="black" points="258.5,0.5 258.5,-24.5 309.5,-24.5 309.5,0.5 258.5,0.5"/>
<text text-anchor="start" x="263.5" y="-8.3" font-family="Serif" font-size="14.00">death</text>
</g>
<!-- n4&#45;&gt;n5 -->
<!-- X -->
<g id="e5" class="edge">
<title>n4:e&#45;&gt;n5:w</title>
<path fill="none" stroke="black" d="M222,-20.5C236.56,-20.5 240.62,-13.49 252.71,-11.84"/>
<polygon fill="black" stroke="black" points="253.12,-13.57 258,-11.5 252.9,-10.08 253.12,-13.57"/>
</g>
<!-- n5&#45;&gt;n2p2 -->
<!-- X -->
<g id="e6" class="edge">
<title>n5:e&#45;&gt;n2p2:w</title>
<path fill="none" stroke="black" d="M309,-11.5C323.9,-11.5 327.54,-20.23 339.98,-22.13"/>
<polygon fill="black" stroke="black" points="339.89,-23.88 345,-22.5 340.14,-20.39 339.89,-23.88"/>
</g>
</g>
</svg>
