<?xml version="1.0" encoding="UTF-8" standalone="no"?>
<!DOCTYPE svg PUBLIC "-//W3C//DTD SVG 1.1//EN"
 "http://www.w3.org/Graphics/SVG/1.1/DTD/svg11.dtd">
<!-- Generated by graphviz version 2.42.3 (0)
 -->
<!-- Title: G Pages: 1 -->
<svg width="606pt" height="215pt"
 viewBox="0.00 0.00 606.39 214.50" xmlns="http://www.w3.org/2000/svg" xmlns:xlink="http://www.w3.org/1999/xlink">
<g id="graph0" class="graph" transform="scale(1 1) rotate(0) translate(4 210.5)">
<title>G</title>
<polygon fill="white" stroke="transparent" points="-4,4 -4,-210.5 602.39,-210.5 602.39,4 -4,4"/>
<!-- X₁ -->
<g id="node1" class="node">
<title>X₁</title>
<ellipse fill="#1c86ee" stroke="#1c86ee" cx="71.8" cy="-51.5" rx="20.6" ry="20.6"/>
<text text-anchor="middle" x="71.8" y="-47.8" font-family="Times,serif" font-size="14.00">X₁</text>
</g>
<!-- T1 -->
<g id="node5" class="node">
<title>T1</title>
<polygon fill="forestgreen" stroke="forestgreen" points="164.6,-69.5 128.6,-69.5 128.6,-33.5 164.6,-33.5 164.6,-69.5"/>
<text text-anchor="middle" x="146.6" y="-47.8" font-family="Times,serif" font-size="14.00">T1</text>
</g>
<!-- X₁&#45;&gt;T1 -->
<g id="edge1" class="edge">
<title>X₁&#45;&gt;T1</title>
<path fill="none" stroke="black" d="M92.69,-51.5C100.51,-51.5 109.61,-51.5 118.04,-51.5"/>
<polygon fill="black" stroke="black" points="118.21,-55 128.21,-51.5 118.21,-48 118.21,-55"/>
</g>
<!-- O1 -->
<g id="node13" class="node">
<title>O1</title>
<polygon fill="white" stroke="transparent" points="157.1,-15 136.1,-15 136.1,0 157.1,0 157.1,-15"/>
<text text-anchor="middle" x="146.6" y="-3.8" font-family="Times,serif" font-size="14.00">O1</text>
</g>
<!-- X₁&#45;&gt;O1 -->
<g id="edge17" class="edge">
<title>X₁&#45;&gt;O1</title>
<path fill="none" stroke="black" stroke-dasharray="5,2" d="M90.05,-41.07C101.22,-34.32 115.75,-25.54 127.15,-18.65"/>
<polygon fill="black" stroke="black" points="129.09,-21.56 135.84,-13.4 125.47,-15.57 129.09,-21.56"/>
</g>
<!-- X₂ -->
<g id="node2" class="node">
<title>X₂</title>
<ellipse fill="#1c86ee" stroke="#1c86ee" cx="221.39" cy="-134.5" rx="20.6" ry="20.6"/>
<text text-anchor="middle" x="221.39" y="-130.8" font-family="Times,serif" font-size="14.00">X₂</text>
</g>
<!-- T2 -->
<g id="node6" class="node">
<title>T2</title>
<polygon fill="forestgreen" stroke="forestgreen" points="314.19,-152.5 278.19,-152.5 278.19,-116.5 314.19,-116.5 314.19,-152.5"/>
<text text-anchor="middle" x="296.19" y="-130.8" font-family="Times,serif" font-size="14.00">T2</text>
</g>
<!-- X₂&#45;&gt;T2 -->
<g id="edge6" class="edge">
<title>X₂&#45;&gt;T2</title>
<path fill="none" stroke="black" d="M241.52,-128.48C249.55,-127.75 259.03,-127.57 267.78,-127.94"/>
<polygon fill="black" stroke="black" points="267.71,-131.44 277.93,-128.66 268.21,-124.46 267.71,-131.44"/>
</g>
<!-- T3 -->
<g id="node7" class="node">
<title>T3</title>
<polygon fill="forestgreen" stroke="forestgreen" points="314.19,-206.5 278.19,-206.5 278.19,-170.5 314.19,-170.5 314.19,-206.5"/>
<text text-anchor="middle" x="296.19" y="-184.8" font-family="Times,serif" font-size="14.00">T3</text>
</g>
<!-- X₂&#45;&gt;T3 -->
<g id="edge9" class="edge">
<title>X₂&#45;&gt;T3</title>
<path fill="none" stroke="black" d="M238.55,-146.48C247.71,-153.28 259.39,-161.94 269.75,-169.63"/>
<polygon fill="black" stroke="black" points="267.95,-172.65 278.07,-175.8 272.12,-167.03 267.95,-172.65"/>
</g>
<!-- O2 -->
<g id="node14" class="node">
<title>O2</title>
<polygon fill="white" stroke="transparent" points="306.69,-98 285.69,-98 285.69,-83 306.69,-83 306.69,-98"/>
<text text-anchor="middle" x="296.19" y="-86.8" font-family="Times,serif" font-size="14.00">O2</text>
</g>
<!-- X₂&#45;&gt;O2 -->
<g id="edge18" class="edge">
<title>X₂&#45;&gt;O2</title>
<path fill="none" stroke="black" stroke-dasharray="5,2" d="M239.65,-124.07C250.82,-117.32 265.35,-108.54 276.74,-101.65"/>
<polygon fill="black" stroke="black" points="278.69,-104.56 285.44,-96.4 275.07,-98.57 278.69,-104.56"/>
</g>
<!-- X₃ -->
<g id="node3" class="node">
<title>X₃</title>
<ellipse fill="#1c86ee" stroke="#1c86ee" cx="370.99" cy="-50.5" rx="20.6" ry="20.6"/>
<text text-anchor="middle" x="370.99" y="-46.8" font-family="Times,serif" font-size="14.00">X₃</text>
</g>
<!-- X₃&#45;&gt;T1 -->
<g id="edge2" class="edge">
<title>X₃&#45;&gt;T1</title>
<path fill="none" stroke="black" d="M350.48,-54.1C339.82,-52.96 326.35,-50.58 314.19,-49.5 265.17,-45.14 207.88,-51.4 174.86,-53.49"/>
<polygon fill="black" stroke="black" points="174.45,-50.01 164.64,-54.02 174.81,-57 174.45,-50.01"/>
</g>
<!-- T4 -->
<g id="node8" class="node">
<title>T4</title>
<polygon fill="forestgreen" stroke="forestgreen" points="463.79,-106.5 427.79,-106.5 427.79,-70.5 463.79,-70.5 463.79,-106.5"/>
<text text-anchor="middle" x="445.79" y="-84.8" font-family="Times,serif" font-size="14.00">T4</text>
</g>
<!-- X₃&#45;&gt;T4 -->
<g id="edge11" class="edge">
<title>X₃&#45;&gt;T4</title>
<path fill="none" stroke="black" d="M389.99,-59.89C398.58,-64.38 409.02,-69.83 418.48,-74.77"/>
<polygon fill="black" stroke="black" points="417.02,-77.95 427.5,-79.48 420.26,-71.75 417.02,-77.95"/>
</g>
<!-- O3 -->
<g id="node15" class="node">
<title>O3</title>
<polygon fill="white" stroke="transparent" points="456.29,-52 435.29,-52 435.29,-37 456.29,-37 456.29,-52"/>
<text text-anchor="middle" x="445.79" y="-40.8" font-family="Times,serif" font-size="14.00">O3</text>
</g>
<!-- X₃&#45;&gt;O3 -->
<g id="edge19" class="edge">
<title>X₃&#45;&gt;O3</title>
<path fill="none" stroke="black" stroke-dasharray="5,2" d="M391.88,-48.86C402.15,-48.01 414.63,-46.99 424.9,-46.14"/>
<polygon fill="black" stroke="black" points="425.27,-49.62 434.95,-45.31 424.7,-42.64 425.27,-49.62"/>
</g>
<!-- X₄ -->
<g id="node4" class="node">
<title>X₄</title>
<ellipse fill="#1c86ee" stroke="#1c86ee" cx="520.59" cy="-88.5" rx="20.6" ry="20.6"/>
<text text-anchor="middle" x="520.59" y="-84.8" font-family="Times,serif" font-size="14.00">X₄</text>
</g>
<!-- X₄&#45;&gt;T2 -->
<g id="edge5" class="edge">
<title>X₄&#45;&gt;T2</title>
<path fill="none" stroke="black" d="M502.11,-98.85C491.4,-104.7 477.23,-111.61 463.79,-115.5 416.31,-129.26 358.52,-133.13 324.99,-134.17"/>
<polygon fill="black" stroke="black" points="324.51,-130.68 314.59,-134.42 324.68,-137.68 324.51,-130.68"/>
</g>
<!-- O4 -->
<g id="node16" class="node">
<title>O4</title>
<polygon fill="white" stroke="transparent" points="598.39,-96 577.39,-96 577.39,-81 598.39,-81 598.39,-96"/>
<text text-anchor="middle" x="587.89" y="-84.8" font-family="Times,serif" font-size="14.00">O4</text>
</g>
<!-- X₄&#45;&gt;O4 -->
<g id="edge20" class="edge">
<title>X₄&#45;&gt;O4</title>
<path fill="none" stroke="black" stroke-dasharray="5,2" d="M541.53,-88.5C549.68,-88.5 559.08,-88.5 567.2,-88.5"/>
<polygon fill="black" stroke="black" points="567.25,-92 577.25,-88.5 567.25,-85 567.25,-92"/>
</g>
<!-- T1&#45;&gt;X₂ -->
<g id="edge3" class="edge">
<title>T1&#45;&gt;X₂</title>
<path fill="none" stroke="black" d="M163.39,-69.51C174.2,-81.83 188.61,-98.26 200.24,-111.53"/>
<polygon fill="black" stroke="black" points="197.84,-114.1 207.07,-119.31 203.11,-109.48 197.84,-114.1"/>
</g>
<!-- T1&#45;&gt;X₃ -->
<g id="edge4" class="edge">
<title>T1&#45;&gt;X₃</title>
<path fill="none" stroke="black" d="M164.64,-43.26C194.82,-34.96 259.62,-26.65 314.19,-31.5 323.88,-32.36 334.4,-34.05 343.67,-36.31"/>
<polygon fill="black" stroke="black" points="342.92,-39.74 353.49,-39.1 344.83,-33 342.92,-39.74"/>
</g>
<!-- T2&#45;&gt;X₂ -->
<g id="edge8" class="edge">
<title>T2&#45;&gt;X₂</title>
<path fill="none" stroke="black" d="M277.93,-140.34C270.07,-141.17 260.53,-141.43 251.6,-141.13"/>
<polygon fill="black" stroke="black" points="251.71,-137.63 241.52,-140.52 251.29,-144.62 251.71,-137.63"/>
</g>
<!-- T2&#45;&gt;X₃ -->
<g id="edge7" class="edge">
<title>T2&#45;&gt;X₃</title>
<path fill="none" stroke="black" d="M312.99,-116.27C323.79,-103.81 338.21,-87.17 349.84,-73.75"/>
<polygon fill="black" stroke="black" points="352.76,-75.73 356.66,-65.88 347.47,-71.14 352.76,-75.73"/>
</g>
<!-- T3&#45;&gt;X₁ -->
<g id="edge10" class="edge">
<title>T3&#45;&gt;X₁</title>
<path fill="none" stroke="black" d="M277.72,-189.09C245.12,-189.3 174.22,-185.48 128.6,-151.5 105.12,-134.02 90.2,-103.57 81.75,-80.85"/>
<polygon fill="black" stroke="black" points="85.02,-79.62 78.41,-71.34 78.42,-81.94 85.02,-79.62"/>
</g>
<!-- T4&#45;&gt;X₄ -->
<g id="edge12" class="edge">
<title>T4&#45;&gt;X₄</title>
<path fill="none" stroke="black" d="M464.04,-88.5C471.63,-88.5 480.78,-88.5 489.44,-88.5"/>
<polygon fill="black" stroke="black" points="489.62,-92 499.62,-88.5 489.62,-85 489.62,-92"/>
</g>
<!-- I1 -->
<g id="node9" class="node">
<title>I1</title>
<polygon fill="white" stroke="transparent" points="15,-59 0,-59 0,-44 15,-44 15,-59"/>
<text text-anchor="middle" x="7.5" y="-47.8" font-family="Times,serif" font-size="14.00">I1</text>
</g>
<!-- I1&#45;&gt;X₁ -->
<g id="edge13" class="edge">
<title>I1&#45;&gt;X₁</title>
<path fill="none" stroke="black" stroke-dasharray="5,2" d="M15.17,-51.5C21.39,-51.5 31.14,-51.5 40.74,-51.5"/>
<polygon fill="black" stroke="black" points="40.94,-55 50.94,-51.5 40.94,-48 40.94,-55"/>
</g>
<!-- I2 -->
<g id="node10" class="node">
<title>I2</title>
<polygon fill="white" stroke="transparent" points="154.1,-142 139.1,-142 139.1,-127 154.1,-127 154.1,-142"/>
<text text-anchor="middle" x="146.6" y="-130.8" font-family="Times,serif" font-size="14.00">I2</text>
</g>
<!-- I2&#45;&gt;X₂ -->
<g id="edge14" class="edge">
<title>I2&#45;&gt;X₂</title>
<path fill="none" stroke="black" stroke-dasharray="5,2" d="M154.31,-134.5C162.48,-134.5 176.81,-134.5 190.05,-134.5"/>
<polygon fill="black" stroke="black" points="190.29,-138 200.29,-134.5 190.29,-131 190.29,-138"/>
</g>
<!-- I3 -->
<g id="node11" class="node">
<title>I3</title>
<polygon fill="white" stroke="transparent" points="303.69,-65 288.69,-65 288.69,-50 303.69,-50 303.69,-65"/>
<text text-anchor="middle" x="296.19" y="-53.8" font-family="Times,serif" font-size="14.00">I3</text>
</g>
<!-- I3&#45;&gt;X₃ -->
<g id="edge15" class="edge">
<title>I3&#45;&gt;X₃</title>
<path fill="none" stroke="black" stroke-dasharray="5,2" d="M303.91,-56.85C312.13,-56.06 326.6,-54.67 339.91,-53.39"/>
<polygon fill="black" stroke="black" points="340.58,-56.84 350.19,-52.4 339.91,-49.88 340.58,-56.84"/>
</g>
<!-- I4 -->
<g id="node12" class="node">
<title>I4</title>
<polygon fill="white" stroke="transparent" points="453.29,-19 438.29,-19 438.29,-4 453.29,-4 453.29,-19"/>
<text text-anchor="middle" x="445.79" y="-7.8" font-family="Times,serif" font-size="14.00">I4</text>
</g>
<!-- I4&#45;&gt;X₄ -->
<g id="edge16" class="edge">
<title>I4&#45;&gt;X₄</title>
<path fill="none" stroke="black" stroke-dasharray="5,2" d="M453.52,-17.62C456.69,-20.55 460.49,-24.15 463.79,-27.5 475.91,-39.79 488.95,-53.99 499.38,-65.6"/>
<polygon fill="black" stroke="black" points="496.86,-68.04 506.14,-73.17 502.09,-63.38 496.86,-68.04"/>
</g>
</g>
</svg>
