<?xml version="1.0" encoding="UTF-8" standalone="no"?>
<!DOCTYPE svg PUBLIC "-//W3C//DTD SVG 1.1//EN"
 "http://www.w3.org/Graphics/SVG/1.1/DTD/svg11.dtd">
<!-- Generated by graphviz version 2.38.0 (20140413.2041)
 -->
<!-- Title: G Pages: 1 -->
<svg width="627pt" height="364pt"
 viewBox="0.00 0.00 627.00 364.00" xmlns="http://www.w3.org/2000/svg" xmlns:xlink="http://www.w3.org/1999/xlink">
<g id="graph0" class="graph" transform="scale(1 1) rotate(0) translate(4 360)">
<title>G</title>
<polygon fill="white" stroke="none" points="-4,4 -4,-360 623,-360 623,4 -4,4"/>
<g id="clust1" class="cluster"><title>cluster_naught</title>
<polygon fill="none" stroke="black" points="8,-8 8,-348 611,-348 611,-8 8,-8"/>
<text text-anchor="middle" x="309.5" y="-332.8" font-family="Times,serif" font-size="14.00">SemanticModels.jl</text>
</g>
<g id="clust2" class="cluster"><title>cluster_0</title>
<polygon fill="lightgrey" stroke="lightgrey" points="16,-242 16,-317 603,-317 603,-242 16,-242"/>
<text text-anchor="middle" x="309.5" y="-301.8" font-family="Times,serif" font-size="14.00">Standard Paradigm</text>
</g>
<g id="clust3" class="cluster"><title>cluster_2</title>
<polygon fill="white" stroke="white" points="35.5,-16 35.5,-234 581.5,-234 581.5,-16 35.5,-16"/>
</g>
<!-- d0 -->
<g id="node1" class="node"><title>d0</title>
<polygon fill="#59a27a" stroke="#59a27a" points="122,-286 24,-286 24,-250 122,-250 122,-286"/>
<text text-anchor="middle" x="73" y="-264.3" font-family="Times,serif" font-size="14.00">Conceptual</text>
</g>
<!-- d2 -->
<g id="node2" class="node"><title>d2</title>
<polygon fill="#cd69c9" stroke="#cd69c9" points="350.5,-286 296.5,-286 296.5,-250 350.5,-250 350.5,-286"/>
<text text-anchor="middle" x="323.5" y="-264.3" font-family="Times,serif" font-size="14.00">Code</text>
</g>
<!-- d0&#45;&gt;d2 -->
<g id="edge1" class="edge"><title>d0&#45;&gt;d2</title>
<path fill="none" stroke="black" d="M122.208,-268C170.192,-268 242.762,-268 286.111,-268"/>
<polygon fill="black" stroke="black" points="286.207,-271.5 296.207,-268 286.207,-264.5 286.207,-271.5"/>
<text text-anchor="middle" x="185.5" y="-271.8" font-family="Times,serif" font-size="14.00">programmer</text>
</g>
<!-- d3 -->
<g id="node3" class="node"><title>d3</title>
<polygon fill="#cd3333" stroke="#cd3333" points="595,-286 498,-286 498,-250 595,-250 595,-286"/>
<text text-anchor="middle" x="546.5" y="-264.3" font-family="Times,serif" font-size="14.00">Executable</text>
</g>
<!-- d2&#45;&gt;d3 -->
<g id="edge2" class="edge"><title>d2&#45;&gt;d3</title>
<path fill="none" stroke="black" d="M350.719,-268C384.239,-268 443.233,-268 487.539,-268"/>
<polygon fill="black" stroke="black" points="487.606,-271.5 497.606,-268 487.606,-264.5 487.606,-271.5"/>
<text text-anchor="middle" x="448" y="-271.8" font-family="Times,serif" font-size="14.00">compiler</text>
</g>
<!-- c0 -->
<g id="node4" class="node"><title>c0</title>
<polygon fill="#59a27a" stroke="#59a27a" points="102.5,-226 43.5,-226 43.5,-190 102.5,-190 102.5,-226"/>
<text text-anchor="middle" x="73" y="-204.3" font-family="Times,serif" font-size="14.00">Chalk</text>
</g>
<!-- c2 -->
<g id="node5" class="node"><title>c2</title>
<polygon fill="#cd69c9" stroke="#cd69c9" points="350.5,-226 296.5,-226 296.5,-190 350.5,-190 350.5,-226"/>
<text text-anchor="middle" x="323.5" y="-204.3" font-family="Times,serif" font-size="14.00">Julia</text>
</g>
<!-- c0&#45;&gt;c2 -->
<g id="edge3" class="edge"><title>c0&#45;&gt;c2</title>
<path fill="none" stroke="black" d="M102.506,-208C147.853,-208 236.371,-208 286.19,-208"/>
<polygon fill="black" stroke="black" points="286.204,-211.5 296.204,-208 286.204,-204.5 286.204,-211.5"/>
<text text-anchor="middle" x="185.5" y="-211.8" font-family="Times,serif" font-size="14.00">programmer</text>
</g>
<!-- c1 -->
<g id="node6" class="node"><title>c1</title>
<polygon fill="#5dade2" stroke="#5dade2" points="398,-60 249,-60 249,-24 398,-24 398,-60"/>
<text text-anchor="middle" x="323.5" y="-38.3" font-family="Times,serif" font-size="14.00">SemanticModels.jl</text>
</g>
<!-- c2&#45;&gt;c1 -->
<g id="edge4" class="edge"><title>c2&#45;&gt;c1</title>
<path fill="none" stroke="black" d="M323.5,-189.941C323.5,-161.142 323.5,-104.58 323.5,-70.3474"/>
<polygon fill="black" stroke="black" points="327,-70.0809 323.5,-60.0809 320,-70.0809 327,-70.0809"/>
<text text-anchor="middle" x="281" y="-153.3" font-family="Times,serif" font-size="14.00">Model(Expr)</text>
</g>
<!-- c3 -->
<g id="node7" class="node"><title>c3</title>
<polygon fill="#cd3333" stroke="#cd3333" points="573.5,-226 519.5,-226 519.5,-190 573.5,-190 573.5,-226"/>
<text text-anchor="middle" x="546.5" y="-204.3" font-family="Times,serif" font-size="14.00">x86</text>
</g>
<!-- c2&#45;&gt;c3 -->
<g id="edge7" class="edge"><title>c2&#45;&gt;c3</title>
<path fill="none" stroke="black" d="M350.719,-208C390.096,-208 464.627,-208 509.205,-208"/>
<polygon fill="black" stroke="black" points="509.315,-211.5 519.315,-208 509.315,-204.5 509.315,-211.5"/>
<text text-anchor="middle" x="448" y="-211.8" font-family="Times,serif" font-size="14.00">compiler</text>
</g>
<!-- c1&#45;&gt;c2 -->
<g id="edge5" class="edge"><title>c1&#45;&gt;c2</title>
<path fill="none" stroke="black" d="M381.17,-60.1214C390.845,-65.7541 399.634,-73.0598 405.5,-82.5 410.485,-90.5218 410.485,-159.478 405.5,-167.5 395.552,-183.508 377.199,-193.379 360.375,-199.361"/>
<polygon fill="black" stroke="black" points="359.178,-196.07 350.721,-202.452 361.312,-202.736 359.178,-196.07"/>
<text text-anchor="middle" x="366" y="-89.3" font-family="Times,serif" font-size="14.00">eval(Model)</text>
</g>
<!-- c1&#45;&gt;c1 -->
<g id="edge6" class="edge"><title>c1:left&#45;&gt;c1:left</title>
<path fill="none" stroke="black" d="M301.067,-60.1527C297.616,-69.5391 305.094,-78 323.5,-78 334.716,-78 341.874,-74.8581 344.974,-70.2796"/>
<polygon fill="black" stroke="black" points="348.475,-70.438 345.933,-60.1527 341.506,-69.7784 348.475,-70.438"/>
<text text-anchor="middle" x="323.5" y="-81.8" font-family="Times,serif" font-size="14.00">transform</text>
</g>
</g>
</svg>
