<?xml version="1.0" encoding="UTF-8" standalone="no"?>
<!DOCTYPE svg PUBLIC "-//W3C//DTD SVG 1.1//EN"
 "http://www.w3.org/Graphics/SVG/1.1/DTD/svg11.dtd">
<!-- Generated by graphviz version 2.38.0 (20140413.2041)
 -->
<!-- Title: G Pages: 1 -->
<svg width="1041pt" height="307pt"
 viewBox="0.00 0.00 1041.00 307.00" xmlns="http://www.w3.org/2000/svg" xmlns:xlink="http://www.w3.org/1999/xlink">
<g id="graph0" class="graph" transform="scale(1 1) rotate(0) translate(4 303)">
<title>G</title>
<polygon fill="white" stroke="none" points="-4,4 -4,-303 1037,-303 1037,4 -4,4"/>
<!-- i -->
<g id="node1" class="node"><title>i</title>
<polygon fill="none" stroke="black" points="279.5,-212 159.5,-212 159.5,-176 279.5,-176 279.5,-212"/>
<text text-anchor="middle" x="219.5" y="-190.3" font-family="Times,serif" font-size="14.00">an initial state</text>
</g>
<!-- S -->
<g id="node6" class="node"><title>S</title>
<polygon fill="none" stroke="black" points="111,-125 7.10543e-15,-125 7.10543e-15,-87 111,-87 111,-125"/>
<text text-anchor="middle" x="55.5" y="-109.8" font-family="Times,serif" font-size="14.00">a susceptible</text>
<text text-anchor="middle" x="55.5" y="-94.8" font-family="Times,serif" font-size="14.00">population</text>
</g>
<!-- i&#45;&gt;S -->
<g id="edge5" class="edge"><title>i&#45;&gt;S</title>
<path fill="none" stroke="black" d="M186.706,-175.803C161.512,-162.592 126.483,-144.223 98.9555,-129.788"/>
<polygon fill="black" stroke="black" points="100.415,-126.601 89.9329,-125.056 97.1636,-132.8 100.415,-126.601"/>
<text text-anchor="middle" x="165" y="-146.8" font-family="Times,serif" font-size="14.00">has</text>
</g>
<!-- I -->
<g id="node7" class="node"><title>I</title>
<polygon fill="none" stroke="black" points="226,-125 129,-125 129,-87 226,-87 226,-125"/>
<text text-anchor="middle" x="177.5" y="-109.8" font-family="Times,serif" font-size="14.00">an infected</text>
<text text-anchor="middle" x="177.5" y="-94.8" font-family="Times,serif" font-size="14.00">population</text>
</g>
<!-- i&#45;&gt;I -->
<g id="edge6" class="edge"><title>i&#45;&gt;I</title>
<path fill="none" stroke="black" d="M211.001,-175.597C205.253,-163.827 197.54,-148.035 190.965,-134.57"/>
<polygon fill="black" stroke="black" points="193.955,-132.718 186.422,-125.268 187.665,-135.79 193.955,-132.718"/>
<text text-anchor="middle" x="215" y="-146.8" font-family="Times,serif" font-size="14.00">has</text>
</g>
<!-- R -->
<g id="node8" class="node"><title>R</title>
<polygon fill="none" stroke="black" points="345,-125 244,-125 244,-87 345,-87 345,-125"/>
<text text-anchor="middle" x="294.5" y="-109.8" font-family="Times,serif" font-size="14.00">a recovered</text>
<text text-anchor="middle" x="294.5" y="-94.8" font-family="Times,serif" font-size="14.00">population</text>
</g>
<!-- i&#45;&gt;R -->
<g id="edge7" class="edge"><title>i&#45;&gt;R</title>
<path fill="none" stroke="black" d="M234.677,-175.597C245.34,-163.37 259.788,-146.803 271.815,-133.013"/>
<polygon fill="black" stroke="black" points="274.634,-135.105 278.569,-125.268 269.358,-130.504 274.634,-135.105"/>
<text text-anchor="middle" x="274" y="-146.8" font-family="Times,serif" font-size="14.00">has</text>
</g>
<!-- m -->
<g id="node2" class="node"><title>m</title>
<polygon fill="none" stroke="black" points="705.5,-299 593.5,-299 593.5,-263 705.5,-263 705.5,-299"/>
<text text-anchor="middle" x="649.5" y="-277.3" font-family="Times,serif" font-size="14.00">an SIR model</text>
</g>
<!-- m&#45;&gt;i -->
<g id="edge4" class="edge"><title>m&#45;&gt;i</title>
<path fill="none" stroke="black" d="M593.285,-268.888C515.298,-253.472 374.335,-225.607 289.583,-208.854"/>
<polygon fill="black" stroke="black" points="290.022,-205.373 279.534,-206.867 288.665,-212.24 290.022,-205.373"/>
<text text-anchor="middle" x="500" y="-233.8" font-family="Times,serif" font-size="14.00">starts with</text>
</g>
<!-- p -->
<g id="node3" class="node"><title>p</title>
<polygon fill="none" stroke="black" points="647.5,-212 503.5,-212 503.5,-176 647.5,-176 647.5,-212"/>
<text text-anchor="middle" x="575.5" y="-190.3" font-family="Times,serif" font-size="14.00">a paramterization</text>
</g>
<!-- m&#45;&gt;p -->
<g id="edge3" class="edge"><title>m&#45;&gt;p</title>
<path fill="none" stroke="black" d="M634.525,-262.799C623.793,-250.471 609.173,-233.679 597.169,-219.89"/>
<polygon fill="black" stroke="black" points="599.659,-217.42 590.453,-212.175 594.379,-222.016 599.659,-217.42"/>
<text text-anchor="middle" x="630" y="-233.8" font-family="Times,serif" font-size="14.00">has</text>
</g>
<!-- t -->
<g id="node4" class="node"><title>t</title>
<polygon fill="none" stroke="black" points="785,-212 666,-212 666,-176 785,-176 785,-212"/>
<text text-anchor="middle" x="725.5" y="-190.3" font-family="Times,serif" font-size="14.00">a time domain</text>
</g>
<!-- m&#45;&gt;t -->
<g id="edge2" class="edge"><title>m&#45;&gt;t</title>
<path fill="none" stroke="black" d="M664.88,-262.799C675.902,-250.471 690.917,-233.679 703.245,-219.89"/>
<polygon fill="black" stroke="black" points="706.087,-221.963 710.143,-212.175 700.869,-217.297 706.087,-221.963"/>
<text text-anchor="middle" x="727.5" y="-233.8" font-family="Times,serif" font-size="14.00">occurs on</text>
</g>
<!-- c -->
<g id="node5" class="node"><title>c</title>
<polygon fill="none" stroke="black" points="989.5,-212 903.5,-212 903.5,-176 989.5,-176 989.5,-212"/>
<text text-anchor="middle" x="946.5" y="-190.3" font-family="Times,serif" font-size="14.00">a solution</text>
</g>
<!-- m&#45;&gt;c -->
<g id="edge1" class="edge"><title>m&#45;&gt;c</title>
<path fill="none" stroke="black" d="M705.713,-263.912C759.587,-248.494 840.309,-225.391 893.192,-210.257"/>
<polygon fill="black" stroke="black" points="894.404,-213.55 903.055,-207.434 892.478,-206.821 894.404,-213.55"/>
<text text-anchor="middle" x="838" y="-233.8" font-family="Times,serif" font-size="14.00">yields</text>
</g>
<!-- beta -->
<g id="node9" class="node"><title>beta</title>
<polygon fill="none" stroke="black" points="498,-124 363,-124 363,-88 498,-88 498,-124"/>
<text text-anchor="middle" x="430.5" y="-102.3" font-family="Times,serif" font-size="14.00">an infection rate</text>
</g>
<!-- p&#45;&gt;beta -->
<g id="edge15" class="edge"><title>p&#45;&gt;beta</title>
<path fill="none" stroke="black" d="M546.506,-175.803C523.982,-162.444 492.569,-143.813 468.111,-129.307"/>
<polygon fill="black" stroke="black" points="469.831,-126.258 459.444,-124.167 466.26,-132.279 469.831,-126.258"/>
<text text-anchor="middle" x="529" y="-146.8" font-family="Times,serif" font-size="14.00">has</text>
</g>
<!-- gamma -->
<g id="node10" class="node"><title>gamma</title>
<polygon fill="none" stroke="black" points="642.5,-124 516.5,-124 516.5,-88 642.5,-88 642.5,-124"/>
<text text-anchor="middle" x="579.5" y="-102.3" font-family="Times,serif" font-size="14.00">a recovery rate</text>
</g>
<!-- p&#45;&gt;gamma -->
<g id="edge16" class="edge"><title>p&#45;&gt;gamma</title>
<path fill="none" stroke="black" d="M576.309,-175.597C576.861,-163.746 577.602,-147.817 578.231,-134.292"/>
<polygon fill="black" stroke="black" points="581.737,-134.236 578.705,-124.084 574.744,-133.911 581.737,-134.236"/>
<text text-anchor="middle" x="591" y="-146.8" font-family="Times,serif" font-size="14.00">has</text>
</g>
<!-- t1 -->
<g id="node11" class="node"><title>t1</title>
<polygon fill="none" stroke="black" points="784,-124 661,-124 661,-88 784,-88 784,-124"/>
<text text-anchor="middle" x="722.5" y="-102.3" font-family="Times,serif" font-size="14.00">a starting time</text>
</g>
<!-- t&#45;&gt;t1 -->
<g id="edge11" class="edge"><title>t&#45;&gt;t1</title>
<path fill="none" stroke="black" d="M724.893,-175.597C724.48,-163.746 723.924,-147.817 723.452,-134.292"/>
<polygon fill="black" stroke="black" points="726.943,-133.956 723.096,-124.084 719.947,-134.2 726.943,-133.956"/>
<text text-anchor="middle" x="755" y="-146.8" font-family="Times,serif" font-size="14.00">starts at</text>
</g>
<!-- t2 -->
<g id="node12" class="node"><title>t2</title>
<polygon fill="none" stroke="black" points="926.5,-124 802.5,-124 802.5,-88 926.5,-88 926.5,-124"/>
<text text-anchor="middle" x="864.5" y="-102.3" font-family="Times,serif" font-size="14.00">an ending time</text>
</g>
<!-- t&#45;&gt;t2 -->
<g id="edge12" class="edge"><title>t&#45;&gt;t2</title>
<path fill="none" stroke="black" d="M758.077,-175.974C768.258,-170.443 779.452,-164.144 789.5,-158 803.826,-149.24 819.231,-138.929 832.33,-129.878"/>
<polygon fill="black" stroke="black" points="834.363,-132.728 840.571,-124.142 830.364,-126.982 834.363,-132.728"/>
<text text-anchor="middle" x="840" y="-146.8" font-family="Times,serif" font-size="14.00">ends at</text>
</g>
<!-- sol -->
<g id="node16" class="node"><title>sol</title>
<polygon fill="none" stroke="black" points="1033,-124 944,-124 944,-88 1033,-88 1033,-124"/>
<text text-anchor="middle" x="988.5" y="-102.3" font-family="Times,serif" font-size="14.00">a function</text>
</g>
<!-- c&#45;&gt;sol -->
<g id="edge19" class="edge"><title>c&#45;&gt;sol</title>
<path fill="none" stroke="black" d="M954.999,-175.597C960.959,-163.394 969.03,-146.867 975.757,-133.093"/>
<polygon fill="black" stroke="black" points="978.913,-134.606 980.157,-124.084 972.623,-131.534 978.913,-134.606"/>
<text text-anchor="middle" x="977" y="-146.8" font-family="Times,serif" font-size="14.00">is</text>
</g>
<!-- n -->
<g id="node13" class="node"><title>n</title>
<polygon fill="none" stroke="black" points="248,-36 107,-36 107,-0 248,-0 248,-36"/>
<text text-anchor="middle" x="177.5" y="-14.3" font-family="Times,serif" font-size="14.00">a natural number</text>
</g>
<!-- S&#45;&gt;n -->
<g id="edge8" class="edge"><title>S&#45;&gt;n</title>
<path fill="none" stroke="black" d="M81.0752,-86.9716C99.6611,-73.8701 124.961,-56.0354 144.983,-41.922"/>
<polygon fill="black" stroke="black" points="147.048,-44.7481 153.205,-36.1258 143.015,-39.0268 147.048,-44.7481"/>
<text text-anchor="middle" x="134" y="-57.8" font-family="Times,serif" font-size="14.00">is</text>
</g>
<!-- I&#45;&gt;n -->
<g id="edge9" class="edge"><title>I&#45;&gt;n</title>
<path fill="none" stroke="black" d="M177.5,-86.7616C177.5,-74.9344 177.5,-59.3159 177.5,-46.0547"/>
<polygon fill="black" stroke="black" points="181,-46.0422 177.5,-36.0422 174,-46.0423 181,-46.0422"/>
<text text-anchor="middle" x="184" y="-57.8" font-family="Times,serif" font-size="14.00">is</text>
</g>
<!-- R&#45;&gt;n -->
<g id="edge10" class="edge"><title>R&#45;&gt;n</title>
<path fill="none" stroke="black" d="M269.973,-86.9716C252.228,-73.9286 228.102,-56.1946 208.942,-42.1112"/>
<polygon fill="black" stroke="black" points="210.93,-39.2283 200.799,-36.1258 206.784,-44.8686 210.93,-39.2283"/>
<text text-anchor="middle" x="250" y="-57.8" font-family="Times,serif" font-size="14.00">is</text>
</g>
<!-- r -->
<g id="node15" class="node"><title>r</title>
<polygon fill="none" stroke="black" points="520,-36 435,-36 435,-0 520,-0 520,-36"/>
<text text-anchor="middle" x="477.5" y="-14.3" font-family="Times,serif" font-size="14.00">a number</text>
</g>
<!-- beta&#45;&gt;r -->
<g id="edge17" class="edge"><title>beta&#45;&gt;r</title>
<path fill="none" stroke="black" d="M440.011,-87.5966C446.68,-75.3939 455.712,-58.867 463.24,-45.093"/>
<polygon fill="black" stroke="black" points="466.439,-46.5376 468.163,-36.084 460.296,-43.1806 466.439,-46.5376"/>
<text text-anchor="middle" x="465" y="-57.8" font-family="Times,serif" font-size="14.00">is</text>
</g>
<!-- gamma&#45;&gt;r -->
<g id="edge18" class="edge"><title>gamma&#45;&gt;r</title>
<path fill="none" stroke="black" d="M558.859,-87.5966C543.551,-74.6899 522.505,-56.9457 505.654,-42.7379"/>
<polygon fill="black" stroke="black" points="507.664,-39.8542 497.762,-36.084 503.152,-45.2058 507.664,-39.8542"/>
<text text-anchor="middle" x="542" y="-57.8" font-family="Times,serif" font-size="14.00">is</text>
</g>
<!-- rp -->
<g id="node14" class="node"><title>rp</title>
<polygon fill="none" stroke="black" points="865.5,-36 719.5,-36 719.5,-0 865.5,-0 865.5,-36"/>
<text text-anchor="middle" x="792.5" y="-14.3" font-family="Times,serif" font-size="14.00">a positive number</text>
</g>
<!-- t1&#45;&gt;rp -->
<g id="edge13" class="edge"><title>t1&#45;&gt;rp</title>
<path fill="none" stroke="black" d="M736.666,-87.5966C746.885,-75.0419 760.829,-57.9099 772.226,-43.9081"/>
<polygon fill="black" stroke="black" points="774.996,-46.0491 778.594,-36.084 769.567,-41.6302 774.996,-46.0491"/>
<text text-anchor="middle" x="771" y="-57.8" font-family="Times,serif" font-size="14.00">is</text>
</g>
<!-- t2&#45;&gt;rp -->
<g id="edge14" class="edge"><title>t2&#45;&gt;rp</title>
<path fill="none" stroke="black" d="M849.93,-87.5966C839.419,-75.0419 825.076,-57.9099 813.353,-43.9081"/>
<polygon fill="black" stroke="black" points="815.906,-41.5048 806.803,-36.084 810.539,-45.9984 815.906,-41.5048"/>
<text text-anchor="middle" x="840" y="-57.8" font-family="Times,serif" font-size="14.00">is</text>
</g>
</g>
</svg>
