<?xml version="1.0" encoding="UTF-8" standalone="no"?>
<!DOCTYPE svg PUBLIC "-//W3C//DTD SVG 1.1//EN"
 "http://www.w3.org/Graphics/SVG/1.1/DTD/svg11.dtd">
<!-- Generated by graphviz version 2.38.0 (20140413.2041)
 -->
<!-- Title: G_code_and_markdown Pages: 1 -->
<svg width="1251pt" height="1283pt"
 viewBox="0.00 0.00 1251.00 1283.00" xmlns="http://www.w3.org/2000/svg" xmlns:xlink="http://www.w3.org/1999/xlink">
<g id="graph0" class="graph" transform="scale(1 1) rotate(0) translate(4 1279)">
<title>G_code_and_markdown</title>
<polygon fill="white" stroke="none" points="-4,4 -4,-1279 1247,-1279 1247,4 -4,4"/>
<!-- 2 -->
<g id="node1" class="node"><title>2</title>
<polygon fill="none" stroke="#5dade2" points="622,-1005 516,-1005 516,-969 622,-969 622,-1005"/>
<text text-anchor="middle" x="569" y="-983.3" font-family="Times,serif" font-size="14.00">(β, r, μ, K, α)</text>
</g>
<!-- 3 -->
<g id="node2" class="node"><title>3</title>
<polygon fill="none" stroke="orange" points="908.5,-1059 846.5,-1059 846.5,-1023 908.5,-1023 908.5,-1059"/>
<text text-anchor="middle" x="877.5" y="-1037.3" font-family="Times,serif" font-size="14.00">parms</text>
</g>
<!-- 2&#45;&gt;3 -->
<g id="edge1" class="edge"><title>2&#45;&gt;3</title>
<path fill="none" stroke="orange" d="M622.341,-996.222C682.896,-1006.89 781.292,-1024.23 836.2,-1033.9"/>
<polygon fill="orange" stroke="orange" points="835.797,-1037.38 846.252,-1035.67 837.011,-1030.49 835.797,-1037.38"/>
<text text-anchor="middle" x="748.5" y="-1026.8" font-family="Times,serif" font-size="14.00">val</text>
</g>
<!-- 4 -->
<g id="node3" class="node"><title>4</title>
<polygon fill="none" stroke="orange" points="600,-870 538,-870 538,-834 600,-834 600,-870"/>
<text text-anchor="middle" x="569" y="-848.3" font-family="Times,serif" font-size="14.00">parms</text>
</g>
<!-- 5 -->
<g id="node4" class="node"><title>5</title>
<polygon fill="none" stroke="#5dade2" points="904.5,-951 850.5,-951 850.5,-915 904.5,-915 904.5,-951"/>
<text text-anchor="middle" x="877.5" y="-929.3" font-family="Times,serif" font-size="14.00">β</text>
</g>
<!-- 4&#45;&gt;5 -->
<g id="edge2" class="edge"><title>4&#45;&gt;5</title>
<path fill="none" stroke="black" d="M600.227,-859.988C657.048,-875.005 779.543,-907.377 840.511,-923.489"/>
<polygon fill="black" stroke="black" points="839.887,-926.944 850.45,-926.116 841.676,-920.177 839.887,-926.944"/>
<text text-anchor="middle" x="748.5" y="-909.8" font-family="Times,serif" font-size="14.00">var</text>
</g>
<!-- 6 -->
<g id="node5" class="node"><title>6</title>
<polygon fill="none" stroke="orange" points="904.5,-789 850.5,-789 850.5,-753 904.5,-753 904.5,-789"/>
<text text-anchor="middle" x="877.5" y="-767.3" font-family="Times,serif" font-size="14.00">r</text>
</g>
<!-- 4&#45;&gt;6 -->
<g id="edge3" class="edge"><title>4&#45;&gt;6</title>
<path fill="none" stroke="orange" d="M600.227,-844.012C657.048,-828.995 779.543,-796.623 840.511,-780.511"/>
<polygon fill="orange" stroke="orange" points="841.676,-783.823 850.45,-777.884 839.887,-777.056 841.676,-783.823"/>
<text text-anchor="middle" x="748.5" y="-814.8" font-family="Times,serif" font-size="14.00">var</text>
</g>
<!-- 7 -->
<g id="node6" class="node"><title>7</title>
<polygon fill="none" stroke="#5dade2" points="904.5,-897 850.5,-897 850.5,-861 904.5,-861 904.5,-897"/>
<text text-anchor="middle" x="877.5" y="-875.3" font-family="Times,serif" font-size="14.00">μ</text>
</g>
<!-- 4&#45;&gt;7 -->
<g id="edge4" class="edge"><title>4&#45;&gt;7</title>
<path fill="none" stroke="black" d="M600.227,-854.663C656.931,-859.658 779.037,-870.414 840.132,-875.796"/>
<polygon fill="black" stroke="black" points="840.181,-879.314 850.45,-876.705 840.795,-872.341 840.181,-879.314"/>
<text text-anchor="middle" x="748.5" y="-873.8" font-family="Times,serif" font-size="14.00">var</text>
</g>
<!-- 8 -->
<g id="node7" class="node"><title>8</title>
<polygon fill="none" stroke="#5dade2" points="904.5,-843 850.5,-843 850.5,-807 904.5,-807 904.5,-843"/>
<text text-anchor="middle" x="877.5" y="-821.3" font-family="Times,serif" font-size="14.00">K</text>
</g>
<!-- 4&#45;&gt;8 -->
<g id="edge5" class="edge"><title>4&#45;&gt;8</title>
<path fill="none" stroke="black" d="M600.227,-849.337C656.931,-844.342 779.037,-833.586 840.132,-828.204"/>
<polygon fill="black" stroke="black" points="840.795,-831.659 850.45,-827.295 840.181,-824.686 840.795,-831.659"/>
<text text-anchor="middle" x="748.5" y="-841.8" font-family="Times,serif" font-size="14.00">var</text>
</g>
<!-- 9 -->
<g id="node8" class="node"><title>9</title>
<polygon fill="none" stroke="#5dade2" points="904.5,-1005 850.5,-1005 850.5,-969 904.5,-969 904.5,-1005"/>
<text text-anchor="middle" x="877.5" y="-983.3" font-family="Times,serif" font-size="14.00">α</text>
</g>
<!-- 4&#45;&gt;9 -->
<g id="edge6" class="edge"><title>4&#45;&gt;9</title>
<path fill="none" stroke="black" d="M600.354,-868.126C643.47,-890.625 725.301,-931.838 798,-960 811.708,-965.31 826.954,-970.675 840.337,-975.208"/>
<polygon fill="black" stroke="black" points="839.558,-978.638 850.151,-978.498 841.782,-972.001 839.558,-978.638"/>
<text text-anchor="middle" x="748.5" y="-955.8" font-family="Times,serif" font-size="14.00">var</text>
</g>
<!-- 11 -->
<g id="node10" class="node"><title>11</title>
<polygon fill="none" stroke="orange" points="1243,-738 1042,-738 1042,-702 1243,-702 1243,-738"/>
<text text-anchor="middle" x="1142.5" y="-716.3" font-family="Times,serif" font-size="14.00">r * (1 &#45; S / K) * S &#45; β * S * I</text>
</g>
<!-- 6&#45;&gt;11 -->
<g id="edge41" class="edge"><title>6&#45;&gt;11</title>
<path fill="none" stroke="orange" stroke-dasharray="5,2" d="M904.679,-765.923C935.918,-759.866 990.042,-749.37 1038.67,-739.941"/>
<polygon fill="orange" stroke="orange" points="1039.48,-743.348 1048.63,-738.009 1038.15,-736.477 1039.48,-743.348"/>
<text text-anchor="middle" x="999.5" y="-755.8" font-family="Times,serif" font-size="14.00">coccur</text>
</g>
<!-- 10 -->
<g id="node9" class="node"><title>10</title>
<polygon fill="none" stroke="orange" points="596,-731 542,-731 542,-695 596,-695 596,-731"/>
<text text-anchor="middle" x="569" y="-709.3" font-family="Times,serif" font-size="14.00">dS</text>
</g>
<!-- 10&#45;&gt;11 -->
<g id="edge7" class="edge"><title>10&#45;&gt;11</title>
<path fill="none" stroke="orange" d="M596.041,-713.319C671.827,-714.247 895.504,-716.987 1031.75,-718.656"/>
<polygon fill="orange" stroke="orange" points="1031.77,-722.156 1041.81,-718.779 1031.85,-715.157 1031.77,-722.156"/>
<text text-anchor="middle" x="877.5" y="-721.8" font-family="Times,serif" font-size="14.00">val</text>
</g>
<!-- 18 -->
<g id="node17" class="node"><title>18</title>
<polygon fill="none" stroke="orange" points="911.5,-684 843.5,-684 843.5,-648 911.5,-648 911.5,-684"/>
<text text-anchor="middle" x="877.5" y="-662.3" font-family="Times,serif" font-size="14.00">[dS, dI]</text>
</g>
<!-- 10&#45;&gt;18 -->
<g id="edge43" class="edge"><title>10&#45;&gt;18</title>
<path fill="none" stroke="orange" stroke-dasharray="5,2" d="M596.132,-708.993C648.791,-700.918 768.139,-682.617 832.839,-672.695"/>
<polygon fill="orange" stroke="orange" points="833.762,-676.095 843.116,-671.119 832.701,-669.176 833.762,-676.095"/>
<text text-anchor="middle" x="748.5" y="-693.8" font-family="Times,serif" font-size="14.00">coccur</text>
</g>
<!-- 12 -->
<g id="node11" class="node"><title>12</title>
<polygon fill="none" stroke="#5dade2" points="186,-1167 132,-1167 132,-1131 186,-1131 186,-1167"/>
<text text-anchor="middle" x="159" y="-1145.3" font-family="Times,serif" font-size="14.00">&#45;</text>
</g>
<!-- 13 -->
<g id="node12" class="node"><title>13</title>
<polygon fill="none" stroke="#5dade2" points="699,-1275 439,-1275 439,-1239 699,-1239 699,-1275"/>
<text text-anchor="middle" x="569" y="-1253.3" font-family="Times,serif" font-size="14.00">:[:( r * (1 &#45; S / K) * S ), :( β * S * I )]</text>
</g>
<!-- 12&#45;&gt;13 -->
<g id="edge8" class="edge"><title>12&#45;&gt;13</title>
<path fill="none" stroke="black" d="M186.343,-1157.46C235.607,-1173.09 345.189,-1207 439,-1230 448.417,-1232.31 458.251,-1234.59 468.106,-1236.8"/>
<polygon fill="black" stroke="black" points="467.434,-1240.23 477.953,-1238.97 468.944,-1233.4 467.434,-1240.23"/>
<text text-anchor="middle" x="378.5" y="-1227.8" font-family="Times,serif" font-size="14.00">args</text>
</g>
<!-- 16 -->
<g id="node15" class="node"><title>16</title>
<polygon fill="none" stroke="#5dade2" points="678,-1221 460,-1221 460,-1185 678,-1185 678,-1221"/>
<text text-anchor="middle" x="569" y="-1199.3" font-family="Times,serif" font-size="14.00">:[:( β * S * I ), :( (μ + α) * I )]</text>
</g>
<!-- 12&#45;&gt;16 -->
<g id="edge9" class="edge"><title>12&#45;&gt;16</title>
<path fill="none" stroke="black" d="M186.143,-1152.46C238.271,-1159.36 358.01,-1175.21 449.614,-1187.33"/>
<polygon fill="black" stroke="black" points="449.419,-1190.84 459.792,-1188.68 450.338,-1183.9 449.419,-1190.84"/>
<text text-anchor="middle" x="378.5" y="-1185.8" font-family="Times,serif" font-size="14.00">args</text>
</g>
<!-- 38 -->
<g id="node36" class="node"><title>38</title>
<polygon fill="none" stroke="#5dade2" points="670,-1167 468,-1167 468,-1131 670,-1131 670,-1167"/>
<text text-anchor="middle" x="569" y="-1145.3" font-family="Times,serif" font-size="14.00">:[:( μ &#45; β * S * I ), :( μ * S )]</text>
</g>
<!-- 12&#45;&gt;38 -->
<g id="edge10" class="edge"><title>12&#45;&gt;38</title>
<path fill="none" stroke="black" d="M186.143,-1149C239.797,-1149 365.077,-1149 457.582,-1149"/>
<polygon fill="black" stroke="black" points="457.842,-1152.5 467.842,-1149 457.842,-1145.5 457.842,-1152.5"/>
<text text-anchor="middle" x="378.5" y="-1152.8" font-family="Times,serif" font-size="14.00">args</text>
</g>
<!-- 41 -->
<g id="node39" class="node"><title>41</title>
<polygon fill="none" stroke="#5dade2" points="680,-1113 458,-1113 458,-1077 680,-1077 680,-1113"/>
<text text-anchor="middle" x="569" y="-1091.3" font-family="Times,serif" font-size="14.00">:[:( β * S * I ), :( (σ + μ) * E )]</text>
</g>
<!-- 12&#45;&gt;41 -->
<g id="edge11" class="edge"><title>12&#45;&gt;41</title>
<path fill="none" stroke="black" d="M186.143,-1145.54C237.932,-1138.69 356.456,-1123 447.823,-1110.91"/>
<polygon fill="black" stroke="black" points="448.525,-1114.34 457.979,-1109.56 447.606,-1107.4 448.525,-1114.34"/>
<text text-anchor="middle" x="378.5" y="-1128.8" font-family="Times,serif" font-size="14.00">args</text>
</g>
<!-- 44 -->
<g id="node42" class="node"><title>44</title>
<polygon fill="none" stroke="#5dade2" points="667.5,-1059 470.5,-1059 470.5,-1023 667.5,-1023 667.5,-1059"/>
<text text-anchor="middle" x="569" y="-1037.3" font-family="Times,serif" font-size="14.00">:[:( σ * E ), :( (γ + μ) * I )]</text>
</g>
<!-- 12&#45;&gt;44 -->
<g id="edge12" class="edge"><title>12&#45;&gt;44</title>
<path fill="none" stroke="black" d="M186.323,-1140.46C235.555,-1124.7 345.087,-1090.57 439,-1068 448.511,-1065.71 458.443,-1063.44 468.389,-1061.23"/>
<polygon fill="black" stroke="black" points="469.308,-1064.62 478.326,-1059.06 467.809,-1057.78 469.308,-1064.62"/>
<text text-anchor="middle" x="378.5" y="-1097.8" font-family="Times,serif" font-size="14.00">args</text>
</g>
<!-- 14 -->
<g id="node13" class="node"><title>14</title>
<polygon fill="none" stroke="#5dade2" points="596,-596 542,-596 542,-560 596,-560 596,-596"/>
<text text-anchor="middle" x="569" y="-574.3" font-family="Times,serif" font-size="14.00">dI</text>
</g>
<!-- 15 -->
<g id="node14" class="node"><title>15</title>
<polygon fill="none" stroke="#5dade2" points="957,-576 798,-576 798,-540 957,-540 957,-576"/>
<text text-anchor="middle" x="877.5" y="-554.3" font-family="Times,serif" font-size="14.00">β * S * I &#45; (μ + α) * I</text>
</g>
<!-- 14&#45;&gt;15 -->
<g id="edge13" class="edge"><title>14&#45;&gt;15</title>
<path fill="none" stroke="black" d="M596.132,-576.295C638.044,-573.56 722.201,-568.068 787.428,-563.812"/>
<polygon fill="black" stroke="black" points="787.973,-567.284 797.724,-563.14 787.517,-560.299 787.973,-567.284"/>
<text text-anchor="middle" x="748.5" y="-571.8" font-family="Times,serif" font-size="14.00">val</text>
</g>
<!-- 17 -->
<g id="node16" class="node"><title>17</title>
<polygon fill="none" stroke="#5dade2" points="596,-670 542,-670 542,-634 596,-634 596,-670"/>
<text text-anchor="middle" x="569" y="-648.3" font-family="Times,serif" font-size="14.00">du</text>
</g>
<!-- 17&#45;&gt;18 -->
<g id="edge14" class="edge"><title>17&#45;&gt;18</title>
<path fill="none" stroke="black" d="M596.231,-651.04C636.02,-649.829 713.986,-648.416 780,-653 797.457,-654.212 816.575,-656.57 833.155,-658.948"/>
<polygon fill="black" stroke="black" points="832.709,-662.42 843.114,-660.422 833.734,-655.496 832.709,-662.42"/>
<text text-anchor="middle" x="748.5" y="-656.8" font-family="Times,serif" font-size="14.00">val</text>
</g>
<!-- 19 -->
<g id="node18" class="node"><title>19</title>
<polygon fill="none" stroke="#5dade2" points="920.5,-630 834.5,-630 834.5,-594 920.5,-594 920.5,-630"/>
<text text-anchor="middle" x="877.5" y="-608.3" font-family="Times,serif" font-size="14.00">collection</text>
</g>
<!-- 17&#45;&gt;19 -->
<g id="edge15" class="edge"><title>17&#45;&gt;19</title>
<path fill="none" stroke="black" d="M596.012,-648.377C625.382,-644.306 674.606,-637.542 717,-632 752.677,-627.336 792.873,-622.297 823.987,-618.444"/>
<polygon fill="black" stroke="black" points="824.676,-621.886 834.171,-617.185 823.817,-614.939 824.676,-621.886"/>
<text text-anchor="middle" x="748.5" y="-635.8" font-family="Times,serif" font-size="14.00">property</text>
</g>
<!-- 20 -->
<g id="node19" class="node"><title>20</title>
<polygon fill="none" stroke="orange" points="318,-731 2.84217e-14,-731 2.84217e-14,-695 318,-695 318,-731"/>
<text text-anchor="middle" x="159" y="-709.3" font-family="Times,serif" font-size="14.00">ScalingModel.micro_1(du, u, parms, time)</text>
</g>
<!-- 20&#45;&gt;2 -->
<g id="edge16" class="edge"><title>20&#45;&gt;2</title>
<path fill="none" stroke="orange" d="M187.086,-731.19C258.549,-779.182 452.193,-909.228 532.432,-963.113"/>
<polygon fill="orange" stroke="orange" points="530.937,-966.326 541.19,-968.995 534.84,-960.514 530.937,-966.326"/>
<text text-anchor="middle" x="378.5" y="-885.8" font-family="Times,serif" font-size="14.00">destructure</text>
</g>
<!-- 20&#45;&gt;4 -->
<g id="edge17" class="edge"><title>20&#45;&gt;4</title>
<path fill="none" stroke="orange" d="M212.921,-731.029C295.704,-759.233 454.002,-813.163 528.009,-838.376"/>
<polygon fill="orange" stroke="orange" points="527.281,-841.825 537.876,-841.737 529.539,-835.199 527.281,-841.825"/>
<text text-anchor="middle" x="378.5" y="-802.8" font-family="Times,serif" font-size="14.00">comp</text>
</g>
<!-- 20&#45;&gt;10 -->
<g id="edge18" class="edge"><title>20&#45;&gt;10</title>
<path fill="none" stroke="orange" d="M318.035,-713C396.17,-713 483.795,-713 531.758,-713"/>
<polygon fill="orange" stroke="orange" points="531.939,-716.5 541.939,-713 531.939,-709.5 531.939,-716.5"/>
<text text-anchor="middle" x="378.5" y="-716.8" font-family="Times,serif" font-size="14.00">output</text>
</g>
<!-- 20&#45;&gt;14 -->
<g id="edge19" class="edge"><title>20&#45;&gt;14</title>
<path fill="none" stroke="black" d="M214.601,-694.933C299.423,-666.868 460.523,-613.562 532.137,-589.866"/>
<polygon fill="black" stroke="black" points="533.236,-593.189 541.631,-586.725 531.037,-586.544 533.236,-593.189"/>
<text text-anchor="middle" x="378.5" y="-657.8" font-family="Times,serif" font-size="14.00">output</text>
</g>
<!-- 20&#45;&gt;17 -->
<g id="edge20" class="edge"><title>20&#45;&gt;17</title>
<path fill="none" stroke="black" d="M280.482,-694.987C366.148,-682.179 475.564,-665.82 531.495,-657.458"/>
<polygon fill="black" stroke="black" points="532.249,-660.884 541.621,-655.944 531.214,-653.961 532.249,-660.884"/>
<text text-anchor="middle" x="378.5" y="-690.8" font-family="Times,serif" font-size="14.00">takes</text>
</g>
<!-- 22 -->
<g id="node20" class="node"><title>22</title>
<polygon fill="none" stroke="#5dade2" points="904.5,-468 850.5,-468 850.5,-432 904.5,-432 904.5,-468"/>
<text text-anchor="middle" x="877.5" y="-446.3" font-family="Times,serif" font-size="14.00">β</text>
</g>
<!-- 23 -->
<g id="node21" class="node"><title>23</title>
<polygon fill="none" stroke="#5dade2" points="1169.5,-468 1115.5,-468 1115.5,-432 1169.5,-432 1169.5,-468"/>
<text text-anchor="middle" x="1142.5" y="-446.3" font-family="Times,serif" font-size="14.00">p[1]</text>
</g>
<!-- 22&#45;&gt;23 -->
<g id="edge21" class="edge"><title>22&#45;&gt;23</title>
<path fill="none" stroke="black" d="M904.679,-450C951.94,-450 1051.58,-450 1105.32,-450"/>
<polygon fill="black" stroke="black" points="1105.43,-453.5 1115.43,-450 1105.43,-446.5 1105.43,-453.5"/>
<text text-anchor="middle" x="999.5" y="-453.8" font-family="Times,serif" font-size="14.00">val</text>
</g>
<!-- 24 -->
<g id="node22" class="node"><title>24</title>
<polygon fill="none" stroke="#5dade2" points="904.5,-414 850.5,-414 850.5,-378 904.5,-378 904.5,-414"/>
<text text-anchor="middle" x="877.5" y="-392.3" font-family="Times,serif" font-size="14.00">σ</text>
</g>
<!-- 25 -->
<g id="node23" class="node"><title>25</title>
<polygon fill="none" stroke="#5dade2" points="1169.5,-414 1115.5,-414 1115.5,-378 1169.5,-378 1169.5,-414"/>
<text text-anchor="middle" x="1142.5" y="-392.3" font-family="Times,serif" font-size="14.00">p[2]</text>
</g>
<!-- 24&#45;&gt;25 -->
<g id="edge22" class="edge"><title>24&#45;&gt;25</title>
<path fill="none" stroke="black" d="M904.679,-396C951.94,-396 1051.58,-396 1105.32,-396"/>
<polygon fill="black" stroke="black" points="1105.43,-399.5 1115.43,-396 1105.43,-392.5 1105.43,-399.5"/>
<text text-anchor="middle" x="999.5" y="-399.8" font-family="Times,serif" font-size="14.00">val</text>
</g>
<!-- 26 -->
<g id="node24" class="node"><title>26</title>
<polygon fill="none" stroke="#5dade2" points="904.5,-360 850.5,-360 850.5,-324 904.5,-324 904.5,-360"/>
<text text-anchor="middle" x="877.5" y="-338.3" font-family="Times,serif" font-size="14.00">γ</text>
</g>
<!-- 27 -->
<g id="node25" class="node"><title>27</title>
<polygon fill="none" stroke="#5dade2" points="1169.5,-360 1115.5,-360 1115.5,-324 1169.5,-324 1169.5,-360"/>
<text text-anchor="middle" x="1142.5" y="-338.3" font-family="Times,serif" font-size="14.00">p[3]</text>
</g>
<!-- 26&#45;&gt;27 -->
<g id="edge23" class="edge"><title>26&#45;&gt;27</title>
<path fill="none" stroke="black" d="M904.679,-342C951.94,-342 1051.58,-342 1105.32,-342"/>
<polygon fill="black" stroke="black" points="1105.43,-345.5 1115.43,-342 1105.43,-338.5 1105.43,-345.5"/>
<text text-anchor="middle" x="999.5" y="-345.8" font-family="Times,serif" font-size="14.00">val</text>
</g>
<!-- 28 -->
<g id="node26" class="node"><title>28</title>
<polygon fill="none" stroke="#5dade2" points="904.5,-306 850.5,-306 850.5,-270 904.5,-270 904.5,-306"/>
<text text-anchor="middle" x="877.5" y="-284.3" font-family="Times,serif" font-size="14.00">μ</text>
</g>
<!-- 29 -->
<g id="node27" class="node"><title>29</title>
<polygon fill="none" stroke="#5dade2" points="1169.5,-306 1115.5,-306 1115.5,-270 1169.5,-270 1169.5,-306"/>
<text text-anchor="middle" x="1142.5" y="-284.3" font-family="Times,serif" font-size="14.00">p[4]</text>
</g>
<!-- 28&#45;&gt;29 -->
<g id="edge24" class="edge"><title>28&#45;&gt;29</title>
<path fill="none" stroke="black" d="M904.679,-288C951.94,-288 1051.58,-288 1105.32,-288"/>
<polygon fill="black" stroke="black" points="1105.43,-291.5 1115.43,-288 1105.43,-284.5 1105.43,-291.5"/>
<text text-anchor="middle" x="999.5" y="-291.8" font-family="Times,serif" font-size="14.00">val</text>
</g>
<!-- 30 -->
<g id="node28" class="node"><title>30</title>
<polygon fill="none" stroke="orange" points="904.5,-252 850.5,-252 850.5,-216 904.5,-216 904.5,-252"/>
<text text-anchor="middle" x="877.5" y="-230.3" font-family="Times,serif" font-size="14.00">S</text>
</g>
<!-- 30&#45;&gt;11 -->
<g id="edge42" class="edge"><title>30&#45;&gt;11</title>
<path fill="none" stroke="orange" stroke-dasharray="5,2" d="M904.592,-235.816C922.261,-238.52 944.573,-245.104 957,-261 985.166,-297.027 950.337,-427.49 975,-466 988.527,-487.122 1008.35,-474.4 1024,-494 1041.11,-515.423 1030.9,-527.931 1042,-553 1065.1,-605.186 1101.1,-661.296 1122.87,-693.376"/>
<polygon fill="orange" stroke="orange" points="1120.08,-695.489 1128.62,-701.763 1125.86,-691.534 1120.08,-695.489"/>
<text text-anchor="middle" x="999.5" y="-497.8" font-family="Times,serif" font-size="14.00">coccur</text>
</g>
<!-- 31 -->
<g id="node29" class="node"><title>31</title>
<polygon fill="none" stroke="orange" points="1169.5,-252 1115.5,-252 1115.5,-216 1169.5,-216 1169.5,-252"/>
<text text-anchor="middle" x="1142.5" y="-230.3" font-family="Times,serif" font-size="14.00">Y[1]</text>
</g>
<!-- 30&#45;&gt;31 -->
<g id="edge25" class="edge"><title>30&#45;&gt;31</title>
<path fill="none" stroke="orange" d="M904.679,-234C951.94,-234 1051.58,-234 1105.32,-234"/>
<polygon fill="orange" stroke="orange" points="1105.43,-237.5 1115.43,-234 1105.43,-230.5 1105.43,-237.5"/>
<text text-anchor="middle" x="999.5" y="-237.8" font-family="Times,serif" font-size="14.00">val</text>
</g>
<!-- 37 -->
<g id="node35" class="node"><title>37</title>
<polygon fill="none" stroke="orange" points="1219.5,-198 1065.5,-198 1065.5,-162 1219.5,-162 1219.5,-198"/>
<text text-anchor="middle" x="1142.5" y="-176.3" font-family="Times,serif" font-size="14.00">(μ &#45; β * S * I) &#45; μ * S</text>
</g>
<!-- 30&#45;&gt;37 -->
<g id="edge44" class="edge"><title>30&#45;&gt;37</title>
<path fill="none" stroke="orange" stroke-dasharray="5,2" d="M904.679,-228.625C939.527,-221.47 1002.85,-208.467 1055.26,-197.707"/>
<polygon fill="orange" stroke="orange" points="1056.15,-201.097 1065.24,-195.657 1054.75,-194.24 1056.15,-201.097"/>
<text text-anchor="middle" x="999.5" y="-217.8" font-family="Times,serif" font-size="14.00">coccur</text>
</g>
<!-- 32 -->
<g id="node30" class="node"><title>32</title>
<polygon fill="none" stroke="#5dade2" points="904.5,-144 850.5,-144 850.5,-108 904.5,-108 904.5,-144"/>
<text text-anchor="middle" x="877.5" y="-122.3" font-family="Times,serif" font-size="14.00">E</text>
</g>
<!-- 33 -->
<g id="node31" class="node"><title>33</title>
<polygon fill="none" stroke="#5dade2" points="1169.5,-144 1115.5,-144 1115.5,-108 1169.5,-108 1169.5,-144"/>
<text text-anchor="middle" x="1142.5" y="-122.3" font-family="Times,serif" font-size="14.00">Y[2]</text>
</g>
<!-- 32&#45;&gt;33 -->
<g id="edge26" class="edge"><title>32&#45;&gt;33</title>
<path fill="none" stroke="black" d="M904.679,-126C951.94,-126 1051.58,-126 1105.32,-126"/>
<polygon fill="black" stroke="black" points="1105.43,-129.5 1115.43,-126 1105.43,-122.5 1105.43,-129.5"/>
<text text-anchor="middle" x="999.5" y="-129.8" font-family="Times,serif" font-size="14.00">val</text>
</g>
<!-- 34 -->
<g id="node32" class="node"><title>34</title>
<polygon fill="none" stroke="#5dade2" points="904.5,-90 850.5,-90 850.5,-54 904.5,-54 904.5,-90"/>
<text text-anchor="middle" x="877.5" y="-68.3" font-family="Times,serif" font-size="14.00">I</text>
</g>
<!-- 35 -->
<g id="node33" class="node"><title>35</title>
<polygon fill="none" stroke="#5dade2" points="1169.5,-90 1115.5,-90 1115.5,-54 1169.5,-54 1169.5,-90"/>
<text text-anchor="middle" x="1142.5" y="-68.3" font-family="Times,serif" font-size="14.00">Y[3]</text>
</g>
<!-- 34&#45;&gt;35 -->
<g id="edge27" class="edge"><title>34&#45;&gt;35</title>
<path fill="none" stroke="black" d="M904.679,-72C951.94,-72 1051.58,-72 1105.32,-72"/>
<polygon fill="black" stroke="black" points="1105.43,-75.5001 1115.43,-72 1105.43,-68.5001 1105.43,-75.5001"/>
<text text-anchor="middle" x="999.5" y="-75.8" font-family="Times,serif" font-size="14.00">val</text>
</g>
<!-- 36 -->
<g id="node34" class="node"><title>36</title>
<polygon fill="none" stroke="orange" points="905,-198 850,-198 850,-162 905,-162 905,-198"/>
<text text-anchor="middle" x="877.5" y="-176.3" font-family="Times,serif" font-size="14.00">dY[1]</text>
</g>
<!-- 36&#45;&gt;37 -->
<g id="edge28" class="edge"><title>36&#45;&gt;37</title>
<path fill="none" stroke="orange" d="M905.407,-174.678C924.692,-171.143 951.334,-166.828 975,-165 1001.06,-162.987 1029.38,-164.246 1055.16,-166.724"/>
<polygon fill="orange" stroke="orange" points="1054.97,-170.223 1065.28,-167.771 1055.69,-163.26 1054.97,-170.223"/>
<text text-anchor="middle" x="999.5" y="-168.8" font-family="Times,serif" font-size="14.00">val</text>
</g>
<!-- 39 -->
<g id="node37" class="node"><title>39</title>
<polygon fill="none" stroke="#5dade2" points="905,-36 850,-36 850,-0 905,-0 905,-36"/>
<text text-anchor="middle" x="877.5" y="-14.3" font-family="Times,serif" font-size="14.00">dY[2]</text>
</g>
<!-- 40 -->
<g id="node38" class="node"><title>40</title>
<polygon fill="none" stroke="#5dade2" points="1224.5,-36 1060.5,-36 1060.5,-0 1224.5,-0 1224.5,-36"/>
<text text-anchor="middle" x="1142.5" y="-14.3" font-family="Times,serif" font-size="14.00">β * S * I &#45; (σ + μ) * E</text>
</g>
<!-- 39&#45;&gt;40 -->
<g id="edge29" class="edge"><title>39&#45;&gt;40</title>
<path fill="none" stroke="black" d="M905.165,-18C939.017,-18 999.17,-18 1050.32,-18"/>
<polygon fill="black" stroke="black" points="1050.41,-21.5001 1060.41,-18 1050.41,-14.5001 1050.41,-21.5001"/>
<text text-anchor="middle" x="999.5" y="-21.8" font-family="Times,serif" font-size="14.00">val</text>
</g>
<!-- 42 -->
<g id="node40" class="node"><title>42</title>
<polygon fill="none" stroke="#5dade2" points="905,-522 850,-522 850,-486 905,-486 905,-522"/>
<text text-anchor="middle" x="877.5" y="-500.3" font-family="Times,serif" font-size="14.00">dY[3]</text>
</g>
<!-- 43 -->
<g id="node41" class="node"><title>43</title>
<polygon fill="none" stroke="#5dade2" points="1211.5,-544 1073.5,-544 1073.5,-508 1211.5,-508 1211.5,-544"/>
<text text-anchor="middle" x="1142.5" y="-522.3" font-family="Times,serif" font-size="14.00">σ * E &#45; (γ + μ) * I</text>
</g>
<!-- 42&#45;&gt;43 -->
<g id="edge30" class="edge"><title>42&#45;&gt;43</title>
<path fill="none" stroke="black" d="M905.165,-506.231C941.909,-509.304 1009.64,-514.97 1063.21,-519.451"/>
<polygon fill="black" stroke="black" points="1063.12,-522.955 1073.37,-520.301 1063.7,-515.98 1063.12,-522.955"/>
<text text-anchor="middle" x="999.5" y="-519.8" font-family="Times,serif" font-size="14.00">val</text>
</g>
<!-- 45 -->
<g id="node43" class="node"><title>45</title>
<polygon fill="none" stroke="orange" points="688.5,-281 449.5,-281 449.5,-245 688.5,-245 688.5,-281"/>
<text text-anchor="middle" x="569" y="-259.3" font-family="Times,serif" font-size="14.00">SEIRmodel.seir_ode(dY, Y, p, t)</text>
</g>
<!-- 45&#45;&gt;22 -->
<g id="edge31" class="edge"><title>45&#45;&gt;22</title>
<path fill="none" stroke="black" d="M589.955,-281.158C617.356,-305.578 668.739,-349.562 717,-381 750.978,-403.134 760.726,-407.029 798,-423 811.618,-428.835 826.957,-434.337 840.439,-438.833"/>
<polygon fill="black" stroke="black" points="839.735,-442.286 850.327,-442.064 841.909,-435.632 839.735,-442.286"/>
<text text-anchor="middle" x="748.5" y="-418.8" font-family="Times,serif" font-size="14.00">takes</text>
</g>
<!-- 45&#45;&gt;24 -->
<g id="edge32" class="edge"><title>45&#45;&gt;24</title>
<path fill="none" stroke="black" d="M604.699,-281.14C634.269,-296.379 678.041,-318.42 717,-336 752.432,-351.989 761.606,-355.34 798,-369 811.763,-374.166 827.02,-379.501 840.397,-384.051"/>
<polygon fill="black" stroke="black" points="839.609,-387.48 850.203,-387.362 841.848,-380.847 839.609,-387.48"/>
<text text-anchor="middle" x="748.5" y="-365.8" font-family="Times,serif" font-size="14.00">takes</text>
</g>
<!-- 45&#45;&gt;26 -->
<g id="edge33" class="edge"><title>45&#45;&gt;26</title>
<path fill="none" stroke="black" d="M639.933,-281.025C702.448,-297.138 791.54,-320.102 840.618,-332.751"/>
<polygon fill="black" stroke="black" points="839.902,-336.181 850.459,-335.288 841.65,-329.403 839.902,-336.181"/>
<text text-anchor="middle" x="748.5" y="-320.8" font-family="Times,serif" font-size="14.00">takes</text>
</g>
<!-- 45&#45;&gt;28 -->
<g id="edge34" class="edge"><title>45&#45;&gt;28</title>
<path fill="none" stroke="black" d="M688.501,-272.666C742.47,-277.068 802.508,-281.965 839.889,-285.014"/>
<polygon fill="black" stroke="black" points="840.017,-288.536 850.269,-285.86 840.586,-281.559 840.017,-288.536"/>
<text text-anchor="middle" x="748.5" y="-283.8" font-family="Times,serif" font-size="14.00">takes</text>
</g>
<!-- 45&#45;&gt;30 -->
<g id="edge35" class="edge"><title>45&#45;&gt;30</title>
<path fill="none" stroke="orange" d="M688.501,-251.788C742.47,-246.681 802.508,-241.001 839.889,-237.464"/>
<polygon fill="orange" stroke="orange" points="840.643,-240.908 850.269,-236.482 839.983,-233.94 840.643,-240.908"/>
<text text-anchor="middle" x="748.5" y="-252.8" font-family="Times,serif" font-size="14.00">takes</text>
</g>
<!-- 45&#45;&gt;32 -->
<g id="edge36" class="edge"><title>45&#45;&gt;32</title>
<path fill="none" stroke="black" d="M603.244,-244.874C646.988,-221.513 726.691,-180.623 798,-153 811.708,-147.69 826.954,-142.325 840.337,-137.792"/>
<polygon fill="black" stroke="black" points="841.782,-140.999 850.151,-134.502 839.558,-134.362 841.782,-140.999"/>
<text text-anchor="middle" x="748.5" y="-189.8" font-family="Times,serif" font-size="14.00">takes</text>
</g>
<!-- 45&#45;&gt;34 -->
<g id="edge37" class="edge"><title>45&#45;&gt;34</title>
<path fill="none" stroke="black" d="M589.452,-244.82C616.69,-219.884 668.331,-174.471 717,-142 750.905,-119.379 760.614,-115.234 798,-99 811.589,-93.0992 826.923,-87.5838 840.408,-83.0958"/>
<polygon fill="black" stroke="black" points="841.876,-86.2988 850.301,-79.8746 839.709,-79.6427 841.876,-86.2988"/>
<text text-anchor="middle" x="748.5" y="-145.8" font-family="Times,serif" font-size="14.00">takes</text>
</g>
<!-- 45&#45;&gt;36 -->
<g id="edge38" class="edge"><title>45&#45;&gt;36</title>
<path fill="none" stroke="orange" d="M636.506,-244.99C698.933,-228.085 789.994,-203.426 840.091,-189.86"/>
<polygon fill="orange" stroke="orange" points="841.101,-193.212 849.838,-187.22 839.271,-186.456 841.101,-193.212"/>
<text text-anchor="middle" x="748.5" y="-225.8" font-family="Times,serif" font-size="14.00">output</text>
</g>
<!-- 45&#45;&gt;39 -->
<g id="edge39" class="edge"><title>45&#45;&gt;39</title>
<path fill="none" stroke="black" d="M581.93,-244.803C604.876,-210.848 658.127,-136.947 717,-89 754.006,-58.8618 805.83,-38.9378 840.244,-28.0647"/>
<polygon fill="black" stroke="black" points="841.359,-31.3837 849.895,-25.1082 839.308,-24.6907 841.359,-31.3837"/>
<text text-anchor="middle" x="748.5" y="-92.8" font-family="Times,serif" font-size="14.00">output</text>
</g>
<!-- 45&#45;&gt;42 -->
<g id="edge40" class="edge"><title>45&#45;&gt;42</title>
<path fill="none" stroke="black" d="M582.141,-281.18C605.234,-314.724 658.441,-387.187 717,-434 754.192,-463.732 805.973,-483.371 840.326,-494.085"/>
<polygon fill="black" stroke="black" points="839.374,-497.454 849.959,-496.998 841.401,-490.753 839.374,-497.454"/>
<text text-anchor="middle" x="748.5" y="-474.8" font-family="Times,serif" font-size="14.00">output</text>
</g>
</g>
</svg>
