<?xml version="1.0" encoding="UTF-8" standalone="no"?>
<!DOCTYPE svg PUBLIC "-//W3C//DTD SVG 1.1//EN"
 "http://www.w3.org/Graphics/SVG/1.1/DTD/svg11.dtd">
<!-- Generated by graphviz version 2.36.0 (20140111.2315)
 -->
<!-- Title: G Pages: 1 -->
<svg width="304pt" height="220pt"
 viewBox="0.00 0.00 304.18 220.00" xmlns="http://www.w3.org/2000/svg" xmlns:xlink="http://www.w3.org/1999/xlink">
<g id="graph0" class="graph" transform="scale(1 1) rotate(0) translate(4 216)">
<title>G</title>
<polygon fill="white" stroke="none" points="-4,4 -4,-216 300.178,-216 300.178,4 -4,4"/>
<!-- i -->
<g id="node1" class="node"><title>i</title>
<polygon fill="none" stroke="black" points="67.1777,-124 13.1777,-124 13.1777,-88 67.1777,-88 67.1777,-124"/>
<text text-anchor="middle" x="40.1777" y="-102.3" font-family="Times,serif" font-size="14.00">I</text>
</g>
<!-- n -->
<g id="node6" class="node"><title>n</title>
<polygon fill="none" stroke="black" points="54.1777,-36 0.177661,-36 0.177661,-0 54.1777,-0 54.1777,-36"/>
<text text-anchor="middle" x="27.1777" y="-14.3" font-family="Times,serif" font-size="14.00">N</text>
</g>
<!-- i&#45;&gt;n -->
<g id="edge5" class="edge"><title>i&#45;&gt;n</title>
<path fill="none" stroke="black" d="M15.4697,-87.8076C10.0913,-82.7473 5.13113,-76.7356 2.17766,-70 -1.44743,-61.7326 0.717208,-52.8562 4.99429,-44.8636"/>
<polygon fill="black" stroke="black" points="8.04264,-46.5948 10.5248,-36.2948 2.16126,-42.7988 8.04264,-46.5948"/>
<text text-anchor="middle" x="5.17766" y="-58.3" font-family="Times,serif" font-size="14.00">s</text>
</g>
<!-- i&#45;&gt;n -->
<g id="edge6" class="edge"><title>i&#45;&gt;n</title>
<path fill="none" stroke="black" d="M33.1059,-87.8346C31.1258,-82.2444 29.2287,-75.946 28.1777,-70 26.8212,-62.3258 26.2791,-53.9012 26.1518,-46.149"/>
<polygon fill="black" stroke="black" points="29.6518,-46.1441 26.1979,-36.1281 22.6519,-46.1119 29.6518,-46.1441"/>
<text text-anchor="middle" x="36.1777" y="-58.3" font-family="Times,serif" font-size="14.00">i &#160;&#160;</text>
</g>
<!-- i&#45;&gt;n -->
<g id="edge7" class="edge"><title>i&#45;&gt;n</title>
<path fill="none" stroke="black" d="M44.0888,-87.8091C45.7259,-77.8289 46.7259,-65.0789 44.1777,-54 43.5247,-51.1609 42.6092,-48.2852 41.5383,-45.4656"/>
<polygon fill="black" stroke="black" points="44.6999,-43.9608 37.4539,-36.2312 38.2981,-46.7923 44.6999,-43.9608"/>
<text text-anchor="middle" x="50.6777" y="-58.3" font-family="Times,serif" font-size="14.00">r </text>
</g>
<!-- m -->
<g id="node2" class="node"><title>m</title>
<polygon fill="none" stroke="black" points="187.178,-212 133.178,-212 133.178,-176 187.178,-176 187.178,-212"/>
<text text-anchor="middle" x="160.178" y="-190.3" font-family="Times,serif" font-size="14.00">M</text>
</g>
<!-- m&#45;&gt;i -->
<g id="edge4" class="edge"><title>m&#45;&gt;i</title>
<path fill="none" stroke="black" d="M136.182,-175.803C117.869,-162.679 92.4547,-144.465 72.3744,-130.074"/>
<polygon fill="black" stroke="black" points="74.2985,-127.147 64.1315,-124.167 70.2208,-132.837 74.2985,-127.147"/>
<text text-anchor="middle" x="114.678" y="-146.3" font-family="Times,serif" font-size="14.00">n</text>
</g>
<!-- p -->
<g id="node3" class="node"><title>p</title>
<polygon fill="none" stroke="black" points="152.178,-124 98.1777,-124 98.1777,-88 152.178,-88 152.178,-124"/>
<text text-anchor="middle" x="125.178" y="-102.3" font-family="Times,serif" font-size="14.00">P</text>
</g>
<!-- m&#45;&gt;p -->
<g id="edge3" class="edge"><title>m&#45;&gt;p</title>
<path fill="none" stroke="black" d="M153.095,-175.597C148.176,-163.511 141.532,-147.184 135.959,-133.491"/>
<polygon fill="black" stroke="black" points="139.142,-132.027 132.13,-124.084 132.658,-134.666 139.142,-132.027"/>
<text text-anchor="middle" x="149.678" y="-146.3" font-family="Times,serif" font-size="14.00">h</text>
</g>
<!-- t -->
<g id="node4" class="node"><title>t</title>
<polygon fill="none" stroke="black" points="224.178,-124 170.178,-124 170.178,-88 224.178,-88 224.178,-124"/>
<text text-anchor="middle" x="197.178" y="-102.3" font-family="Times,serif" font-size="14.00">T</text>
</g>
<!-- m&#45;&gt;t -->
<g id="edge2" class="edge"><title>m&#45;&gt;t</title>
<path fill="none" stroke="black" d="M167.665,-175.597C172.865,-163.511 179.889,-147.184 185.78,-133.491"/>
<polygon fill="black" stroke="black" points="189.09,-134.653 189.828,-124.084 182.66,-131.887 189.09,-134.653"/>
<text text-anchor="middle" x="184.678" y="-146.3" font-family="Times,serif" font-size="14.00">g</text>
</g>
<!-- c -->
<g id="node5" class="node"><title>c</title>
<polygon fill="none" stroke="black" points="296.178,-124 242.178,-124 242.178,-88 296.178,-88 296.178,-124"/>
<text text-anchor="middle" x="269.178" y="-102.3" font-family="Times,serif" font-size="14.00">C</text>
</g>
<!-- m&#45;&gt;c -->
<g id="edge1" class="edge"><title>m&#45;&gt;c</title>
<path fill="none" stroke="black" d="M181.973,-175.803C198.459,-162.796 221.281,-144.79 239.443,-130.461"/>
<polygon fill="black" stroke="black" points="241.737,-133.109 247.42,-124.167 237.401,-127.613 241.737,-133.109"/>
<text text-anchor="middle" x="226.678" y="-146.3" font-family="Times,serif" font-size="14.00">f</text>
</g>
<!-- r -->
<g id="node8" class="node"><title>r</title>
<polygon fill="none" stroke="black" points="154.178,-36 100.178,-36 100.178,-0 154.178,-0 154.178,-36"/>
<text text-anchor="middle" x="127.178" y="-14.3" font-family="Times,serif" font-size="14.00">R</text>
</g>
<!-- p&#45;&gt;r -->
<g id="edge10" class="edge"><title>p&#45;&gt;r</title>
<path fill="none" stroke="black" d="M108.315,-87.5804C101.071,-77.9579 95.0985,-65.6289 99.1777,-54 100.346,-50.6682 101.98,-47.4179 103.878,-44.3249"/>
<polygon fill="black" stroke="black" points="106.797,-46.2604 109.757,-36.0875 101.099,-42.1939 106.797,-46.2604"/>
<text text-anchor="middle" x="110.178" y="-58.3" font-family="Times,serif" font-size="14.00">ğ›½ &#160;&#160;</text>
</g>
<!-- p&#45;&gt;r -->
<g id="edge11" class="edge"><title>p&#45;&gt;r</title>
<path fill="none" stroke="black" d="M125.582,-87.5966C125.858,-75.7459 126.228,-59.8169 126.543,-46.2917"/>
<polygon fill="black" stroke="black" points="130.047,-46.1627 126.78,-36.084 123.049,-45.9999 130.047,-46.1627"/>
<text text-anchor="middle" x="142.678" y="-58.3" font-family="Times,serif" font-size="14.00"> &#160;ğ›¾ &#160;&#160;</text>
</g>
<!-- rp -->
<g id="node7" class="node"><title>rp</title>
<polygon fill="none" stroke="black" points="239.178,-36 185.178,-36 185.178,-0 239.178,-0 239.178,-36"/>
<text text-anchor="middle" x="212.178" y="-14.3" font-family="Times,serif" font-size="14.00">R+</text>
</g>
<!-- t&#45;&gt;rp -->
<g id="edge8" class="edge"><title>t&#45;&gt;rp</title>
<path fill="none" stroke="black" d="M195.988,-87.8321C195.675,-77.8594 195.925,-65.1094 198.178,-54 198.732,-51.2681 199.489,-48.4763 200.366,-45.7203"/>
<polygon fill="black" stroke="black" points="203.75,-46.659 203.923,-36.0656 197.182,-44.2392 203.75,-46.659"/>
<text text-anchor="middle" x="207.678" y="-58.3" font-family="Times,serif" font-size="14.00">tâ‚ &#160;</text>
</g>
<!-- t&#45;&gt;rp -->
<g id="edge9" class="edge"><title>t&#45;&gt;rp</title>
<path fill="none" stroke="black" d="M209.251,-87.9735C212.477,-82.4934 215.525,-76.2229 217.178,-70 219.187,-62.4333 219.224,-54.0423 218.408,-46.2878"/>
<polygon fill="black" stroke="black" points="221.843,-45.6003 216.87,-36.2454 214.924,-46.66 221.843,-45.6003"/>
<text text-anchor="middle" x="225.678" y="-58.3" font-family="Times,serif" font-size="14.00">tâ‚‚ </text>
</g>
</g>
</svg>
