<?xml version="1.0" encoding="UTF-8" standalone="no"?>
<!DOCTYPE svg PUBLIC "-//W3C//DTD SVG 1.1//EN"
 "http://www.w3.org/Graphics/SVG/1.1/DTD/svg11.dtd">
<!-- Generated by graphviz version 2.36.0 (20140111.2315)
 -->
<!-- Title: G Pages: 1 -->
<svg width="385pt" height="302pt"
 viewBox="0.00 0.00 384.58 301.89" xmlns="http://www.w3.org/2000/svg" xmlns:xlink="http://www.w3.org/1999/xlink">
<g id="graph0" class="graph" transform="scale(1 1) rotate(0) translate(4 297.888)">
<title>G</title>
<polygon fill="white" stroke="none" points="-4,4 -4,-297.888 380.58,-297.888 380.58,4 -4,4"/>
<!-- s1 -->
<g id="node1" class="node"><title>s1</title>
<ellipse fill="#5a87d7" stroke="#5a87d7" cx="276.228" cy="-275.888" rx="18" ry="18"/>
</g>
<!-- s2 -->
<g id="node2" class="node"><title>s2</title>
<ellipse fill="#5a87d7" stroke="#5a87d7" cx="220.434" cy="-212.279" rx="18" ry="18"/>
</g>
<!-- s1&#45;&#45;s2 -->
<g id="edge1" class="edge"><title>s1&#45;&#45;s2</title>
<path fill="none" stroke="black" d="M262.87,-263.322C255.443,-255.869 248.858,-247.908 231.784,-226.521"/>
</g>
<!-- s3 -->
<g id="node3" class="node"><title>s3</title>
<ellipse fill="#5a87d7" stroke="#5a87d7" cx="171.212" cy="-142.099" rx="18" ry="18"/>
</g>
<!-- s2&#45;&#45;s3 -->
<g id="edge6" class="edge"><title>s2&#45;&#45;s3</title>
<path fill="none" stroke="black" d="M207.229,-199.846C199.324,-191.541 194.029,-182.963 180.16,-158.166"/>
</g>
<!-- i1 -->
<g id="node5" class="node"><title>i1</title>
<ellipse fill="#7dcd85" stroke="#7dcd85" cx="306.24" cy="-154.514" rx="18" ry="18"/>
</g>
<!-- s2&#45;&#45;i1 -->
<g id="edge2" class="edge"><title>s2&#45;&#45;i1</title>
<path fill="none" stroke="black" d="M237.654,-206.691C274.375,-194.606 282.361,-190.091 296.229,-169.842"/>
</g>
<!-- s4 -->
<g id="node4" class="node"><title>s4</title>
<ellipse fill="#5a87d7" stroke="#5a87d7" cx="92.4653" cy="-140.401" rx="18" ry="18"/>
</g>
<!-- s3&#45;&#45;s4 -->
<g id="edge7" class="edge"><title>s3&#45;&#45;s4</title>
<path fill="none" stroke="black" d="M152.996,-141.298C129.455,-140.275 119.773,-139.931 110.581,-139.979"/>
</g>
<!-- i2 -->
<g id="node6" class="node"><title>i2</title>
<ellipse fill="#7dcd85" stroke="#7dcd85" cx="244.537" cy="-93.6675" rx="18" ry="18"/>
</g>
<!-- i1&#45;&#45;i2 -->
<g id="edge3" class="edge"><title>i1&#45;&#45;i2</title>
<path fill="none" stroke="black" d="M299.267,-137.919C291.792,-121.735 285.378,-116.339 260.429,-102.408"/>
</g>
<!-- i2&#45;&#45;s3 -->
<g id="edge9" class="edge"><title>i2&#45;&#45;s3</title>
<path fill="none" stroke="black" d="M227.456,-100.217C216.403,-105.158 208.204,-111.347 185.171,-130.469"/>
</g>
<!-- r1 -->
<g id="node9" class="node"><title>r1</title>
<ellipse fill="#e1dd8f" stroke="#e1dd8f" cx="229.806" cy="-18" rx="18" ry="18"/>
</g>
<!-- i2&#45;&#45;r1 -->
<g id="edge4" class="edge"><title>i2&#45;&#45;r1</title>
<path fill="none" stroke="black" d="M244.473,-75.2675C244.276,-52.2549 243.397,-43.7108 238.756,-33.8159"/>
</g>
<!-- i3 -->
<g id="node7" class="node"><title>i3</title>
<ellipse fill="#7dcd85" stroke="#7dcd85" cx="311.096" cy="-230.049" rx="18" ry="18"/>
</g>
<!-- i3&#45;&#45;s1 -->
<g id="edge14" class="edge"><title>i3&#45;&#45;s1</title>
<path fill="none" stroke="black" d="M305.633,-247.376C302.185,-256.939 299.024,-261.367 291.73,-266.472"/>
</g>
<!-- i4 -->
<g id="node8" class="node"><title>i4</title>
<ellipse fill="#7dcd85" stroke="#7dcd85" cx="358.58" cy="-223.288" rx="18" ry="18"/>
</g>
<!-- i4&#45;&#45;s1 -->
<g id="edge10" class="edge"><title>i4&#45;&#45;s1</title>
<path fill="none" stroke="black" d="M348.264,-238.374C333.698,-258.837 326.272,-262.996 293.715,-271.461"/>
</g>
<!-- i4&#45;&#45;i1 -->
<g id="edge11" class="edge"><title>i4&#45;&#45;i1</title>
<path fill="none" stroke="black" d="M352.565,-206.037C347.446,-193.714 341.058,-186.664 319.72,-166.91"/>
</g>
<!-- r2 -->
<g id="node10" class="node"><title>r2</title>
<ellipse fill="#e1dd8f" stroke="#e1dd8f" cx="290.936" cy="-27.08" rx="18" ry="18"/>
</g>
<!-- r1&#45;&#45;r2 -->
<g id="edge5" class="edge"><title>r1&#45;&#45;r2</title>
<path fill="none" stroke="black" d="M247.594,-15.1658C260.811,-13.3467 266.94,-13.7915 275.308,-17.8856"/>
</g>
<!-- r2&#45;&#45;i2 -->
<g id="edge8" class="edge"><title>r2&#45;&#45;i2</title>
<path fill="none" stroke="black" d="M281.641,-42.863C276.476,-51.0812 270.58,-59.1305 255.512,-79.1263"/>
</g>
<!-- r3 -->
<g id="node11" class="node"><title>r3</title>
<ellipse fill="#e1dd8f" stroke="#e1dd8f" cx="268.893" cy="-154.666" rx="18" ry="18"/>
</g>
<!-- r3&#45;&#45;i2 -->
<g id="edge12" class="edge"><title>r3&#45;&#45;i2</title>
<path fill="none" stroke="black" d="M268.796,-136.527C268.242,-123.51 265.853,-117.655 256.96,-107.269"/>
</g>
<!-- r3&#45;&#45;i3 -->
<g id="edge15" class="edge"><title>r3&#45;&#45;i3</title>
<path fill="none" stroke="black" d="M280.406,-168.671C298.889,-191.305 304.234,-199.168 307.577,-212.152"/>
</g>
<!-- r4 -->
<g id="node12" class="node"><title>r4</title>
<ellipse fill="#e1dd8f" stroke="#e1dd8f" cx="18" cy="-144.392" rx="18" ry="18"/>
</g>
<!-- r4&#45;&#45;s4 -->
<g id="edge13" class="edge"><title>r4&#45;&#45;s4</title>
<path fill="none" stroke="black" d="M36.1346,-142.535C44.3848,-141.879 53.5294,-141.533 74.218,-140.926"/>
</g>
</g>
</svg>
