<?xml version="1.0" encoding="UTF-8" standalone="no"?>
<!DOCTYPE svg PUBLIC "-//W3C//DTD SVG 1.1//EN"
 "http://www.w3.org/Graphics/SVG/1.1/DTD/svg11.dtd">
<!-- Generated by graphviz version 2.36.0 (20140111.2315)
 -->
<!-- Title: G Pages: 1 -->
<svg width="211pt" height="203pt"
 viewBox="0.00 0.00 211.00 203.00" xmlns="http://www.w3.org/2000/svg" xmlns:xlink="http://www.w3.org/1999/xlink">
<g id="graph0" class="graph" transform="scale(1 1) rotate(0) translate(4 199)">
<title>G</title>
<polygon fill="white" stroke="none" points="-4,4 -4,-199 207,-199 207,4 -4,4"/>
<g id="clust1" class="cluster"><title>cluster_1</title>
<polygon fill="none" stroke="black" points="8,-8 8,-187 195,-187 195,-8 8,-8"/>
<text text-anchor="middle" x="101.5" y="-171.8" font-family="Times,serif" font-size="14.00">SemanticModeling</text>
</g>
<!-- code1 -->
<g id="node1" class="node"><title>code1</title>
<ellipse fill="#4876ff" stroke="#3a5fcd" cx="35" cy="-134" rx="18.2771" ry="18.6979"/>
<text text-anchor="middle" x="35" y="-130.3" font-family="Times,serif" font-size="14.00">c₁</text>
</g>
<!-- code2 -->
<g id="node2" class="node"><title>code2</title>
<ellipse fill="indianred" stroke="#cd3333" cx="35" cy="-38" rx="18.2771" ry="18.6979"/>
<text text-anchor="middle" x="35" y="-34.3" font-family="Times,serif" font-size="14.00">c₂</text>
</g>
<!-- code1&#45;&gt;code2 -->
<g id="edge4" class="edge"><title>code1&#45;&gt;code2</title>
<path fill="none" stroke="black" d="M35,-114.876C35,-101.352 35,-82.6192 35,-67.1514"/>
<polygon fill="black" stroke="black" points="38.5001,-67.0685 35,-57.0685 31.5001,-67.0685 38.5001,-67.0685"/>
<text text-anchor="middle" x="44.5" y="-82.3" font-family="Times,serif" font-size="14.00"> &#160;T′</text>
</g>
<!-- m1 -->
<g id="node3" class="node"><title>m1</title>
<ellipse fill="mediumseagreen" stroke="forestgreen" cx="165" cy="-134" rx="22.1473" ry="22.1965"/>
<text text-anchor="middle" x="165" y="-130.3" font-family="Times,serif" font-size="14.00">m₁</text>
</g>
<!-- code1&#45;&gt;m1 -->
<g id="edge2" class="edge"><title>code1&#45;&gt;m1</title>
<path fill="none" stroke="black" d="M53.6258,-134C74.2668,-134 107.926,-134 132.847,-134"/>
<polygon fill="black" stroke="black" points="132.929,-137.5 142.929,-134 132.929,-130.5 132.929,-137.5"/>
<text text-anchor="middle" x="97.951" y="-140.8" font-family="Times,serif" font-size="14.00">Model(Expr)</text>
</g>
<!-- m2 -->
<g id="node4" class="node"><title>m2</title>
<ellipse fill="#cd69c9" stroke="#b452cd" cx="165" cy="-38" rx="22.1473" ry="22.1965"/>
<text text-anchor="middle" x="165" y="-34.3" font-family="Times,serif" font-size="14.00">m₂</text>
</g>
<!-- m1&#45;&gt;m2 -->
<g id="edge1" class="edge"><title>m1&#45;&gt;m2</title>
<path fill="none" stroke="black" d="M165,-111.67C165,-99.5313 165,-84.0973 165,-70.5779"/>
<polygon fill="black" stroke="black" points="168.5,-70.2456 165,-60.2456 161.5,-70.2457 168.5,-70.2456"/>
<text text-anchor="middle" x="173" y="-82.3" font-family="Times,serif" font-size="14.00"> &#160;T</text>
</g>
<!-- m2&#45;&gt;code2 -->
<g id="edge3" class="edge"><title>m2&#45;&gt;code2</title>
<path fill="none" stroke="black" d="M142.929,-38C121.145,-38 87.7251,-38 63.8485,-38"/>
<polygon fill="black" stroke="black" points="63.6259,-34.5001 53.6258,-38 63.6258,-41.5001 63.6259,-34.5001"/>
<text text-anchor="middle" x="97.951" y="-44.8" font-family="Times,serif" font-size="14.00">Expr(Model)</text>
</g>
</g>
</svg>
