<?xml version="1.0" encoding="UTF-8" standalone="no"?>
<!DOCTYPE svg PUBLIC "-//W3C//DTD SVG 1.1//EN"
 "http://www.w3.org/Graphics/SVG/1.1/DTD/svg11.dtd">
<!-- Generated by graphviz version 2.36.0 (20140111.2315)
 -->
<!-- Title: G Pages: 1 -->
<svg width="586pt" height="220pt"
 viewBox="0.00 0.00 586.00 220.00" xmlns="http://www.w3.org/2000/svg" xmlns:xlink="http://www.w3.org/1999/xlink">
<g id="graph0" class="graph" transform="scale(1 1) rotate(0) translate(4 216)">
<title>G</title>
<polygon fill="white" stroke="none" points="-4,4 -4,-216 582,-216 582,4 -4,4"/>
<!-- vf -->
<g id="node1" class="node"><title>vf</title>
<polygon fill="none" stroke="black" points="155.25,-36 60.75,-36 60.75,-0 155.25,-0 155.25,-36"/>
<text text-anchor="middle" x="108" y="-14.3" font-family="Times,serif" font-size="14.00">Vector{Float}</text>
</g>
<!-- m -->
<g id="node2" class="node"><title>m</title>
<polygon fill="none" stroke="black" points="229.25,-212 138.75,-212 138.75,-176 229.25,-176 229.25,-212"/>
<text text-anchor="middle" x="184" y="-190.3" font-family="Times,serif" font-size="14.00">ODEProblem</text>
</g>
<!-- param -->
<g id="node3" class="node"><title>param</title>
<polygon fill="none" stroke="black" points="56.25,-124 -0.25,-124 -0.25,-88 56.25,-88 56.25,-124"/>
<text text-anchor="middle" x="28" y="-102.3" font-family="Times,serif" font-size="14.00">Params</text>
</g>
<!-- m&#45;&gt;param -->
<g id="edge5" class="edge"><title>m&#45;&gt;param</title>
<path fill="none" stroke="black" d="M138.591,-179.825C122.393,-174.216 104.365,-166.893 89,-158 76.1474,-150.561 63.3248,-140.368 52.7766,-131.049"/>
<polygon fill="black" stroke="black" points="54.9448,-128.29 45.1909,-124.154 50.2363,-133.47 54.9448,-128.29"/>
<text text-anchor="middle" x="108.5" y="-146.3" font-family="Times,serif" font-size="14.00">.param</text>
</g>
<!-- initial -->
<g id="node4" class="node"><title>initial</title>
<polygon fill="none" stroke="black" points="131,-124 77,-124 77,-88 131,-88 131,-124"/>
<text text-anchor="middle" x="104" y="-102.3" font-family="Times,serif" font-size="14.00">Inital</text>
</g>
<!-- m&#45;&gt;initial -->
<g id="edge2" class="edge"><title>m&#45;&gt;initial</title>
<path fill="none" stroke="black" d="M162.975,-175.898C156.648,-170.415 149.839,-164.162 144,-158 136.453,-150.037 128.853,-140.741 122.334,-132.284"/>
<polygon fill="black" stroke="black" points="125.038,-130.056 116.219,-124.186 119.452,-134.275 125.038,-130.056"/>
<text text-anchor="middle" x="162" y="-146.3" font-family="Times,serif" font-size="14.00">.initial</text>
</g>
<!-- func -->
<g id="node5" class="node"><title>func</title>
<polygon fill="none" stroke="black" points="444.25,-124 379.75,-124 379.75,-88 444.25,-88 444.25,-124"/>
<text text-anchor="middle" x="412" y="-102.3" font-family="Times,serif" font-size="14.00">Function</text>
</g>
<!-- m&#45;&gt;func -->
<g id="edge1" class="edge"><title>m&#45;&gt;func</title>
<path fill="none" stroke="black" d="M229.623,-176.499C267.363,-162.748 322.313,-142.491 370,-124 370.096,-123.963 370.193,-123.925 370.289,-123.888"/>
<polygon fill="black" stroke="black" points="371.453,-127.191 379.478,-120.273 368.891,-120.677 371.453,-127.191"/>
<text text-anchor="middle" x="324.5" y="-146.3" font-family="Times,serif" font-size="14.00">.f</text>
</g>
<!-- c -->
<g id="node6" class="node"><title>c</title>
<polygon fill="none" stroke="black" points="214.5,-124 153.5,-124 153.5,-88 214.5,-88 214.5,-124"/>
<text text-anchor="middle" x="184" y="-102.3" font-family="Times,serif" font-size="14.00">Solution</text>
</g>
<!-- m&#45;&gt;c -->
<g id="edge3" class="edge"><title>m&#45;&gt;c</title>
<path fill="none" stroke="black" d="M184,-175.597C184,-163.746 184,-147.817 184,-134.292"/>
<polygon fill="black" stroke="black" points="187.5,-134.084 184,-124.084 180.5,-134.084 187.5,-134.084"/>
<text text-anchor="middle" x="204.5" y="-146.3" font-family="Times,serif" font-size="14.00"> &#160;solve!</text>
</g>
<!-- t -->
<g id="node7" class="node"><title>t</title>
<polygon fill="none" stroke="black" points="577.25,-124 462.75,-124 462.75,-88 577.25,-88 577.25,-124"/>
<text text-anchor="middle" x="520" y="-102.3" font-family="Times,serif" font-size="14.00">Pair{Float, Float}</text>
</g>
<!-- m&#45;&gt;t -->
<g id="edge4" class="edge"><title>m&#45;&gt;t</title>
<path fill="none" stroke="black" d="M229.42,-182.772C258.988,-176.004 298.358,-166.79 333,-158 372.802,-147.901 417.148,-135.842 452.663,-125.986"/>
<polygon fill="black" stroke="black" points="453.738,-129.32 462.435,-123.268 451.862,-122.576 453.738,-129.32"/>
<text text-anchor="middle" x="413" y="-146.3" font-family="Times,serif" font-size="14.00">.domain</text>
</g>
<!-- param&#45;&gt;vf -->
<g id="edge6" class="edge"><title>param&#45;&gt;vf</title>
<path fill="none" stroke="black" d="M30.8577,-87.8588C33.3603,-77.1602 37.913,-63.6387 46,-54 49.8172,-49.4504 54.3855,-45.3757 59.2885,-41.7578"/>
<polygon fill="black" stroke="black" points="61.4018,-44.5556 67.7824,-36.0975 57.5199,-38.7305 61.4018,-44.5556"/>
<text text-anchor="middle" x="59.5" y="-58.3" font-family="Times,serif" font-size="14.00">conv</text>
</g>
<!-- initial&#45;&gt;vf -->
<g id="edge7" class="edge"><title>initial&#45;&gt;vf</title>
<path fill="none" stroke="black" d="M87.3343,-87.9882C79.886,-78.2827 73.6554,-65.7445 78,-54 79.2313,-50.6716 80.9361,-47.4461 82.9135,-44.3877"/>
<polygon fill="black" stroke="black" points="85.8132,-46.3556 89.0412,-36.2644 80.2249,-42.1401 85.8132,-46.3556"/>
<text text-anchor="middle" x="91.5" y="-58.3" font-family="Times,serif" font-size="14.00">conv</text>
</g>
<!-- c&#45;&gt;vf -->
<g id="edge13" class="edge"><title>c&#45;&gt;vf</title>
<path fill="none" stroke="black" d="M153.437,-90.1391C144.671,-84.747 135.687,-77.9818 129,-70 123.078,-62.9306 118.639,-53.9619 115.406,-45.5235"/>
<polygon fill="black" stroke="black" points="118.699,-44.3342 112.148,-36.0069 112.076,-46.6015 118.699,-44.3342"/>
<text text-anchor="middle" x="133" y="-58.3" font-family="Times,serif" font-size="14.00">.t</text>
</g>
<!-- vv -->
<g id="node10" class="node"><title>vv</title>
<polygon fill="none" stroke="black" points="318.25,-36 173.75,-36 173.75,-0 318.25,-0 318.25,-36"/>
<text text-anchor="middle" x="246" y="-14.3" font-family="Times,serif" font-size="14.00">Vector{Vector{Float}}</text>
</g>
<!-- c&#45;&gt;vv -->
<g id="edge11" class="edge"><title>c&#45;&gt;vv</title>
<path fill="none" stroke="black" d="M196.547,-87.5966C205.513,-75.1592 217.718,-58.2298 227.759,-44.3015"/>
<polygon fill="black" stroke="black" points="230.675,-46.2426 233.684,-36.084 224.996,-42.149 230.675,-46.2426"/>
<text text-anchor="middle" x="226.5" y="-58.3" font-family="Times,serif" font-size="14.00">.u</text>
</g>
<!-- Float -->
<g id="node12" class="node"><title>Float</title>
<polygon fill="none" stroke="black" points="498,-36 444,-36 444,-0 498,-0 498,-36"/>
<text text-anchor="middle" x="471" y="-14.3" font-family="Times,serif" font-size="14.00">Float</text>
</g>
<!-- t&#45;&gt;Float -->
<g id="edge16" class="edge"><title>t&#45;&gt;Float</title>
<path fill="none" stroke="black" d="M487.55,-87.7332C481.322,-82.8607 475.621,-76.9518 472,-70 468.245,-62.7912 467.054,-54.196 467.071,-46.1351"/>
<polygon fill="black" stroke="black" points="470.574,-46.1984 467.676,-36.0077 463.586,-45.7814 470.574,-46.1984"/>
<text text-anchor="middle" x="485" y="-58.3" font-family="Times,serif" font-size="14.00">.first</text>
</g>
<!-- t&#45;&gt;Float -->
<g id="edge17" class="edge"><title>t&#45;&gt;Float</title>
<path fill="none" stroke="black" d="M513.88,-87.948C509.934,-77.7849 504.361,-64.8021 498,-54 496.097,-50.7679 493.936,-47.4942 491.686,-44.3125"/>
<polygon fill="black" stroke="black" points="494.418,-42.1218 485.634,-36.1975 488.807,-46.3063 494.418,-42.1218"/>
<text text-anchor="middle" x="527" y="-58.3" font-family="Times,serif" font-size="14.00">.second</text>
</g>
<!-- S -->
<g id="node8" class="node"><title>S</title>
<polygon fill="none" stroke="black" points="361,-124 307,-124 307,-88 361,-88 361,-124"/>
<text text-anchor="middle" x="334" y="-102.3" font-family="Times,serif" font-size="14.00">(v, i)</text>
</g>
<!-- S&#45;&gt;vf -->
<g id="edge10" class="edge"><title>S&#45;&gt;vf</title>
<path fill="none" stroke="black" d="M331.078,-87.563C328.216,-76.1686 322.655,-61.9713 312,-54 287.44,-35.6265 209.292,-41.7059 165.371,-35.7266"/>
<polygon fill="black" stroke="black" points="165.96,-32.2766 155.513,-34.0372 164.778,-39.176 165.96,-32.2766"/>
<text text-anchor="middle" x="328.5" y="-58.3" font-family="Times,serif" font-size="14.00">v</text>
</g>
<!-- n -->
<g id="node11" class="node"><title>n</title>
<polygon fill="none" stroke="black" points="391,-36 337,-36 337,-0 391,-0 391,-36"/>
<text text-anchor="middle" x="364" y="-14.3" font-family="Times,serif" font-size="14.00">Int+</text>
</g>
<!-- S&#45;&gt;n -->
<g id="edge15" class="edge"><title>S&#45;&gt;n</title>
<path fill="none" stroke="black" d="M340.071,-87.5966C344.246,-75.6285 349.872,-59.5011 354.62,-45.8907"/>
<polygon fill="black" stroke="black" points="358.051,-46.6788 358.04,-36.084 351.442,-44.3732 358.051,-46.6788"/>
<text text-anchor="middle" x="358" y="-58.3" font-family="Times,serif" font-size="14.00"> &#160;i</text>
</g>
<!-- S&#45;&gt;Float -->
<g id="edge14" class="edge"><title>S&#45;&gt;Float</title>
<path fill="none" stroke="black" d="M361.067,-88.0092C382.364,-74.6401 412.22,-55.8982 435.445,-41.3193"/>
<polygon fill="black" stroke="black" points="437.381,-44.2366 443.989,-35.9555 433.659,-38.3079 437.381,-44.2366"/>
<text text-anchor="middle" x="438.5" y="-58.3" font-family="Times,serif" font-size="14.00">getindex</text>
</g>
<!-- U -->
<g id="node9" class="node"><title>U</title>
<polygon fill="none" stroke="black" points="289,-124 235,-124 235,-88 289,-88 289,-124"/>
<text text-anchor="middle" x="262" y="-102.3" font-family="Times,serif" font-size="14.00">(vv, i)</text>
</g>
<!-- U&#45;&gt;vf -->
<g id="edge12" class="edge"><title>U&#45;&gt;vf</title>
<path fill="none" stroke="black" d="M234.916,-92.6289C230.953,-90.9847 226.896,-89.3896 223,-88 195.169,-78.0733 184.497,-84.932 159,-70 147.52,-63.2767 136.784,-53.3492 128.152,-44.0353"/>
<polygon fill="black" stroke="black" points="130.676,-41.606 121.426,-36.4397 125.435,-46.2467 130.676,-41.606"/>
<text text-anchor="middle" x="182.5" y="-58.3" font-family="Times,serif" font-size="14.00">getindex</text>
</g>
<!-- U&#45;&gt;vv -->
<g id="edge8" class="edge"><title>U&#45;&gt;vv</title>
<path fill="none" stroke="black" d="M258.762,-87.5966C256.557,-75.7459 253.594,-59.8169 251.078,-46.2917"/>
<polygon fill="black" stroke="black" points="254.449,-45.2751 249.178,-36.084 247.567,-46.5555 254.449,-45.2751"/>
<text text-anchor="middle" x="265" y="-58.3" font-family="Times,serif" font-size="14.00"> vv</text>
</g>
<!-- U&#45;&gt;n -->
<g id="edge9" class="edge"><title>U&#45;&gt;n</title>
<path fill="none" stroke="black" d="M274.283,-87.6503C282.268,-77.1323 293.336,-63.8818 305,-54 311.999,-48.0709 320.126,-42.5416 328.07,-37.7081"/>
<polygon fill="black" stroke="black" points="330.016,-40.6245 336.89,-32.5623 326.489,-34.5782 330.016,-40.6245"/>
<text text-anchor="middle" x="309" y="-58.3" font-family="Times,serif" font-size="14.00"> i</text>
</g>
</g>
</svg>
