<?xml version="1.0" encoding="UTF-8" standalone="no"?>
<!DOCTYPE svg PUBLIC "-//W3C//DTD SVG 1.1//EN"
 "http://www.w3.org/Graphics/SVG/1.1/DTD/svg11.dtd">
<!-- Generated by graphviz version 2.40.1 (20161225.0304)
 -->
<!-- Title: G Pages: 1 -->
<svg width="581pt" height="282pt"
 viewBox="0.00 0.00 581.32 282.00" xmlns="http://www.w3.org/2000/svg" xmlns:xlink="http://www.w3.org/1999/xlink">
<g id="graph0" class="graph" transform="scale(1 1) rotate(0) translate(4 278)">
<title>G</title>
<polygon fill="#ffffff" stroke="transparent" points="-4,4 -4,-278 577.3167,-278 577.3167,4 -4,4"/>
<!-- n1p1 -->
<!-- n1p2 -->
<!-- n1p1&#45;&gt;n1p2 -->
<!-- n3 -->
<!-- copies -->
<g id="n3" class="node">
<title>n3</title>
<polygon fill="none" stroke="#000000" points="51.1926,-199 51.1926,-223 195.1926,-223 195.1926,-199 51.1926,-199"/>
<text text-anchor="start" x="102.9583" y="-206.8" font-family="Serif" font-size="14.00" fill="#000000">copies</text>
</g>
<!-- n1p1&#45;&gt;n3 -->
<!-- F64 -->
<g id="e1" class="edge">
<title>n1p1:s&#45;&gt;n3:n</title>
<path fill="none" stroke="#000000" d="M67.1926,-273C67.1926,-252.4291 73.8767,-246.4919 75.0255,-228.4362"/>
<polygon fill="#000000" stroke="#000000" points="76.7881,-228.0514 75.1926,-223 73.2898,-227.9438 76.7881,-228.0514"/>
<text text-anchor="middle" x="85.2546" y="-243.8" font-family="Serif" font-size="14.00" fill="#000000">F64</text>
</g>
<!-- n1p3 -->
<!-- n1p2&#45;&gt;n1p3 -->
<!-- n1p2&#45;&gt;n3 -->
<!-- F64 -->
<g id="e2" class="edge">
<title>n1p2:s&#45;&gt;n3:n</title>
<path fill="none" stroke="#000000" d="M127.1926,-273C127.1926,-252.6226 123.8506,-246.3483 123.2762,-228.3949"/>
<polygon fill="#000000" stroke="#000000" points="125.0199,-227.9723 123.1926,-223 121.5204,-228.0265 125.0199,-227.9723"/>
<text text-anchor="middle" x="138.2546" y="-243.8" font-family="Serif" font-size="14.00" fill="#000000">F64</text>
</g>
<!-- n1p4 -->
<!-- n1p3&#45;&gt;n1p4 -->
<!-- n1p3&#45;&gt;n3 -->
<!-- F64 -->
<g id="e3" class="edge">
<title>n1p3:s&#45;&gt;n3:n</title>
<path fill="none" stroke="#000000" d="M187.1926,-273C187.1926,-251.4906 173.595,-246.9755 171.4703,-228.1214"/>
<polygon fill="#000000" stroke="#000000" points="173.2109,-227.8979 171.1926,-223 169.716,-228.0875 173.2109,-227.8979"/>
<text text-anchor="middle" x="194.2546" y="-243.8" font-family="Serif" font-size="14.00" fill="#000000">F64</text>
</g>
<!-- n1p5 -->
<!-- n1p4&#45;&gt;n1p5 -->
<!-- n5 -->
<!-- infection -->
<g id="n5" class="node">
<title>n5</title>
<polygon fill="none" stroke="#000000" points="163.1926,-125 163.1926,-149 283.1926,-149 283.1926,-125 163.1926,-125"/>
<text text-anchor="start" x="197.1204" y="-132.8" font-family="Serif" font-size="14.00" fill="#000000">infection</text>
</g>
<!-- n1p4&#45;&gt;n5 -->
<!-- F64 -->
<g id="e4" class="edge">
<title>n1p4:s&#45;&gt;n5:n</title>
<path fill="none" stroke="#000000" d="M259.1926,-273C259.1926,-219.3617 247.9309,-205.2386 247.2271,-154.07"/>
<polygon fill="#000000" stroke="#000000" points="248.9766,-153.988 247.1926,-149 245.4767,-154.0118 248.9766,-153.988"/>
<text text-anchor="middle" x="266.2546" y="-206.8" font-family="Serif" font-size="14.00" fill="#000000">F64</text>
</g>
<!-- n1p6 -->
<!-- n1p5&#45;&gt;n1p6 -->
<!-- n1p5&#45;&gt;n5 -->
<!-- F64 -->
<g id="e5" class="edge">
<title>n1p5:s&#45;&gt;n5:n</title>
<path fill="none" stroke="#000000" d="M319.1926,-273C319.1926,-215.6353 273.9639,-208.4821 271.3138,-154.0595"/>
<polygon fill="#000000" stroke="#000000" points="273.062,-153.9566 271.1926,-149 269.563,-154.0405 273.062,-153.9566"/>
<text text-anchor="middle" x="314.2546" y="-206.8" font-family="Serif" font-size="14.00" fill="#000000">F64</text>
</g>
<!-- n1p7 -->
<!-- n1p6&#45;&gt;n1p7 -->
<!-- n6 -->
<!-- recovery -->
<g id="n6" class="node">
<title>n6</title>
<polygon fill="none" stroke="#000000" points="403.1926,-199 403.1926,-223 499.1926,-223 499.1926,-199 403.1926,-199"/>
<text text-anchor="start" x="424.3513" y="-206.8" font-family="Serif" font-size="14.00" fill="#000000">recovery</text>
</g>
<!-- n1p6&#45;&gt;n6 -->
<!-- F64 -->
<g id="e6" class="edge">
<title>n1p6:s&#45;&gt;n6:n</title>
<path fill="none" stroke="#000000" d="M379.1926,-273C379.1926,-247.4354 410.5701,-249.8918 414.7375,-228.0487"/>
<polygon fill="#000000" stroke="#000000" points="416.4865,-228.137 415.1926,-223 413.0007,-227.8226 416.4865,-228.137"/>
<text text-anchor="middle" x="418.2546" y="-243.8" font-family="Serif" font-size="14.00" fill="#000000">F64</text>
</g>
<!-- n1p8 -->
<!-- n1p7&#45;&gt;n1p8 -->
<!-- n1p7&#45;&gt;n6 -->
<!-- F64 -->
<g id="e7" class="edge">
<title>n1p7:s&#45;&gt;n6:n</title>
<path fill="none" stroke="#000000" d="M439.1926,-273C439.1926,-252.6875 439.1926,-246.3002 439.1926,-228.3811"/>
<polygon fill="#000000" stroke="#000000" points="440.9427,-228 439.1926,-223 437.4427,-228 440.9427,-228"/>
<text text-anchor="middle" x="451.2546" y="-243.8" font-family="Serif" font-size="14.00" fill="#000000">F64</text>
</g>
<!-- n1p9 -->
<!-- n1p8&#45;&gt;n1p9 -->
<!-- n1p8&#45;&gt;n6 -->
<!-- F64 -->
<g id="e8" class="edge">
<title>n1p8:s&#45;&gt;n6:n</title>
<path fill="none" stroke="#000000" d="M499.1926,-273C499.1926,-247.4354 467.8151,-249.8918 463.6478,-228.0487"/>
<polygon fill="#000000" stroke="#000000" points="465.3846,-227.8226 463.1926,-223 461.8988,-228.137 465.3846,-227.8226"/>
<text text-anchor="middle" x="502.2546" y="-243.8" font-family="Serif" font-size="14.00" fill="#000000">F64</text>
</g>
<!-- n1p9&#45;&gt;n6 -->
<!-- F64 -->
<g id="e9" class="edge">
<title>n1p9:s&#45;&gt;n6:n</title>
<path fill="none" stroke="#000000" d="M559.1926,-273C559.1926,-249.8846 537.3434,-253.9448 518.1926,-241 506.6432,-233.1932 491.5709,-237.465 487.9833,-227.9817"/>
<polygon fill="#000000" stroke="#000000" points="489.7048,-227.6639 487.1926,-223 486.2481,-228.2125 489.7048,-227.6639"/>
<text text-anchor="middle" x="561.2546" y="-243.8" font-family="Serif" font-size="14.00" fill="#000000">F64</text>
</g>
<!-- n2p1 -->
<!-- n2p2 -->
<!-- n2p1&#45;&gt;n2p2 -->
<!-- n2p3 -->
<!-- n2p2&#45;&gt;n2p3 -->
<!-- n4 -->
<!-- update -->
<g id="n4" class="node">
<title>n4</title>
<polygon fill="none" stroke="#000000" points="49.1926,-51 49.1926,-75 169.1926,-75 169.1926,-51 49.1926,-51"/>
<text text-anchor="start" x="87.7825" y="-58.8" font-family="Serif" font-size="14.00" fill="#000000">update</text>
</g>
<!-- n3&#45;&gt;n4 -->
<!-- F64 -->
<g id="e10" class="edge">
<title>n3:s&#45;&gt;n4:n</title>
<path fill="none" stroke="#000000" d="M63.1926,-199C63.1926,-184.2059 46.7202,-190.2725 35.1926,-181 19.4899,-168.3692 10.7986,-167.6108 3.0686,-149 -1.0229,-139.1492 -1.0229,-134.8508 3.0686,-125 10.7986,-106.3892 19.7082,-105.8975 35.1926,-93 44.3044,-85.4105 56.5498,-87.8195 60.1541,-80.3153"/>
<polygon fill="#000000" stroke="#000000" points="61.9513,-80.2428 61.1926,-75 58.5162,-79.5716 61.9513,-80.2428"/>
<text text-anchor="middle" x="15.2546" y="-132.8" font-family="Serif" font-size="14.00" fill="#000000">F64</text>
</g>
<!-- n3&#45;&gt;n4 -->
<!-- F64 -->
<g id="e11" class="edge">
<title>n3:s&#45;&gt;n4:n</title>
<path fill="none" stroke="#000000" d="M87.1926,-199C87.1926,-174.3265 68.5678,-173.0529 63.0686,-149 60.6912,-138.6016 60.8629,-135.4361 63.0686,-125 67.7011,-103.0822 82.5946,-99.7345 84.8935,-80.3068"/>
<polygon fill="#000000" stroke="#000000" points="86.6583,-80.0906 85.1926,-75 83.1639,-79.8935 86.6583,-80.0906"/>
<text text-anchor="middle" x="75.2546" y="-132.8" font-family="Serif" font-size="14.00" fill="#000000">F64</text>
</g>
<!-- n3&#45;&gt;n4 -->
<!-- F64 -->
<g id="e12" class="edge">
<title>n3:s&#45;&gt;n4:n</title>
<path fill="none" stroke="#000000" d="M111.1926,-199C111.1926,-145.6042 109.3157,-131.0189 109.1984,-80.0487"/>
<polygon fill="#000000" stroke="#000000" points="110.9484,-79.998 109.1926,-75 107.4484,-80.002 110.9484,-79.998"/>
<text text-anchor="middle" x="123.2546" y="-132.8" font-family="Serif" font-size="14.00" fill="#000000">F64</text>
</g>
<!-- n3&#45;&gt;n5 -->
<!-- F64 -->
<g id="e13" class="edge">
<title>n3:s&#45;&gt;n5:n</title>
<path fill="none" stroke="#000000" d="M135.1926,-199C135.1926,-184.7725 128.2302,-178.8736 136.0686,-167 145.4604,-152.7734 169.1567,-164.7926 174.228,-154.0701"/>
<polygon fill="#000000" stroke="#000000" points="175.9771,-154.239 175.1926,-149 172.5388,-153.5848 175.9771,-154.239"/>
<text text-anchor="middle" x="148.2546" y="-169.8" font-family="Serif" font-size="14.00" fill="#000000">F64</text>
</g>
<!-- n3&#45;&gt;n5 -->
<!-- F64 -->
<g id="e14" class="edge">
<title>n3:s&#45;&gt;n5:n</title>
<path fill="none" stroke="#000000" d="M159.1926,-199C159.1926,-181.2552 171.8317,-180.7335 183.0686,-167 188.5947,-160.2461 195.7853,-159.6748 198.2875,-153.9371"/>
<polygon fill="#000000" stroke="#000000" points="200.0122,-154.2336 199.1926,-149 196.5696,-153.6024 200.0122,-154.2336"/>
<text text-anchor="middle" x="194.2546" y="-169.8" font-family="Serif" font-size="14.00" fill="#000000">F64</text>
</g>
<!-- n3&#45;&gt;n5 -->
<!-- F64 -->
<g id="e15" class="edge">
<title>n3:s&#45;&gt;n5:n</title>
<path fill="none" stroke="#000000" d="M183.1926,-199C183.1926,-185.6667 198.6493,-191.2367 207.1926,-181 216.1872,-170.2227 221.7705,-165.9271 222.9555,-154.1281"/>
<polygon fill="#000000" stroke="#000000" points="224.7097,-154.0755 223.1926,-149 221.2135,-153.9138 224.7097,-154.0755"/>
<text text-anchor="middle" x="230.2546" y="-169.8" font-family="Serif" font-size="14.00" fill="#000000">F64</text>
</g>
<!-- n4&#45;&gt;n2p1 -->
<!-- F64 -->
<g id="e16" class="edge">
<title>n4:s&#45;&gt;n2p1:n</title>
<path fill="none" stroke="#000000" d="M69.1926,-51C69.1926,-28.9358 52.1956,-25.4002 49.5398,-6.2311"/>
<polygon fill="#000000" stroke="#000000" points="51.27,-5.8731 49.1926,-1 47.7776,-6.1049 51.27,-5.8731"/>
<text text-anchor="middle" x="76.2546" y="-21.8" font-family="Serif" font-size="14.00" fill="#000000">F64</text>
</g>
<!-- n4&#45;&gt;n2p2 -->
<!-- F64 -->
<g id="e17" class="edge">
<title>n4:s&#45;&gt;n2p2:n</title>
<path fill="none" stroke="#000000" d="M109.1926,-51C109.1926,-30.6875 109.1926,-24.3002 109.1926,-6.3811"/>
<polygon fill="#000000" stroke="#000000" points="110.9427,-6 109.1926,-1 107.4427,-6 110.9427,-6"/>
<text text-anchor="middle" x="121.2546" y="-21.8" font-family="Serif" font-size="14.00" fill="#000000">F64</text>
</g>
<!-- n4&#45;&gt;n2p3 -->
<!-- F64 -->
<g id="e18" class="edge">
<title>n4:s&#45;&gt;n2p3:n</title>
<path fill="none" stroke="#000000" d="M149.1926,-51C149.1926,-28.9358 166.1897,-25.4002 168.8455,-6.2311"/>
<polygon fill="#000000" stroke="#000000" points="170.6076,-6.1049 169.1926,-1 167.1153,-5.8731 170.6076,-6.1049"/>
<text text-anchor="middle" x="176.2546" y="-21.8" font-family="Serif" font-size="14.00" fill="#000000">F64</text>
</g>
<!-- n5&#45;&gt;n4 -->
<!-- F64 -->
<g id="e19" class="edge">
<title>n5:s&#45;&gt;n4:n</title>
<path fill="none" stroke="#000000" d="M223.1926,-125C223.1926,-81.2078 140.7608,-117.3517 133.6769,-80.429"/>
<polygon fill="#000000" stroke="#000000" points="135.38,-79.8247 133.1926,-75 131.8938,-80.1357 135.38,-79.8247"/>
<text text-anchor="middle" x="225.2546" y="-95.8" font-family="Serif" font-size="14.00" fill="#000000">F64</text>
</g>
<!-- n6&#45;&gt;n4 -->
<!-- F64 -->
<g id="e20" class="edge">
<title>n6:s&#45;&gt;n4:n</title>
<path fill="none" stroke="#000000" d="M451.1926,-199C451.1926,-94.4506 339.7824,-127.7941 241.1926,-93 225.0188,-87.292 170.1034,-92.7207 159.1155,-80.0378"/>
<polygon fill="#000000" stroke="#000000" points="160.6106,-79.0472 157.1926,-75 157.3407,-80.2954 160.6106,-79.0472"/>
<text text-anchor="middle" x="447.2546" y="-132.8" font-family="Serif" font-size="14.00" fill="#000000">F64</text>
</g>
</g>
</svg>
