<?xml version="1.0" encoding="UTF-8" standalone="no"?>
<!DOCTYPE svg PUBLIC "-//W3C//DTD SVG 1.1//EN"
 "http://www.w3.org/Graphics/SVG/1.1/DTD/svg11.dtd">
<!-- Generated by graphviz version 2.40.1 (20161225.0304)
 -->
<!-- Title: G Pages: 1 -->
<svg width="335pt" height="134pt"
 viewBox="0.00 0.00 335.12 134.00" xmlns="http://www.w3.org/2000/svg" xmlns:xlink="http://www.w3.org/1999/xlink">
<g id="graph0" class="graph" transform="scale(1 1) rotate(0) translate(4 130)">
<title>G</title>
<polygon fill="#ffffff" stroke="transparent" points="-4,4 -4,-130 331.124,-130 331.124,4 -4,4"/>
<!-- n1p1 -->
<!-- n1p2 -->
<!-- n1p1&#45;&gt;n1p2 -->
<!-- n3 -->
<!-- sir -->
<g id="n3" class="node">
<title>n3</title>
<polygon fill="none" stroke="#000000" points="89,-51 89,-75 233,-75 233,-51 89,-51"/>
<text text-anchor="start" x="153.6138" y="-58.8" font-family="Serif" font-size="14.00" fill="#000000">sir</text>
</g>
<!-- n1p1&#45;&gt;n3 -->
<!-- F64 -->
<g id="e1" class="edge">
<title>n1p1:s&#45;&gt;n3:n</title>
<path fill="none" stroke="#000000" d="M12,-125C12,-98.2876 39.4501,-105.8367 62.876,-93 77.511,-84.9804 96.3178,-91.8308 100.2568,-80.188"/>
<polygon fill="#000000" stroke="#000000" points="102.0232,-80.1977 101,-75 98.5585,-79.7013 102.0232,-80.1977"/>
<text text-anchor="middle" x="75.062" y="-95.8" font-family="Serif" font-size="14.00" fill="#000000">F64</text>
</g>
<!-- n1p3 -->
<!-- n1p2&#45;&gt;n1p3 -->
<!-- n1p2&#45;&gt;n3 -->
<!-- F64 -->
<g id="e2" class="edge">
<title>n1p2:s&#45;&gt;n3:n</title>
<path fill="none" stroke="#000000" d="M72,-125C72,-117.9794 111.8568,-91.6226 122.4437,-79.4659"/>
<polygon fill="#000000" stroke="#000000" points="124.0348,-80.2088 125,-75 120.9973,-78.47 124.0348,-80.2088"/>
<text text-anchor="middle" x="119.062" y="-95.8" font-family="Serif" font-size="14.00" fill="#000000">F64</text>
</g>
<!-- n1p4 -->
<!-- n1p3&#45;&gt;n1p4 -->
<!-- n1p3&#45;&gt;n3 -->
<!-- F64 -->
<g id="e3" class="edge">
<title>n1p3:s&#45;&gt;n3:n</title>
<path fill="none" stroke="#000000" d="M132,-125C132,-110.1159 136.9389,-107.0415 141.876,-93 144.061,-86.7857 147.0762,-84.5791 148.3695,-80.0249"/>
<polygon fill="#000000" stroke="#000000" points="150.1138,-80.179 149,-75 146.641,-79.7432 150.1138,-80.179"/>
<text text-anchor="middle" x="154.062" y="-95.8" font-family="Serif" font-size="14.00" fill="#000000">F64</text>
</g>
<!-- n1p5 -->
<!-- n1p4&#45;&gt;n1p5 -->
<!-- n1p4&#45;&gt;n3 -->
<!-- F64 -->
<g id="e4" class="edge">
<title>n1p4:s&#45;&gt;n3:n</title>
<path fill="none" stroke="#000000" d="M192,-125C192,-103.0846 175.8528,-99.2863 173.3298,-80.2017"/>
<polygon fill="#000000" stroke="#000000" points="175.0629,-79.8792 173,-75 171.57,-80.1007 175.0629,-79.8792"/>
<text text-anchor="middle" x="199.062" y="-95.8" font-family="Serif" font-size="14.00" fill="#000000">F64</text>
</g>
<!-- n1p6 -->
<!-- n1p5&#45;&gt;n1p6 -->
<!-- n1p5&#45;&gt;n3 -->
<!-- F64 -->
<g id="e5" class="edge">
<title>n1p5:s&#45;&gt;n3:n</title>
<path fill="none" stroke="#000000" d="M252,-125C252,-117.838 210.6392,-91.7077 199.6528,-79.5072"/>
<polygon fill="#000000" stroke="#000000" points="201.0444,-78.4214 197,-75 198.028,-80.1967 201.0444,-78.4214"/>
<text text-anchor="middle" x="245.062" y="-95.8" font-family="Serif" font-size="14.00" fill="#000000">F64</text>
</g>
<!-- n1p6&#45;&gt;n3 -->
<!-- F64 -->
<g id="e6" class="edge">
<title>n1p6:s&#45;&gt;n3:n</title>
<path fill="none" stroke="#000000" d="M312,-125C312,-98.2409 284.5902,-105.6314 261,-93 245.5593,-84.7322 225.576,-92.5272 221.6762,-80.058"/>
<polygon fill="#000000" stroke="#000000" points="223.3972,-79.724 221,-75 219.928,-80.1878 223.3972,-79.724"/>
<text text-anchor="middle" x="315.062" y="-95.8" font-family="Serif" font-size="14.00" fill="#000000">F64</text>
</g>
<!-- n2p1 -->
<!-- n2p2 -->
<!-- n2p1&#45;&gt;n2p2 -->
<!-- n2p3 -->
<!-- n2p2&#45;&gt;n2p3 -->
<!-- n3&#45;&gt;n2p1 -->
<!-- F64 -->
<g id="e7" class="edge">
<title>n3:s&#45;&gt;n2p1:n</title>
<path fill="none" stroke="#000000" d="M113,-51C113,-29.9321 102.8018,-24.6374 101.2083,-6.0341"/>
<polygon fill="#000000" stroke="#000000" points="102.9553,-5.9233 101,-1 99.4583,-6.0681 102.9553,-5.9233"/>
<text text-anchor="middle" x="122.062" y="-21.8" font-family="Serif" font-size="14.00" fill="#000000">F64</text>
</g>
<!-- n3&#45;&gt;n2p2 -->
<!-- F64 -->
<g id="e8" class="edge">
<title>n3:s&#45;&gt;n2p2:n</title>
<path fill="none" stroke="#000000" d="M161,-51C161,-30.6875 161,-24.3002 161,-6.3811"/>
<polygon fill="#000000" stroke="#000000" points="162.7501,-6 161,-1 159.2501,-6 162.7501,-6"/>
<text text-anchor="middle" x="173.062" y="-21.8" font-family="Serif" font-size="14.00" fill="#000000">F64</text>
</g>
<!-- n3&#45;&gt;n2p3 -->
<!-- F64 -->
<g id="e9" class="edge">
<title>n3:s&#45;&gt;n2p3:n</title>
<path fill="none" stroke="#000000" d="M209,-51C209,-29.9321 219.1982,-24.6374 220.7917,-6.0341"/>
<polygon fill="#000000" stroke="#000000" points="222.5417,-6.0681 221,-1 219.0447,-5.9233 222.5417,-6.0681"/>
<text text-anchor="middle" x="230.062" y="-21.8" font-family="Serif" font-size="14.00" fill="#000000">F64</text>
</g>
</g>
</svg>
