<?xml version="1.0" encoding="UTF-8" standalone="no"?>
<!DOCTYPE svg PUBLIC "-//W3C//DTD SVG 1.1//EN"
 "http://www.w3.org/Graphics/SVG/1.1/DTD/svg11.dtd">
<!-- Generated by graphviz version 2.40.1 (20161225.0304)
 -->
<!-- Title: G Pages: 1 -->
<svg width="988pt" height="131pt"
 viewBox="0.00 0.00 988.08 131.00" xmlns="http://www.w3.org/2000/svg" xmlns:xlink="http://www.w3.org/1999/xlink">
<g id="graph0" class="graph" transform="scale(1 1) rotate(0) translate(4 127)">
<title>G</title>
<polygon fill="#ffffff" stroke="transparent" points="-4,4 -4,-127 984.0784,-127 984.0784,4 -4,4"/>
<!-- 1 -->
<g id="node1" class="node">
<title>1</title>
<ellipse fill="none" stroke="#000000" cx="124.7889" cy="-105" rx="124.5782" ry="18"/>
<text text-anchor="middle" x="124.7889" y="-101.3" font-family="Times,serif" font-size="14.00" fill="#000000">DataType[StateModel, Symbol]</text>
</g>
<!-- 2 -->
<g id="node2" class="node">
<title>2</title>
<ellipse fill="none" stroke="#000000" cx="174.7889" cy="-18" rx="29.4969" ry="18"/>
<text text-anchor="middle" x="174.7889" y="-14.3" font-family="Times,serif" font-size="14.00" fill="#000000">Int64</text>
</g>
<!-- 1&#45;&gt;2 -->
<g id="edge1" class="edge">
<title>1&#45;&gt;2</title>
<path fill="none" stroke="#000000" d="M135.149,-86.9735C142.2607,-74.5992 151.8128,-57.9785 159.7582,-44.1534"/>
<polygon fill="#000000" stroke="#000000" points="163.0042,-45.5296 164.9525,-35.1154 156.9351,-42.0415 163.0042,-45.5296"/>
<text text-anchor="middle" x="168.2889" y="-57.8" font-family="Times,serif" font-size="14.00" fill="#000000">count</text>
</g>
<!-- 6 -->
<g id="node6" class="node">
<title>6</title>
<ellipse fill="none" stroke="#000000" cx="89.7889" cy="-18" rx="37.8943" ry="18"/>
<text text-anchor="middle" x="89.7889" y="-14.3" font-family="Times,serif" font-size="14.00" fill="#000000">Float64</text>
</g>
<!-- 1&#45;&gt;6 -->
<g id="edge2" class="edge">
<title>1&#45;&gt;6</title>
<path fill="none" stroke="#000000" d="M103.7882,-87.0029C98.9854,-81.7254 94.5004,-75.5856 91.7889,-69 88.8666,-61.9022 87.693,-53.7684 87.4192,-46.1124"/>
<polygon fill="#000000" stroke="#000000" points="90.919,-46.1469 87.524,-36.1107 83.9194,-46.0735 90.919,-46.1469"/>
<text text-anchor="middle" x="116.2889" y="-57.8" font-family="Times,serif" font-size="14.00" fill="#000000">stateload</text>
</g>
<!-- 3 -->
<g id="node3" class="node">
<title>3</title>
<ellipse fill="none" stroke="#000000" cx="447.7889" cy="-105" rx="92.0841" ry="18"/>
<text text-anchor="middle" x="447.7889" y="-101.3" font-family="Times,serif" font-size="14.00" fill="#000000">DataType[StateModel]</text>
</g>
<!-- 3&#45;&gt;2 -->
<g id="edge3" class="edge">
<title>3&#45;&gt;2</title>
<path fill="none" stroke="#000000" d="M389.3246,-91.0338C341.1583,-78.7716 271.4833,-59.2826 212.7889,-36 210.9568,-35.2732 209.0885,-34.4996 207.2119,-33.6969"/>
<polygon fill="#000000" stroke="#000000" points="208.4478,-30.4156 197.8904,-29.5259 205.5887,-36.8051 208.4478,-30.4156"/>
<text text-anchor="middle" x="324.2889" y="-57.8" font-family="Times,serif" font-size="14.00" fill="#000000">count</text>
</g>
<!-- 8 -->
<g id="node8" class="node">
<title>8</title>
<ellipse fill="none" stroke="#000000" cx="861.7889" cy="-18" rx="118.0794" ry="18"/>
<text text-anchor="middle" x="861.7889" y="-14.3" font-family="Times,serif" font-size="14.00" fill="#000000">Array{Pair{Symbol,Int64},1}</text>
</g>
<!-- 3&#45;&gt;8 -->
<g id="edge4" class="edge">
<title>3&#45;&gt;8</title>
<path fill="none" stroke="#000000" d="M510.6666,-91.7866C583.3361,-76.5155 703.0503,-51.3581 782.1614,-34.7333"/>
<polygon fill="#000000" stroke="#000000" points="783.016,-38.1303 792.0824,-32.6485 781.5763,-31.2799 783.016,-38.1303"/>
<text text-anchor="middle" x="701.7889" y="-57.8" font-family="Times,serif" font-size="14.00" fill="#000000">describe</text>
</g>
<!-- 10 -->
<g id="node10" class="node">
<title>10</title>
<ellipse fill="none" stroke="#000000" cx="273.7889" cy="-18" rx="51.9908" ry="18"/>
<text text-anchor="middle" x="273.7889" y="-14.3" font-family="Times,serif" font-size="14.00" fill="#000000">StateModel</text>
</g>
<!-- 3&#45;&gt;10 -->
<g id="edge5" class="edge">
<title>3&#45;&gt;10</title>
<path fill="none" stroke="#000000" d="M414.24,-88.2255C385.1536,-73.6824 343.0535,-52.6323 312.5373,-37.3742"/>
<polygon fill="#000000" stroke="#000000" points="313.9754,-34.1802 303.4659,-32.8385 310.8449,-40.4412 313.9754,-34.1802"/>
<text text-anchor="middle" x="383.2889" y="-57.8" font-family="Times,serif" font-size="14.00" fill="#000000">tick!</text>
</g>
<!-- 12 -->
<g id="node12" class="node">
<title>12</title>
<ellipse fill="none" stroke="#000000" cx="534.7889" cy="-18" rx="191.1661" ry="18"/>
<text text-anchor="middle" x="534.7889" y="-14.3" font-family="Times,serif" font-size="14.00" fill="#000000">Tuple{StateModel,Array{Pair{Symbol,Int64},1}}</text>
</g>
<!-- 3&#45;&gt;12 -->
<g id="edge6" class="edge">
<title>3&#45;&gt;12</title>
<path fill="none" stroke="#000000" d="M465.8154,-86.9735C478.4137,-74.3752 495.4135,-57.3755 509.3834,-43.4055"/>
<polygon fill="#000000" stroke="#000000" points="512.1894,-45.5493 516.7856,-36.0034 507.2396,-40.5996 512.1894,-45.5493"/>
<text text-anchor="middle" x="508.2889" y="-57.8" font-family="Times,serif" font-size="14.00" fill="#000000">tick!</text>
</g>
<!-- 4 -->
<g id="node4" class="node">
<title>4</title>
<ellipse fill="none" stroke="#000000" cx="584.7889" cy="-105" rx="27" ry="18"/>
<text text-anchor="middle" x="584.7889" y="-101.3" font-family="Times,serif" font-size="14.00" fill="#000000">4</text>
</g>
<!-- 5 -->
<g id="node5" class="node">
<title>5</title>
<ellipse fill="none" stroke="#000000" cx="656.7889" cy="-105" rx="27" ry="18"/>
<text text-anchor="middle" x="656.7889" y="-101.3" font-family="Times,serif" font-size="14.00" fill="#000000">5</text>
</g>
<!-- 7 -->
<g id="node7" class="node">
<title>7</title>
<ellipse fill="none" stroke="#000000" cx="728.7889" cy="-105" rx="27" ry="18"/>
<text text-anchor="middle" x="728.7889" y="-101.3" font-family="Times,serif" font-size="14.00" fill="#000000">7</text>
</g>
<!-- 9 -->
<g id="node9" class="node">
<title>9</title>
<ellipse fill="none" stroke="#000000" cx="800.7889" cy="-105" rx="27" ry="18"/>
<text text-anchor="middle" x="800.7889" y="-101.3" font-family="Times,serif" font-size="14.00" fill="#000000">9</text>
</g>
<!-- 11 -->
<g id="node11" class="node">
<title>11</title>
<ellipse fill="none" stroke="#000000" cx="872.7889" cy="-105" rx="27" ry="18"/>
<text text-anchor="middle" x="872.7889" y="-101.3" font-family="Times,serif" font-size="14.00" fill="#000000">11</text>
</g>
</g>
</svg>
