<?xml version="1.0" encoding="UTF-8" standalone="no"?>
<!DOCTYPE svg PUBLIC "-//W3C//DTD SVG 1.1//EN"
 "http://www.w3.org/Graphics/SVG/1.1/DTD/svg11.dtd">
<!-- Generated by graphviz version 2.40.1 (20161225.0304)
 -->
<!-- Title: G Pages: 1 -->
<svg width="152pt" height="208pt"
 viewBox="0.00 0.00 152.00 208.00" xmlns="http://www.w3.org/2000/svg" xmlns:xlink="http://www.w3.org/1999/xlink">
<g id="graph0" class="graph" transform="scale(1 1) rotate(0) translate(4 204)">
<title>G</title>
<polygon fill="#ffffff" stroke="transparent" points="-4,4 -4,-204 148,-204 148,4 -4,4"/>
<!-- n1p1 -->
<!-- n1p2 -->
<!-- n1p1&#45;&gt;n1p2 -->
<!-- n5 -->
<!-- infection -->
<g id="n5" class="node">
<title>n5</title>
<polygon fill="none" stroke="#000000" points="53.5,-125 53.5,-149 115.5,-149 115.5,-125 53.5,-125"/>
<text text-anchor="start" x="58.4277" y="-132.8" font-family="Serif" font-size="14.00" fill="#000000">infection</text>
</g>
<!-- n1p1&#45;&gt;n5 -->
<!-- S -->
<g id="e1" class="edge">
<title>n1p1:s&#45;&gt;n5:n</title>
<path fill="none" stroke="#000000" d="M47.5,-199C47.5,-176.7804 65.3469,-173.5192 68.1355,-154.2619"/>
<polygon fill="#000000" stroke="#000000" points="69.9002,-154.109 68.5,-149 66.4086,-153.8671 69.9002,-154.109"/>
<text text-anchor="middle" x="68.1689" y="-169.8" font-family="Serif" font-size="14.00" fill="#000000">S</text>
</g>
<!-- n1p2&#45;&gt;n5 -->
<!-- I -->
<g id="e2" class="edge">
<title>n1p2:s&#45;&gt;n5:n</title>
<path fill="none" stroke="#000000" d="M107.5,-199C107.5,-178.4894 101.6514,-172.4472 100.6462,-154.4234"/>
<polygon fill="#000000" stroke="#000000" points="102.3842,-153.951 100.5,-149 98.8855,-154.0454 102.3842,-153.951"/>
<text text-anchor="middle" x="107.4448" y="-169.8" font-family="Serif" font-size="14.00" fill="#000000">I</text>
</g>
<!-- n2p1 -->
<!-- n2p2 -->
<!-- n2p1&#45;&gt;n2p2 -->
<!-- n3 -->
<!-- recovery -->
<g id="n3" class="node">
<title>n3</title>
<polygon fill="none" stroke="#000000" points=".5,-51 .5,-75 63.5,-75 63.5,-51 .5,-51"/>
<text text-anchor="start" x="5.1587" y="-58.8" font-family="Serif" font-size="14.00" fill="#000000">recovery</text>
</g>
<!-- n3&#45;&gt;n2p1 -->
<!-- R -->
<g id="e3" class="edge">
<title>n3:s&#45;&gt;n2p1:n</title>
<path fill="none" stroke="#000000" d="M32.5,-51C32.5,-29.8328 43.5481,-24.7135 45.2744,-6.0537"/>
<polygon fill="#000000" stroke="#000000" points="47.0251,-6.0731 45.5,-1 43.5286,-5.9169 47.0251,-6.0731"/>
<text text-anchor="middle" x="47.5552" y="-21.8" font-family="Serif" font-size="14.00" fill="#000000">R</text>
</g>
<!-- n4 -->
<!-- recovery -->
<g id="n4" class="node">
<title>n4</title>
<polygon fill="none" stroke="#000000" points="81.5,-51 81.5,-75 144.5,-75 144.5,-51 81.5,-51"/>
<text text-anchor="start" x="86.1587" y="-58.8" font-family="Serif" font-size="14.00" fill="#000000">recovery</text>
</g>
<!-- n4&#45;&gt;n2p2 -->
<!-- R -->
<g id="e4" class="edge">
<title>n4:s&#45;&gt;n2p2:n</title>
<path fill="none" stroke="#000000" d="M113.5,-51C113.5,-30.651 110.9935,-24.3273 110.5627,-6.3889"/>
<polygon fill="#000000" stroke="#000000" points="112.3081,-5.9793 110.5,-1 108.8083,-6.02 112.3081,-5.9793"/>
<text text-anchor="middle" x="117.5552" y="-21.8" font-family="Serif" font-size="14.00" fill="#000000">R</text>
</g>
<!-- n5&#45;&gt;n3 -->
<!-- I -->
<g id="e5" class="edge">
<title>n5:s&#45;&gt;n3:n</title>
<path fill="none" stroke="#000000" d="M68.5,-125C68.5,-99.4354 37.1225,-101.8918 32.9552,-80.0487"/>
<polygon fill="#000000" stroke="#000000" points="34.692,-79.8226 32.5,-75 31.2061,-80.137 34.692,-79.8226"/>
<text text-anchor="middle" x="62.4448" y="-95.8" font-family="Serif" font-size="14.00" fill="#000000">I</text>
</g>
<!-- n5&#45;&gt;n4 -->
<!-- I -->
<g id="e6" class="edge">
<title>n5:s&#45;&gt;n4:n</title>
<path fill="none" stroke="#000000" d="M100.5,-125C100.5,-103.8328 111.5481,-98.7135 113.2744,-80.0537"/>
<polygon fill="#000000" stroke="#000000" points="115.0251,-80.0731 113.5,-75 111.5286,-79.9169 115.0251,-80.0731"/>
<text text-anchor="middle" x="111.4448" y="-95.8" font-family="Serif" font-size="14.00" fill="#000000">I</text>
</g>
</g>
</svg>
