<?xml version="1.0" encoding="UTF-8" standalone="no"?>
<!DOCTYPE svg PUBLIC "-//W3C//DTD SVG 1.1//EN"
 "http://www.w3.org/Graphics/SVG/1.1/DTD/svg11.dtd">
<!-- Generated by graphviz version 2.40.1 (20161225.0304)
 -->
<!-- Title: G Pages: 1 -->
<svg width="212pt" height="292pt"
 viewBox="0.00 0.00 212.00 292.00" xmlns="http://www.w3.org/2000/svg" xmlns:xlink="http://www.w3.org/1999/xlink">
<g id="graph0" class="graph" transform="scale(1 1) rotate(0) translate(4 288)">
<title>G</title>
<polygon fill="#ffffff" stroke="transparent" points="-4,4 -4,-288 208,-288 208,4 -4,4"/>
<!-- n1p1 -->
<!-- n1p2 -->
<!-- n1p1&#45;&gt;n1p2 -->
<!-- n5 -->
<!-- fit -->
<g id="n5" class="node">
<title>n5</title>
<polygon fill="none" stroke="#000000" points="36,-209 36,-233 84,-233 84,-209 36,-209"/>
<text text-anchor="start" x="54.5552" y="-216.8" font-family="Serif" font-size="14.00" fill="#000000">fit</text>
</g>
<!-- n1p1&#45;&gt;n5 -->
<!-- X -->
<g id="e1" class="edge">
<title>n1p1:s&#45;&gt;n5:n</title>
<path fill="none" stroke="#000000" d="M12,-283C12,-257.4354 43.3775,-259.8918 47.5448,-238.0487"/>
<polygon fill="#000000" stroke="#000000" points="49.2939,-238.137 48,-233 45.808,-237.8226 49.2939,-238.137"/>
<text text-anchor="middle" x="44.6689" y="-253.8" font-family="Serif" font-size="14.00" fill="#000000">X</text>
</g>
<!-- n1p3 -->
<!-- n1p2&#45;&gt;n1p3 -->
<!-- n1p2&#45;&gt;n5 -->
<!-- Y -->
<g id="e2" class="edge">
<title>n1p2:s&#45;&gt;n5:n</title>
<path fill="none" stroke="#000000" d="M72,-283C72,-262.6875 72,-256.3002 72,-238.3811"/>
<polygon fill="#000000" stroke="#000000" points="73.7501,-238 72,-233 70.2501,-238 73.7501,-238"/>
<text text-anchor="middle" x="77.6689" y="-253.8" font-family="Serif" font-size="14.00" fill="#000000">Y</text>
</g>
<!-- n1p4 -->
<!-- n1p3&#45;&gt;n1p4 -->
<!-- n7 -->
<!-- id -->
<g id="n7" class="node">
<title>n7</title>
<polygon fill="none" stroke="#000000" points="120,-209 120,-233 144,-233 144,-209 120,-209"/>
<text text-anchor="start" x="126.5518" y="-216.8" font-family="Serif" font-size="14.00" fill="#000000">id</text>
</g>
<!-- n1p3&#45;&gt;n7 -->
<!-- X -->
<g id="e4" class="edge">
<title>n1p3:s&#45;&gt;n7:n</title>
<path fill="none" stroke="#000000" d="M132,-283C132,-262.6875 132,-256.3002 132,-238.3811"/>
<polygon fill="#000000" stroke="#000000" points="133.7501,-238 132,-233 130.2501,-238 133.7501,-238"/>
<text text-anchor="middle" x="136.6689" y="-253.8" font-family="Serif" font-size="14.00" fill="#000000">X</text>
</g>
<!-- n6 -->
<!-- id -->
<g id="n6" class="node">
<title>n6</title>
<polygon fill="none" stroke="#000000" points="173,-167 173,-191 197,-191 197,-167 173,-167"/>
<text text-anchor="start" x="179.5518" y="-174.8" font-family="Serif" font-size="14.00" fill="#000000">id</text>
</g>
<!-- n1p4&#45;&gt;n6 -->
<!-- Y -->
<g id="e3" class="edge">
<title>n1p4:s&#45;&gt;n6:n</title>
<path fill="none" stroke="#000000" d="M192,-283C192,-243.7549 185.5886,-232.9225 185.0377,-196.1192"/>
<polygon fill="#000000" stroke="#000000" points="186.7868,-195.987 185,-191 183.2869,-196.0128 186.7868,-195.987"/>
<text text-anchor="middle" x="195.6689" y="-253.8" font-family="Serif" font-size="14.00" fill="#000000">Y</text>
</g>
<!-- n2p1 -->
<!-- n3 -->
<!-- predict -->
<g id="n3" class="node">
<title>n3</title>
<polygon fill="none" stroke="#000000" points="93,-125 93,-149 145,-149 145,-125 93,-125"/>
<text text-anchor="start" x="97.9897" y="-132.8" font-family="Serif" font-size="14.00" fill="#000000">predict</text>
</g>
<!-- n4 -->
<!-- loss -->
<g id="n4" class="node">
<title>n4</title>
<polygon fill="none" stroke="#000000" points="137,-51 137,-75 185,-75 185,-51 137,-51"/>
<text text-anchor="start" x="148.5518" y="-58.8" font-family="Serif" font-size="14.00" fill="#000000">loss</text>
</g>
<!-- n3&#45;&gt;n4 -->
<!-- Y -->
<g id="e5" class="edge">
<title>n3:s&#45;&gt;n4:n</title>
<path fill="none" stroke="#000000" d="M119,-125C119,-100.9068 144.9296,-100.7951 148.5759,-80.0743"/>
<polygon fill="#000000" stroke="#000000" points="150.3274,-80.1284 149,-75 146.8396,-79.8368 150.3274,-80.1284"/>
<text text-anchor="middle" x="145.6689" y="-95.8" font-family="Serif" font-size="14.00" fill="#000000">Y</text>
</g>
<!-- n4&#45;&gt;n2p1 -->
<!-- R -->
<g id="e6" class="edge">
<title>n4:s&#45;&gt;n2p1:n</title>
<path fill="none" stroke="#000000" d="M161,-51C161,-30.6875 161,-24.3002 161,-6.3811"/>
<polygon fill="#000000" stroke="#000000" points="162.7501,-6 161,-1 159.2501,-6 162.7501,-6"/>
<text text-anchor="middle" x="166.0552" y="-21.8" font-family="Serif" font-size="14.00" fill="#000000">R</text>
</g>
<!-- n5&#45;&gt;n3 -->
<!-- β -->
<g id="e7" class="edge">
<title>n5:s&#45;&gt;n3:n</title>
<path fill="none" stroke="#000000" d="M60,-209C60,-177.2357 101.1063,-181.936 105.6023,-154.16"/>
<polygon fill="#000000" stroke="#000000" points="107.3605,-154.1197 106,-149 103.8709,-153.8507 107.3605,-154.1197"/>
<text text-anchor="middle" x="103.2759" y="-174.8" font-family="Serif" font-size="14.00" fill="#000000">β</text>
</g>
<!-- n6&#45;&gt;n4 -->
<!-- Y -->
<g id="e8" class="edge">
<title>n6:s&#45;&gt;n4:n</title>
<path fill="none" stroke="#000000" d="M185,-167C185,-127.5366 174.0091,-117.1127 173.0646,-80.1449"/>
<polygon fill="#000000" stroke="#000000" points="174.8127,-79.9776 173,-75 171.313,-80.0216 174.8127,-79.9776"/>
<text text-anchor="middle" x="188.6689" y="-132.8" font-family="Serif" font-size="14.00" fill="#000000">Y</text>
</g>
<!-- n7&#45;&gt;n3 -->
<!-- X -->
<g id="e9" class="edge">
<title>n7:s&#45;&gt;n3:n</title>
<path fill="none" stroke="#000000" d="M132,-209C132,-184.1042 132,-176.6403 132,-154.0596"/>
<polygon fill="#000000" stroke="#000000" points="133.7501,-154 132,-149 130.2501,-154 133.7501,-154"/>
<text text-anchor="middle" x="136.6689" y="-174.8" font-family="Serif" font-size="14.00" fill="#000000">X</text>
</g>
</g>
</svg>
