<?xml version="1.0" encoding="UTF-8" standalone="no"?>
<!DOCTYPE svg PUBLIC "-//W3C//DTD SVG 1.1//EN"
 "http://www.w3.org/Graphics/SVG/1.1/DTD/svg11.dtd">
<!-- Generated by graphviz version 2.36.0 (20140111.2315)
 -->
<!-- Title: G Pages: 1 -->
<svg width="524pt" height="364pt"
 viewBox="0.00 0.00 524.00 364.00" xmlns="http://www.w3.org/2000/svg" xmlns:xlink="http://www.w3.org/1999/xlink">
<g id="graph0" class="graph" transform="scale(1 1) rotate(0) translate(4 360)">
<title>G</title>
<polygon fill="white" stroke="none" points="-4,4 -4,-360 520,-360 520,4 -4,4"/>
<g id="clust1" class="cluster"><title>cluster_naught</title>
<polygon fill="none" stroke="black" points="8,-8 8,-348 508,-348 508,-8 8,-8"/>
<text text-anchor="middle" x="258" y="-332.8" font-family="Times,serif" font-size="14.00">SemanticModels.jl</text>
</g>
<g id="clust2" class="cluster"><title>cluster_0</title>
<polygon fill="lightgrey" stroke="lightgrey" points="16,-242 16,-317 500,-317 500,-242 16,-242"/>
<text text-anchor="middle" x="258" y="-301.8" font-family="Times,serif" font-size="14.00">Standard Paradigm</text>
</g>
<g id="clust3" class="cluster"><title>cluster_2</title>
<polygon fill="white" stroke="white" points="28,-16 28,-234 488,-234 488,-16 28,-16"/>
</g>
<!-- d0 -->
<g id="node1" class="node"><title>d0</title>
<polygon fill="#59a27a" stroke="#59a27a" points="102,-286 24,-286 24,-250 102,-250 102,-286"/>
<text text-anchor="middle" x="63" y="-264.3" font-family="Times,serif" font-size="14.00">Conceptual</text>
</g>
<!-- d2 -->
<g id="node2" class="node"><title>d2</title>
<polygon fill="#cd69c9" stroke="#cd69c9" points="295,-286 241,-286 241,-250 295,-250 295,-286"/>
<text text-anchor="middle" x="268" y="-264.3" font-family="Times,serif" font-size="14.00">Code</text>
</g>
<!-- d0&#45;&gt;d2 -->
<g id="edge1" class="edge"><title>d0&#45;&gt;d2</title>
<path fill="none" stroke="black" d="M102.183,-268C139.083,-268 194.573,-268 230.791,-268"/>
<polygon fill="black" stroke="black" points="230.917,-271.5 240.917,-268 230.917,-264.5 230.917,-271.5"/>
<text text-anchor="middle" x="155" y="-271.8" font-family="Times,serif" font-size="14.00">programmer</text>
</g>
<!-- d3 -->
<g id="node3" class="node"><title>d3</title>
<polygon fill="#cd3333" stroke="#cd3333" points="491.5,-286 414.5,-286 414.5,-250 491.5,-250 491.5,-286"/>
<text text-anchor="middle" x="453" y="-264.3" font-family="Times,serif" font-size="14.00">Executable</text>
</g>
<!-- d2&#45;&gt;d3 -->
<g id="edge2" class="edge"><title>d2&#45;&gt;d3</title>
<path fill="none" stroke="black" d="M295.219,-268C323.522,-268 369.212,-268 403.985,-268"/>
<polygon fill="black" stroke="black" points="404.394,-271.5 414.394,-268 404.394,-264.5 404.394,-271.5"/>
<text text-anchor="middle" x="371" y="-271.8" font-family="Times,serif" font-size="14.00">compiler</text>
</g>
<!-- c0 -->
<g id="node4" class="node"><title>c0</title>
<polygon fill="#59a27a" stroke="#59a27a" points="90,-226 36,-226 36,-190 90,-190 90,-226"/>
<text text-anchor="middle" x="63" y="-204.3" font-family="Times,serif" font-size="14.00">Chalk</text>
</g>
<!-- c2 -->
<g id="node5" class="node"><title>c2</title>
<polygon fill="#cd69c9" stroke="#cd69c9" points="295,-226 241,-226 241,-190 295,-190 295,-226"/>
<text text-anchor="middle" x="268" y="-204.3" font-family="Times,serif" font-size="14.00">Julia</text>
</g>
<!-- c0&#45;&gt;c2 -->
<g id="edge3" class="edge"><title>c0&#45;&gt;c2</title>
<path fill="none" stroke="black" d="M90.1231,-208C125.904,-208 190.316,-208 230.75,-208"/>
<polygon fill="black" stroke="black" points="230.977,-211.5 240.977,-208 230.977,-204.5 230.977,-211.5"/>
<text text-anchor="middle" x="155" y="-211.8" font-family="Times,serif" font-size="14.00">programmer</text>
</g>
<!-- c1 -->
<g id="node6" class="node"><title>c1</title>
<polygon fill="#5dade2" stroke="#5dade2" points="328,-60 208,-60 208,-24 328,-24 328,-60"/>
<text text-anchor="middle" x="268" y="-38.3" font-family="Times,serif" font-size="14.00">SemanticModels.jl</text>
</g>
<!-- c2&#45;&gt;c1 -->
<g id="edge4" class="edge"><title>c2&#45;&gt;c1</title>
<path fill="none" stroke="black" d="M268,-189.941C268,-161.142 268,-104.58 268,-70.3474"/>
<polygon fill="black" stroke="black" points="271.5,-70.0809 268,-60.0809 264.5,-70.0809 271.5,-70.0809"/>
<text text-anchor="middle" x="225.5" y="-153.3" font-family="Times,serif" font-size="14.00">Model(Expr)</text>
</g>
<!-- c3 -->
<g id="node7" class="node"><title>c3</title>
<polygon fill="#cd3333" stroke="#cd3333" points="480,-226 426,-226 426,-190 480,-190 480,-226"/>
<text text-anchor="middle" x="453" y="-204.3" font-family="Times,serif" font-size="14.00">x86</text>
</g>
<!-- c2&#45;&gt;c3 -->
<g id="edge7" class="edge"><title>c2&#45;&gt;c3</title>
<path fill="none" stroke="black" d="M295.219,-208C326.746,-208 379.848,-208 415.402,-208"/>
<polygon fill="black" stroke="black" points="415.829,-211.5 425.829,-208 415.829,-204.5 415.829,-211.5"/>
<text text-anchor="middle" x="371" y="-211.8" font-family="Times,serif" font-size="14.00">compiler</text>
</g>
<!-- c1&#45;&gt;c2 -->
<g id="edge5" class="edge"><title>c1&#45;&gt;c2</title>
<path fill="none" stroke="black" d="M316.571,-60.225C329.763,-67.6691 342.471,-77.7297 350,-91 357.457,-104.143 357.457,-145.857 350,-159 340.285,-176.122 321.95,-187.901 305.076,-195.61"/>
<polygon fill="black" stroke="black" points="303.246,-192.583 295.387,-199.689 305.961,-199.035 303.246,-192.583"/>
<text text-anchor="middle" x="310.5" y="-89.3" font-family="Times,serif" font-size="14.00">eval(Model)</text>
</g>
<!-- c1&#45;&gt;c1 -->
<g id="edge6" class="edge"><title>c1:left&#45;&gt;c1:left</title>
<path fill="none" stroke="black" d="M249.547,-60.1527C246.708,-69.5391 252.859,-78 268,-78 277.226,-78 283.114,-74.8581 285.664,-70.2796"/>
<polygon fill="black" stroke="black" points="289.166,-70.3942 286.453,-60.1527 282.187,-69.8509 289.166,-70.3942"/>
<text text-anchor="middle" x="268" y="-81.8" font-family="Times,serif" font-size="14.00">transform</text>
</g>
</g>
</svg>
