<?xml version="1.0" encoding="UTF-8" standalone="no"?>
<!DOCTYPE svg PUBLIC "-//W3C//DTD SVG 1.1//EN"
 "http://www.w3.org/Graphics/SVG/1.1/DTD/svg11.dtd">
<!-- Generated by graphviz version 2.36.0 (20140111.2315)
 -->
<!-- Title: G Pages: 1 -->
<svg width="590pt" height="386pt"
 viewBox="0.00 0.00 590.00 386.00" xmlns="http://www.w3.org/2000/svg" xmlns:xlink="http://www.w3.org/1999/xlink">
<g id="graph0" class="graph" transform="scale(1 1) rotate(0) translate(4 382)">
<title>G</title>
<polygon fill="white" stroke="none" points="-4,4 -4,-382 586,-382 586,4 -4,4"/>
<text text-anchor="middle" x="291" y="-7.8" font-family="Times,serif" font-size="14.00">A metamodel for predicting healthcare costs</text>
<g id="clust1" class="cluster"><title>cluster_meta</title>
<polygon fill="none" stroke="black" points="8,-31 8,-370 574,-370 574,-31 8,-31"/>
<text text-anchor="middle" x="291" y="-354.8" font-family="Times,serif" font-size="14.00">Healthcare metamodel</text>
</g>
<g id="clust2" class="cluster"><title>cluster_0</title>
<polygon fill="none" stroke="black" points="16,-131 16,-339 206,-339 206,-131 16,-131"/>
<text text-anchor="middle" x="111" y="-323.8" font-family="Times,serif" font-size="14.00">Hand Hygiene</text>
<text text-anchor="middle" x="111" y="-308.8" font-family="Times,serif" font-size="14.00">Belief Model</text>
</g>
<g id="clust3" class="cluster"><title>cluster_1</title>
<polygon fill="none" stroke="#8b0000" points="226,-193 226,-339 439,-339 439,-193 226,-193"/>
<text text-anchor="middle" x="332.5" y="-323.8" font-family="Times,serif" font-size="14.00">Disease</text>
<text text-anchor="middle" x="332.5" y="-308.8" font-family="Times,serif" font-size="14.00">Model</text>
</g>
<g id="clust4" class="cluster"><title>cluster_2</title>
<polygon fill="none" stroke="darkgreen" points="342,-39 342,-185 566,-185 566,-39 342,-39"/>
<text text-anchor="middle" x="454" y="-61.8" font-family="Times,serif" font-size="14.00">Health Outcome</text>
<text text-anchor="middle" x="454" y="-46.8" font-family="Times,serif" font-size="14.00">Model</text>
</g>
<!-- a0 -->
<g id="node1" class="node"><title>a0</title>
<polygon fill="lightblue" stroke="lightblue" points="24,-254 24,-292 106,-292 106,-254 24,-254"/>
<text text-anchor="middle" x="65" y="-276.8" font-family="Times,serif" font-size="14.00">Information</text>
<text text-anchor="middle" x="65" y="-261.8" font-family="Times,serif" font-size="14.00">Campaigns</text>
</g>
<!-- a2 -->
<g id="node2" class="node"><title>a2</title>
<polygon fill="lightgrey" stroke="black" points="142.5,-226 142.5,-262 197.5,-262 197.5,-226 142.5,-226"/>
<text text-anchor="middle" x="170" y="-240.3" font-family="Times,serif" font-size="14.00">Beliefs</text>
</g>
<!-- a0&#45;&gt;a2 -->
<g id="edge1" class="edge"><title>a0&#45;&gt;a2</title>
<path fill="none" stroke="black" d="M106.117,-261.705C114.887,-259.236 124.12,-256.636 132.729,-254.212"/>
<polygon fill="black" stroke="black" points="133.806,-257.545 142.483,-251.466 131.909,-250.807 133.806,-257.545"/>
</g>
<!-- Disease -->
<g id="node5" class="node"><title>Disease</title>
<polygon fill="lightgrey" stroke="black" points="314,-293 234,-293 234,-255 314,-255 314,-293"/>
<text text-anchor="middle" x="274" y="-277.8" font-family="Times,serif" font-size="14.00">Disease</text>
<text text-anchor="middle" x="274" y="-262.8" font-family="Times,serif" font-size="14.00"> Prevalence</text>
</g>
<!-- a2&#45;&gt;Disease -->
<g id="edge4" class="edge"><title>a2&#45;&gt;Disease</title>
<path fill="none" stroke="black" stroke-dasharray="5,2" d="M197.533,-251.804C205.683,-254.201 214.924,-256.919 224.077,-259.611"/>
<polygon fill="black" stroke="black" points="223.336,-263.041 233.917,-262.505 225.311,-256.326 223.336,-263.041"/>
</g>
<!-- a1 -->
<g id="node3" class="node"><title>a1</title>
<polygon fill="lightgrey" stroke="black" points="37.5,-197 37.5,-235 92.5,-235 92.5,-197 37.5,-197"/>
<text text-anchor="middle" x="65" y="-219.8" font-family="Times,serif" font-size="14.00">Initial</text>
<text text-anchor="middle" x="65" y="-204.8" font-family="Times,serif" font-size="14.00">Beliefs</text>
</g>
<!-- a1&#45;&gt;a2 -->
<g id="edge2" class="edge"><title>a1&#45;&gt;a2</title>
<path fill="none" stroke="black" d="M92.5251,-223.211C104.685,-226.516 119.295,-230.488 132.473,-234.07"/>
<polygon fill="black" stroke="black" points="131.639,-237.471 142.207,-236.716 133.475,-230.716 131.639,-237.471"/>
</g>
<!-- a3 -->
<g id="node4" class="node"><title>a3</title>
<polygon fill="lightgrey" stroke="black" points="33,-140 33,-178 97,-178 97,-140 33,-140"/>
<text text-anchor="middle" x="65" y="-162.8" font-family="Times,serif" font-size="14.00">Social</text>
<text text-anchor="middle" x="65" y="-147.8" font-family="Times,serif" font-size="14.00">Network</text>
</g>
<!-- a3&#45;&gt;a2 -->
<g id="edge3" class="edge"><title>a3&#45;&gt;a2</title>
<path fill="none" stroke="black" d="M94.2989,-178.148C98.2864,-181.036 102.288,-184.041 106,-187 118.436,-196.915 131.572,-208.59 142.613,-218.783"/>
<polygon fill="black" stroke="black" points="140.542,-221.637 150.243,-225.897 145.316,-216.518 140.542,-221.637"/>
</g>
<!-- Infection -->
<g id="node6" class="node"><title>Infection</title>
<polygon fill="lightgrey" stroke="black" points="430.5,-237 365.5,-237 365.5,-201 430.5,-201 430.5,-237"/>
<text text-anchor="middle" x="398" y="-215.3" font-family="Times,serif" font-size="14.00">Infection</text>
</g>
<!-- Disease&#45;&gt;Infection -->
<g id="edge5" class="edge"><title>Disease&#45;&gt;Infection</title>
<path fill="none" stroke="black" d="M314.273,-256.295C327.501,-250.331 342.298,-243.661 355.679,-237.628"/>
<polygon fill="black" stroke="black" points="357.452,-240.668 365.13,-233.368 354.575,-234.287 357.452,-240.668"/>
</g>
<!-- end -->
<g id="node8" class="node"><title>end</title>
<polygon fill="#5a87d7" stroke="#5a87d7" points="557.5,-177.5 482.5,-177.5 482.5,-102.5 557.5,-102.5 557.5,-177.5"/>
<polyline fill="none" stroke="#5a87d7" points="494.5,-177.5 482.5,-165.5 "/>
<polyline fill="none" stroke="#5a87d7" points="482.5,-114.5 494.5,-102.5 "/>
<polyline fill="none" stroke="#5a87d7" points="545.5,-102.5 557.5,-114.5 "/>
<polyline fill="none" stroke="#5a87d7" points="557.5,-165.5 545.5,-177.5 "/>
<text text-anchor="middle" x="520" y="-151.3" font-family="Times,serif" font-size="14.00">Expected</text>
<text text-anchor="middle" x="520" y="-136.3" font-family="Times,serif" font-size="14.00">Healthcare</text>
<text text-anchor="middle" x="520" y="-121.3" font-family="Times,serif" font-size="14.00">Costs</text>
</g>
<!-- Infection&#45;&gt;end -->
<g id="edge7" class="edge"><title>Infection&#45;&gt;end</title>
<path fill="none" stroke="black" stroke-dasharray="5,2" d="M427.9,-200.701C433.9,-196.861 440.169,-192.817 446,-189 455.093,-183.047 464.775,-176.615 474.016,-170.431"/>
<polygon fill="black" stroke="black" points="475.992,-173.319 482.347,-164.842 472.093,-167.506 475.992,-173.319"/>
</g>
<!-- Antibiotics -->
<g id="node7" class="node"><title>Antibiotics</title>
<polygon fill="lightblue" stroke="lightblue" points="312.5,-237 235.5,-237 235.5,-201 312.5,-201 312.5,-237"/>
<text text-anchor="middle" x="274" y="-215.3" font-family="Times,serif" font-size="14.00">Antibiotics</text>
</g>
<!-- Antibiotics&#45;&gt;Infection -->
<g id="edge6" class="edge"><title>Antibiotics&#45;&gt;Infection</title>
<path fill="none" stroke="black" d="M312.6,-219C326.101,-219 341.405,-219 355.239,-219"/>
<polygon fill="black" stroke="black" points="355.477,-222.5 365.477,-219 355.477,-215.5 355.477,-222.5"/>
</g>
<!-- MedRecord -->
<g id="node9" class="node"><title>MedRecord</title>
<polygon fill="lightgrey" stroke="black" points="429,-177 367,-177 367,-139 429,-139 429,-177"/>
<text text-anchor="middle" x="398" y="-161.8" font-family="Times,serif" font-size="14.00">Medical</text>
<text text-anchor="middle" x="398" y="-146.8" font-family="Times,serif" font-size="14.00">Records</text>
</g>
<!-- MedRecord&#45;&gt;end -->
<g id="edge8" class="edge"><title>MedRecord&#45;&gt;end</title>
<path fill="none" stroke="black" d="M429.281,-153.458C442.243,-151.514 457.681,-149.198 472.065,-147.04"/>
<polygon fill="black" stroke="black" points="472.933,-150.449 482.303,-145.505 471.895,-143.527 472.933,-150.449"/>
</g>
<!-- Complications -->
<g id="node10" class="node"><title>Complications</title>
<polygon fill="lightgrey" stroke="black" points="446,-121 350,-121 350,-85 446,-85 446,-121"/>
<text text-anchor="middle" x="398" y="-99.3" font-family="Times,serif" font-size="14.00">Complications</text>
</g>
<!-- Complications&#45;&gt;end -->
<g id="edge9" class="edge"><title>Complications&#45;&gt;end</title>
<path fill="none" stroke="black" d="M446.083,-117.517C454.861,-120.224 464.026,-123.05 472.778,-125.748"/>
<polygon fill="black" stroke="black" points="471.854,-129.126 482.441,-128.728 473.916,-122.436 471.854,-129.126"/>
</g>
</g>
</svg>
