<?xml version="1.0" encoding="UTF-8" standalone="no"?>
<!DOCTYPE svg PUBLIC "-//W3C//DTD SVG 1.1//EN"
 "http://www.w3.org/Graphics/SVG/1.1/DTD/svg11.dtd">
<!-- Generated by graphviz version 2.38.0 (20140413.2041)
 -->
<!-- Title: G Pages: 1 -->
<svg width="660pt" height="581pt"
 viewBox="0.00 0.00 660.00 581.00" xmlns="http://www.w3.org/2000/svg" xmlns:xlink="http://www.w3.org/1999/xlink">
<g id="graph0" class="graph" transform="scale(1 1) rotate(0) translate(4 577)">
<title>G</title>
<polygon fill="white" stroke="none" points="-4,4 -4,-577 656,-577 656,4 -4,4"/>
<!-- ind -->
<g id="node1" class="node"><title>ind</title>
<polygon fill="#dddddd" stroke="#5dade2" stroke-width="2" points="292,-296.5 292,-349.5 381,-349.5 381,-296.5 292,-296.5"/>
<text text-anchor="middle" x="336.5" y="-334.3" font-family="Times,serif" font-size="14.00">Individual</text>
<text text-anchor="middle" x="336.5" y="-319.3" font-family="Times,serif" font-size="14.00">Contact</text>
<text text-anchor="middle" x="336.5" y="-304.3" font-family="Times,serif" font-size="14.00">Model</text>
</g>
<!-- epi -->
<g id="node2" class="node"><title>epi</title>
<polygon fill="#dddddd" stroke="#5dade2" stroke-width="2" points="434.5,-223.5 434.5,-259.5 488.5,-259.5 488.5,-223.5 434.5,-223.5"/>
<text text-anchor="middle" x="461.5" y="-237.8" font-family="Times,serif" font-size="14.00">SIR</text>
</g>
<!-- ind&#45;&gt;epi -->
<g id="edge1" class="edge"><title>ind&#45;&gt;epi</title>
<path fill="none" stroke="orange" stroke-width="4" d="M376.739,-296.408C395.723,-284.334 417.86,-270.255 434.749,-259.514"/>
</g>
<!-- cases -->
<g id="node22" class="node"><title>cases</title>
<polygon fill="#dddddd" stroke="#5dade2" stroke-width="2" points="432,-148.5 432,-186.5 491,-186.5 491,-148.5 432,-148.5"/>
<text text-anchor="middle" x="461.5" y="-171.3" font-family="Times,serif" font-size="14.00">Flu</text>
<text text-anchor="middle" x="461.5" y="-156.3" font-family="Times,serif" font-size="14.00">Cases</text>
</g>
<!-- epi&#45;&gt;cases -->
<g id="edge19" class="edge"><title>epi&#45;&gt;cases</title>
<path fill="none" stroke="orange" stroke-width="4" d="M461.5,-223.437C461.5,-212.375 461.5,-197.979 461.5,-186.699"/>
</g>
<!-- inf -->
<g id="node3" class="node"><title>inf</title>
<polygon fill="#dddddd" stroke="#66aa55" stroke-width="2" points="142,-386.5 142,-424.5 223,-424.5 223,-386.5 142,-386.5"/>
<text text-anchor="middle" x="182.5" y="-409.3" font-family="Times,serif" font-size="14.00">Infection</text>
<text text-anchor="middle" x="182.5" y="-394.3" font-family="Times,serif" font-size="14.00">Rate</text>
</g>
<!-- inf&#45;&gt;ind -->
<g id="edge2" class="edge"><title>inf&#45;&gt;ind</title>
<path fill="none" stroke="orange" stroke-width="4" d="M217.061,-386.434C239.142,-374.892 267.995,-359.809 291.811,-347.36"/>
</g>
<!-- rate -->
<g id="node7" class="node"><title>rate</title>
<polygon fill="#dddddd" stroke="#66aa55" stroke-width="2" points="157,-304 157,-342 246,-342 246,-304 157,-304"/>
<text text-anchor="middle" x="201.5" y="-326.8" font-family="Times,serif" font-size="14.00">Transition</text>
<text text-anchor="middle" x="201.5" y="-311.8" font-family="Times,serif" font-size="14.00">Rate</text>
</g>
<!-- inf&#45;&gt;rate -->
<g id="edge7" class="edge"><title>inf&#45;&gt;rate</title>
<path fill="none" stroke="black" stroke-dasharray="5,2" d="M186.811,-386.233C189.921,-373.059 194.1,-355.352 197.206,-342.194"/>
</g>
<!-- thirty -->
<g id="node4" class="node"><title>thirty</title>
<polygon fill="#dddddd" stroke="#dd1133" stroke-width="2" points="127.5,-461.5 127.5,-497.5 239.5,-497.5 239.5,-461.5 127.5,-461.5"/>
<text text-anchor="middle" x="183.5" y="-475.8" font-family="Times,serif" font-size="14.00">0.3 Persons/s</text>
</g>
<!-- thirty&#45;&gt;inf -->
<g id="edge3" class="edge"><title>thirty&#45;&gt;inf</title>
<path fill="none" stroke="black" d="M183.263,-461.437C183.109,-450.375 182.909,-435.979 182.753,-424.699"/>
</g>
<!-- twenty -->
<g id="node5" class="node"><title>twenty</title>
<polygon fill="#dddddd" stroke="#dd1133" stroke-width="2" points="368.5,-461.5 368.5,-497.5 480.5,-497.5 480.5,-461.5 368.5,-461.5"/>
<text text-anchor="middle" x="424.5" y="-475.8" font-family="Times,serif" font-size="14.00">0.2 Persons/s</text>
</g>
<!-- mort -->
<g id="node6" class="node"><title>mort</title>
<polygon fill="#dddddd" stroke="#66aa55" stroke-width="2" points="313.5,-386.5 313.5,-424.5 397.5,-424.5 397.5,-386.5 313.5,-386.5"/>
<text text-anchor="middle" x="355.5" y="-409.3" font-family="Times,serif" font-size="14.00">Mortality</text>
<text text-anchor="middle" x="355.5" y="-394.3" font-family="Times,serif" font-size="14.00">Rate</text>
</g>
<!-- twenty&#45;&gt;mort -->
<g id="edge4" class="edge"><title>twenty&#45;&gt;mort</title>
<path fill="none" stroke="black" d="M408.148,-461.437C397.547,-450.375 383.751,-435.979 372.941,-424.699"/>
</g>
<!-- mort&#45;&gt;ind -->
<g id="edge5" class="edge"><title>mort&#45;&gt;ind</title>
<path fill="none" stroke="orange" stroke-width="4" d="M351.189,-386.233C348.627,-375.378 345.338,-361.446 342.523,-349.517"/>
</g>
<!-- mort&#45;&gt;rate -->
<g id="edge6" class="edge"><title>mort&#45;&gt;rate</title>
<path fill="none" stroke="black" stroke-dasharray="5,2" d="M320.939,-386.434C295.577,-373.177 261.281,-355.249 235.945,-342.005"/>
</g>
<!-- personper -->
<g id="node9" class="node"><title>personper</title>
<polygon fill="#dddddd" stroke="#66aa55" stroke-width="2" points="149,-223.5 149,-259.5 226,-259.5 226,-223.5 149,-223.5"/>
<text text-anchor="middle" x="187.5" y="-237.8" font-family="Times,serif" font-size="14.00">Person/s</text>
</g>
<!-- rate&#45;&gt;personper -->
<g id="edge10" class="edge"><title>rate&#45;&gt;personper</title>
<path fill="none" stroke="black" d="M198.323,-303.96C195.984,-290.675 192.822,-272.722 190.52,-259.651"/>
</g>
<!-- birth -->
<g id="node8" class="node"><title>birth</title>
<polygon fill="#dddddd" stroke="#66aa55" stroke-width="2" points="241.5,-386.5 241.5,-424.5 295.5,-424.5 295.5,-386.5 241.5,-386.5"/>
<text text-anchor="middle" x="268.5" y="-409.3" font-family="Times,serif" font-size="14.00">Birth</text>
<text text-anchor="middle" x="268.5" y="-394.3" font-family="Times,serif" font-size="14.00">Rate</text>
</g>
<!-- birth&#45;&gt;ind -->
<g id="edge9" class="edge"><title>birth&#45;&gt;ind</title>
<path fill="none" stroke="orange" stroke-width="4" d="M283.93,-386.233C293.1,-375.378 304.868,-361.446 314.945,-349.517"/>
</g>
<!-- birth&#45;&gt;rate -->
<g id="edge8" class="edge"><title>birth&#45;&gt;rate</title>
<path fill="none" stroke="black" stroke-dasharray="5,2" d="M253.297,-386.233C242.332,-373.059 227.594,-355.352 216.643,-342.194"/>
</g>
<!-- unit -->
<g id="node11" class="node"><title>unit</title>
<polygon fill="#dddddd" stroke="#66aa55" stroke-width="2" points="220.5,-149.5 220.5,-185.5 274.5,-185.5 274.5,-149.5 220.5,-149.5"/>
<text text-anchor="middle" x="247.5" y="-163.8" font-family="Times,serif" font-size="14.00">Unit</text>
</g>
<!-- personper&#45;&gt;unit -->
<g id="edge12" class="edge"><title>personper&#45;&gt;unit</title>
<path fill="none" stroke="black" d="M201.719,-223.437C211.145,-212.126 223.476,-197.328 232.966,-185.941"/>
</g>
<!-- person -->
<g id="node10" class="node"><title>person</title>
<polygon fill="#dddddd" stroke="#66aa55" stroke-width="2" points="244,-223.5 244,-259.5 309,-259.5 309,-223.5 244,-223.5"/>
<text text-anchor="middle" x="276.5" y="-237.8" font-family="Times,serif" font-size="14.00">Person</text>
</g>
<!-- person&#45;&gt;unit -->
<g id="edge11" class="edge"><title>person&#45;&gt;unit</title>
<path fill="none" stroke="black" d="M269.627,-223.437C265.072,-212.126 259.111,-197.328 254.525,-185.941"/>
</g>
<!-- second -->
<g id="node12" class="node"><title>second</title>
<polygon fill="#dddddd" stroke="#66aa55" stroke-width="2" points="327,-223.5 327,-259.5 416,-259.5 416,-223.5 327,-223.5"/>
<text text-anchor="middle" x="371.5" y="-237.8" font-family="Times,serif" font-size="14.00">second (s)</text>
</g>
<!-- second&#45;&gt;unit -->
<g id="edge13" class="edge"><title>second&#45;&gt;unit</title>
<path fill="none" stroke="black" d="M342.114,-223.437C321.631,-211.544 294.509,-195.796 274.557,-184.21"/>
</g>
<!-- dollars -->
<g id="node13" class="node"><title>dollars</title>
<polygon fill="#dddddd" stroke="#66aa55" stroke-width="2" points="76.5,-223.5 76.5,-259.5 130.5,-259.5 130.5,-223.5 76.5,-223.5"/>
<text text-anchor="middle" x="103.5" y="-237.8" font-family="Times,serif" font-size="14.00">$</text>
</g>
<!-- dollars&#45;&gt;unit -->
<g id="edge14" class="edge"><title>dollars&#45;&gt;unit</title>
<path fill="none" stroke="black" d="M130.585,-226.957C156.167,-214.166 194.345,-195.078 220.047,-182.227"/>
</g>
<!-- cost -->
<g id="node15" class="node"><title>cost</title>
<polygon fill="#dddddd" stroke="orange" stroke-width="2" points="247.5,-0.5 247.5,-38.5 347.5,-38.5 347.5,-0.5 247.5,-0.5"/>
<text text-anchor="middle" x="297.5" y="-23.3" font-family="Times,serif" font-size="14.00">Vaccination</text>
<text text-anchor="middle" x="297.5" y="-8.3" font-family="Times,serif" font-size="14.00">Cost</text>
</g>
<!-- dollars&#45;&gt;cost -->
<g id="edge27" class="edge"><title>dollars&#45;&gt;cost</title>
<path fill="none" stroke="black" d="M119.376,-223.333C155.573,-181.911 243.931,-80.801 280.855,-38.5476"/>
</g>
<!-- weather -->
<g id="node14" class="node"><title>weather</title>
<polygon fill="#dddddd" stroke="orange" stroke-width="2" points="16,-534.5 16,-572.5 93,-572.5 93,-534.5 16,-534.5"/>
<text text-anchor="middle" x="54.5" y="-557.3" font-family="Times,serif" font-size="14.00">NOAA</text>
<text text-anchor="middle" x="54.5" y="-542.3" font-family="Times,serif" font-size="14.00">Weather</text>
</g>
<!-- temp -->
<g id="node19" class="node"><title>temp</title>
<polygon fill="#dddddd" stroke="#5dade2" stroke-width="2" points="0,-461.5 0,-497.5 109,-497.5 109,-461.5 0,-461.5"/>
<text text-anchor="middle" x="54.5" y="-475.8" font-family="Times,serif" font-size="14.00">Temperature</text>
</g>
<!-- weather&#45;&gt;temp -->
<g id="edge22" class="edge"><title>weather&#45;&gt;temp</title>
<path fill="none" stroke="orange" stroke-width="4" d="M54.5,-534.331C54.5,-523.167 54.5,-508.941 54.5,-497.918"/>
</g>
<!-- fed -->
<g id="node16" class="node"><title>fed</title>
<polygon fill="#dddddd" stroke="#5dade2" stroke-width="2" points="540,-304 540,-342 619,-342 619,-304 540,-304"/>
<text text-anchor="middle" x="579.5" y="-326.8" font-family="Times,serif" font-size="14.00">Fed</text>
<text text-anchor="middle" x="579.5" y="-311.8" font-family="Times,serif" font-size="14.00">Forecast</text>
</g>
<!-- dGDP -->
<g id="node21" class="node"><title>dGDP</title>
<polygon fill="#dddddd" stroke="#5dade2" stroke-width="2" points="507,-223.5 507,-259.5 652,-259.5 652,-223.5 507,-223.5"/>
<text text-anchor="middle" x="579.5" y="-237.8" font-family="Times,serif" font-size="14.00">Economic Growth</text>
</g>
<!-- fed&#45;&gt;dGDP -->
<g id="edge24" class="edge"><title>fed&#45;&gt;dGDP</title>
<path fill="none" stroke="black" d="M579.5,-303.96C579.5,-290.675 579.5,-272.722 579.5,-259.651"/>
</g>
<!-- demo -->
<g id="node17" class="node"><title>demo</title>
<polygon fill="#dddddd" stroke="orange" stroke-width="2" points="235.5,-534.5 235.5,-572.5 355.5,-572.5 355.5,-534.5 235.5,-534.5"/>
<text text-anchor="middle" x="295.5" y="-557.3" font-family="Times,serif" font-size="14.00">Census</text>
<text text-anchor="middle" x="295.5" y="-542.3" font-family="Times,serif" font-size="14.00">Demographics</text>
</g>
<!-- demo&#45;&gt;birth -->
<g id="edge17" class="edge"><title>demo&#45;&gt;birth</title>
<path fill="none" stroke="orange" stroke-width="4" d="M292.025,-534.455C286.87,-506.193 277.244,-453.431 272.047,-424.942"/>
</g>
<!-- age -->
<g id="node20" class="node"><title>age</title>
<polygon fill="#dddddd" stroke="#5dade2" stroke-width="2" points="296.5,-461.5 296.5,-497.5 350.5,-497.5 350.5,-461.5 296.5,-461.5"/>
<text text-anchor="middle" x="323.5" y="-475.8" font-family="Times,serif" font-size="14.00">Age</text>
</g>
<!-- demo&#45;&gt;age -->
<g id="edge23" class="edge"><title>demo&#45;&gt;age</title>
<path fill="none" stroke="orange" stroke-width="4" d="M302.566,-534.331C306.907,-523.167 312.44,-508.941 316.726,-497.918"/>
</g>
<!-- ode -->
<g id="node18" class="node"><title>ode</title>
<polygon fill="#dddddd" stroke="#5dade2" stroke-width="2" points="414,-305 414,-341 509,-341 509,-305 414,-305"/>
<text text-anchor="middle" x="461.5" y="-319.3" font-family="Times,serif" font-size="14.00">ODESolver</text>
</g>
<!-- ode&#45;&gt;epi -->
<g id="edge25" class="edge"><title>ode&#45;&gt;epi</title>
<path fill="none" stroke="black" d="M461.5,-304.75C461.5,-291.415 461.5,-273.043 461.5,-259.717"/>
</g>
<!-- temp&#45;&gt;inf -->
<g id="edge15" class="edge"><title>temp&#45;&gt;inf</title>
<path fill="none" stroke="orange" stroke-width="4" d="M84.8342,-461.437C104.499,-450.375 130.092,-435.979 150.146,-424.699"/>
</g>
<!-- age&#45;&gt;mort -->
<g id="edge16" class="edge"><title>age&#45;&gt;mort</title>
<path fill="none" stroke="orange" stroke-width="4" d="M331.084,-461.437C336,-450.375 342.398,-435.979 347.411,-424.699"/>
</g>
<!-- prices -->
<g id="node23" class="node"><title>prices</title>
<polygon fill="#dddddd" stroke="#5dade2" stroke-width="2" points="530.5,-148.5 530.5,-186.5 584.5,-186.5 584.5,-148.5 530.5,-148.5"/>
<text text-anchor="middle" x="557.5" y="-171.3" font-family="Times,serif" font-size="14.00">Vacc</text>
<text text-anchor="middle" x="557.5" y="-156.3" font-family="Times,serif" font-size="14.00">Price</text>
</g>
<!-- dGDP&#45;&gt;prices -->
<g id="edge18" class="edge"><title>dGDP&#45;&gt;prices</title>
<path fill="none" stroke="black" d="M574.286,-223.437C570.906,-212.375 566.508,-197.979 563.061,-186.699"/>
</g>
<!-- regres -->
<g id="node24" class="node"><title>regres</title>
<polygon fill="#dddddd" stroke="#5dade2" stroke-width="2" points="413.5,-75.5 413.5,-111.5 509.5,-111.5 509.5,-75.5 413.5,-75.5"/>
<text text-anchor="middle" x="461.5" y="-89.8" font-family="Times,serif" font-size="14.00">Regression</text>
</g>
<!-- cases&#45;&gt;regres -->
<g id="edge21" class="edge"><title>cases&#45;&gt;regres</title>
<path fill="none" stroke="orange" stroke-width="4" d="M461.5,-148.331C461.5,-137.167 461.5,-122.941 461.5,-111.918"/>
</g>
<!-- prices&#45;&gt;regres -->
<g id="edge20" class="edge"><title>prices&#45;&gt;regres</title>
<path fill="none" stroke="black" d="M533.275,-148.331C518.278,-137.083 499.138,-122.729 484.395,-111.671"/>
</g>
<!-- regres&#45;&gt;cost -->
<g id="edge26" class="edge"><title>regres&#45;&gt;cost</title>
<path fill="none" stroke="orange" stroke-width="4" d="M422.634,-75.437C397.344,-64.3339 364.401,-49.8711 338.664,-38.5721"/>
</g>
</g>
</svg>
