<?xml version="1.0" encoding="UTF-8" standalone="no"?>
<!DOCTYPE svg PUBLIC "-//W3C//DTD SVG 1.1//EN"
 "http://www.w3.org/Graphics/SVG/1.1/DTD/svg11.dtd">
<!-- Generated by graphviz version 2.40.1 (20161225.0304)
 -->
<!-- Title: G Pages: 1 -->
<svg width="304pt" height="218pt"
 viewBox="0.00 0.00 304.10 218.00" xmlns="http://www.w3.org/2000/svg" xmlns:xlink="http://www.w3.org/1999/xlink">
<g id="graph0" class="graph" transform="scale(1 1) rotate(0) translate(4 214)">
<title>G</title>
<polygon fill="#ffffff" stroke="transparent" points="-4,4 -4,-214 300.0981,-214 300.0981,4 -4,4"/>
<!-- i -->
<g id="node1" class="node">
<title>i</title>
<polygon fill="none" stroke="#000000" points="67.0981,-123 13.0981,-123 13.0981,-87 67.0981,-87 67.0981,-123"/>
<text text-anchor="middle" x="40.0981" y="-101.3" font-family="Times,serif" font-size="14.00" fill="#000000">I</text>
</g>
<!-- n -->
<g id="node6" class="node">
<title>n</title>
<polygon fill="none" stroke="#000000" points="54.0981,-36 .0981,-36 .0981,0 54.0981,0 54.0981,-36"/>
<text text-anchor="middle" x="27.0981" y="-14.3" font-family="Times,serif" font-size="14.00" fill="#000000">N</text>
</g>
<!-- i&#45;&gt;n -->
<g id="edge5" class="edge">
<title>i&#45;&gt;n</title>
<path fill="none" stroke="#000000" d="M14.9849,-86.8196C9.759,-81.6986 4.9708,-75.6785 2.0981,-69 -1.3184,-61.057 .5387,-52.5717 4.4576,-44.8477"/>
<polygon fill="#000000" stroke="#000000" points="7.5192,-46.5517 9.8127,-36.208 1.5694,-42.8638 7.5192,-46.5517"/>
<text text-anchor="middle" x="5.0981" y="-57.8" font-family="Times,serif" font-size="14.00" fill="#000000">s</text>
</g>
<!-- i&#45;&gt;n -->
<g id="edge6" class="edge">
<title>i&#45;&gt;n</title>
<path fill="none" stroke="#000000" d="M32.9011,-86.9604C30.9669,-81.3023 29.1276,-74.973 28.0981,-69 26.8304,-61.6446 26.289,-53.6046 26.1331,-46.1279"/>
<polygon fill="#000000" stroke="#000000" points="29.633,-46.0637 26.1339,-36.0634 22.633,-46.0631 29.633,-46.0637"/>
<text text-anchor="middle" x="36.0981" y="-57.8" font-family="Times,serif" font-size="14.00" fill="#000000">i &#160;&#160;</text>
</g>
<!-- i&#45;&gt;n -->
<g id="edge7" class="edge">
<title>i&#45;&gt;n</title>
<path fill="none" stroke="#000000" d="M44.1138,-86.8762C45.6446,-77.0474 46.5078,-64.746 44.0981,-54 43.4601,-51.1547 42.5707,-48.2696 41.5301,-45.4349"/>
<polygon fill="#000000" stroke="#000000" points="44.7003,-43.9464 37.5552,-36.1235 38.2623,-46.6947 44.7003,-43.9464"/>
<text text-anchor="middle" x="50.5981" y="-57.8" font-family="Times,serif" font-size="14.00" fill="#000000">r </text>
</g>
<!-- m -->
<g id="node2" class="node">
<title>m</title>
<polygon fill="none" stroke="#000000" points="187.0981,-210 133.0981,-210 133.0981,-174 187.0981,-174 187.0981,-210"/>
<text text-anchor="middle" x="160.0981" y="-188.3" font-family="Times,serif" font-size="14.00" fill="#000000">M</text>
</g>
<!-- m&#45;&gt;i -->
<g id="edge4" class="edge">
<title>m&#45;&gt;i</title>
<path fill="none" stroke="#000000" d="M135.234,-173.9735C117.2939,-160.9669 92.883,-143.269 73.2804,-129.0571"/>
<polygon fill="#000000" stroke="#000000" points="75.0809,-126.0394 64.9303,-123.0034 70.9721,-131.7067 75.0809,-126.0394"/>
<text text-anchor="middle" x="111.5981" y="-144.8" font-family="Times,serif" font-size="14.00" fill="#000000">n</text>
</g>
<!-- p -->
<g id="node3" class="node">
<title>p</title>
<polygon fill="none" stroke="#000000" points="152.0981,-123 98.0981,-123 98.0981,-87 152.0981,-87 152.0981,-123"/>
<text text-anchor="middle" x="125.0981" y="-101.3" font-family="Times,serif" font-size="14.00" fill="#000000">P</text>
</g>
<!-- m&#45;&gt;p -->
<g id="edge3" class="edge">
<title>m&#45;&gt;p</title>
<path fill="none" stroke="#000000" d="M152.8461,-173.9735C148.0125,-161.9585 141.5683,-145.9401 136.1069,-132.3646"/>
<polygon fill="#000000" stroke="#000000" points="139.3203,-130.9744 132.3409,-123.0034 132.8261,-133.5871 139.3203,-130.9744"/>
<text text-anchor="middle" x="148.5981" y="-144.8" font-family="Times,serif" font-size="14.00" fill="#000000">h</text>
</g>
<!-- t -->
<g id="node4" class="node">
<title>t</title>
<polygon fill="none" stroke="#000000" points="224.0981,-123 170.0981,-123 170.0981,-87 224.0981,-87 224.0981,-123"/>
<text text-anchor="middle" x="197.0981" y="-101.3" font-family="Times,serif" font-size="14.00" fill="#000000">T</text>
</g>
<!-- m&#45;&gt;t -->
<g id="edge2" class="edge">
<title>m&#45;&gt;t</title>
<path fill="none" stroke="#000000" d="M167.7645,-173.9735C172.8744,-161.9585 179.6868,-145.9401 185.4603,-132.3646"/>
<polygon fill="#000000" stroke="#000000" points="188.7486,-133.5755 189.4415,-123.0034 182.307,-130.8359 188.7486,-133.5755"/>
<text text-anchor="middle" x="183.5981" y="-144.8" font-family="Times,serif" font-size="14.00" fill="#000000">g</text>
</g>
<!-- c -->
<g id="node5" class="node">
<title>c</title>
<polygon fill="none" stroke="#000000" points="296.0981,-123 242.0981,-123 242.0981,-87 296.0981,-87 296.0981,-123"/>
<text text-anchor="middle" x="269.0981" y="-101.3" font-family="Times,serif" font-size="14.00" fill="#000000">C</text>
</g>
<!-- m&#45;&gt;c -->
<g id="edge1" class="edge">
<title>m&#45;&gt;c</title>
<path fill="none" stroke="#000000" d="M182.683,-173.9735C198.9056,-161.0253 220.9531,-143.4276 238.7178,-129.2485"/>
<polygon fill="#000000" stroke="#000000" points="240.9099,-131.9771 246.5422,-123.0034 236.5431,-126.5061 240.9099,-131.9771"/>
<text text-anchor="middle" x="223.5981" y="-144.8" font-family="Times,serif" font-size="14.00" fill="#000000">f</text>
</g>
<!-- r -->
<g id="node8" class="node">
<title>r</title>
<polygon fill="none" stroke="#000000" points="154.0981,-36 100.0981,-36 100.0981,0 154.0981,0 154.0981,-36"/>
<text text-anchor="middle" x="127.0981" y="-14.3" font-family="Times,serif" font-size="14.00" fill="#000000">R</text>
</g>
<!-- p&#45;&gt;r -->
<g id="edge10" class="edge">
<title>p&#45;&gt;r</title>
<path fill="none" stroke="#000000" d="M107.6039,-86.6635C100.6987,-77.1916 95.2277,-65.2805 99.0981,-54 100.2376,-50.679 101.8224,-47.4283 103.6642,-44.3232"/>
<polygon fill="#000000" stroke="#000000" points="106.592,-46.2425 109.3783,-36.0206 100.8257,-42.2739 106.592,-46.2425"/>
<text text-anchor="middle" x="110.0981" y="-57.8" font-family="Times,serif" font-size="14.00" fill="#000000">ğ›½ &#160;&#160;</text>
</g>
<!-- p&#45;&gt;r -->
<g id="edge11" class="edge">
<title>p&#45;&gt;r</title>
<path fill="none" stroke="#000000" d="M125.5125,-86.9735C125.7834,-75.1918 126.1427,-59.5607 126.4508,-46.1581"/>
<polygon fill="#000000" stroke="#000000" points="129.9534,-46.0812 126.6843,-36.0034 122.9553,-45.9202 129.9534,-46.0812"/>
<text text-anchor="middle" x="142.5981" y="-57.8" font-family="Times,serif" font-size="14.00" fill="#000000"> &#160;ğ›¾ &#160;&#160;</text>
</g>
<!-- rp -->
<g id="node7" class="node">
<title>rp</title>
<polygon fill="none" stroke="#000000" points="239.0981,-36 185.0981,-36 185.0981,0 239.0981,0 239.0981,-36"/>
<text text-anchor="middle" x="212.0981" y="-14.3" font-family="Times,serif" font-size="14.00" fill="#000000">R+</text>
</g>
<!-- t&#45;&gt;rp -->
<g id="edge8" class="edge">
<title>t&#45;&gt;rp</title>
<path fill="none" stroke="#000000" d="M195.9223,-86.8974C195.6664,-77.0748 195.9676,-64.7726 198.0981,-54 198.6287,-51.3172 199.3455,-48.5755 200.1758,-45.8619"/>
<polygon fill="#000000" stroke="#000000" points="203.5187,-46.9065 203.5495,-36.3117 196.9184,-44.5748 203.5187,-46.9065"/>
<text text-anchor="middle" x="207.5981" y="-57.8" font-family="Times,serif" font-size="14.00" fill="#000000">tâ‚ &#160;</text>
</g>
<!-- t&#45;&gt;rp -->
<g id="edge9" class="edge">
<title>t&#45;&gt;rp</title>
<path fill="none" stroke="#000000" d="M209.594,-86.7062C212.6634,-81.2478 215.5199,-75.0906 217.0981,-69 218.979,-61.7416 219.0794,-53.7346 218.368,-46.2587"/>
<polygon fill="#000000" stroke="#000000" points="221.8064,-45.5792 216.9224,-36.1772 214.8773,-46.5728 221.8064,-45.5792"/>
<text text-anchor="middle" x="225.5981" y="-57.8" font-family="Times,serif" font-size="14.00" fill="#000000">tâ‚‚ </text>
</g>
</g>
</svg>
