<?xml version="1.0" encoding="UTF-8" standalone="no"?>
<!DOCTYPE svg PUBLIC "-//W3C//DTD SVG 1.1//EN"
 "http://www.w3.org/Graphics/SVG/1.1/DTD/svg11.dtd">
<!-- Generated by graphviz version 2.40.1 (20161225.0304)
 -->
<!-- Title: G Pages: 1 -->
<svg width="561pt" height="384pt"
 viewBox="0.00 0.00 561.00 384.00" xmlns="http://www.w3.org/2000/svg" xmlns:xlink="http://www.w3.org/1999/xlink">
<g id="graph0" class="graph" transform="scale(1 1) rotate(0) translate(4 380)">
<title>G</title>
<polygon fill="#ffffff" stroke="transparent" points="-4,4 -4,-380 557,-380 557,4 -4,4"/>
<text text-anchor="middle" x="276.5" y="-7.8" font-family="Times,serif" font-size="14.00" fill="#000000">A simple model of election forcasting</text>
<g id="clust1" class="cluster">
<title>cluster_meta</title>
<polygon fill="none" stroke="#000000" points="8,-31 8,-368 545,-368 545,-31 8,-31"/>
<text text-anchor="middle" x="276.5" y="-352.8" font-family="Times,serif" font-size="14.00" fill="#000000">Election metamodel</text>
</g>
<g id="clust2" class="cluster">
<title>cluster_0</title>
<polygon fill="none" stroke="#000000" points="16,-191 16,-337 209.5,-337 209.5,-191 16,-191"/>
<text text-anchor="middle" x="112.75" y="-321.8" font-family="Times,serif" font-size="14.00" fill="#000000">Belief</text>
<text text-anchor="middle" x="112.75" y="-306.8" font-family="Times,serif" font-size="14.00" fill="#000000">Model</text>
</g>
<g id="clust4" class="cluster">
<title>cluster_1</title>
<polygon fill="none" stroke="#006400" points="28,-39 28,-183 218,-183 218,-39 28,-39"/>
<text text-anchor="middle" x="123" y="-167.8" font-family="Times,serif" font-size="14.00" fill="#000000">Economic</text>
<text text-anchor="middle" x="123" y="-152.8" font-family="Times,serif" font-size="14.00" fill="#000000">Model</text>
</g>
<g id="clust6" class="cluster">
<title>cluster_2</title>
<polygon fill="none" stroke="#000000" points="238,-115 238,-244 445,-244 445,-115 238,-115"/>
<text text-anchor="middle" x="341.5" y="-228.8" font-family="Times,serif" font-size="14.00" fill="#000000">Election Model</text>
</g>
<!-- a0 -->
<g id="node1" class="node">
<title>a0</title>
<polygon fill="#d3d3d3" stroke="#000000" points="102,-291 24,-291 24,-255 102,-255 102,-291"/>
<text text-anchor="middle" x="63" y="-269.3" font-family="Times,serif" font-size="14.00" fill="#000000">Campaigns</text>
</g>
<!-- a2 -->
<g id="node2" class="node">
<title>a2</title>
<polygon fill="#d3d3d3" stroke="#000000" points="201.5,-236 146.5,-236 146.5,-200 201.5,-200 201.5,-236"/>
<text text-anchor="middle" x="174" y="-214.3" font-family="Times,serif" font-size="14.00" fill="#000000">Beliefs</text>
</g>
<!-- a0&#45;&gt;a2 -->
<g id="edge1" class="edge">
<title>a0&#45;&gt;a2</title>
<path fill="none" stroke="#000000" d="M99.3456,-254.9909C111.5385,-248.9494 125.1373,-242.2112 137.3532,-236.1583"/>
<polygon fill="#000000" stroke="#000000" points="138.9726,-239.2621 146.379,-231.6861 135.8647,-232.9898 138.9726,-239.2621"/>
</g>
<!-- Polls -->
<g id="node7" class="node">
<title>Polls</title>
<polygon fill="#add8e6" stroke="#add8e6" points="319.5,-213 265.5,-213 265.5,-177 319.5,-177 319.5,-213"/>
<text text-anchor="middle" x="292.5" y="-191.3" font-family="Times,serif" font-size="14.00" fill="#000000">Polls</text>
</g>
<!-- a2&#45;&gt;Polls -->
<g id="edge5" class="edge">
<title>a2&#45;&gt;Polls</title>
<path fill="none" stroke="#000000" stroke-dasharray="5,2" d="M201.783,-212.6075C217.7948,-209.4997 238.1258,-205.5536 255.4806,-202.1852"/>
<polygon fill="#000000" stroke="#000000" points="256.1499,-205.6207 265.2998,-200.2794 254.8161,-198.7489 256.1499,-205.6207"/>
</g>
<!-- a1 -->
<g id="node3" class="node">
<title>a1</title>
<polygon fill="#d3d3d3" stroke="#000000" points="90.5,-237 35.5,-237 35.5,-199 90.5,-199 90.5,-237"/>
<text text-anchor="middle" x="63" y="-221.8" font-family="Times,serif" font-size="14.00" fill="#000000">Initial</text>
<text text-anchor="middle" x="63" y="-206.8" font-family="Times,serif" font-size="14.00" fill="#000000">Beliefs</text>
</g>
<!-- a1&#45;&gt;a2 -->
<g id="edge2" class="edge">
<title>a1&#45;&gt;a2</title>
<path fill="none" stroke="#000000" d="M90.7237,-218C104.3651,-218 121.0229,-218 135.8456,-218"/>
<polygon fill="#000000" stroke="#000000" points="136.2451,-221.5001 146.2451,-218 136.245,-214.5001 136.2451,-221.5001"/>
</g>
<!-- Finance -->
<g id="node4" class="node">
<title>Finance</title>
<polygon fill="#d3d3d3" stroke="#000000" points="90,-137 36,-137 36,-101 90,-101 90,-137"/>
<text text-anchor="middle" x="63" y="-115.3" font-family="Times,serif" font-size="14.00" fill="#000000">Stocks</text>
</g>
<!-- ges -->
<g id="node5" class="node">
<title>ges</title>
<polygon fill="#d3d3d3" stroke="#000000" points="210,-137 138,-137 138,-99 210,-99 210,-137"/>
<text text-anchor="middle" x="174" y="-121.8" font-family="Times,serif" font-size="14.00" fill="#000000">Economic</text>
<text text-anchor="middle" x="174" y="-106.8" font-family="Times,serif" font-size="14.00" fill="#000000">mood</text>
</g>
<!-- Finance&#45;&gt;ges -->
<g id="edge3" class="edge">
<title>Finance&#45;&gt;ges</title>
<path fill="none" stroke="#000000" d="M90.1537,-118.7554C101.4979,-118.6532 115.002,-118.5315 127.8228,-118.416"/>
<polygon fill="#000000" stroke="#000000" points="127.9359,-121.9152 137.904,-118.3252 127.8728,-114.9155 127.9359,-121.9152"/>
</g>
<!-- Fundamentals -->
<g id="node9" class="node">
<title>Fundamentals</title>
<polygon fill="#add8e6" stroke="#add8e6" points="339,-159 246,-159 246,-123 339,-123 339,-159"/>
<text text-anchor="middle" x="292.5" y="-137.3" font-family="Times,serif" font-size="14.00" fill="#000000">Fundamentals</text>
</g>
<!-- ges&#45;&gt;Fundamentals -->
<g id="edge7" class="edge">
<title>ges&#45;&gt;Fundamentals</title>
<path fill="none" stroke="#000000" stroke-dasharray="5,2" d="M210.1978,-125.0257C218.2208,-126.5829 226.9119,-128.2698 235.5383,-129.9441"/>
<polygon fill="#000000" stroke="#000000" points="235.1075,-133.4258 245.5912,-131.8953 236.4413,-126.554 235.1075,-133.4258"/>
</g>
<!-- Income -->
<g id="node6" class="node">
<title>Income</title>
<polygon fill="#d3d3d3" stroke="#000000" points="90,-83 36,-83 36,-47 90,-47 90,-83"/>
<text text-anchor="middle" x="63" y="-61.3" font-family="Times,serif" font-size="14.00" fill="#000000">Wages</text>
</g>
<!-- Income&#45;&gt;ges -->
<g id="edge4" class="edge">
<title>Income&#45;&gt;ges</title>
<path fill="none" stroke="#000000" d="M90.1537,-77.9653C101.7225,-83.4891 115.5376,-90.0855 128.5836,-96.3147"/>
<polygon fill="#000000" stroke="#000000" points="127.3718,-99.6145 137.904,-100.765 130.388,-93.2977 127.3718,-99.6145"/>
</g>
<!-- elec -->
<g id="node8" class="node">
<title>elec</title>
<polygon fill="#add8e6" stroke="#add8e6" points="437,-187 375,-187 375,-149 437,-149 437,-187"/>
<text text-anchor="middle" x="406" y="-171.8" font-family="Times,serif" font-size="14.00" fill="#000000">Election</text>
<text text-anchor="middle" x="406" y="-156.8" font-family="Times,serif" font-size="14.00" fill="#000000"> winner</text>
</g>
<!-- Polls&#45;&gt;elec -->
<g id="edge6" class="edge">
<title>Polls&#45;&gt;elec</title>
<path fill="none" stroke="#000000" d="M319.6861,-188.5328C333.114,-185.3385 349.6057,-181.4154 364.5633,-177.8572"/>
<polygon fill="#000000" stroke="#000000" points="365.6985,-181.1849 374.617,-175.4656 364.0784,-174.3749 365.6985,-181.1849"/>
</g>
<!-- end -->
<g id="node10" class="node">
<title>end</title>
<polygon fill="none" stroke="#000000" points="537,-200 473,-200 473,-136 537,-136 537,-200"/>
<polyline fill="none" stroke="#000000" points="485,-200 473,-188 "/>
<polyline fill="none" stroke="#000000" points="473,-148 485,-136 "/>
<polyline fill="none" stroke="#000000" points="525,-136 537,-148 "/>
<polyline fill="none" stroke="#000000" points="537,-188 525,-200 "/>
<text text-anchor="middle" x="505" y="-171.8" font-family="Times,serif" font-size="14.00" fill="#000000">Policy</text>
<text text-anchor="middle" x="505" y="-156.8" font-family="Times,serif" font-size="14.00" fill="#000000">outcome</text>
</g>
<!-- elec&#45;&gt;end -->
<g id="edge9" class="edge">
<title>elec&#45;&gt;end</title>
<path fill="none" stroke="#000000" stroke-dasharray="5,2" d="M437.0526,-168C445.1155,-168 453.9404,-168 462.4822,-168"/>
<polygon fill="#000000" stroke="#000000" points="462.6908,-171.5001 472.6907,-168 462.6907,-164.5001 462.6908,-171.5001"/>
</g>
<!-- Fundamentals&#45;&gt;elec -->
<g id="edge8" class="edge">
<title>Fundamentals&#45;&gt;elec</title>
<path fill="none" stroke="#000000" d="M339.3201,-152.1378C347.829,-154.162 356.6453,-156.2592 364.9714,-158.2399"/>
<polygon fill="#000000" stroke="#000000" points="364.2923,-161.6759 374.8308,-160.5853 365.9123,-154.866 364.2923,-161.6759"/>
</g>
</g>
</svg>
