<?xml version="1.0" encoding="UTF-8" standalone="no"?>
<!DOCTYPE svg PUBLIC "-//W3C//DTD SVG 1.1//EN"
 "http://www.w3.org/Graphics/SVG/1.1/DTD/svg11.dtd">
<!-- Generated by graphviz version 2.40.1 (20161225.0304)
 -->
<!-- Title: H Pages: 1 -->
<svg width="1273pt" height="760pt"
 viewBox="0.00 0.00 1273.00 760.00" xmlns="http://www.w3.org/2000/svg" xmlns:xlink="http://www.w3.org/1999/xlink">
<g id="graph0" class="graph" transform="scale(1 1) rotate(0) translate(4 756)">
<title>H</title>
<polygon fill="#ffffff" stroke="transparent" points="-4,4 -4,-756 1269,-756 1269,4 -4,4"/>
<text text-anchor="middle" x="632.5" y="-7.8" font-family="Times,serif" font-size="14.00" fill="#000000">Pipeline of extraction</text>
<g id="clust2" class="cluster">
<title>cluster_1</title>
<polygon fill="none" stroke="#000000" points="8,-435 8,-744 845,-744 845,-435 8,-435"/>
<text text-anchor="middle" x="426.5" y="-728.8" font-family="Times,serif" font-size="14.00" fill="#000000">Seasons</text>
</g>
<g id="clust3" class="cluster">
<title>cluster_2</title>
<polygon fill="none" stroke="#000000" points="299,-222 299,-427 966,-427 966,-222 299,-222"/>
<text text-anchor="middle" x="632.5" y="-411.8" font-family="Times,serif" font-size="14.00" fill="#000000">Disease Spread</text>
</g>
<g id="clust5" class="cluster">
<title>cluster_3</title>
<polygon fill="none" stroke="#000000" points="423,-31 423,-214 1257,-214 1257,-31 423,-31"/>
<text text-anchor="middle" x="840" y="-198.8" font-family="Times,serif" font-size="14.00" fill="#000000">Public Health Response</text>
</g>
<!-- i -->
<g id="node1" class="node">
<title>i</title>
<polygon fill="#dddddd" stroke="#5dade2" stroke-width="2" points="237,-587 178,-587 178,-551 237,-551 237,-587"/>
<text text-anchor="middle" x="207.5" y="-565.3" font-family="Times,serif" font-size="14.00" fill="#000000">initial u</text>
</g>
<!-- ii -->
<g id="node5" class="node">
<title>ii</title>
<polygon fill="#dddddd" stroke="#dd1133" stroke-width="2" points="70,-588 16,-588 16,-550 70,-550 70,-588"/>
<text text-anchor="middle" x="43" y="-572.8" font-family="Times,serif" font-size="14.00" fill="#000000">27.0C</text>
<text text-anchor="middle" x="43" y="-557.8" font-family="Times,serif" font-size="14.00" fill="#000000">0C/s</text>
</g>
<!-- i&#45;&gt;ii -->
<g id="edge6" class="edge">
<title>i&#45;&gt;ii</title>
<path fill="none" stroke="#000000" d="M177.7103,-569C150.416,-569 109.8937,-569 80.4247,-569"/>
<polygon fill="#000000" stroke="#000000" points="80.1127,-565.5001 70.1127,-569 80.1127,-572.5001 80.1127,-565.5001"/>
</g>
<!-- p -->
<g id="node2" class="node">
<title>p</title>
<polygon fill="#dddddd" stroke="#66aa55" stroke-width="2" points="527,-591 429,-591 429,-555 527,-555 527,-591"/>
<text text-anchor="middle" x="478" y="-569.3" font-family="Times,serif" font-size="14.00" fill="#000000">parameters</text>
</g>
<!-- p&#45;&gt;i -->
<g id="edge5" class="edge">
<title>p&#45;&gt;i</title>
<path fill="none" stroke="#000000" d="M428.7007,-572.271C376.5982,-571.5005 295.4384,-570.3004 247.2653,-569.588"/>
<polygon fill="#000000" stroke="#000000" points="247.2692,-566.0878 237.2185,-569.4395 247.1656,-573.087 247.2692,-566.0878"/>
<text text-anchor="middle" x="349.5" y="-574.8" font-family="Times,serif" font-size="14.00" fill="#000000">implemented</text>
</g>
<!-- pi -->
<g id="node6" class="node">
<title>pi</title>
<polygon fill="#dddddd" stroke="#dd1133" stroke-width="2" points="234.5,-641 180.5,-641 180.5,-605 234.5,-605 234.5,-641"/>
<text text-anchor="middle" x="207.5" y="-619.3" font-family="Times,serif" font-size="14.00" fill="#000000">1/sÂ²</text>
</g>
<!-- p&#45;&gt;pi -->
<g id="edge4" class="edge">
<title>p&#45;&gt;pi</title>
<path fill="none" stroke="#000000" d="M428.9129,-582.8631C416.8509,-585.2426 403.9654,-587.7475 392,-590 340.994,-599.602 281.9237,-610.0495 244.6391,-616.5614"/>
<polygon fill="#000000" stroke="#000000" points="243.9757,-613.1242 234.7255,-618.2897 245.178,-620.0201 243.9757,-613.1242"/>
<text text-anchor="middle" x="349.5" y="-609.8" font-family="Times,serif" font-size="14.00" fill="#000000">implemented</text>
</g>
<!-- f -->
<g id="node3" class="node">
<title>f</title>
<polygon fill="#dddddd" stroke="#5dade2" stroke-width="2" points="523.5,-675 432.5,-675 432.5,-637 523.5,-637 523.5,-675"/>
<text text-anchor="middle" x="478" y="-659.8" font-family="Times,serif" font-size="14.00" fill="#000000">function</text>
<text text-anchor="middle" x="478" y="-644.8" font-family="Times,serif" font-size="14.00" fill="#000000"> u&#39;&#39;(t) = &#45;ku(t)</text>
</g>
<!-- fi -->
<g id="node4" class="node">
<title>fi</title>
<polygon fill="#dddddd" stroke="#dd1133" stroke-width="2" points="270,-712.5 145,-712.5 145,-659.5 270,-659.5 270,-712.5"/>
<text text-anchor="middle" x="207.5" y="-697.3" font-family="Times,serif" font-size="14.00" fill="#000000">function</text>
<text text-anchor="middle" x="207.5" y="-682.3" font-family="Times,serif" font-size="14.00" fill="#000000">du[1] = u[2]</text>
<text text-anchor="middle" x="207.5" y="-667.3" font-family="Times,serif" font-size="14.00" fill="#000000">du[2] = &#45;p[1] * u[1]</text>
</g>
<!-- f&#45;&gt;fi -->
<g id="edge3" class="edge">
<title>f&#45;&gt;fi</title>
<path fill="none" stroke="#000000" d="M432.4192,-661.0552C390.8109,-665.6698 328.5956,-672.5698 280.1389,-677.9439"/>
<polygon fill="#000000" stroke="#000000" points="279.5732,-674.4851 270.02,-679.0662 280.3449,-681.4425 279.5732,-674.4851"/>
<text text-anchor="middle" x="349.5" y="-678.8" font-family="Times,serif" font-size="14.00" fill="#000000">implemented</text>
</g>
<!-- a -->
<g id="node7" class="node">
<title>a</title>
<polygon fill="#dddddd" stroke="#5dade2" stroke-width="2" points="837,-536 748,-536 748,-500 837,-500 837,-536"/>
<text text-anchor="middle" x="792.5" y="-514.3" font-family="Times,serif" font-size="14.00" fill="#000000">SpringModel</text>
</g>
<!-- a&#45;&gt;p -->
<g id="edge1" class="edge">
<title>a&#45;&gt;p</title>
<path fill="none" stroke="#000000" d="M747.7738,-525.8217C692.5127,-535.4858 598.318,-551.9587 537.1318,-562.659"/>
<polygon fill="#000000" stroke="#000000" points="536.48,-559.2198 527.2324,-564.3902 537.6859,-566.1151 536.48,-559.2198"/>
</g>
<!-- a&#45;&gt;f -->
<g id="edge2" class="edge">
<title>a&#45;&gt;f</title>
<path fill="none" stroke="#000000" d="M751.3846,-536.0411C694.7667,-560.8846 592.7661,-605.6416 530.6383,-632.9028"/>
<polygon fill="#000000" stroke="#000000" points="529.148,-629.7345 521.3971,-636.9577 531.9607,-636.1446 529.148,-629.7345"/>
<text text-anchor="middle" x="637.5" y="-621.8" font-family="Times,serif" font-size="14.00" fill="#000000">formulas</text>
</g>
<!-- t -->
<g id="node8" class="node">
<title>t</title>
<polygon fill="#dddddd" stroke="#5dade2" stroke-width="2" points="507,-481 449,-481 449,-443 507,-443 507,-481"/>
<text text-anchor="middle" x="478" y="-465.8" font-family="Times,serif" font-size="14.00" fill="#000000">time</text>
<text text-anchor="middle" x="478" y="-450.8" font-family="Times,serif" font-size="14.00" fill="#000000">domain</text>
</g>
<!-- a&#45;&gt;t -->
<g id="edge7" class="edge">
<title>a&#45;&gt;t</title>
<path fill="none" stroke="#000000" d="M747.7738,-510.036C686.0214,-499.0404 575.6514,-479.3878 517.053,-468.9538"/>
<polygon fill="#000000" stroke="#000000" points="517.5384,-465.4852 507.0796,-467.1779 516.3112,-472.3768 517.5384,-465.4852"/>
</g>
<!-- ui -->
<g id="node11" class="node">
<title>ui</title>
<polygon fill="#dddddd" stroke="#66aa55" stroke-width="2" points="505,-537 451,-537 451,-499 505,-499 505,-537"/>
<text text-anchor="middle" x="478" y="-521.8" font-family="Times,serif" font-size="14.00" fill="#000000">C</text>
<text text-anchor="middle" x="478" y="-506.8" font-family="Times,serif" font-size="14.00" fill="#000000">C/s</text>
</g>
<!-- a&#45;&gt;ui -->
<g id="edge9" class="edge">
<title>a&#45;&gt;ui</title>
<path fill="none" stroke="#000000" d="M747.7738,-518C685.5107,-518 573.8224,-518 515.6097,-518"/>
<polygon fill="#000000" stroke="#000000" points="515.3864,-514.5001 505.3864,-518 515.3864,-521.5001 515.3864,-514.5001"/>
</g>
<!-- gamma -->
<g id="node16" class="node">
<title>gamma</title>
<polygon fill="#dddddd" stroke="#dd1133" stroke-width="2" points="711,-396 564,-396 564,-360 711,-360 711,-396"/>
<text text-anchor="middle" x="637.5" y="-374.3" font-family="Times,serif" font-size="14.00" fill="#000000">ğ›¾ = 20 person/(dayğ˜…C)</text>
</g>
<!-- a&#45;&gt;gamma -->
<g id="edge16" class="edge">
<title>a&#45;&gt;gamma</title>
<path fill="none" stroke="#000000" d="M777.2029,-499.6988C761.4848,-481.3864 735.8652,-452.8694 711,-431 699.3863,-420.7856 685.8529,-410.6 673.5869,-401.9275"/>
<polygon fill="#000000" stroke="#000000" points="675.5435,-399.025 665.3368,-396.1835 671.5437,-404.7698 675.5435,-399.025"/>
</g>
<!-- ti -->
<g id="node9" class="node">
<title>ti</title>
<polygon fill="#dddddd" stroke="#dd1133" stroke-width="2" points="239,-479 176,-479 176,-443 239,-443 239,-479"/>
<text text-anchor="middle" x="207.5" y="-457.3" font-family="Times,serif" font-size="14.00" fill="#000000">(0, 12ğœ‹)</text>
</g>
<!-- t&#45;&gt;ti -->
<g id="edge8" class="edge">
<title>t&#45;&gt;ti</title>
<path fill="none" stroke="#000000" d="M448.7948,-461.892C400.667,-461.7141 304.5297,-461.3587 249.2373,-461.1543"/>
<polygon fill="#000000" stroke="#000000" points="249.0923,-457.6538 239.0794,-461.1167 249.0664,-464.6538 249.0923,-457.6538"/>
</g>
<!-- u -->
<g id="node10" class="node">
<title>u</title>
<polygon fill="#dddddd" stroke="#66aa55" stroke-width="2" points="234.5,-533 180.5,-533 180.5,-497 234.5,-497 234.5,-533"/>
<text text-anchor="middle" x="207.5" y="-511.3" font-family="Times,serif" font-size="14.00" fill="#000000">units</text>
</g>
<!-- ui&#45;&gt;u -->
<g id="edge10" class="edge">
<title>ui&#45;&gt;u</title>
<path fill="none" stroke="#000000" d="M450.8249,-517.6986C402.1159,-517.1584 299.8902,-516.0247 244.7123,-515.4127"/>
<polygon fill="#000000" stroke="#000000" points="244.6952,-511.9124 234.657,-515.3012 244.6175,-518.912 244.6952,-511.9124"/>
</g>
<!-- sir -->
<g id="node12" class="node">
<title>sir</title>
<polygon fill="#dddddd" stroke="#5dade2" stroke-width="2" points="958,-291 874,-291 874,-255 958,-255 958,-291"/>
<text text-anchor="middle" x="916" y="-269.3" font-family="Times,serif" font-size="14.00" fill="#000000">SIRProblem</text>
</g>
<!-- sirp -->
<g id="node15" class="node">
<title>sirp</title>
<polygon fill="#dddddd" stroke="#dd1133" stroke-width="2" points="386.5,-396 312.5,-396 312.5,-360 386.5,-360 386.5,-396"/>
<text text-anchor="middle" x="349.5" y="-374.3" font-family="Times,serif" font-size="14.00" fill="#000000">(40/day,ğ›¾)</text>
</g>
<!-- sir&#45;&gt;sirp -->
<g id="edge15" class="edge">
<title>sir&#45;&gt;sirp</title>
<path fill="none" stroke="#000000" d="M873.8366,-280.164C850.0312,-283.6085 819.6887,-287 792.5,-287 792.5,-287 792.5,-287 478,-287 430.3552,-287 431.2456,-323.985 392,-351 390.3799,-352.1152 388.7163,-353.243 387.0293,-354.3724"/>
<polygon fill="#000000" stroke="#000000" points="384.9266,-351.5661 378.4931,-359.984 388.7719,-357.4154 384.9266,-351.5661"/>
</g>
<!-- sirt -->
<g id="node17" class="node">
<title>sirt</title>
<polygon fill="#dddddd" stroke="#66aa55" stroke-width="2" points="666.5,-268 608.5,-268 608.5,-230 666.5,-230 666.5,-268"/>
<text text-anchor="middle" x="637.5" y="-252.8" font-family="Times,serif" font-size="14.00" fill="#000000">time</text>
<text text-anchor="middle" x="637.5" y="-237.8" font-family="Times,serif" font-size="14.00" fill="#000000">domain</text>
</g>
<!-- sir&#45;&gt;sirt -->
<g id="edge13" class="edge">
<title>sir&#45;&gt;sirt</title>
<path fill="none" stroke="#000000" d="M873.7018,-269.3549C820.1747,-264.7422 728.7047,-256.8597 676.6948,-252.3777"/>
<polygon fill="#000000" stroke="#000000" points="676.7962,-248.8735 666.5326,-251.5019 676.1951,-255.8477 676.7962,-248.8735"/>
</g>
<!-- pop -->
<g id="node18" class="node">
<title>pop</title>
<polygon fill="#dddddd" stroke="#66aa55" stroke-width="2" points="674.5,-342 600.5,-342 600.5,-306 674.5,-306 674.5,-342"/>
<text text-anchor="middle" x="637.5" y="-320.3" font-family="Times,serif" font-size="14.00" fill="#000000">population</text>
</g>
<!-- sir&#45;&gt;pop -->
<g id="edge11" class="edge">
<title>sir&#45;&gt;pop</title>
<path fill="none" stroke="#000000" d="M873.9498,-287.2549C867.9663,-289.0079 861.8567,-290.6531 856,-292 797.5924,-305.4325 729.0427,-314.3923 684.516,-319.3331"/>
<polygon fill="#000000" stroke="#000000" points="684.1275,-315.8547 674.5643,-320.4148 684.884,-322.8137 684.1275,-315.8547"/>
</g>
<!-- s -->
<g id="node25" class="node">
<title>s</title>
<polygon fill="#dddddd" stroke="#5dade2" stroke-width="2" points="819.5,-183 765.5,-183 765.5,-147 819.5,-147 819.5,-183"/>
<text text-anchor="middle" x="792.5" y="-161.3" font-family="Times,serif" font-size="14.00" fill="#000000">I</text>
</g>
<!-- sir&#45;&gt;s -->
<g id="edge26" class="edge">
<title>sir&#45;&gt;s</title>
<path fill="none" stroke="#000000" d="M895.3289,-254.9232C874.9359,-237.0897 843.6034,-209.6896 820.8836,-189.8213"/>
<polygon fill="#000000" stroke="#000000" points="823.0703,-187.084 813.2386,-183.1357 818.4622,-192.3534 823.0703,-187.084"/>
</g>
<!-- sirpopi -->
<g id="node13" class="node">
<title>sirpopi</title>
<polygon fill="#dddddd" stroke="#dd1133" stroke-width="2" points="389.5,-342 309.5,-342 309.5,-306 389.5,-306 389.5,-342"/>
<text text-anchor="middle" x="349.5" y="-320.3" font-family="Times,serif" font-size="14.00" fill="#000000">10 Kperson</text>
</g>
<!-- sirti -->
<g id="node14" class="node">
<title>sirti</title>
<polygon fill="#dddddd" stroke="#dd1133" stroke-width="2" points="392,-267 307,-267 307,-231 392,-231 392,-267"/>
<text text-anchor="middle" x="349.5" y="-245.3" font-family="Times,serif" font-size="14.00" fill="#000000">(0,200 days)</text>
</g>
<!-- gamma&#45;&gt;sirp -->
<g id="edge17" class="edge">
<title>gamma&#45;&gt;sirp</title>
<path fill="none" stroke="#000000" d="M563.7068,-378C511.1371,-378 442.0395,-378 396.7315,-378"/>
<polygon fill="#000000" stroke="#000000" points="396.5959,-374.5001 386.5958,-378 396.5958,-381.5001 396.5959,-374.5001"/>
</g>
<!-- sirt&#45;&gt;sirti -->
<g id="edge14" class="edge">
<title>sirt&#45;&gt;sirti</title>
<path fill="none" stroke="#000000" d="M608.3001,-249C560.0397,-249 462.9618,-249 402.388,-249"/>
<polygon fill="#000000" stroke="#000000" points="402.2583,-245.5001 392.2582,-249 402.2582,-252.5001 402.2583,-245.5001"/>
</g>
<!-- pop&#45;&gt;sirpopi -->
<g id="edge12" class="edge">
<title>pop&#45;&gt;sirpopi</title>
<path fill="none" stroke="#000000" d="M600.4386,-324C549.3803,-324 457.2293,-324 399.9328,-324"/>
<polygon fill="#000000" stroke="#000000" points="399.6576,-320.5001 389.6576,-324 399.6576,-327.5001 399.6576,-320.5001"/>
</g>
<!-- person -->
<g id="node19" class="node">
<title>person</title>
<polygon fill="#dddddd" stroke="#000000" stroke-width="2" points="505,-183 451,-183 451,-147 505,-147 505,-183"/>
<text text-anchor="middle" x="478" y="-161.3" font-family="Times,serif" font-size="14.00" fill="#000000">person</text>
</g>
<!-- z -->
<g id="node20" class="node">
<title>z</title>
<polygon fill="#dddddd" stroke="#dd1133" stroke-width="2" points="505,-75 451,-75 451,-39 505,-39 505,-75"/>
<text text-anchor="middle" x="478" y="-53.3" font-family="Times,serif" font-size="14.00" fill="#000000">doses</text>
</g>
<!-- gu -->
<g id="node21" class="node">
<title>gu</title>
<polygon fill="#dddddd" stroke="#dd1133" stroke-width="2" points="525,-129 431,-129 431,-93 525,-93 525,-129"/>
<text text-anchor="middle" x="478" y="-107.3" font-family="Times,serif" font-size="14.00" fill="#000000">dimensionless</text>
</g>
<!-- regp -->
<g id="node22" class="node">
<title>regp</title>
<polygon fill="#dddddd" stroke="#5dade2" stroke-width="2" points="1249,-98 1126,-98 1126,-62 1249,-62 1249,-98"/>
<text text-anchor="middle" x="1187.5" y="-76.3" font-family="Times,serif" font-size="14.00" fill="#000000">RegressionProblem</text>
</g>
<!-- r -->
<g id="node26" class="node">
<title>r</title>
<polygon fill="#dddddd" stroke="#5dade2" stroke-width="2" points="1051,-98 995,-98 995,-62 1051,-62 1051,-98"/>
<text text-anchor="middle" x="1023" y="-76.3" font-family="Times,serif" font-size="14.00" fill="#000000">v=Î²â‚‚gI</text>
</g>
<!-- regp&#45;&gt;r -->
<g id="edge20" class="edge">
<title>regp&#45;&gt;r</title>
<path fill="none" stroke="#000000" d="M1125.7783,-80C1104.0862,-80 1080.359,-80 1061.173,-80"/>
<polygon fill="#000000" stroke="#000000" points="1061.0232,-76.5001 1051.0231,-80 1061.0231,-83.5001 1061.0232,-76.5001"/>
</g>
<!-- v -->
<g id="node23" class="node">
<title>v</title>
<polygon fill="#dddddd" stroke="#5dade2" stroke-width="2" points="824,-75 761,-75 761,-39 824,-39 824,-75"/>
<text text-anchor="middle" x="792.5" y="-53.3" font-family="Times,serif" font-size="14.00" fill="#000000">vaccines</text>
</g>
<!-- v&#45;&gt;z -->
<g id="edge19" class="edge">
<title>v&#45;&gt;z</title>
<path fill="none" stroke="#000000" d="M760.9046,-57C702.4468,-57 577.6906,-57 515.2353,-57"/>
<polygon fill="#000000" stroke="#000000" points="515.0464,-53.5001 505.0463,-57 515.0463,-60.5001 515.0464,-53.5001"/>
</g>
<!-- v&#45;&gt;r -->
<g id="edge18" class="edge">
<title>v&#45;&gt;r</title>
<path fill="none" stroke="#000000" d="M824.3231,-65.0072C866.1611,-71.615 939.6007,-79.0615 984.515,-81.3469"/>
<polygon fill="#000000" stroke="#000000" points="984.5928,-84.8536 994.7362,-81.794 984.8987,-77.8603 984.5928,-84.8536"/>
</g>
<!-- g -->
<g id="node24" class="node">
<title>g</title>
<polygon fill="#dddddd" stroke="#5dade2" stroke-width="2" points="825,-129 760,-129 760,-93 825,-93 825,-129"/>
<text text-anchor="middle" x="792.5" y="-107.3" font-family="Times,serif" font-size="14.00" fill="#000000">coverage</text>
</g>
<!-- g&#45;&gt;gu -->
<g id="edge25" class="edge">
<title>g&#45;&gt;gu</title>
<path fill="none" stroke="#000000" d="M759.733,-111C706.6435,-111 601.1544,-111 535.3974,-111"/>
<polygon fill="#000000" stroke="#000000" points="535.1991,-107.5001 525.1991,-111 535.1991,-114.5001 535.1991,-107.5001"/>
</g>
<!-- s&#45;&gt;person -->
<g id="edge24" class="edge">
<title>s&#45;&gt;person</title>
<path fill="none" stroke="#000000" d="M765.4137,-165C709.0991,-165 579.304,-165 515.2033,-165"/>
<polygon fill="#000000" stroke="#000000" points="515.1327,-161.5001 505.1327,-165 515.1326,-168.5001 515.1327,-161.5001"/>
</g>
<!-- r&#45;&gt;v -->
<g id="edge21" class="edge">
<title>r&#45;&gt;v</title>
<path fill="none" stroke="#000000" d="M994.7362,-72.5655C954.6134,-65.9837 880.8631,-58.3807 834.3764,-55.8324"/>
<polygon fill="#000000" stroke="#000000" points="834.4814,-52.3335 824.3231,-55.3436 834.1413,-59.3252 834.4814,-52.3335"/>
</g>
<!-- r&#45;&gt;g -->
<g id="edge22" class="edge">
<title>r&#45;&gt;g</title>
<path fill="none" stroke="#000000" d="M994.7362,-83.8012C954.837,-89.1673 881.6837,-99.0057 835.1558,-105.2632"/>
<polygon fill="#000000" stroke="#000000" points="834.5261,-101.8163 825.0819,-106.6181 835.4592,-108.7538 834.5261,-101.8163"/>
</g>
<!-- r&#45;&gt;s -->
<g id="edge23" class="edge">
<title>r&#45;&gt;s</title>
<path fill="none" stroke="#000000" d="M994.7362,-90.4227C953.0732,-105.7865 875.1512,-134.5213 829.1467,-151.486"/>
<polygon fill="#000000" stroke="#000000" points="827.7338,-148.2766 819.5623,-155.0204 830.1557,-154.8443 827.7338,-148.2766"/>
</g>
</g>
</svg>
