<?xml version="1.0" encoding="UTF-8" standalone="no"?>
<!DOCTYPE svg PUBLIC "-//W3C//DTD SVG 1.1//EN"
 "http://www.w3.org/Graphics/SVG/1.1/DTD/svg11.dtd">
<!-- Generated by graphviz version 2.40.1 (20161225.0304)
 -->
<!-- Title: G Pages: 1 -->
<svg width="569pt" height="581pt"
 viewBox="0.00 0.00 568.50 581.00" xmlns="http://www.w3.org/2000/svg" xmlns:xlink="http://www.w3.org/1999/xlink">
<g id="graph0" class="graph" transform="scale(1 1) rotate(0) translate(4 577)">
<title>G</title>
<polygon fill="#ffffff" stroke="transparent" points="-4,4 -4,-577 564.5,-577 564.5,4 -4,4"/>
<!-- ind -->
<g id="node1" class="node">
<title>ind</title>
<polygon fill="#dddddd" stroke="#5dade2" stroke-width="2" points="250,-296.5 250,-349.5 322,-349.5 322,-296.5 250,-296.5"/>
<text text-anchor="middle" x="286" y="-334.3" font-family="Times,serif" font-size="14.00" fill="#000000">Individual</text>
<text text-anchor="middle" x="286" y="-319.3" font-family="Times,serif" font-size="14.00" fill="#000000">Contact</text>
<text text-anchor="middle" x="286" y="-304.3" font-family="Times,serif" font-size="14.00" fill="#000000">Model</text>
</g>
<!-- epi -->
<g id="node2" class="node">
<title>epi</title>
<polygon fill="#dddddd" stroke="#5dade2" stroke-width="2" points="371,-223.5 371,-259.5 425,-259.5 425,-223.5 371,-223.5"/>
<text text-anchor="middle" x="398" y="-237.8" font-family="Times,serif" font-size="14.00" fill="#000000">SIR</text>
</g>
<!-- ind&#45;&gt;epi -->
<g id="edge1" class="edge">
<title>ind&#45;&gt;epi</title>
<path fill="none" stroke="#ffa500" stroke-width="4" d="M322.054,-296.7643C338.6804,-284.6656 358.0051,-270.6035 373.0001,-259.6919"/>
</g>
<!-- cases -->
<g id="node22" class="node">
<title>cases</title>
<polygon fill="#dddddd" stroke="#5dade2" stroke-width="2" points="371,-148.5 371,-186.5 425,-186.5 425,-148.5 371,-148.5"/>
<text text-anchor="middle" x="398" y="-171.3" font-family="Times,serif" font-size="14.00" fill="#000000">Flu</text>
<text text-anchor="middle" x="398" y="-156.3" font-family="Times,serif" font-size="14.00" fill="#000000">Cases</text>
</g>
<!-- epi&#45;&gt;cases -->
<g id="edge19" class="edge">
<title>epi&#45;&gt;cases</title>
<path fill="none" stroke="#ffa500" stroke-width="4" d="M398,-223.2079C398,-212.0799 398,-197.8882 398,-186.614"/>
</g>
<!-- inf -->
<g id="node3" class="node">
<title>inf</title>
<polygon fill="#dddddd" stroke="#66aa55" stroke-width="2" points="113.5,-386.5 113.5,-424.5 178.5,-424.5 178.5,-386.5 113.5,-386.5"/>
<text text-anchor="middle" x="146" y="-409.3" font-family="Times,serif" font-size="14.00" fill="#000000">Infection</text>
<text text-anchor="middle" x="146" y="-394.3" font-family="Times,serif" font-size="14.00" fill="#000000">Rate</text>
</g>
<!-- inf&#45;&gt;ind -->
<g id="edge2" class="edge">
<title>inf&#45;&gt;ind</title>
<path fill="none" stroke="#ffa500" stroke-width="4" d="M178.4707,-386.3655C199.7956,-373.799 227.7179,-357.3448 249.7645,-344.3531"/>
</g>
<!-- rate -->
<g id="node7" class="node">
<title>rate</title>
<polygon fill="#dddddd" stroke="#66aa55" stroke-width="2" points="143,-304 143,-342 215,-342 215,-304 143,-304"/>
<text text-anchor="middle" x="179" y="-326.8" font-family="Times,serif" font-size="14.00" fill="#000000">Transition</text>
<text text-anchor="middle" x="179" y="-311.8" font-family="Times,serif" font-size="14.00" fill="#000000">Rate</text>
</g>
<!-- inf&#45;&gt;rate -->
<g id="edge7" class="edge">
<title>inf&#45;&gt;rate</title>
<path fill="none" stroke="#000000" stroke-dasharray="5,2" d="M153.6538,-386.3655C158.985,-373.0374 166.0656,-355.3361 171.3877,-342.0308"/>
</g>
<!-- thirty -->
<g id="node4" class="node">
<title>thirty</title>
<polygon fill="#dddddd" stroke="#dd1133" stroke-width="2" points="104.5,-461.5 104.5,-497.5 193.5,-497.5 193.5,-461.5 104.5,-461.5"/>
<text text-anchor="middle" x="149" y="-475.8" font-family="Times,serif" font-size="14.00" fill="#000000">0.3 Persons/s</text>
</g>
<!-- thirty&#45;&gt;inf -->
<g id="edge3" class="edge">
<title>thirty&#45;&gt;inf</title>
<path fill="none" stroke="#000000" d="M148.2584,-461.2079C147.8073,-450.0799 147.232,-435.8882 146.7749,-424.614"/>
</g>
<!-- twenty -->
<g id="node5" class="node">
<title>twenty</title>
<polygon fill="#dddddd" stroke="#dd1133" stroke-width="2" points="324.5,-461.5 324.5,-497.5 413.5,-497.5 413.5,-461.5 324.5,-461.5"/>
<text text-anchor="middle" x="369" y="-475.8" font-family="Times,serif" font-size="14.00" fill="#000000">0.2 Persons/s</text>
</g>
<!-- mort -->
<g id="node6" class="node">
<title>mort</title>
<polygon fill="#dddddd" stroke="#66aa55" stroke-width="2" points="269,-386.5 269,-424.5 337,-424.5 337,-386.5 269,-386.5"/>
<text text-anchor="middle" x="303" y="-409.3" font-family="Times,serif" font-size="14.00" fill="#000000">Mortality</text>
<text text-anchor="middle" x="303" y="-394.3" font-family="Times,serif" font-size="14.00" fill="#000000">Rate</text>
</g>
<!-- twenty&#45;&gt;mort -->
<g id="edge4" class="edge">
<title>twenty&#45;&gt;mort</title>
<path fill="none" stroke="#000000" d="M352.6854,-461.2079C342.7605,-450.0799 330.103,-435.8882 320.0476,-424.614"/>
</g>
<!-- mort&#45;&gt;ind -->
<g id="edge5" class="edge">
<title>mort&#45;&gt;ind</title>
<path fill="none" stroke="#ffa500" stroke-width="4" d="M299.0571,-386.3655C296.8012,-375.4174 293.9371,-361.5185 291.4666,-349.5292"/>
</g>
<!-- mort&#45;&gt;rate -->
<g id="edge6" class="edge">
<title>mort&#45;&gt;rate</title>
<path fill="none" stroke="#000000" stroke-dasharray="5,2" d="M274.2402,-386.3655C254.2077,-373.0374 227.6021,-355.3361 207.6038,-342.0308"/>
</g>
<!-- personper -->
<g id="node9" class="node">
<title>personper</title>
<polygon fill="#dddddd" stroke="#66aa55" stroke-width="2" points="129,-223.5 129,-259.5 191,-259.5 191,-223.5 129,-223.5"/>
<text text-anchor="middle" x="160" y="-237.8" font-family="Times,serif" font-size="14.00" fill="#000000">Person/s</text>
</g>
<!-- rate&#45;&gt;personper -->
<g id="edge10" class="edge">
<title>rate&#45;&gt;personper</title>
<path fill="none" stroke="#000000" d="M174.4973,-303.6856C171.3807,-290.3173 167.2611,-272.6463 164.2101,-259.559"/>
</g>
<!-- birth -->
<g id="node8" class="node">
<title>birth</title>
<polygon fill="#dddddd" stroke="#66aa55" stroke-width="2" points="197,-386.5 197,-424.5 251,-424.5 251,-386.5 197,-386.5"/>
<text text-anchor="middle" x="224" y="-409.3" font-family="Times,serif" font-size="14.00" fill="#000000">Birth</text>
<text text-anchor="middle" x="224" y="-394.3" font-family="Times,serif" font-size="14.00" fill="#000000">Rate</text>
</g>
<!-- birth&#45;&gt;ind -->
<g id="edge9" class="edge">
<title>birth&#45;&gt;ind</title>
<path fill="none" stroke="#ffa500" stroke-width="4" d="M238.3799,-386.3655C246.6075,-375.4174 257.0528,-361.5185 266.0629,-349.5292"/>
</g>
<!-- birth&#45;&gt;rate -->
<g id="edge8" class="edge">
<title>birth&#45;&gt;rate</title>
<path fill="none" stroke="#000000" stroke-dasharray="5,2" d="M213.563,-386.3655C206.2931,-373.0374 196.6378,-355.3361 189.3804,-342.0308"/>
</g>
<!-- unit -->
<g id="node11" class="node">
<title>unit</title>
<polygon fill="#dddddd" stroke="#66aa55" stroke-width="2" points="171,-149.5 171,-185.5 225,-185.5 225,-149.5 171,-149.5"/>
<text text-anchor="middle" x="198" y="-163.8" font-family="Times,serif" font-size="14.00" fill="#000000">Unit</text>
</g>
<!-- personper&#45;&gt;unit -->
<g id="edge12" class="edge">
<title>personper&#45;&gt;unit</title>
<path fill="none" stroke="#000000" d="M169.3933,-223.2079C175.2834,-211.7375 182.8452,-197.012 188.7148,-185.5817"/>
</g>
<!-- person -->
<g id="node10" class="node">
<title>person</title>
<polygon fill="#dddddd" stroke="#66aa55" stroke-width="2" points="209,-223.5 209,-259.5 263,-259.5 263,-223.5 209,-223.5"/>
<text text-anchor="middle" x="236" y="-237.8" font-family="Times,serif" font-size="14.00" fill="#000000">Person</text>
</g>
<!-- person&#45;&gt;unit -->
<g id="edge11" class="edge">
<title>person&#45;&gt;unit</title>
<path fill="none" stroke="#000000" d="M226.6067,-223.2079C220.7166,-211.7375 213.1548,-197.012 207.2852,-185.5817"/>
</g>
<!-- second -->
<g id="node12" class="node">
<title>second</title>
<polygon fill="#dddddd" stroke="#66aa55" stroke-width="2" points="281,-223.5 281,-259.5 353,-259.5 353,-223.5 281,-223.5"/>
<text text-anchor="middle" x="317" y="-237.8" font-family="Times,serif" font-size="14.00" fill="#000000">second (s)</text>
</g>
<!-- second&#45;&gt;unit -->
<g id="edge13" class="edge">
<title>second&#45;&gt;unit</title>
<path fill="none" stroke="#000000" d="M287.8893,-223.3976C268.7607,-211.5024 243.9038,-196.0452 225.1786,-184.401"/>
</g>
<!-- dollars -->
<g id="node13" class="node">
<title>dollars</title>
<polygon fill="#dddddd" stroke="#66aa55" stroke-width="2" points="57,-223.5 57,-259.5 111,-259.5 111,-223.5 57,-223.5"/>
<text text-anchor="middle" x="84" y="-237.8" font-family="Times,serif" font-size="14.00" fill="#000000">$</text>
</g>
<!-- dollars&#45;&gt;unit -->
<g id="edge14" class="edge">
<title>dollars&#45;&gt;unit</title>
<path fill="none" stroke="#000000" d="M111.0164,-223.963C129.0572,-212.2523 152.7002,-196.9052 170.7824,-185.1675"/>
</g>
<!-- cost -->
<g id="node15" class="node">
<title>cost</title>
<polygon fill="#dddddd" stroke="#ffa500" stroke-width="2" points="238,-.5 238,-38.5 320,-38.5 320,-.5 238,-.5"/>
<text text-anchor="middle" x="279" y="-23.3" font-family="Times,serif" font-size="14.00" fill="#000000">Vaccination</text>
<text text-anchor="middle" x="279" y="-8.3" font-family="Times,serif" font-size="14.00" fill="#000000">Cost</text>
</g>
<!-- dollars&#45;&gt;cost -->
<g id="edge27" class="edge">
<title>dollars&#45;&gt;cost</title>
<path fill="none" stroke="#000000" d="M99.9577,-223.3328C136.3418,-181.9109 225.1545,-80.801 262.269,-38.5476"/>
</g>
<!-- weather -->
<g id="node14" class="node">
<title>weather</title>
<polygon fill="#dddddd" stroke="#ffa500" stroke-width="2" points="11.5,-534.5 11.5,-572.5 74.5,-572.5 74.5,-534.5 11.5,-534.5"/>
<text text-anchor="middle" x="43" y="-557.3" font-family="Times,serif" font-size="14.00" fill="#000000">NOAA</text>
<text text-anchor="middle" x="43" y="-542.3" font-family="Times,serif" font-size="14.00" fill="#000000">Weather</text>
</g>
<!-- temp -->
<g id="node19" class="node">
<title>temp</title>
<polygon fill="#dddddd" stroke="#5dade2" stroke-width="2" points="0,-461.5 0,-497.5 86,-497.5 86,-461.5 0,-461.5"/>
<text text-anchor="middle" x="43" y="-475.8" font-family="Times,serif" font-size="14.00" fill="#000000">Temperature</text>
</g>
<!-- weather&#45;&gt;temp -->
<g id="edge22" class="edge">
<title>weather&#45;&gt;temp</title>
<path fill="none" stroke="#ffa500" stroke-width="4" d="M43,-534.4432C43,-523.1377 43,-508.8833 43,-497.7269"/>
</g>
<!-- fed -->
<g id="node16" class="node">
<title>fed</title>
<polygon fill="#dddddd" stroke="#5dade2" stroke-width="2" points="471,-304 471,-342 533,-342 533,-304 471,-304"/>
<text text-anchor="middle" x="502" y="-326.8" font-family="Times,serif" font-size="14.00" fill="#000000">Fed</text>
<text text-anchor="middle" x="502" y="-311.8" font-family="Times,serif" font-size="14.00" fill="#000000">Forecast</text>
</g>
<!-- dGDP -->
<g id="node21" class="node">
<title>dGDP</title>
<polygon fill="#dddddd" stroke="#5dade2" stroke-width="2" points="443.5,-223.5 443.5,-259.5 560.5,-259.5 560.5,-223.5 443.5,-223.5"/>
<text text-anchor="middle" x="502" y="-237.8" font-family="Times,serif" font-size="14.00" fill="#000000">Economic Growth</text>
</g>
<!-- fed&#45;&gt;dGDP -->
<g id="edge24" class="edge">
<title>fed&#45;&gt;dGDP</title>
<path fill="none" stroke="#000000" d="M502,-303.6856C502,-290.3173 502,-272.6463 502,-259.559"/>
</g>
<!-- demo -->
<g id="node17" class="node">
<title>demo</title>
<polygon fill="#dddddd" stroke="#ffa500" stroke-width="2" points="203,-534.5 203,-572.5 299,-572.5 299,-534.5 203,-534.5"/>
<text text-anchor="middle" x="251" y="-557.3" font-family="Times,serif" font-size="14.00" fill="#000000">Census</text>
<text text-anchor="middle" x="251" y="-542.3" font-family="Times,serif" font-size="14.00" fill="#000000">Demographics</text>
</g>
<!-- demo&#45;&gt;birth -->
<g id="edge17" class="edge">
<title>demo&#45;&gt;birth</title>
<path fill="none" stroke="#ffa500" stroke-width="4" d="M247.5255,-534.4546C242.3696,-506.1928 232.7442,-453.4314 227.5469,-424.9423"/>
</g>
<!-- age -->
<g id="node20" class="node">
<title>age</title>
<polygon fill="#dddddd" stroke="#5dade2" stroke-width="2" points="252,-461.5 252,-497.5 306,-497.5 306,-461.5 252,-461.5"/>
<text text-anchor="middle" x="279" y="-475.8" font-family="Times,serif" font-size="14.00" fill="#000000">Age</text>
</g>
<!-- demo&#45;&gt;age -->
<g id="edge23" class="edge">
<title>demo&#45;&gt;age</title>
<path fill="none" stroke="#ffa500" stroke-width="4" d="M258.2107,-534.4432C262.4884,-523.1377 267.882,-508.8833 272.1033,-497.7269"/>
</g>
<!-- ode -->
<g id="node18" class="node">
<title>ode</title>
<polygon fill="#dddddd" stroke="#5dade2" stroke-width="2" points="358,-305 358,-341 438,-341 438,-305 358,-305"/>
<text text-anchor="middle" x="398" y="-319.3" font-family="Times,serif" font-size="14.00" fill="#000000">ODESolver</text>
</g>
<!-- ode&#45;&gt;epi -->
<g id="edge25" class="edge">
<title>ode&#45;&gt;epi</title>
<path fill="none" stroke="#000000" d="M398,-304.9125C398,-291.4066 398,-273.0307 398,-259.5369"/>
</g>
<!-- temp&#45;&gt;inf -->
<g id="edge15" class="edge">
<title>temp&#45;&gt;inf</title>
<path fill="none" stroke="#ffa500" stroke-width="4" d="M68.1966,-461.3976C83.6814,-450.2726 103.5028,-436.0319 119.2635,-424.7088"/>
</g>
<!-- age&#45;&gt;mort -->
<g id="edge16" class="edge">
<title>age&#45;&gt;mort</title>
<path fill="none" stroke="#ffa500" stroke-width="4" d="M284.9326,-461.2079C288.5417,-450.0799 293.1444,-435.8882 296.8009,-424.614"/>
</g>
<!-- prices -->
<g id="node23" class="node">
<title>prices</title>
<polygon fill="#dddddd" stroke="#5dade2" stroke-width="2" points="459,-148.5 459,-186.5 513,-186.5 513,-148.5 459,-148.5"/>
<text text-anchor="middle" x="486" y="-171.3" font-family="Times,serif" font-size="14.00" fill="#000000">Vacc</text>
<text text-anchor="middle" x="486" y="-156.3" font-family="Times,serif" font-size="14.00" fill="#000000">Price</text>
</g>
<!-- dGDP&#45;&gt;prices -->
<g id="edge18" class="edge">
<title>dGDP&#45;&gt;prices</title>
<path fill="none" stroke="#000000" d="M498.0449,-223.2079C495.6389,-212.0799 492.5704,-197.8882 490.1327,-186.614"/>
</g>
<!-- regres -->
<g id="node24" class="node">
<title>regres</title>
<polygon fill="#dddddd" stroke="#5dade2" stroke-width="2" points="359.5,-75.5 359.5,-111.5 436.5,-111.5 436.5,-75.5 359.5,-75.5"/>
<text text-anchor="middle" x="398" y="-89.8" font-family="Times,serif" font-size="14.00" fill="#000000">Regression</text>
</g>
<!-- cases&#45;&gt;regres -->
<g id="edge21" class="edge">
<title>cases&#45;&gt;regres</title>
<path fill="none" stroke="#ffa500" stroke-width="4" d="M398,-148.4432C398,-137.1377 398,-122.8833 398,-111.7269"/>
</g>
<!-- prices&#45;&gt;regres -->
<g id="edge20" class="edge">
<title>prices&#45;&gt;regres</title>
<path fill="none" stroke="#000000" d="M463.3378,-148.4432C449.8935,-137.1377 432.9423,-122.8833 419.6752,-111.7269"/>
</g>
<!-- regres&#45;&gt;cost -->
<g id="edge26" class="edge">
<title>regres&#45;&gt;cost</title>
<path fill="none" stroke="#ffa500" stroke-width="4" d="M368.8893,-75.3976C350.9992,-64.2726 328.0987,-50.0319 309.8898,-38.7088"/>
</g>
</g>
</svg>
