<?xml version="1.0" encoding="UTF-8" standalone="no"?>
<!DOCTYPE svg PUBLIC "-//W3C//DTD SVG 1.1//EN"
 "http://www.w3.org/Graphics/SVG/1.1/DTD/svg11.dtd">
<!-- Generated by graphviz version 2.40.1 (20161225.0304)
 -->
<!-- Title: G Pages: 1 -->
<svg width="749pt" height="378pt"
 viewBox="0.00 0.00 749.00 378.00" xmlns="http://www.w3.org/2000/svg" xmlns:xlink="http://www.w3.org/1999/xlink">
<g id="graph0" class="graph" transform="scale(1 1) rotate(0) translate(4 374)">
<title>G</title>
<polygon fill="#ffffff" stroke="transparent" points="-4,4 -4,-374 745,-374 745,4 -4,4"/>
<g id="clust1" class="cluster">
<title>cluster_naught</title>
<polygon fill="none" stroke="#000000" points="8,-8 8,-362 733,-362 733,-8 8,-8"/>
<text text-anchor="middle" x="370.5" y="-346.8" font-family="Times,serif" font-size="14.00" fill="#000000">SemanticModels.jl</text>
</g>
<g id="clust2" class="cluster">
<title>cluster_0</title>
<polygon fill="#d3d3d3" stroke="#d3d3d3" points="16,-256 16,-331 725,-331 725,-256 16,-256"/>
<text text-anchor="middle" x="370.5" y="-315.8" font-family="Times,serif" font-size="14.00" fill="#000000">Standard Paradigm</text>
</g>
<g id="clust3" class="cluster">
<title>cluster_2</title>
<polygon fill="#ffffff" stroke="#ffffff" points="28,-16 28,-248 713.5,-248 713.5,-16 28,-16"/>
</g>
<!-- d0 -->
<g id="node1" class="node">
<title>d0</title>
<polygon fill="#59a27a" stroke="#59a27a" points="102,-300 24,-300 24,-264 102,-264 102,-300"/>
<text text-anchor="middle" x="63" y="-278.3" font-family="Times,serif" font-size="14.00" fill="#000000">Conceptual</text>
</g>
<!-- d2 -->
<g id="node2" class="node">
<title>d2</title>
<polygon fill="#cd69c9" stroke="#cd69c9" points="408,-300 354,-300 354,-264 408,-264 408,-300"/>
<text text-anchor="middle" x="381" y="-278.3" font-family="Times,serif" font-size="14.00" fill="#000000">Code</text>
</g>
<!-- d0&#45;&gt;d2 -->
<g id="edge1" class="edge">
<title>d0&#45;&gt;d2</title>
<path fill="none" stroke="#000000" d="M102.3108,-282C114.2541,-282 127.4141,-282 139.5,-282 139.5,-282 139.5,-282 283.5,-282 303.31,-282 325.384,-282 343.512,-282"/>
<polygon fill="#000000" stroke="#000000" points="343.6825,-285.5001 353.6825,-282 343.6825,-278.5001 343.6825,-285.5001"/>
<text text-anchor="middle" x="211.5" y="-285.8" font-family="Times,serif" font-size="14.00" fill="#000000">programmer</text>
</g>
<!-- d3 -->
<g id="node3" class="node">
<title>d3</title>
<polygon fill="#cd3333" stroke="#cd3333" points="717,-300 640,-300 640,-264 717,-264 717,-300"/>
<text text-anchor="middle" x="678.5" y="-278.3" font-family="Times,serif" font-size="14.00" fill="#000000">Executable</text>
</g>
<!-- d2&#45;&gt;d3 -->
<g id="edge2" class="edge">
<title>d2&#45;&gt;d3</title>
<path fill="none" stroke="#000000" d="M408.3175,-282C427.8642,-282 454.8021,-282 478.5,-282 478.5,-282 478.5,-282 602.5,-282 611.3197,-282 620.715,-282 629.7842,-282"/>
<polygon fill="#000000" stroke="#000000" points="629.8369,-285.5001 639.8369,-282 629.8368,-278.5001 629.8369,-285.5001"/>
<text text-anchor="middle" x="540.5" y="-285.8" font-family="Times,serif" font-size="14.00" fill="#000000">compiler</text>
</g>
<!-- c0 -->
<g id="node4" class="node">
<title>c0</title>
<polygon fill="#59a27a" stroke="#59a27a" points="90,-240 36,-240 36,-204 90,-204 90,-240"/>
<text text-anchor="middle" x="63" y="-218.3" font-family="Times,serif" font-size="14.00" fill="#000000">Chalk</text>
</g>
<!-- c2 -->
<g id="node5" class="node">
<title>c2</title>
<polygon fill="#cd69c9" stroke="#cd69c9" points="408,-240 354,-240 354,-204 408,-204 408,-240"/>
<text text-anchor="middle" x="381" y="-218.3" font-family="Times,serif" font-size="14.00" fill="#000000">Julia</text>
</g>
<!-- c0&#45;&gt;c2 -->
<g id="edge3" class="edge">
<title>c0&#45;&gt;c2</title>
<path fill="none" stroke="#000000" d="M90.2622,-222C104.8659,-222 123.1641,-222 139.5,-222 139.5,-222 139.5,-222 283.5,-222 303.31,-222 325.384,-222 343.512,-222"/>
<polygon fill="#000000" stroke="#000000" points="343.6825,-225.5001 353.6825,-222 343.6825,-218.5001 343.6825,-225.5001"/>
<text text-anchor="middle" x="211.5" y="-225.8" font-family="Times,serif" font-size="14.00" fill="#000000">programmer</text>
</g>
<!-- c1 -->
<g id="node6" class="node">
<title>c1</title>
<polygon fill="#5dade2" stroke="#5dade2" points="441,-60 321,-60 321,-24 441,-24 441,-60"/>
<text text-anchor="middle" x="381" y="-38.3" font-family="Times,serif" font-size="14.00" fill="#000000">SemanticModels.jl</text>
</g>
<!-- c2&#45;&gt;c1 -->
<g id="edge4" class="edge">
<title>c2&#45;&gt;c1</title>
<path fill="none" stroke="#000000" d="M381,-203.9694C381,-172.643 381,-107.9385 381,-70.486"/>
<polygon fill="#000000" stroke="#000000" points="384.5001,-70.2499 381,-60.2499 377.5001,-70.25 384.5001,-70.2499"/>
<text text-anchor="middle" x="338.5" y="-160.3" font-family="Times,serif" font-size="14.00" fill="#000000">Model(Expr)</text>
</g>
<!-- c3 -->
<g id="node7" class="node">
<title>c3</title>
<polygon fill="#cd3333" stroke="#cd3333" points="705.5,-240 651.5,-240 651.5,-204 705.5,-204 705.5,-240"/>
<text text-anchor="middle" x="678.5" y="-218.3" font-family="Times,serif" font-size="14.00" fill="#000000">x86</text>
</g>
<!-- c2&#45;&gt;c3 -->
<g id="edge7" class="edge">
<title>c2&#45;&gt;c3</title>
<path fill="none" stroke="#000000" d="M408.3175,-222C427.8642,-222 454.8021,-222 478.5,-222 478.5,-222 478.5,-222 602.5,-222 615.0522,-222 628.7706,-222 641.055,-222"/>
<polygon fill="#000000" stroke="#000000" points="641.416,-225.5001 651.4159,-222 641.4159,-218.5001 641.416,-225.5001"/>
<text text-anchor="middle" x="540.5" y="-225.8" font-family="Times,serif" font-size="14.00" fill="#000000">compiler</text>
</g>
<!-- c1&#45;&gt;c2 -->
<g id="edge5" class="edge">
<title>c1&#45;&gt;c2</title>
<path fill="none" stroke="#000000" d="M422.8145,-60.0008C438.3541,-68.9966 454.3067,-81.5359 463,-98 470.0558,-111.3627 470.0558,-152.6373 463,-166 453.2879,-184.3935 434.5155,-197.8884 417.3807,-207.0164"/>
<polygon fill="#000000" stroke="#000000" points="415.4874,-204.0493 408.0978,-211.6417 418.6092,-210.3147 415.4874,-204.0493"/>
<text text-anchor="middle" x="423.5" y="-96.3" font-family="Times,serif" font-size="14.00" fill="#000000">eval(Model)</text>
</g>
<!-- c1&#45;&gt;c1 -->
<g id="edge6" class="edge">
<title>c1:w&#45;&gt;c1:w</title>
<path fill="none" stroke="#000000" d="M321,-42C308,-51 282,-51 282,-42 282,-34.8281 298.5103,-33.3713 311.7958,-37.6296"/>
<polygon fill="#000000" stroke="#000000" points="310.4653,-40.8724 321,-42 313.4679,-34.549 310.4653,-40.8724"/>
<text text-anchor="middle" x="255" y="-38.3" font-family="Times,serif" font-size="14.00" fill="#000000">transform</text>
</g>
</g>
</svg>
