<?xml version="1.0" encoding="UTF-8" standalone="no"?>
<!DOCTYPE svg PUBLIC "-//W3C//DTD SVG 1.1//EN"
 "http://www.w3.org/Graphics/SVG/1.1/DTD/svg11.dtd">
<!-- Generated by graphviz version 2.40.1 (20161225.0304)
 -->
<!-- Title: G Pages: 1 -->
<svg width="295pt" height="218pt"
 viewBox="0.00 0.00 295.00 218.00" xmlns="http://www.w3.org/2000/svg" xmlns:xlink="http://www.w3.org/1999/xlink">
<g id="graph0" class="graph" transform="scale(1 1) rotate(0) translate(4 214)">
<title>G</title>
<polygon fill="#ffffff" stroke="transparent" points="-4,4 -4,-214 291,-214 291,4 -4,4"/>
<!-- i -->
<g id="node1" class="node">
<title>i</title>
<ellipse fill="none" stroke="#000000" cx="36" cy="-105" rx="27" ry="18"/>
<text text-anchor="middle" x="36" y="-101.3" font-family="Times,serif" font-size="14.00" fill="#000000">I</text>
</g>
<!-- n -->
<g id="node6" class="node">
<title>n</title>
<ellipse fill="none" stroke="#000000" cx="27" cy="-18" rx="27" ry="18"/>
<text text-anchor="middle" x="27" y="-14.3" font-family="Times,serif" font-size="14.00" fill="#000000">N</text>
</g>
<!-- i&#45;&gt;n -->
<g id="edge5" class="edge">
<title>i&#45;&gt;n</title>
<path fill="none" stroke="#000000" d="M18.1279,-91.1268C11.7745,-85.0955 5.3667,-77.4679 2,-69 -1.6231,-59.887 1.3419,-50.1575 6.3231,-41.6659"/>
<polygon fill="#000000" stroke="#000000" points="9.2653,-43.5643 12.0522,-33.3425 3.4992,-39.5954 9.2653,-43.5643"/>
<text text-anchor="middle" x="5" y="-57.8" font-family="Times,serif" font-size="14.00" fill="#000000">s</text>
</g>
<!-- i&#45;&gt;n -->
<g id="edge6" class="edge">
<title>i&#45;&gt;n</title>
<path fill="none" stroke="#000000" d="M31.3031,-87.1757C29.9839,-81.4167 28.7153,-74.9757 28,-69 27.1129,-61.5891 26.7015,-53.53 26.5488,-46.0529"/>
<polygon fill="#000000" stroke="#000000" points="30.0484,-45.9749 26.4824,-35.9983 23.0486,-46.0212 30.0484,-45.9749"/>
<text text-anchor="middle" x="36" y="-57.8" font-family="Times,serif" font-size="14.00" fill="#000000">i &#160;&#160;</text>
</g>
<!-- i&#45;&gt;n -->
<g id="edge7" class="edge">
<title>i&#45;&gt;n</title>
<path fill="none" stroke="#000000" d="M42.0053,-87.4269C44.5715,-77.5459 46.4709,-65.019 44,-54 43.2741,-50.7627 42.2227,-47.4738 40.9935,-44.2664"/>
<polygon fill="#000000" stroke="#000000" points="44.1551,-42.7615 36.9197,-35.022 37.7495,-45.5843 44.1551,-42.7615"/>
<text text-anchor="middle" x="50.5" y="-57.8" font-family="Times,serif" font-size="14.00" fill="#000000">r </text>
</g>
<!-- m -->
<g id="node2" class="node">
<title>m</title>
<ellipse fill="none" stroke="#000000" cx="151" cy="-192" rx="27" ry="18"/>
<text text-anchor="middle" x="151" y="-188.3" font-family="Times,serif" font-size="14.00" fill="#000000">M</text>
</g>
<!-- m&#45;&gt;i -->
<g id="edge4" class="edge">
<title>m&#45;&gt;i</title>
<path fill="none" stroke="#000000" d="M133.0313,-178.4063C114.07,-164.0616 83.9928,-141.3076 62.3495,-124.934"/>
<polygon fill="#000000" stroke="#000000" points="64.3087,-122.0274 54.2221,-118.7854 60.0854,-127.6099 64.3087,-122.0274"/>
<text text-anchor="middle" x="104.5" y="-144.8" font-family="Times,serif" font-size="14.00" fill="#000000">n</text>
</g>
<!-- p -->
<g id="node3" class="node">
<title>p</title>
<ellipse fill="none" stroke="#000000" cx="116" cy="-105" rx="27" ry="18"/>
<text text-anchor="middle" x="116" y="-101.3" font-family="Times,serif" font-size="14.00" fill="#000000">P</text>
</g>
<!-- m&#45;&gt;p -->
<g id="edge3" class="edge">
<title>m&#45;&gt;p</title>
<path fill="none" stroke="#000000" d="M143.9172,-174.3943C139.0309,-162.2482 132.4409,-145.8674 126.8907,-132.0711"/>
<polygon fill="#000000" stroke="#000000" points="130.0517,-130.5506 123.0722,-122.5796 123.5575,-133.1633 130.0517,-130.5506"/>
<text text-anchor="middle" x="139.5" y="-144.8" font-family="Times,serif" font-size="14.00" fill="#000000">h</text>
</g>
<!-- t -->
<g id="node4" class="node">
<title>t</title>
<ellipse fill="none" stroke="#000000" cx="188" cy="-105" rx="27" ry="18"/>
<text text-anchor="middle" x="188" y="-101.3" font-family="Times,serif" font-size="14.00" fill="#000000">T</text>
</g>
<!-- m&#45;&gt;t -->
<g id="edge2" class="edge">
<title>m&#45;&gt;t</title>
<path fill="none" stroke="#000000" d="M158.4875,-174.3943C163.6531,-162.2482 170.6196,-145.8674 176.487,-132.0711"/>
<polygon fill="#000000" stroke="#000000" points="179.8308,-133.1517 180.5236,-122.5796 173.3891,-130.4121 179.8308,-133.1517"/>
<text text-anchor="middle" x="174.5" y="-144.8" font-family="Times,serif" font-size="14.00" fill="#000000">g</text>
</g>
<!-- c -->
<g id="node5" class="node">
<title>c</title>
<ellipse fill="none" stroke="#000000" cx="260" cy="-105" rx="27" ry="18"/>
<text text-anchor="middle" x="260" y="-101.3" font-family="Times,serif" font-size="14.00" fill="#000000">C</text>
</g>
<!-- m&#45;&gt;c -->
<g id="edge1" class="edge">
<title>m&#45;&gt;c</title>
<path fill="none" stroke="#000000" d="M168.5127,-178.0219C186.3902,-163.7528 214.3213,-141.4592 234.621,-125.2566"/>
<polygon fill="#000000" stroke="#000000" points="236.8984,-127.9171 242.5307,-118.9434 232.5316,-122.4461 236.8984,-127.9171"/>
<text text-anchor="middle" x="214.5" y="-144.8" font-family="Times,serif" font-size="14.00" fill="#000000">f</text>
</g>
<!-- r -->
<g id="node8" class="node">
<title>r</title>
<ellipse fill="none" stroke="#000000" cx="125" cy="-18" rx="27" ry="18"/>
<text text-anchor="middle" x="125" y="-14.3" font-family="Times,serif" font-size="14.00" fill="#000000">R</text>
</g>
<!-- p&#45;&gt;r -->
<g id="edge10" class="edge">
<title>p&#45;&gt;r</title>
<path fill="none" stroke="#000000" d="M104.9863,-88.4875C99.7092,-78.5157 95.267,-65.5445 99,-54 100.3609,-49.7912 102.4178,-45.6607 104.7904,-41.7847"/>
<polygon fill="#000000" stroke="#000000" points="107.8684,-43.4897 110.7202,-33.2859 102.1277,-39.4843 107.8684,-43.4897"/>
<text text-anchor="middle" x="110" y="-57.8" font-family="Times,serif" font-size="14.00" fill="#000000">ğ›½ &#160;&#160;</text>
</g>
<!-- p&#45;&gt;r -->
<g id="edge11" class="edge">
<title>p&#45;&gt;r</title>
<path fill="none" stroke="#000000" d="M118.7036,-87.0809C119.5157,-81.3168 120.3598,-74.8967 121,-69 121.7857,-61.7626 122.4784,-53.9313 123.057,-46.6283"/>
<polygon fill="#000000" stroke="#000000" points="126.5635,-46.6712 123.8207,-36.4375 119.5831,-46.148 126.5635,-46.6712"/>
<text text-anchor="middle" x="134" y="-57.8" font-family="Times,serif" font-size="14.00" fill="#000000">ğ›¾ &#160;&#160;</text>
</g>
<!-- rp -->
<g id="node7" class="node">
<title>rp</title>
<ellipse fill="none" stroke="#000000" cx="205" cy="-18" rx="27" ry="18"/>
<text text-anchor="middle" x="205" y="-14.3" font-family="Times,serif" font-size="14.00" fill="#000000">R+</text>
</g>
<!-- t&#45;&gt;rp -->
<g id="edge8" class="edge">
<title>t&#45;&gt;rp</title>
<path fill="none" stroke="#000000" d="M186.6213,-86.8548C186.306,-77.0197 186.6152,-64.7192 189,-54 189.713,-50.7954 190.7211,-47.5269 191.8886,-44.3311"/>
<polygon fill="#000000" stroke="#000000" points="195.12,-45.6757 195.7335,-35.0986 188.6579,-42.9845 195.12,-45.6757"/>
<text text-anchor="middle" x="198.5" y="-57.8" font-family="Times,serif" font-size="14.00" fill="#000000">tâ‚ &#160;</text>
</g>
<!-- t&#45;&gt;rp -->
<g id="edge9" class="edge">
<title>t&#45;&gt;rp</title>
<path fill="none" stroke="#000000" d="M199.4428,-88.5388C202.8996,-82.6481 206.2424,-75.7827 208,-69 209.8751,-61.7637 210.1904,-53.7643 209.7697,-46.2886"/>
<polygon fill="#000000" stroke="#000000" points="213.2394,-45.8095 208.7707,-36.2032 206.2735,-46.4995 213.2394,-45.8095"/>
<text text-anchor="middle" x="216.5" y="-57.8" font-family="Times,serif" font-size="14.00" fill="#000000">tâ‚‚ </text>
</g>
</g>
</svg>
