<?xml version="1.0" encoding="UTF-8" standalone="no"?>
<!DOCTYPE svg PUBLIC "-//W3C//DTD SVG 1.1//EN"
 "http://www.w3.org/Graphics/SVG/1.1/DTD/svg11.dtd">
<!-- Generated by graphviz version 2.40.1 (20161225.0304)
 -->
<!-- Title: G_code_and_markdown Pages: 1 -->
<svg width="934pt" height="311pt"
 viewBox="0.00 0.00 934.00 311.00" xmlns="http://www.w3.org/2000/svg" xmlns:xlink="http://www.w3.org/1999/xlink">
<g id="graph0" class="graph" transform="scale(1 1) rotate(0) translate(4 307)">
<title>G_code_and_markdown</title>
<polygon fill="#ffffff" stroke="transparent" points="-4,4 -4,-307 930,-307 930,4 -4,4"/>
<!-- 2 -->
<g id="node1" class="node">
<title>2</title>
<polygon fill="none" stroke="#5dade2" points="495,-303 403,-303 403,-267 495,-267 495,-303"/>
<text text-anchor="middle" x="449" y="-281.3" font-family="Times,serif" font-size="14.00" fill="#000000">(β, r, μ, K, α)</text>
</g>
<!-- 3 -->
<g id="node2" class="node">
<title>3</title>
<polygon fill="none" stroke="#ffa500" points="153.5,-303 99.5,-303 99.5,-267 153.5,-267 153.5,-303"/>
<text text-anchor="middle" x="126.5" y="-281.3" font-family="Times,serif" font-size="14.00" fill="#000000">parms</text>
</g>
<!-- 4 -->
<g id="node3" class="node">
<title>4</title>
<polygon fill="none" stroke="#ffa500" points="476,-249 422,-249 422,-213 476,-213 476,-249"/>
<text text-anchor="middle" x="449" y="-227.3" font-family="Times,serif" font-size="14.00" fill="#000000">parms</text>
</g>
<!-- 6 -->
<g id="node4" class="node">
<title>6</title>
<polygon fill="none" stroke="#ffa500" points="677.5,-249 623.5,-249 623.5,-213 677.5,-213 677.5,-249"/>
<text text-anchor="middle" x="650.5" y="-227.3" font-family="Times,serif" font-size="14.00" fill="#000000">r</text>
</g>
<!-- 4&#45;&gt;6 -->
<g id="edge1" class="edge">
<title>4&#45;&gt;6</title>
<path fill="none" stroke="#ffa500" d="M476.1752,-231C511.5767,-231 573.6267,-231 613.3538,-231"/>
<polygon fill="#ffa500" stroke="#ffa500" points="613.4344,-234.5001 623.4343,-231 613.4343,-227.5001 613.4344,-234.5001"/>
<text text-anchor="middle" x="584.5" y="-234.8" font-family="Times,serif" font-size="14.00" fill="#000000">var</text>
</g>
<!-- 11 -->
<g id="node6" class="node">
<title>11</title>
<polygon fill="none" stroke="#ffa500" points="926,-198 753,-198 753,-162 926,-162 926,-198"/>
<text text-anchor="middle" x="839.5" y="-176.3" font-family="Times,serif" font-size="14.00" fill="#000000">r * (1 &#45; S / K) * S &#45; β * S * I</text>
</g>
<!-- 6&#45;&gt;11 -->
<g id="edge10" class="edge">
<title>6&#45;&gt;11</title>
<path fill="none" stroke="#ffa500" stroke-dasharray="5,2" d="M677.5791,-223.6929C699.868,-217.6785 732.5981,-208.8466 762.8087,-200.6945"/>
<polygon fill="#ffa500" stroke="#ffa500" points="763.7696,-204.0605 772.5124,-198.076 761.9458,-197.3022 763.7696,-204.0605"/>
<text text-anchor="middle" x="716.5" y="-220.8" font-family="Times,serif" font-size="14.00" fill="#000000">coccur</text>
</g>
<!-- 10 -->
<g id="node5" class="node">
<title>10</title>
<polygon fill="none" stroke="#ffa500" points="476,-195 422,-195 422,-159 476,-159 476,-195"/>
<text text-anchor="middle" x="449" y="-173.3" font-family="Times,serif" font-size="14.00" fill="#000000">dS</text>
</g>
<!-- 10&#45;&gt;11 -->
<g id="edge2" class="edge">
<title>10&#45;&gt;11</title>
<path fill="none" stroke="#ffa500" d="M476.1492,-177.2086C530.4424,-177.6257 654.7386,-178.5806 742.7937,-179.2571"/>
<polygon fill="#ffa500" stroke="#ffa500" points="742.7804,-182.757 752.807,-179.334 742.8342,-175.7572 742.7804,-182.757"/>
<text text-anchor="middle" x="650.5" y="-181.8" font-family="Times,serif" font-size="14.00" fill="#000000">val</text>
</g>
<!-- 18 -->
<g id="node7" class="node">
<title>18</title>
<polygon fill="none" stroke="#ffa500" points="680,-144 621,-144 621,-108 680,-108 680,-144"/>
<text text-anchor="middle" x="650.5" y="-122.3" font-family="Times,serif" font-size="14.00" fill="#000000">[dS, dI]</text>
</g>
<!-- 10&#45;&gt;18 -->
<g id="edge12" class="edge">
<title>10&#45;&gt;18</title>
<path fill="none" stroke="#ffa500" stroke-dasharray="5,2" d="M476.1752,-170.1219C510.8615,-161.3428 571.1302,-146.0886 610.9189,-136.018"/>
<polygon fill="#ffa500" stroke="#ffa500" points="611.9782,-139.3604 620.8137,-133.5137 610.2606,-132.5744 611.9782,-139.3604"/>
<text text-anchor="middle" x="584.5" y="-149.8" font-family="Times,serif" font-size="14.00" fill="#000000">coccur</text>
</g>
<!-- 20 -->
<g id="node8" class="node">
<title>20</title>
<polygon fill="none" stroke="#ffa500" points="253,-249 0,-249 0,-213 253,-213 253,-249"/>
<text text-anchor="middle" x="126.5" y="-227.3" font-family="Times,serif" font-size="14.00" fill="#000000">ScalingModel.micro_1(du, u, parms, time)</text>
</g>
<!-- 20&#45;&gt;2 -->
<g id="edge3" class="edge">
<title>20&#45;&gt;2</title>
<path fill="none" stroke="#ffa500" d="M234.3362,-249.0563C287.3963,-257.9408 349.1552,-268.2818 392.7711,-275.5849"/>
<polygon fill="#ffa500" stroke="#ffa500" points="392.4567,-279.0809 402.8974,-277.2805 393.6127,-272.177 392.4567,-279.0809"/>
<text text-anchor="middle" x="301.5" y="-267.8" font-family="Times,serif" font-size="14.00" fill="#000000">destructure</text>
</g>
<!-- 20&#45;&gt;4 -->
<g id="edge4" class="edge">
<title>20&#45;&gt;4</title>
<path fill="none" stroke="#ffa500" d="M253.0349,-231C309.8126,-231 372.6185,-231 411.454,-231"/>
<polygon fill="#ffa500" stroke="#ffa500" points="411.7471,-234.5001 421.7471,-231 411.7471,-227.5001 411.7471,-234.5001"/>
<text text-anchor="middle" x="301.5" y="-234.8" font-family="Times,serif" font-size="14.00" fill="#000000">comp</text>
</g>
<!-- 20&#45;&gt;10 -->
<g id="edge5" class="edge">
<title>20&#45;&gt;10</title>
<path fill="none" stroke="#ffa500" d="M234.3362,-212.9437C295.7426,-202.6617 368.7995,-190.4289 411.902,-183.2118"/>
<polygon fill="#ffa500" stroke="#ffa500" points="412.6448,-186.6362 421.9295,-181.5327 411.4888,-179.7323 412.6448,-186.6362"/>
<text text-anchor="middle" x="301.5" y="-208.8" font-family="Times,serif" font-size="14.00" fill="#000000">output</text>
</g>
<!-- 30 -->
<g id="node9" class="node">
<title>30</title>
<polygon fill="none" stroke="#ffa500" points="677.5,-90 623.5,-90 623.5,-54 677.5,-54 677.5,-90"/>
<text text-anchor="middle" x="650.5" y="-68.3" font-family="Times,serif" font-size="14.00" fill="#000000">S</text>
</g>
<!-- 30&#45;&gt;11 -->
<g id="edge11" class="edge">
<title>30&#45;&gt;11</title>
<path fill="none" stroke="#ffa500" stroke-dasharray="5,2" d="M677.5191,-88.7458C684.1841,-92.8074 691.3256,-97.1014 698,-101 731.1021,-120.3355 769.0518,-141.4679 797.3118,-157.0071"/>
<polygon fill="#ffa500" stroke="#ffa500" points="795.6778,-160.1027 806.1282,-161.8463 799.0461,-153.9663 795.6778,-160.1027"/>
<text text-anchor="middle" x="716.5" y="-123.8" font-family="Times,serif" font-size="14.00" fill="#000000">coccur</text>
</g>
<!-- 31 -->
<g id="node10" class="node">
<title>31</title>
<polygon fill="none" stroke="#ffa500" points="866.5,-112 812.5,-112 812.5,-76 866.5,-76 866.5,-112"/>
<text text-anchor="middle" x="839.5" y="-90.3" font-family="Times,serif" font-size="14.00" fill="#000000">Y[1]</text>
</g>
<!-- 30&#45;&gt;31 -->
<g id="edge6" class="edge">
<title>30&#45;&gt;31</title>
<path fill="none" stroke="#ffa500" d="M677.5791,-75.1521C710.28,-78.9585 765.4555,-85.3811 802.1758,-89.6554"/>
<polygon fill="#ffa500" stroke="#ffa500" points="802.1335,-93.174 812.4711,-90.8538 802.9429,-86.221 802.1335,-93.174"/>
<text text-anchor="middle" x="716.5" y="-85.8" font-family="Times,serif" font-size="14.00" fill="#000000">val</text>
</g>
<!-- 37 -->
<g id="node12" class="node">
<title>37</title>
<polygon fill="none" stroke="#ffa500" points="906,-47 773,-47 773,-11 906,-11 906,-47"/>
<text text-anchor="middle" x="839.5" y="-25.3" font-family="Times,serif" font-size="14.00" fill="#000000">(μ &#45; β * S * I) &#45; μ * S</text>
</g>
<!-- 30&#45;&gt;37 -->
<g id="edge13" class="edge">
<title>30&#45;&gt;37</title>
<path fill="none" stroke="#ffa500" stroke-dasharray="5,2" d="M677.5579,-64.302C684.2217,-62.4871 691.353,-60.6128 698,-59 718.9621,-53.9139 741.7877,-48.8635 762.8663,-44.3973"/>
<polygon fill="#ffa500" stroke="#ffa500" points="763.6697,-47.805 772.7352,-42.3216 762.2289,-40.9549 763.6697,-47.805"/>
<text text-anchor="middle" x="716.5" y="-62.8" font-family="Times,serif" font-size="14.00" fill="#000000">coccur</text>
</g>
<!-- 36 -->
<g id="node11" class="node">
<title>36</title>
<polygon fill="none" stroke="#ffa500" points="677.5,-36 623.5,-36 623.5,0 677.5,0 677.5,-36"/>
<text text-anchor="middle" x="650.5" y="-14.3" font-family="Times,serif" font-size="14.00" fill="#000000">dY[1]</text>
</g>
<!-- 36&#45;&gt;37 -->
<g id="edge7" class="edge">
<title>36&#45;&gt;37</title>
<path fill="none" stroke="#ffa500" d="M677.538,-17.7457C694.1314,-17.7323 715.8084,-17.97 735,-19 744.0213,-19.4842 753.4671,-20.1558 762.8347,-20.9241"/>
<polygon fill="#ffa500" stroke="#ffa500" points="762.6826,-24.4238 772.9452,-21.7914 763.2809,-17.4494 762.6826,-24.4238"/>
<text text-anchor="middle" x="716.5" y="-22.8" font-family="Times,serif" font-size="14.00" fill="#000000">val</text>
</g>
<!-- 45 -->
<g id="node13" class="node">
<title>45</title>
<polygon fill="none" stroke="#ffa500" points="548,-63 350,-63 350,-27 548,-27 548,-63"/>
<text text-anchor="middle" x="449" y="-41.3" font-family="Times,serif" font-size="14.00" fill="#000000">SEIRmodel.seir_ode(dY, Y, p, t)</text>
</g>
<!-- 45&#45;&gt;30 -->
<g id="edge8" class="edge">
<title>45&#45;&gt;30</title>
<path fill="none" stroke="#ffa500" d="M548.2742,-58.3023C571.4678,-61.4101 594.7657,-64.5319 613.2497,-67.0086"/>
<polygon fill="#ffa500" stroke="#ffa500" points="612.8888,-70.4915 623.2651,-68.3507 613.8185,-63.5535 612.8888,-70.4915"/>
<text text-anchor="middle" x="584.5" y="-69.8" font-family="Times,serif" font-size="14.00" fill="#000000">takes</text>
</g>
<!-- 45&#45;&gt;36 -->
<g id="edge9" class="edge">
<title>45&#45;&gt;36</title>
<path fill="none" stroke="#ffa500" d="M548.2742,-31.6977C571.4678,-28.5899 594.7657,-25.4681 613.2497,-22.9914"/>
<polygon fill="#ffa500" stroke="#ffa500" points="613.8185,-26.4465 623.2651,-21.6493 612.8888,-19.5085 613.8185,-26.4465"/>
<text text-anchor="middle" x="584.5" y="-33.8" font-family="Times,serif" font-size="14.00" fill="#000000">output</text>
</g>
</g>
</svg>
