<?xml version="1.0" encoding="UTF-8" standalone="no"?>
<!DOCTYPE svg PUBLIC "-//W3C//DTD SVG 1.1//EN"
 "http://www.w3.org/Graphics/SVG/1.1/DTD/svg11.dtd">
<!-- Generated by graphviz version 2.40.1 (20161225.0304)
 -->
<!-- Title: G Pages: 1 -->
<svg width="1107pt" height="628pt"
 viewBox="0.00 0.00 1107.00 628.00" xmlns="http://www.w3.org/2000/svg" xmlns:xlink="http://www.w3.org/1999/xlink">
<g id="graph0" class="graph" transform="scale(1 1) rotate(0) translate(4 624)">
<title>G</title>
<polygon fill="#ffffff" stroke="transparent" points="-4,4 -4,-624 1103,-624 1103,4 -4,4"/>
<g id="clust1" class="cluster">
<title>cluster_0</title>
<polygon fill="#dddddd" stroke="#dddddd" points="8,-398 8,-581 227,-581 227,-398 8,-398"/>
<text text-anchor="middle" x="117.5" y="-565.8" font-family="Times,serif" font-size="14.00" fill="#000000">Artifacts</text>
</g>
<g id="clust2" class="cluster">
<title>cluster_1</title>
<polygon fill="none" stroke="#5dade2" points="310,-390 310,-612 1002,-612 1002,-390 310,-390"/>
<text text-anchor="middle" x="656" y="-596.8" font-family="Times,serif" font-size="14.00" fill="#000000">Components</text>
</g>
<g id="clust3" class="cluster">
<title>cluster_10</title>
<polygon fill="none" stroke="#5dade2" points="318,-452 318,-527 388,-527 388,-452 318,-452"/>
<text text-anchor="middle" x="353" y="-511.8" font-family="Times,serif" font-size="14.00" fill="#000000">Models</text>
</g>
<g id="clust4" class="cluster">
<title>cluster_11</title>
<polygon fill="none" stroke="#5dade2" points="517,-398 517,-581 587,-581 587,-398 517,-398"/>
<text text-anchor="middle" x="552" y="-565.8" font-family="Times,serif" font-size="14.00" fill="#000000">Variables</text>
</g>
<g id="clust5" class="cluster">
<title>cluster_12</title>
<polygon fill="none" stroke="#5dade2" points="859,-479 859,-554 994,-554 994,-479 859,-479"/>
<text text-anchor="middle" x="926.5" y="-538.8" font-family="Times,serif" font-size="14.00" fill="#000000">Equations</text>
</g>
<g id="clust6" class="cluster">
<title>cluster_2</title>
<polygon fill="none" stroke="#66aa55" points="672,-199 672,-382 1091,-382 1091,-199 672,-199"/>
<text text-anchor="middle" x="881.5" y="-366.8" font-family="Times,serif" font-size="14.00" fill="#000000">Concepts</text>
</g>
<g id="clust7" class="cluster">
<title>cluster_3</title>
<polygon fill="none" stroke="#dd1133" points="891.5,-8 891.5,-191 961.5,-191 961.5,-8 891.5,-8"/>
<text text-anchor="middle" x="926.5" y="-175.8" font-family="Times,serif" font-size="14.00" fill="#000000">Values</text>
</g>
<!-- a0 -->
<g id="node1" class="node">
<title>a0</title>
<polygon fill="#ffffff" stroke="#000000" stroke-width="2" points="146.5,-550 88.5,-550 88.5,-514 146.5,-514 146.5,-550"/>
<text text-anchor="middle" x="117.5" y="-528.3" font-family="Times,serif" font-size="14.00" fill="#000000">Paper 1</text>
</g>
<!-- b0 -->
<g id="node4" class="node">
<title>b0</title>
<polygon fill="#dddddd" stroke="#5dade2" stroke-width="2" points="380,-496 326,-496 326,-460 380,-460 380,-496"/>
<text text-anchor="middle" x="353" y="-474.3" font-family="Times,serif" font-size="14.00" fill="#000000">space</text>
</g>
<!-- a0&#45;&gt;b0 -->
<g id="edge5" class="edge">
<title>a0&#45;&gt;b0</title>
<path fill="none" stroke="#000000" d="M146.6107,-528.0349C183.2671,-522.6879 247.986,-512.0679 302,-497 306.6473,-495.7036 311.4697,-494.1684 316.2125,-492.5413"/>
<polygon fill="#000000" stroke="#000000" points="317.5228,-495.7897 325.7543,-489.1194 315.1597,-489.2006 317.5228,-495.7897"/>
<text text-anchor="middle" x="269.5" y="-514.8" font-family="Times,serif" font-size="14.00" fill="#000000">consumes</text>
</g>
<!-- a2 -->
<g id="node2" class="node">
<title>a2</title>
<polygon fill="#ffffff" stroke="#000000" stroke-width="2" points="163.5,-496 71.5,-496 71.5,-460 163.5,-460 163.5,-496"/>
<text text-anchor="middle" x="117.5" y="-474.3" font-family="Times,serif" font-size="14.00" fill="#000000">Space.docs.io</text>
</g>
<!-- a2&#45;&gt;b0 -->
<g id="edge4" class="edge">
<title>a2&#45;&gt;b0</title>
<path fill="none" stroke="#000000" d="M163.7462,-478C208.2309,-478 274.6283,-478 315.7977,-478"/>
<polygon fill="#000000" stroke="#000000" points="315.9444,-481.5001 325.9443,-478 315.9443,-474.5001 315.9444,-481.5001"/>
<text text-anchor="middle" x="269.5" y="-481.8" font-family="Times,serif" font-size="14.00" fill="#000000">describes</text>
</g>
<!-- a3 -->
<g id="node3" class="node">
<title>a3</title>
<polygon fill="#ffffff" stroke="#000000" stroke-width="2" points="219,-442 16,-442 16,-406 219,-406 219,-442"/>
<text text-anchor="middle" x="117.5" y="-420.3" font-family="Times,serif" font-size="14.00" fill="#000000">github.com SpaceModels/Space.jl</text>
</g>
<!-- a3&#45;&gt;b0 -->
<g id="edge15" class="edge">
<title>a3&#45;&gt;b0</title>
<path fill="none" stroke="#000000" d="M219.2379,-440.1108C246.3444,-445.2684 275.4641,-451.5974 302,-459 306.6473,-460.2964 311.4697,-461.8316 316.2125,-463.4587"/>
<polygon fill="#000000" stroke="#000000" points="315.1597,-466.7994 325.7543,-466.8806 317.5228,-460.2103 315.1597,-466.7994"/>
<text text-anchor="middle" x="269.5" y="-462.8" font-family="Times,serif" font-size="14.00" fill="#000000">implements</text>
</g>
<!-- b1 -->
<g id="node5" class="node">
<title>b1</title>
<polygon fill="#dddddd" stroke="#5dade2" stroke-width="2" points="579,-496 525,-496 525,-460 579,-460 579,-496"/>
<text text-anchor="middle" x="552" y="-474.3" font-family="Times,serif" font-size="14.00" fill="#000000">height</text>
</g>
<!-- b0&#45;&gt;b1 -->
<g id="edge6" class="edge">
<title>b0&#45;&gt;b1</title>
<path fill="none" stroke="#000000" d="M380.2528,-478C415.063,-478 475.4698,-478 514.575,-478"/>
<polygon fill="#000000" stroke="#000000" points="514.7578,-481.5001 524.7577,-478 514.7577,-474.5001 514.7578,-481.5001"/>
<text text-anchor="middle" x="452.5" y="-481.8" font-family="Times,serif" font-size="14.00" fill="#000000">composed of</text>
</g>
<!-- b3 -->
<g id="node7" class="node">
<title>b3</title>
<polygon fill="#dddddd" stroke="#5dade2" stroke-width="2" points="579,-550 525,-550 525,-514 579,-514 579,-550"/>
<text text-anchor="middle" x="552" y="-528.3" font-family="Times,serif" font-size="14.00" fill="#000000">width</text>
</g>
<!-- b0&#45;&gt;b3 -->
<g id="edge8" class="edge">
<title>b0&#45;&gt;b3</title>
<path fill="none" stroke="#000000" d="M380.0323,-486.2528C391.4186,-489.6697 404.828,-493.6165 417,-497 449.993,-506.1713 487.7356,-515.8916 514.9097,-522.755"/>
<polygon fill="#000000" stroke="#000000" points="514.2231,-526.1913 524.775,-525.2385 515.932,-519.4031 514.2231,-526.1913"/>
</g>
<!-- b4 -->
<g id="node8" class="node">
<title>b4</title>
<polygon fill="#dddddd" stroke="#5dade2" stroke-width="2" points="579,-442 525,-442 525,-406 579,-406 579,-442"/>
<text text-anchor="middle" x="552" y="-420.3" font-family="Times,serif" font-size="14.00" fill="#000000">area</text>
</g>
<!-- b0&#45;&gt;b4 -->
<g id="edge7" class="edge">
<title>b0&#45;&gt;b4</title>
<path fill="none" stroke="#000000" d="M380.0323,-469.7472C391.4186,-466.3303 404.828,-462.3835 417,-459 449.993,-449.8287 487.7356,-440.1084 514.9097,-433.245"/>
<polygon fill="#000000" stroke="#000000" points="515.932,-436.5969 524.775,-430.7615 514.2231,-429.8087 515.932,-436.5969"/>
<text text-anchor="middle" x="452.5" y="-462.8" font-family="Times,serif" font-size="14.00" fill="#000000">returns</text>
</g>
<!-- b2 -->
<g id="node6" class="node">
<title>b2</title>
<polygon fill="#dddddd" stroke="#5dade2" stroke-width="2" points="986,-523 867,-523 867,-487 986,-487 986,-523"/>
<text text-anchor="middle" x="926.5" y="-501.3" font-family="Times,serif" font-size="14.00" fill="#000000">area=height*width</text>
</g>
<!-- b1&#45;&gt;b2 -->
<g id="edge1" class="edge">
<title>b1&#45;&gt;b2</title>
<path fill="none" stroke="#000000" d="M579.2348,-479.9635C636.9184,-484.1223 772.9652,-493.9307 856.627,-499.9624"/>
<polygon fill="#000000" stroke="#000000" points="856.5866,-503.4685 866.8125,-500.6968 857.0901,-496.4866 856.5866,-503.4685"/>
<text text-anchor="middle" x="725" y="-496.8" font-family="Times,serif" font-size="14.00" fill="#000000">term of</text>
</g>
<!-- d2 -->
<g id="node14" class="node">
<title>d2</title>
<polygon fill="#dddddd" stroke="#dd1133" stroke-width="2" points="953.5,-106 899.5,-106 899.5,-70 953.5,-70 953.5,-106"/>
<text text-anchor="middle" x="926.5" y="-84.3" font-family="Times,serif" font-size="14.00" fill="#000000">3m</text>
</g>
<!-- b1&#45;&gt;d2 -->
<g id="edge11" class="edge">
<title>b1&#45;&gt;d2</title>
<path fill="none" stroke="#000000" d="M579.1059,-461.3069C582.2511,-458.2621 585.0326,-454.8208 587,-451 600.6415,-424.5073 581.711,-208.5773 597,-183 656.5387,-83.3962 816.4264,-80.3938 889.3402,-84.6322"/>
<polygon fill="#000000" stroke="#000000" points="889.2357,-88.1328 899.4446,-85.2994 889.697,-81.148 889.2357,-88.1328"/>
</g>
<!-- b3&#45;&gt;b2 -->
<g id="edge2" class="edge">
<title>b3&#45;&gt;b2</title>
<path fill="none" stroke="#000000" d="M579.2348,-530.0365C636.9184,-525.8777 772.9652,-516.0693 856.627,-510.0376"/>
<polygon fill="#000000" stroke="#000000" points="857.0901,-513.5134 866.8125,-509.3032 856.5866,-506.5315 857.0901,-513.5134"/>
</g>
<!-- c0 -->
<g id="node9" class="node">
<title>c0</title>
<polygon fill="#dddddd" stroke="#66aa55" stroke-width="2" points="770,-351 680,-351 680,-315 770,-315 770,-351"/>
<text text-anchor="middle" x="725" y="-329.3" font-family="Times,serif" font-size="14.00" fill="#000000">measurement</text>
</g>
<!-- b3&#45;&gt;c0 -->
<g id="edge9" class="edge">
<title>b3&#45;&gt;c0</title>
<path fill="none" stroke="#000000" d="M577.0911,-513.8217C580.5319,-510.9947 583.9323,-508.0097 587,-505 634.867,-458.0379 681.835,-394.8198 706.7261,-359.5752"/>
<polygon fill="#000000" stroke="#000000" points="709.6918,-361.442 712.5657,-351.2444 703.9597,-357.424 709.6918,-361.442"/>
<text text-anchor="middle" x="629.5" y="-495.8" font-family="Times,serif" font-size="14.00" fill="#000000">implements</text>
</g>
<!-- c1 -->
<g id="node10" class="node">
<title>c1</title>
<polygon fill="#dddddd" stroke="#66aa55" stroke-width="2" points="752,-297 698,-297 698,-261 752,-261 752,-297"/>
<text text-anchor="middle" x="725" y="-275.3" font-family="Times,serif" font-size="14.00" fill="#000000">meters</text>
</g>
<!-- b3&#45;&gt;c1 -->
<g id="edge13" class="edge">
<title>b3&#45;&gt;c1</title>
<path fill="none" stroke="#000000" d="M579.1743,-514.8349C582.223,-511.8939 584.9598,-508.6071 587,-505 605.9439,-471.5064 583.7744,-455.1355 597,-419 617.7176,-362.3947 627.0025,-346.1075 672,-306 676.9577,-301.581 682.7694,-297.6783 688.6931,-294.3113"/>
<polygon fill="#000000" stroke="#000000" points="690.7392,-297.1917 697.9874,-289.4642 687.5022,-290.9851 690.7392,-297.1917"/>
</g>
<!-- d1 -->
<g id="node13" class="node">
<title>d1</title>
<polygon fill="#dddddd" stroke="#dd1133" stroke-width="2" points="953.5,-160 899.5,-160 899.5,-124 953.5,-124 953.5,-160"/>
<text text-anchor="middle" x="926.5" y="-138.3" font-family="Times,serif" font-size="14.00" fill="#000000">5m</text>
</g>
<!-- b3&#45;&gt;d1 -->
<g id="edge10" class="edge">
<title>b3&#45;&gt;d1</title>
<path fill="none" stroke="#000000" d="M579.0563,-515.2811C582.2088,-512.2401 585.0055,-508.8068 587,-505 607.0342,-466.7621 584.8325,-352.4181 597,-311 615.9099,-246.6311 616.611,-217.8549 672,-180 738.0435,-134.8634 836.2108,-134.2781 889.2513,-138.0032"/>
<polygon fill="#000000" stroke="#000000" points="888.9898,-141.4933 899.2349,-138.7937 889.5424,-134.5152 888.9898,-141.4933"/>
<text text-anchor="middle" x="725" y="-183.8" font-family="Times,serif" font-size="14.00" fill="#000000">assigned</text>
</g>
<!-- d3 -->
<g id="node15" class="node">
<title>d3</title>
<polygon fill="#dddddd" stroke="#dd1133" stroke-width="2" points="953.5,-52 899.5,-52 899.5,-16 953.5,-16 953.5,-52"/>
<text text-anchor="middle" x="926.5" y="-30.3" font-family="Times,serif" font-size="14.00" fill="#000000">15m</text>
</g>
<!-- b4&#45;&gt;d3 -->
<g id="edge12" class="edge">
<title>b4&#45;&gt;d3</title>
<path fill="none" stroke="#000000" d="M552.4243,-405.6834C554.1279,-346.8252 562.1763,-163.699 597,-118 666.0886,-27.3351 818.4072,-25.6512 889.0994,-30.2991"/>
<polygon fill="#000000" stroke="#000000" points="889.088,-33.8077 899.3186,-31.0537 889.6036,-26.8267 889.088,-33.8077"/>
</g>
<!-- c2 -->
<g id="node11" class="node">
<title>c2</title>
<polygon fill="#dddddd" stroke="#66aa55" stroke-width="2" points="1083,-297 1029,-297 1029,-261 1083,-261 1083,-297"/>
<text text-anchor="middle" x="1056" y="-275.3" font-family="Times,serif" font-size="14.00" fill="#000000">unit</text>
</g>
<!-- c1&#45;&gt;c2 -->
<g id="edge3" class="edge">
<title>c1&#45;&gt;c2</title>
<path fill="none" stroke="#000000" d="M752.0871,-279C811.0038,-279 950.9094,-279 1018.359,-279"/>
<polygon fill="#000000" stroke="#000000" points="1018.5386,-282.5001 1028.5386,-279 1018.5386,-275.5001 1018.5386,-282.5001"/>
<text text-anchor="middle" x="926.5" y="-282.8" font-family="Times,serif" font-size="14.00" fill="#000000">subconcept</text>
</g>
<!-- c1&#45;&gt;d1 -->
<g id="edge14" class="edge">
<title>c1&#45;&gt;d1</title>
<path fill="none" stroke="#000000" d="M752.3231,-263.0366C758.2032,-259.4818 764.3478,-255.6752 770,-252 813.5184,-223.7031 862.2367,-188.9535 893.582,-166.1796"/>
<polygon fill="#000000" stroke="#000000" points="895.9212,-168.8059 901.9436,-160.0891 891.7998,-163.1477 895.9212,-168.8059"/>
<text text-anchor="middle" x="818.5" y="-240.8" font-family="Times,serif" font-size="14.00" fill="#000000">instantiates</text>
</g>
<!-- c3 -->
<g id="node12" class="node">
<title>c3</title>
<polygon fill="#dddddd" stroke="#66aa55" stroke-width="2" points="752,-243 698,-243 698,-207 752,-207 752,-243"/>
<text text-anchor="middle" x="725" y="-221.3" font-family="Times,serif" font-size="14.00" fill="#000000">grams</text>
</g>
</g>
</svg>
