<?xml version="1.0" encoding="UTF-8" standalone="no"?>
<!DOCTYPE svg PUBLIC "-//W3C//DTD SVG 1.1//EN"
 "http://www.w3.org/Graphics/SVG/1.1/DTD/svg11.dtd">
<!-- Generated by graphviz version 2.40.1 (20161225.0304)
 -->
<!-- Title: G Pages: 1 -->
<svg width="409pt" height="479pt"
 viewBox="0.00 0.00 408.58 479.00" xmlns="http://www.w3.org/2000/svg" xmlns:xlink="http://www.w3.org/1999/xlink">
<g id="graph0" class="graph" transform="scale(1 1) rotate(0) translate(4 475)">
<title>G</title>
<polygon fill="#ffffff" stroke="transparent" points="-4,4 -4,-475 404.5779,-475 404.5779,4 -4,4"/>
<!-- 1 -->
<g id="node1" class="node">
<title>1</title>
<ellipse fill="#ffe7e1" stroke="#000000" cx="274.489" cy="-453" rx="126.1777" ry="18"/>
<text text-anchor="middle" x="274.489" y="-449.3" font-family="Times,serif" font-size="14.00" fill="#000000">(StateModel, Int64, Susceptible)</text>
</g>
<!-- 4 -->
<g id="node4" class="node">
<title>4</title>
<ellipse fill="#dff1fc" stroke="#000000" cx="170.489" cy="-366" rx="39.7935" ry="18"/>
<text text-anchor="middle" x="170.489" y="-362.3" font-family="Times,serif" font-size="14.00" fill="#000000">Infected</text>
</g>
<!-- 1&#45;&gt;4 -->
<g id="edge1" class="edge">
<title>1&#45;&gt;4</title>
<path fill="none" stroke="#000000" d="M236.356,-435.8175C226.7204,-430.5337 216.7684,-424.1871 208.489,-417 200.2341,-409.8341 192.6809,-400.5835 186.5212,-391.9322"/>
<polygon fill="#000000" stroke="#000000" points="189.364,-389.8881 180.8517,-383.5801 183.5723,-393.8197 189.364,-389.8881"/>
<text text-anchor="middle" x="234.489" y="-405.8" font-family="Times,serif" font-size="14.00" fill="#000000">transition</text>
</g>
<!-- 5 -->
<g id="node5" class="node">
<title>5</title>
<ellipse fill="#dff1fc" stroke="#000000" cx="274.489" cy="-18" rx="51.1914" ry="18"/>
<text text-anchor="middle" x="274.489" y="-14.3" font-family="Times,serif" font-size="14.00" fill="#000000">Susceptible</text>
</g>
<!-- 1&#45;&gt;5 -->
<g id="edge2" class="edge">
<title>1&#45;&gt;5</title>
<path fill="none" stroke="#000000" d="M274.489,-434.6694C274.489,-417.0629 274.489,-389.7135 274.489,-366 274.489,-366 274.489,-366 274.489,-105 274.489,-85.5475 274.489,-63.6484 274.489,-46.6877"/>
<polygon fill="#000000" stroke="#000000" points="277.9891,-46.3305 274.489,-36.3306 270.9891,-46.3306 277.9891,-46.3305"/>
<text text-anchor="middle" x="300.489" y="-231.8" font-family="Times,serif" font-size="14.00" fill="#000000">transition</text>
</g>
<!-- 2 -->
<g id="node2" class="node">
<title>2</title>
<ellipse fill="#ffe7e1" stroke="#000000" cx="123.489" cy="-105" rx="123.4781" ry="18"/>
<text text-anchor="middle" x="123.489" y="-101.3" font-family="Times,serif" font-size="14.00" fill="#000000">(StateModel, Int64, Recovered)</text>
</g>
<!-- 2&#45;&gt;5 -->
<g id="edge3" class="edge">
<title>2&#45;&gt;5</title>
<path fill="none" stroke="#000000" d="M152.0377,-87.4721C168.4533,-77.494 189.5208,-64.8576 208.489,-54 217.76,-48.6933 227.8488,-43.1001 237.2851,-37.9461"/>
<polygon fill="#000000" stroke="#000000" points="238.97,-41.014 246.0842,-33.1629 235.6268,-34.8639 238.97,-41.014"/>
<text text-anchor="middle" x="234.489" y="-57.8" font-family="Times,serif" font-size="14.00" fill="#000000">transition</text>
</g>
<!-- 6 -->
<g id="node6" class="node">
<title>6</title>
<ellipse fill="#dff1fc" stroke="#000000" cx="132.489" cy="-192" rx="48.1917" ry="18"/>
<text text-anchor="middle" x="132.489" y="-188.3" font-family="Times,serif" font-size="14.00" fill="#000000">Recovered</text>
</g>
<!-- 2&#45;&gt;6 -->
<g id="edge4" class="edge">
<title>2&#45;&gt;6</title>
<path fill="none" stroke="#000000" d="M125.3515,-123.0034C126.5697,-134.7801 128.1866,-150.4102 129.5734,-163.8156"/>
<polygon fill="#000000" stroke="#000000" points="126.1137,-164.3868 130.6242,-173.9735 133.0766,-163.6664 126.1137,-164.3868"/>
<text text-anchor="middle" x="155.489" y="-144.8" font-family="Times,serif" font-size="14.00" fill="#000000">transition</text>
</g>
<!-- 3 -->
<g id="node3" class="node">
<title>3</title>
<ellipse fill="#ffe7e1" stroke="#000000" cx="132.489" cy="-279" rx="114.2798" ry="18"/>
<text text-anchor="middle" x="132.489" y="-275.3" font-family="Times,serif" font-size="14.00" fill="#000000">(StateModel, Int64, Infected)</text>
</g>
<!-- 3&#45;&gt;4 -->
<g id="edge5" class="edge">
<title>3&#45;&gt;4</title>
<path fill="none" stroke="#000000" d="M140.6675,-297.297C143.1888,-302.9656 145.9651,-309.2361 148.489,-315 151.8614,-322.7013 155.4885,-331.0725 158.8057,-338.7639"/>
<polygon fill="#000000" stroke="#000000" points="155.6305,-340.2399 162.7991,-348.0413 162.0601,-337.4723 155.6305,-340.2399"/>
<text text-anchor="middle" x="181.489" y="-318.8" font-family="Times,serif" font-size="14.00" fill="#000000">transition</text>
</g>
<!-- 3&#45;&gt;6 -->
<g id="edge6" class="edge">
<title>3&#45;&gt;6</title>
<path fill="none" stroke="#000000" d="M132.489,-260.9735C132.489,-249.1918 132.489,-233.5607 132.489,-220.1581"/>
<polygon fill="#000000" stroke="#000000" points="135.9891,-220.0033 132.489,-210.0034 128.9891,-220.0034 135.9891,-220.0033"/>
<text text-anchor="middle" x="158.489" y="-231.8" font-family="Times,serif" font-size="14.00" fill="#000000">transition</text>
</g>
<!-- 4&#45;&gt;3 -->
<g id="edge7" class="edge">
<title>4&#45;&gt;3</title>
<path fill="none" stroke="#000000" stroke-dasharray="5,2" d="M139.3121,-344.1107C135.3306,-339.9058 131.8331,-335.1776 129.489,-330 124.8799,-319.8192 125.5346,-307.3055 127.3882,-297.2215"/>
<polygon fill="#000000" stroke="#000000" points="137.1419,-346.8713 146.8568,-351.0987 141.8985,-341.7357 137.1419,-346.8713"/>
<text text-anchor="middle" x="136.989" y="-318.8" font-family="Times,serif" font-size="14.00" fill="#000000">π3</text>
</g>
<!-- 5&#45;&gt;1 -->
<g id="edge8" class="edge">
<title>5&#45;&gt;1</title>
<path fill="none" stroke="#000000" stroke-dasharray="5,2" d="M308.7619,-39.7714C328.5234,-55.2385 349.489,-78.0084 349.489,-105 349.489,-366 349.489,-366 349.489,-366 349.489,-395.514 324.4219,-419.9803 303.2715,-435.3709"/>
<polygon fill="#000000" stroke="#000000" points="310.8362,-36.9522 300.7204,-33.8023 306.6639,-42.573 310.8362,-36.9522"/>
<text text-anchor="middle" x="356.989" y="-231.8" font-family="Times,serif" font-size="14.00" fill="#000000">π3</text>
</g>
<!-- 6&#45;&gt;2 -->
<g id="edge9" class="edge">
<title>6&#45;&gt;2</title>
<path fill="none" stroke="#000000" stroke-dasharray="5,2" d="M112.712,-166.0411C110.9956,-162.793 109.5216,-159.4104 108.489,-156 105.1727,-145.0469 108.5883,-132.739 112.9925,-122.9586"/>
<polygon fill="#000000" stroke="#000000" points="109.8293,-168.0363 118.0256,-174.7498 115.8048,-164.3903 109.8293,-168.0363"/>
<text text-anchor="middle" x="115.989" y="-144.8" font-family="Times,serif" font-size="14.00" fill="#000000">π3</text>
</g>
</g>
</svg>
