<?xml version="1.0" encoding="UTF-8" standalone="no"?>
<!DOCTYPE svg PUBLIC "-//W3C//DTD SVG 1.1//EN"
 "http://www.w3.org/Graphics/SVG/1.1/DTD/svg11.dtd">
<!-- Generated by graphviz version 2.40.1 (20161225.0304)
 -->
<!-- Title: G Pages: 1 -->
<svg width="768pt" height="218pt"
 viewBox="0.00 0.00 768.00 218.00" xmlns="http://www.w3.org/2000/svg" xmlns:xlink="http://www.w3.org/1999/xlink">
<g id="graph0" class="graph" transform="scale(1 1) rotate(0) translate(4 214)">
<title>G</title>
<polygon fill="#ffffff" stroke="transparent" points="-4,4 -4,-214 764,-214 764,4 -4,4"/>
<!-- p -->
<g id="node1" class="node">
<title>p</title>
<polygon fill="none" stroke="#000000" points="380.5,-36 285.5,-36 285.5,0 380.5,0 380.5,-36"/>
<text text-anchor="middle" x="333" y="-14.3" font-family="Times,serif" font-size="14.00" fill="#000000">Vector{Float}</text>
</g>
<!-- m -->
<g id="node2" class="node">
<title>m</title>
<polygon fill="none" stroke="#000000" points="309.5,-210 218.5,-210 218.5,-174 309.5,-174 309.5,-210"/>
<text text-anchor="middle" x="264" y="-188.3" font-family="Times,serif" font-size="14.00" fill="#000000">ODEProblem</text>
</g>
<!-- m&#45;&gt;p -->
<g id="edge8" class="edge">
<title>m&#45;&gt;p</title>
<path fill="none" stroke="#000000" d="M276.5838,-173.9872C285.549,-160.4725 297.3243,-141.2374 305,-123 315.5662,-97.8949 323.12,-67.7107 327.6986,-46.161"/>
<polygon fill="#000000" stroke="#000000" points="331.1333,-46.8343 329.7074,-36.3358 324.2752,-45.4321 331.1333,-46.8343"/>
<text text-anchor="middle" x="336" y="-101.3" font-family="Times,serif" font-size="14.00" fill="#000000">.initial</text>
</g>
<!-- m&#45;&gt;p -->
<g id="edge11" class="edge">
<title>m&#45;&gt;p</title>
<path fill="none" stroke="#000000" d="M233.0818,-173.9396C202.3195,-153.5672 162.4439,-119.0825 183,-87 203.251,-55.3938 242.0341,-38.0678 275.0906,-28.6828"/>
<polygon fill="#000000" stroke="#000000" points="276.37,-31.9645 285.1388,-26.0181 274.5757,-25.1984 276.37,-31.9645"/>
<text text-anchor="middle" x="202.5" y="-101.3" font-family="Times,serif" font-size="14.00" fill="#000000">.param</text>
</g>
<!-- func -->
<g id="node3" class="node">
<title>func</title>
<polygon fill="none" stroke="#000000" points="296.5,-123 231.5,-123 231.5,-87 296.5,-87 296.5,-123"/>
<text text-anchor="middle" x="264" y="-101.3" font-family="Times,serif" font-size="14.00" fill="#000000">Function</text>
</g>
<!-- m&#45;&gt;func -->
<g id="edge1" class="edge">
<title>m&#45;&gt;func</title>
<path fill="none" stroke="#000000" d="M264,-173.9735C264,-162.1918 264,-146.5607 264,-133.1581"/>
<polygon fill="#000000" stroke="#000000" points="267.5001,-133.0033 264,-123.0034 260.5001,-133.0034 267.5001,-133.0033"/>
<text text-anchor="middle" x="268.5" y="-144.8" font-family="Times,serif" font-size="14.00" fill="#000000">.f</text>
</g>
<!-- t -->
<g id="node4" class="node">
<title>t</title>
<polygon fill="none" stroke="#000000" points="137.5,-123 22.5,-123 22.5,-87 137.5,-87 137.5,-123"/>
<text text-anchor="middle" x="80" y="-101.3" font-family="Times,serif" font-size="14.00" fill="#000000">Pair{Float, Float}</text>
</g>
<!-- m&#45;&gt;t -->
<g id="edge10" class="edge">
<title>m&#45;&gt;t</title>
<path fill="none" stroke="#000000" d="M218.4826,-184.8345C180.7712,-178.223 130.7474,-167.6844 114,-156 105.3205,-149.9444 98.2533,-140.8968 92.8558,-132.0958"/>
<polygon fill="#000000" stroke="#000000" points="95.7823,-130.1588 87.8377,-123.1493 89.6771,-133.5832 95.7823,-130.1588"/>
<text text-anchor="middle" x="137" y="-144.8" font-family="Times,serif" font-size="14.00" fill="#000000">.domain</text>
</g>
<!-- c -->
<g id="node5" class="node">
<title>c</title>
<polygon fill="none" stroke="#000000" points="449,-123 387,-123 387,-87 449,-87 449,-123"/>
<text text-anchor="middle" x="418" y="-101.3" font-family="Times,serif" font-size="14.00" fill="#000000">Solution</text>
</g>
<!-- m&#45;&gt;c -->
<g id="edge9" class="edge">
<title>m&#45;&gt;c</title>
<path fill="none" stroke="#000000" d="M309.6501,-174.2769C322.0295,-168.9157 335.2514,-162.6657 347,-156 360.8355,-148.1502 375.2434,-138.1792 387.4358,-129.1397"/>
<polygon fill="#000000" stroke="#000000" points="389.611,-131.8831 395.4885,-123.068 385.3966,-126.2939 389.611,-131.8831"/>
<text text-anchor="middle" x="390.5" y="-144.8" font-family="Times,serif" font-size="14.00" fill="#000000"> &#160;solve!</text>
</g>
<!-- t1 -->
<g id="node11" class="node">
<title>t1</title>
<polygon fill="none" stroke="#000000" points="54,-36 0,-36 0,0 54,0 54,-36"/>
<text text-anchor="middle" x="27" y="-14.3" font-family="Times,serif" font-size="14.00" fill="#000000">Float</text>
</g>
<!-- t&#45;&gt;t1 -->
<g id="edge14" class="edge">
<title>t&#45;&gt;t1</title>
<path fill="none" stroke="#000000" d="M69.0184,-86.9735C61.5567,-74.7252 51.5606,-58.3165 43.1903,-44.5766"/>
<polygon fill="#000000" stroke="#000000" points="46.1592,-42.7225 37.9676,-36.0034 40.1812,-46.3644 46.1592,-42.7225"/>
<text text-anchor="middle" x="70" y="-57.8" font-family="Times,serif" font-size="14.00" fill="#000000">.first</text>
</g>
<!-- t2 -->
<g id="node12" class="node">
<title>t2</title>
<polygon fill="none" stroke="#000000" points="126,-36 72,-36 72,0 126,0 126,-36"/>
<text text-anchor="middle" x="99" y="-14.3" font-family="Times,serif" font-size="14.00" fill="#000000">Float</text>
</g>
<!-- t&#45;&gt;t2 -->
<g id="edge15" class="edge">
<title>t&#45;&gt;t2</title>
<path fill="none" stroke="#000000" d="M83.9368,-86.9735C86.5098,-75.1918 89.9235,-59.5607 92.8505,-46.1581"/>
<polygon fill="#000000" stroke="#000000" points="96.3539,-46.5199 95.0682,-36.0034 89.5151,-45.0263 96.3539,-46.5199"/>
<text text-anchor="middle" x="112" y="-57.8" font-family="Times,serif" font-size="14.00" fill="#000000">.second</text>
</g>
<!-- c&#45;&gt;p -->
<g id="edge7" class="edge">
<title>c&#45;&gt;p</title>
<path fill="none" stroke="#000000" d="M389.3841,-86.973C382.0035,-81.6539 374.3561,-75.5012 368,-69 360.9432,-61.7821 354.3498,-52.9887 348.831,-44.75"/>
<polygon fill="#000000" stroke="#000000" points="351.6424,-42.6507 343.2931,-36.1286 345.7528,-46.4339 351.6424,-42.6507"/>
<text text-anchor="middle" x="372" y="-57.8" font-family="Times,serif" font-size="14.00" fill="#000000">.t</text>
</g>
<!-- vv -->
<g id="node8" class="node">
<title>vv</title>
<polygon fill="none" stroke="#000000" points="543.5,-36 398.5,-36 398.5,0 543.5,0 543.5,-36"/>
<text text-anchor="middle" x="471" y="-14.3" font-family="Times,serif" font-size="14.00" fill="#000000">Vector{Vector{Float}}</text>
</g>
<!-- c&#45;&gt;vv -->
<g id="edge5" class="edge">
<title>c&#45;&gt;vv</title>
<path fill="none" stroke="#000000" d="M432.6428,-86.7463C436.8387,-81.1875 441.2801,-74.9667 445,-69 449.6352,-61.5652 454.1612,-53.2032 458.1036,-45.4341"/>
<polygon fill="#000000" stroke="#000000" points="461.2982,-46.8695 462.5911,-36.3538 455.0228,-43.7681 461.2982,-46.8695"/>
<text text-anchor="middle" x="459.5" y="-57.8" font-family="Times,serif" font-size="14.00" fill="#000000">.u</text>
</g>
<!-- S -->
<g id="node6" class="node">
<title>S</title>
<polygon fill="none" stroke="#000000" points="688,-123 634,-123 634,-87 688,-87 688,-123"/>
<text text-anchor="middle" x="661" y="-101.3" font-family="Times,serif" font-size="14.00" fill="#000000">(v, i)</text>
</g>
<!-- n -->
<g id="node9" class="node">
<title>n</title>
<polygon fill="none" stroke="#000000" points="616,-36 562,-36 562,0 616,0 616,-36"/>
<text text-anchor="middle" x="589" y="-14.3" font-family="Times,serif" font-size="14.00" fill="#000000">Int+</text>
</g>
<!-- S&#45;&gt;n -->
<g id="edge13" class="edge">
<title>S&#45;&gt;n</title>
<path fill="none" stroke="#000000" d="M646.0816,-86.9735C635.7519,-74.4919 621.8468,-57.6899 610.3471,-43.7944"/>
<polygon fill="#000000" stroke="#000000" points="612.9714,-41.4758 603.8993,-36.0034 607.5787,-45.9388 612.9714,-41.4758"/>
<text text-anchor="middle" x="636" y="-57.8" font-family="Times,serif" font-size="14.00" fill="#000000"> &#160;i</text>
</g>
<!-- i -->
<g id="node10" class="node">
<title>i</title>
<polygon fill="none" stroke="#000000" points="688,-36 634,-36 634,0 688,0 688,-36"/>
<text text-anchor="middle" x="661" y="-14.3" font-family="Times,serif" font-size="14.00" fill="#000000">i</text>
</g>
<!-- S&#45;&gt;i -->
<g id="edge4" class="edge">
<title>S&#45;&gt;i</title>
<path fill="none" stroke="#000000" d="M661,-86.9735C661,-75.1918 661,-59.5607 661,-46.1581"/>
<polygon fill="#000000" stroke="#000000" points="664.5001,-46.0033 661,-36.0034 657.5001,-46.0034 664.5001,-46.0033"/>
<text text-anchor="middle" x="664.5" y="-57.8" font-family="Times,serif" font-size="14.00" fill="#000000">v</text>
</g>
<!-- I -->
<g id="node13" class="node">
<title>I</title>
<polygon fill="none" stroke="#000000" points="760,-36 706,-36 706,0 760,0 760,-36"/>
<text text-anchor="middle" x="733" y="-14.3" font-family="Times,serif" font-size="14.00" fill="#000000">I</text>
</g>
<!-- S&#45;&gt;I -->
<g id="edge12" class="edge">
<title>S&#45;&gt;I</title>
<path fill="none" stroke="#000000" d="M675.9184,-86.9735C686.2481,-74.4919 700.1532,-57.6899 711.6529,-43.7944"/>
<polygon fill="#000000" stroke="#000000" points="714.4213,-45.9388 718.1007,-36.0034 709.0286,-41.4758 714.4213,-45.9388"/>
<text text-anchor="middle" x="725.5" y="-57.8" font-family="Times,serif" font-size="14.00" fill="#000000">getindex</text>
</g>
<!-- U -->
<g id="node7" class="node">
<title>U</title>
<polygon fill="none" stroke="#000000" points="528,-123 474,-123 474,-87 528,-87 528,-123"/>
<text text-anchor="middle" x="501" y="-101.3" font-family="Times,serif" font-size="14.00" fill="#000000">(vv, i)</text>
</g>
<!-- U&#45;&gt;p -->
<g id="edge6" class="edge">
<title>U&#45;&gt;p</title>
<path fill="none" stroke="#000000" d="M473.8979,-93.0652C468.6666,-90.9297 463.1967,-88.8109 458,-87 430.0975,-77.277 420.1369,-82.7823 394,-69 392.0374,-67.9651 376.6564,-55.1028 361.8321,-42.5558"/>
<polygon fill="#000000" stroke="#000000" points="364.0952,-39.8859 354.2046,-36.0876 359.5678,-45.2247 364.0952,-39.8859"/>
<text text-anchor="middle" x="417.5" y="-57.8" font-family="Times,serif" font-size="14.00" fill="#000000">getindex</text>
</g>
<!-- U&#45;&gt;vv -->
<g id="edge2" class="edge">
<title>U&#45;&gt;vv</title>
<path fill="none" stroke="#000000" d="M494.784,-86.9735C490.6811,-75.0751 485.2244,-59.2508 480.5726,-45.7606"/>
<polygon fill="#000000" stroke="#000000" points="483.7768,-44.3161 477.2081,-36.0034 477.1592,-46.5981 483.7768,-44.3161"/>
<text text-anchor="middle" x="497" y="-57.8" font-family="Times,serif" font-size="14.00" fill="#000000"> vv</text>
</g>
<!-- U&#45;&gt;n -->
<g id="edge3" class="edge">
<title>U&#45;&gt;n</title>
<path fill="none" stroke="#000000" d="M519.2337,-86.9735C531.9768,-74.3752 549.1719,-57.3755 563.3024,-43.4055"/>
<polygon fill="#000000" stroke="#000000" points="566.139,-45.5229 570.7897,-36.0034 561.2176,-40.545 566.139,-45.5229"/>
<text text-anchor="middle" x="555" y="-57.8" font-family="Times,serif" font-size="14.00" fill="#000000"> i</text>
</g>
</g>
</svg>
