<?xml version="1.0" encoding="UTF-8" standalone="no"?>
<!DOCTYPE svg PUBLIC "-//W3C//DTD SVG 1.1//EN"
 "http://www.w3.org/Graphics/SVG/1.1/DTD/svg11.dtd">
<!-- Generated by graphviz version 2.36.0 (20140111.2315)
 -->
<!-- Title: G_code_and_markdown Pages: 1 -->
<svg width="1046pt" height="1283pt"
 viewBox="0.00 0.00 1046.00 1283.00" xmlns="http://www.w3.org/2000/svg" xmlns:xlink="http://www.w3.org/1999/xlink">
<g id="graph0" class="graph" transform="scale(1 1) rotate(0) translate(4 1279)">
<title>G_code_and_markdown</title>
<polygon fill="white" stroke="none" points="-4,4 -4,-1279 1042,-1279 1042,4 -4,4"/>
<!-- 2 -->
<g id="node1" class="node"><title>2</title>
<polygon fill="none" stroke="#5dade2" points="509,-1005 417,-1005 417,-969 509,-969 509,-1005"/>
<text text-anchor="middle" x="463" y="-983.3" font-family="Times,serif" font-size="14.00">(β, r, μ, K, α)</text>
</g>
<!-- 3 -->
<g id="node2" class="node"><title>3</title>
<polygon fill="none" stroke="orange" points="750,-1059 696,-1059 696,-1023 750,-1023 750,-1059"/>
<text text-anchor="middle" x="723" y="-1037.3" font-family="Times,serif" font-size="14.00">parms</text>
</g>
<!-- 2&#45;&gt;3 -->
<g id="edge1" class="edge"><title>2&#45;&gt;3</title>
<path fill="none" stroke="orange" d="M509.235,-996.468C559.485,-1006.99 639.609,-1023.76 685.857,-1033.44"/>
<polygon fill="orange" stroke="orange" points="685.237,-1036.88 695.742,-1035.5 686.671,-1030.03 685.237,-1036.88"/>
<text text-anchor="middle" x="615" y="-1024.8" font-family="Times,serif" font-size="14.00">val</text>
</g>
<!-- 4 -->
<g id="node3" class="node"><title>4</title>
<polygon fill="none" stroke="orange" points="490,-870 436,-870 436,-834 490,-834 490,-870"/>
<text text-anchor="middle" x="463" y="-848.3" font-family="Times,serif" font-size="14.00">parms</text>
</g>
<!-- 5 -->
<g id="node4" class="node"><title>5</title>
<polygon fill="none" stroke="#5dade2" points="750,-951 696,-951 696,-915 750,-915 750,-951"/>
<text text-anchor="middle" x="723" y="-929.3" font-family="Times,serif" font-size="14.00">β</text>
</g>
<!-- 4&#45;&gt;5 -->
<g id="edge2" class="edge"><title>4&#45;&gt;5</title>
<path fill="none" stroke="black" d="M490.158,-860.212C536.614,-874.797 633.563,-905.235 686.178,-921.753"/>
<polygon fill="black" stroke="black" points="685.183,-925.11 695.773,-924.766 687.28,-918.431 685.183,-925.11"/>
<text text-anchor="middle" x="615" y="-907.8" font-family="Times,serif" font-size="14.00">var</text>
</g>
<!-- 6 -->
<g id="node5" class="node"><title>6</title>
<polygon fill="none" stroke="orange" points="750,-789 696,-789 696,-753 750,-753 750,-789"/>
<text text-anchor="middle" x="723" y="-767.3" font-family="Times,serif" font-size="14.00">r</text>
</g>
<!-- 4&#45;&gt;6 -->
<g id="edge3" class="edge"><title>4&#45;&gt;6</title>
<path fill="none" stroke="orange" d="M490.158,-843.788C536.614,-829.203 633.563,-798.765 686.178,-782.247"/>
<polygon fill="orange" stroke="orange" points="687.28,-785.569 695.773,-779.234 685.183,-778.89 687.28,-785.569"/>
<text text-anchor="middle" x="615" y="-814.8" font-family="Times,serif" font-size="14.00">var</text>
</g>
<!-- 7 -->
<g id="node6" class="node"><title>7</title>
<polygon fill="none" stroke="#5dade2" points="750,-897 696,-897 696,-861 750,-861 750,-897"/>
<text text-anchor="middle" x="723" y="-875.3" font-family="Times,serif" font-size="14.00">μ</text>
</g>
<!-- 4&#45;&gt;7 -->
<g id="edge4" class="edge"><title>4&#45;&gt;7</title>
<path fill="none" stroke="black" d="M490.158,-854.737C536.421,-859.579 632.758,-869.661 685.519,-875.182"/>
<polygon fill="black" stroke="black" points="685.463,-878.695 695.773,-876.255 686.191,-871.733 685.463,-878.695"/>
<text text-anchor="middle" x="615" y="-872.8" font-family="Times,serif" font-size="14.00">var</text>
</g>
<!-- 8 -->
<g id="node7" class="node"><title>8</title>
<polygon fill="none" stroke="#5dade2" points="750,-843 696,-843 696,-807 750,-807 750,-843"/>
<text text-anchor="middle" x="723" y="-821.3" font-family="Times,serif" font-size="14.00">K</text>
</g>
<!-- 4&#45;&gt;8 -->
<g id="edge5" class="edge"><title>4&#45;&gt;8</title>
<path fill="none" stroke="black" d="M490.158,-849.263C536.421,-844.421 632.758,-834.339 685.519,-828.818"/>
<polygon fill="black" stroke="black" points="686.191,-832.267 695.773,-827.745 685.463,-825.305 686.191,-832.267"/>
<text text-anchor="middle" x="615" y="-841.8" font-family="Times,serif" font-size="14.00">var</text>
</g>
<!-- 9 -->
<g id="node8" class="node"><title>9</title>
<polygon fill="none" stroke="#5dade2" points="750,-1005 696,-1005 696,-969 750,-969 750,-1005"/>
<text text-anchor="middle" x="723" y="-983.3" font-family="Times,serif" font-size="14.00">α</text>
</g>
<!-- 4&#45;&gt;9 -->
<g id="edge6" class="edge"><title>4&#45;&gt;9</title>
<path fill="none" stroke="black" d="M490.157,-868.089C526.602,-890.185 595.056,-930.534 656,-960 665.798,-964.737 676.649,-969.405 686.675,-973.492"/>
<polygon fill="black" stroke="black" points="685.389,-976.747 695.973,-977.216 687.991,-970.249 685.389,-976.747"/>
<text text-anchor="middle" x="615" y="-952.8" font-family="Times,serif" font-size="14.00">var</text>
</g>
<!-- 11 -->
<g id="node10" class="node"><title>11</title>
<polygon fill="none" stroke="orange" points="1037.5,-738 864.5,-738 864.5,-702 1037.5,-702 1037.5,-738"/>
<text text-anchor="middle" x="951" y="-716.3" font-family="Times,serif" font-size="14.00">r * (1 &#45; S / K) * S &#45; β * S * I</text>
</g>
<!-- 6&#45;&gt;11 -->
<g id="edge41" class="edge"><title>6&#45;&gt;11</title>
<path fill="none" stroke="orange" stroke-dasharray="5,2" d="M750.367,-765.05C777.31,-758.97 820.674,-749.184 860.114,-740.284"/>
<polygon fill="orange" stroke="orange" points="861.06,-743.659 870.044,-738.043 859.519,-736.83 861.06,-743.659"/>
<text text-anchor="middle" x="827" y="-755.8" font-family="Times,serif" font-size="14.00">coccur</text>
</g>
<!-- 10 -->
<g id="node9" class="node"><title>10</title>
<polygon fill="none" stroke="orange" points="490,-731 436,-731 436,-695 490,-695 490,-731"/>
<text text-anchor="middle" x="463" y="-709.3" font-family="Times,serif" font-size="14.00">dS</text>
</g>
<!-- 10&#45;&gt;11 -->
<g id="edge7" class="edge"><title>10&#45;&gt;11</title>
<path fill="none" stroke="orange" d="M490.129,-713.376C557.593,-714.348 740.278,-716.979 854.046,-718.618"/>
<polygon fill="orange" stroke="orange" points="854.104,-722.119 864.153,-718.764 854.205,-715.12 854.104,-722.119"/>
<text text-anchor="middle" x="723" y="-721.8" font-family="Times,serif" font-size="14.00">val</text>
</g>
<!-- 18 -->
<g id="node17" class="node"><title>18</title>
<polygon fill="none" stroke="orange" points="752.5,-684 693.5,-684 693.5,-648 752.5,-648 752.5,-684"/>
<text text-anchor="middle" x="723" y="-662.3" font-family="Times,serif" font-size="14.00">[dS, dI]</text>
</g>
<!-- 10&#45;&gt;18 -->
<g id="edge43" class="edge"><title>10&#45;&gt;18</title>
<path fill="none" stroke="orange" stroke-dasharray="5,2" d="M490.158,-708.235C535.797,-699.921 630.168,-682.729 683.36,-673.039"/>
<polygon fill="orange" stroke="orange" points="684.212,-676.441 693.423,-671.206 682.958,-669.555 684.212,-676.441"/>
<text text-anchor="middle" x="615" y="-693.8" font-family="Times,serif" font-size="14.00">coccur</text>
</g>
<!-- 12 -->
<g id="node11" class="node"><title>12</title>
<polygon fill="none" stroke="#5dade2" points="154,-1167 100,-1167 100,-1131 154,-1131 154,-1167"/>
<text text-anchor="middle" x="127" y="-1145.3" font-family="Times,serif" font-size="14.00">&#45;</text>
</g>
<!-- 13 -->
<g id="node12" class="node"><title>13</title>
<polygon fill="none" stroke="#5dade2" points="574,-1275 352,-1275 352,-1239 574,-1239 574,-1275"/>
<text text-anchor="middle" x="463" y="-1253.3" font-family="Times,serif" font-size="14.00">:[:( r * (1 &#45; S / K) * S ), :( β * S * I )]</text>
</g>
<!-- 12&#45;&gt;13 -->
<g id="edge8" class="edge"><title>12&#45;&gt;13</title>
<path fill="none" stroke="black" d="M154.245,-1159.52C195.771,-1175.93 279.369,-1208.02 352,-1230 359.279,-1232.2 366.868,-1234.36 374.509,-1236.42"/>
<polygon fill="black" stroke="black" points="373.632,-1239.81 384.195,-1239 375.428,-1233.05 373.632,-1239.81"/>
<text text-anchor="middle" x="303" y="-1227.8" font-family="Times,serif" font-size="14.00">args</text>
</g>
<!-- 16 -->
<g id="node15" class="node"><title>16</title>
<polygon fill="none" stroke="#5dade2" points="554.5,-1221 371.5,-1221 371.5,-1185 554.5,-1185 554.5,-1221"/>
<text text-anchor="middle" x="463" y="-1199.3" font-family="Times,serif" font-size="14.00">:[:( β * S * I ), :( (μ + α) * I )]</text>
</g>
<!-- 12&#45;&gt;16 -->
<g id="edge9" class="edge"><title>12&#45;&gt;16</title>
<path fill="none" stroke="black" d="M154.208,-1153.24C198.345,-1160.37 289.712,-1175.15 361.493,-1186.75"/>
<polygon fill="black" stroke="black" points="361.054,-1190.22 371.484,-1188.37 362.171,-1183.31 361.054,-1190.22"/>
<text text-anchor="middle" x="303" y="-1183.8" font-family="Times,serif" font-size="14.00">args</text>
</g>
<!-- 38 -->
<g id="node36" class="node"><title>38</title>
<polygon fill="none" stroke="#5dade2" points="549.5,-1167 376.5,-1167 376.5,-1131 549.5,-1131 549.5,-1167"/>
<text text-anchor="middle" x="463" y="-1145.3" font-family="Times,serif" font-size="14.00">:[:( μ &#45; β * S * I ), :( μ * S )]</text>
</g>
<!-- 12&#45;&gt;38 -->
<g id="edge10" class="edge"><title>12&#45;&gt;38</title>
<path fill="none" stroke="black" d="M154.208,-1149C199.299,-1149 293.687,-1149 366.122,-1149"/>
<polygon fill="black" stroke="black" points="366.19,-1152.5 376.19,-1149 366.19,-1145.5 366.19,-1152.5"/>
<text text-anchor="middle" x="303" y="-1152.8" font-family="Times,serif" font-size="14.00">args</text>
</g>
<!-- 41 -->
<g id="node39" class="node"><title>41</title>
<polygon fill="none" stroke="#5dade2" points="556.5,-1113 369.5,-1113 369.5,-1077 556.5,-1077 556.5,-1113"/>
<text text-anchor="middle" x="463" y="-1091.3" font-family="Times,serif" font-size="14.00">:[:( β * S * I ), :( (σ + μ) * E )]</text>
</g>
<!-- 12&#45;&gt;41 -->
<g id="edge11" class="edge"><title>12&#45;&gt;41</title>
<path fill="none" stroke="black" d="M154.208,-1144.76C197.904,-1137.7 287.893,-1123.15 359.337,-1111.6"/>
<polygon fill="black" stroke="black" points="359.975,-1115.04 369.288,-1109.99 358.858,-1108.13 359.975,-1115.04"/>
<text text-anchor="middle" x="303" y="-1128.8" font-family="Times,serif" font-size="14.00">args</text>
</g>
<!-- 44 -->
<g id="node42" class="node"><title>44</title>
<polygon fill="none" stroke="#5dade2" points="545,-1059 381,-1059 381,-1023 545,-1023 545,-1059"/>
<text text-anchor="middle" x="463" y="-1037.3" font-family="Times,serif" font-size="14.00">:[:( σ * E ), :( (γ + μ) * I )]</text>
</g>
<!-- 12&#45;&gt;44 -->
<g id="edge12" class="edge"><title>12&#45;&gt;44</title>
<path fill="none" stroke="black" d="M154.245,-1138.48C195.771,-1122.07 279.369,-1089.98 352,-1068 359.279,-1065.8 366.868,-1063.64 374.509,-1061.58"/>
<polygon fill="black" stroke="black" points="375.428,-1064.95 384.195,-1059 373.632,-1058.19 375.428,-1064.95"/>
<text text-anchor="middle" x="303" y="-1095.8" font-family="Times,serif" font-size="14.00">args</text>
</g>
<!-- 14 -->
<g id="node13" class="node"><title>14</title>
<polygon fill="none" stroke="#5dade2" points="490,-596 436,-596 436,-560 490,-560 490,-596"/>
<text text-anchor="middle" x="463" y="-574.3" font-family="Times,serif" font-size="14.00">dI</text>
</g>
<!-- 15 -->
<g id="node14" class="node"><title>15</title>
<polygon fill="none" stroke="#5dade2" points="790,-576 656,-576 656,-540 790,-540 790,-576"/>
<text text-anchor="middle" x="723" y="-554.3" font-family="Times,serif" font-size="14.00">β * S * I &#45; (μ + α) * I</text>
</g>
<!-- 14&#45;&gt;15 -->
<g id="edge13" class="edge"><title>14&#45;&gt;15</title>
<path fill="none" stroke="black" d="M490.158,-575.972C526.384,-573.164 593.314,-567.976 645.982,-563.893"/>
<polygon fill="black" stroke="black" points="646.276,-567.381 655.976,-563.118 645.735,-560.402 646.276,-567.381"/>
<text text-anchor="middle" x="615" y="-571.8" font-family="Times,serif" font-size="14.00">val</text>
</g>
<!-- 17 -->
<g id="node16" class="node"><title>17</title>
<polygon fill="none" stroke="#5dade2" points="490,-670 436,-670 436,-634 490,-634 490,-670"/>
<text text-anchor="middle" x="463" y="-648.3" font-family="Times,serif" font-size="14.00">du</text>
</g>
<!-- 17&#45;&gt;18 -->
<g id="edge14" class="edge"><title>17&#45;&gt;18</title>
<path fill="none" stroke="black" d="M490.287,-650.945C524.403,-649.853 585.754,-648.83 638,-653 652.915,-654.19 669.192,-656.477 683.412,-658.805"/>
<polygon fill="black" stroke="black" points="682.91,-662.27 693.355,-660.492 684.081,-655.368 682.91,-662.27"/>
<text text-anchor="middle" x="615" y="-656.8" font-family="Times,serif" font-size="14.00">val</text>
</g>
<!-- 19 -->
<g id="node18" class="node"><title>19</title>
<polygon fill="none" stroke="#5dade2" points="758,-630 688,-630 688,-594 758,-594 758,-630"/>
<text text-anchor="middle" x="723" y="-608.3" font-family="Times,serif" font-size="14.00">collection</text>
</g>
<!-- 17&#45;&gt;19 -->
<g id="edge15" class="edge"><title>17&#45;&gt;19</title>
<path fill="none" stroke="black" d="M490.473,-647.845C516.355,-643.787 556.882,-637.445 592,-632 620.559,-627.572 652.654,-622.634 677.808,-618.772"/>
<polygon fill="black" stroke="black" points="678.429,-622.218 687.783,-617.242 677.368,-615.299 678.429,-622.218"/>
<text text-anchor="middle" x="615" y="-635.8" font-family="Times,serif" font-size="14.00">property</text>
</g>
<!-- 20 -->
<g id="node19" class="node"><title>20</title>
<polygon fill="none" stroke="orange" points="253.5,-731 0.5,-731 0.5,-695 253.5,-695 253.5,-731"/>
<text text-anchor="middle" x="127" y="-709.3" font-family="Times,serif" font-size="14.00">ScalingModel.micro_1(du, u, parms, time)</text>
</g>
<!-- 20&#45;&gt;2 -->
<g id="edge16" class="edge"><title>20&#45;&gt;2</title>
<path fill="none" stroke="orange" d="M150.173,-731.19C208.438,-778.988 365.913,-908.174 432.079,-962.454"/>
<polygon fill="orange" stroke="orange" points="430.101,-965.359 440.053,-968.995 434.541,-959.947 430.101,-965.359"/>
<text text-anchor="middle" x="303" y="-877.8" font-family="Times,serif" font-size="14.00">destructure</text>
</g>
<!-- 20&#45;&gt;4 -->
<g id="edge17" class="edge"><title>20&#45;&gt;4</title>
<path fill="none" stroke="orange" d="M171.322,-731.029C238.005,-758.781 364.541,-811.441 426.297,-837.142"/>
<polygon fill="orange" stroke="orange" points="425.056,-840.416 435.634,-841.027 427.746,-833.954 425.056,-840.416"/>
<text text-anchor="middle" x="303" y="-798.8" font-family="Times,serif" font-size="14.00">comp</text>
</g>
<!-- 20&#45;&gt;10 -->
<g id="edge18" class="edge"><title>20&#45;&gt;10</title>
<path fill="none" stroke="orange" d="M253.795,-713C315.205,-713 384.545,-713 425.692,-713"/>
<polygon fill="orange" stroke="orange" points="425.773,-716.5 435.773,-713 425.773,-709.5 425.773,-716.5"/>
<text text-anchor="middle" x="303" y="-716.8" font-family="Times,serif" font-size="14.00">output</text>
</g>
<!-- 20&#45;&gt;14 -->
<g id="edge19" class="edge"><title>20&#45;&gt;14</title>
<path fill="none" stroke="black" d="M172.698,-694.933C239.715,-667.846 364.899,-617.247 426.25,-592.45"/>
<polygon fill="black" stroke="black" points="427.922,-595.549 435.882,-588.557 425.299,-589.059 427.922,-595.549"/>
<text text-anchor="middle" x="303" y="-657.8" font-family="Times,serif" font-size="14.00">output</text>
</g>
<!-- 20&#45;&gt;17 -->
<g id="edge20" class="edge"><title>20&#45;&gt;17</title>
<path fill="none" stroke="black" d="M226.855,-694.946C293.918,-682.698 378.678,-667.217 425.94,-658.586"/>
<polygon fill="black" stroke="black" points="426.788,-661.989 435.996,-656.749 425.53,-655.103 426.788,-661.989"/>
<text text-anchor="middle" x="303" y="-690.8" font-family="Times,serif" font-size="14.00">takes</text>
</g>
<!-- 22 -->
<g id="node20" class="node"><title>22</title>
<polygon fill="none" stroke="#5dade2" points="750,-468 696,-468 696,-432 750,-432 750,-468"/>
<text text-anchor="middle" x="723" y="-446.3" font-family="Times,serif" font-size="14.00">β</text>
</g>
<!-- 23 -->
<g id="node21" class="node"><title>23</title>
<polygon fill="none" stroke="#5dade2" points="978,-468 924,-468 924,-432 978,-432 978,-468"/>
<text text-anchor="middle" x="951" y="-446.3" font-family="Times,serif" font-size="14.00">p[1]</text>
</g>
<!-- 22&#45;&gt;23 -->
<g id="edge21" class="edge"><title>22&#45;&gt;23</title>
<path fill="none" stroke="black" d="M750.367,-450C790.768,-450 868.093,-450 913.742,-450"/>
<polygon fill="black" stroke="black" points="913.801,-453.5 923.801,-450 913.801,-446.5 913.801,-453.5"/>
<text text-anchor="middle" x="827" y="-453.8" font-family="Times,serif" font-size="14.00">val</text>
</g>
<!-- 24 -->
<g id="node22" class="node"><title>24</title>
<polygon fill="none" stroke="#5dade2" points="750,-414 696,-414 696,-378 750,-378 750,-414"/>
<text text-anchor="middle" x="723" y="-392.3" font-family="Times,serif" font-size="14.00">σ</text>
</g>
<!-- 25 -->
<g id="node23" class="node"><title>25</title>
<polygon fill="none" stroke="#5dade2" points="978,-414 924,-414 924,-378 978,-378 978,-414"/>
<text text-anchor="middle" x="951" y="-392.3" font-family="Times,serif" font-size="14.00">p[2]</text>
</g>
<!-- 24&#45;&gt;25 -->
<g id="edge22" class="edge"><title>24&#45;&gt;25</title>
<path fill="none" stroke="black" d="M750.367,-396C790.768,-396 868.093,-396 913.742,-396"/>
<polygon fill="black" stroke="black" points="913.801,-399.5 923.801,-396 913.801,-392.5 913.801,-399.5"/>
<text text-anchor="middle" x="827" y="-399.8" font-family="Times,serif" font-size="14.00">val</text>
</g>
<!-- 26 -->
<g id="node24" class="node"><title>26</title>
<polygon fill="none" stroke="#5dade2" points="750,-360 696,-360 696,-324 750,-324 750,-360"/>
<text text-anchor="middle" x="723" y="-338.3" font-family="Times,serif" font-size="14.00">γ</text>
</g>
<!-- 27 -->
<g id="node25" class="node"><title>27</title>
<polygon fill="none" stroke="#5dade2" points="978,-360 924,-360 924,-324 978,-324 978,-360"/>
<text text-anchor="middle" x="951" y="-338.3" font-family="Times,serif" font-size="14.00">p[3]</text>
</g>
<!-- 26&#45;&gt;27 -->
<g id="edge23" class="edge"><title>26&#45;&gt;27</title>
<path fill="none" stroke="black" d="M750.367,-342C790.768,-342 868.093,-342 913.742,-342"/>
<polygon fill="black" stroke="black" points="913.801,-345.5 923.801,-342 913.801,-338.5 913.801,-345.5"/>
<text text-anchor="middle" x="827" y="-345.8" font-family="Times,serif" font-size="14.00">val</text>
</g>
<!-- 28 -->
<g id="node26" class="node"><title>28</title>
<polygon fill="none" stroke="#5dade2" points="750,-306 696,-306 696,-270 750,-270 750,-306"/>
<text text-anchor="middle" x="723" y="-284.3" font-family="Times,serif" font-size="14.00">μ</text>
</g>
<!-- 29 -->
<g id="node27" class="node"><title>29</title>
<polygon fill="none" stroke="#5dade2" points="978,-306 924,-306 924,-270 978,-270 978,-306"/>
<text text-anchor="middle" x="951" y="-284.3" font-family="Times,serif" font-size="14.00">p[4]</text>
</g>
<!-- 28&#45;&gt;29 -->
<g id="edge24" class="edge"><title>28&#45;&gt;29</title>
<path fill="none" stroke="black" d="M750.367,-288C790.768,-288 868.093,-288 913.742,-288"/>
<polygon fill="black" stroke="black" points="913.801,-291.5 923.801,-288 913.801,-284.5 913.801,-291.5"/>
<text text-anchor="middle" x="827" y="-291.8" font-family="Times,serif" font-size="14.00">val</text>
</g>
<!-- 30 -->
<g id="node28" class="node"><title>30</title>
<polygon fill="none" stroke="orange" points="750,-252 696,-252 696,-216 750,-216 750,-252"/>
<text text-anchor="middle" x="723" y="-230.3" font-family="Times,serif" font-size="14.00">S</text>
</g>
<!-- 30&#45;&gt;11 -->
<g id="edge42" class="edge"><title>30&#45;&gt;11</title>
<path fill="none" stroke="orange" stroke-dasharray="5,2" d="M750.282,-238.016C764.357,-241.599 780.673,-248.342 790,-261 817.128,-297.816 785.608,-426.126 808,-466 818.272,-484.292 833.88,-476.877 846,-494 861.839,-516.377 853.683,-527.6 864,-553 884.776,-604.149 915.682,-660.679 934.235,-693.105"/>
<polygon fill="orange" stroke="orange" points="931.321,-695.058 939.347,-701.975 937.386,-691.563 931.321,-695.058"/>
<text text-anchor="middle" x="827" y="-497.8" font-family="Times,serif" font-size="14.00">coccur</text>
</g>
<!-- 31 -->
<g id="node29" class="node"><title>31</title>
<polygon fill="none" stroke="orange" points="978,-252 924,-252 924,-216 978,-216 978,-252"/>
<text text-anchor="middle" x="951" y="-230.3" font-family="Times,serif" font-size="14.00">Y[1]</text>
</g>
<!-- 30&#45;&gt;31 -->
<g id="edge25" class="edge"><title>30&#45;&gt;31</title>
<path fill="none" stroke="orange" d="M750.367,-234C790.768,-234 868.093,-234 913.742,-234"/>
<polygon fill="orange" stroke="orange" points="913.801,-237.5 923.801,-234 913.801,-230.5 913.801,-237.5"/>
<text text-anchor="middle" x="827" y="-237.8" font-family="Times,serif" font-size="14.00">val</text>
</g>
<!-- 37 -->
<g id="node35" class="node"><title>37</title>
<polygon fill="none" stroke="orange" points="1017.5,-198 884.5,-198 884.5,-162 1017.5,-162 1017.5,-198"/>
<text text-anchor="middle" x="951" y="-176.3" font-family="Times,serif" font-size="14.00">(μ &#45; β * S * I) &#45; μ * S</text>
</g>
<!-- 30&#45;&gt;37 -->
<g id="edge44" class="edge"><title>30&#45;&gt;37</title>
<path fill="none" stroke="orange" stroke-dasharray="5,2" d="M750.367,-227.7C780.614,-220.473 831.556,-208.301 874.408,-198.062"/>
<polygon fill="orange" stroke="orange" points="875.349,-201.436 884.261,-195.707 873.722,-194.627 875.349,-201.436"/>
<text text-anchor="middle" x="827" y="-217.8" font-family="Times,serif" font-size="14.00">coccur</text>
</g>
<!-- 32 -->
<g id="node30" class="node"><title>32</title>
<polygon fill="none" stroke="#5dade2" points="750,-144 696,-144 696,-108 750,-108 750,-144"/>
<text text-anchor="middle" x="723" y="-122.3" font-family="Times,serif" font-size="14.00">E</text>
</g>
<!-- 33 -->
<g id="node31" class="node"><title>33</title>
<polygon fill="none" stroke="#5dade2" points="978,-144 924,-144 924,-108 978,-108 978,-144"/>
<text text-anchor="middle" x="951" y="-122.3" font-family="Times,serif" font-size="14.00">Y[2]</text>
</g>
<!-- 32&#45;&gt;33 -->
<g id="edge26" class="edge"><title>32&#45;&gt;33</title>
<path fill="none" stroke="black" d="M750.367,-126C790.768,-126 868.093,-126 913.742,-126"/>
<polygon fill="black" stroke="black" points="913.801,-129.5 923.801,-126 913.801,-122.5 913.801,-129.5"/>
<text text-anchor="middle" x="827" y="-129.8" font-family="Times,serif" font-size="14.00">val</text>
</g>
<!-- 34 -->
<g id="node32" class="node"><title>34</title>
<polygon fill="none" stroke="#5dade2" points="750,-90 696,-90 696,-54 750,-54 750,-90"/>
<text text-anchor="middle" x="723" y="-68.3" font-family="Times,serif" font-size="14.00">I</text>
</g>
<!-- 35 -->
<g id="node33" class="node"><title>35</title>
<polygon fill="none" stroke="#5dade2" points="978,-90 924,-90 924,-54 978,-54 978,-90"/>
<text text-anchor="middle" x="951" y="-68.3" font-family="Times,serif" font-size="14.00">Y[3]</text>
</g>
<!-- 34&#45;&gt;35 -->
<g id="edge27" class="edge"><title>34&#45;&gt;35</title>
<path fill="none" stroke="black" d="M750.367,-72C790.768,-72 868.093,-72 913.742,-72"/>
<polygon fill="black" stroke="black" points="913.801,-75.5001 923.801,-72 913.801,-68.5001 913.801,-75.5001"/>
<text text-anchor="middle" x="827" y="-75.8" font-family="Times,serif" font-size="14.00">val</text>
</g>
<!-- 36 -->
<g id="node34" class="node"><title>36</title>
<polygon fill="none" stroke="orange" points="750,-198 696,-198 696,-162 750,-162 750,-198"/>
<text text-anchor="middle" x="723" y="-176.3" font-family="Times,serif" font-size="14.00">dY[1]</text>
</g>
<!-- 36&#45;&gt;37 -->
<g id="edge28" class="edge"><title>36&#45;&gt;37</title>
<path fill="none" stroke="orange" d="M750.322,-174.066C766.797,-170.66 788.522,-166.725 808,-165 829.53,-163.093 852.867,-164.225 874.282,-166.547"/>
<polygon fill="orange" stroke="orange" points="873.955,-170.033 884.297,-167.732 874.778,-163.081 873.955,-170.033"/>
<text text-anchor="middle" x="827" y="-168.8" font-family="Times,serif" font-size="14.00">val</text>
</g>
<!-- 39 -->
<g id="node37" class="node"><title>39</title>
<polygon fill="none" stroke="#5dade2" points="750,-36 696,-36 696,-0 750,-0 750,-36"/>
<text text-anchor="middle" x="723" y="-14.3" font-family="Times,serif" font-size="14.00">dY[2]</text>
</g>
<!-- 40 -->
<g id="node38" class="node"><title>40</title>
<polygon fill="none" stroke="#5dade2" points="1020,-36 882,-36 882,-0 1020,-0 1020,-36"/>
<text text-anchor="middle" x="951" y="-14.3" font-family="Times,serif" font-size="14.00">β * S * I &#45; (σ + μ) * E</text>
</g>
<!-- 39&#45;&gt;40 -->
<g id="edge29" class="edge"><title>39&#45;&gt;40</title>
<path fill="none" stroke="black" d="M750.367,-18C780.011,-18 829.534,-18 871.838,-18"/>
<polygon fill="black" stroke="black" points="871.859,-21.5001 881.859,-18 871.858,-14.5001 871.859,-21.5001"/>
<text text-anchor="middle" x="827" y="-21.8" font-family="Times,serif" font-size="14.00">val</text>
</g>
<!-- 42 -->
<g id="node40" class="node"><title>42</title>
<polygon fill="none" stroke="#5dade2" points="750,-522 696,-522 696,-486 750,-486 750,-522"/>
<text text-anchor="middle" x="723" y="-500.3" font-family="Times,serif" font-size="14.00">dY[3]</text>
</g>
<!-- 43 -->
<g id="node41" class="node"><title>43</title>
<polygon fill="none" stroke="#5dade2" points="1008.5,-544 893.5,-544 893.5,-508 1008.5,-508 1008.5,-544"/>
<text text-anchor="middle" x="951" y="-522.3" font-family="Times,serif" font-size="14.00">σ * E &#45; (γ + μ) * I</text>
</g>
<!-- 42&#45;&gt;43 -->
<g id="edge30" class="edge"><title>42&#45;&gt;43</title>
<path fill="none" stroke="black" d="M750.367,-506.567C782.666,-509.711 838.565,-515.152 883.011,-519.479"/>
<polygon fill="black" stroke="black" points="882.88,-522.983 893.172,-520.468 883.559,-516.016 882.88,-522.983"/>
<text text-anchor="middle" x="827" y="-519.8" font-family="Times,serif" font-size="14.00">val</text>
</g>
<!-- 45 -->
<g id="node43" class="node"><title>45</title>
<polygon fill="none" stroke="orange" points="562,-281 364,-281 364,-245 562,-245 562,-281"/>
<text text-anchor="middle" x="463" y="-259.3" font-family="Times,serif" font-size="14.00">SEIRmodel.seir_ode(dY, Y, p, t)</text>
</g>
<!-- 45&#45;&gt;22 -->
<g id="edge31" class="edge"><title>45&#45;&gt;22</title>
<path fill="none" stroke="black" d="M480.786,-281.014C512.2,-313.737 583.293,-383.226 656,-423 665.63,-428.268 676.506,-433.126 686.611,-437.225"/>
<polygon fill="black" stroke="black" points="685.408,-440.513 695.996,-440.912 687.968,-433.998 685.408,-440.513"/>
<text text-anchor="middle" x="615" y="-413.8" font-family="Times,serif" font-size="14.00">takes</text>
</g>
<!-- 45&#45;&gt;24 -->
<g id="edge32" class="edge"><title>45&#45;&gt;24</title>
<path fill="none" stroke="black" d="M494.002,-281.04C531.295,-303.117 597.214,-341.009 656,-369 665.641,-373.59 676.277,-378.152 686.144,-382.184"/>
<polygon fill="black" stroke="black" points="685.105,-385.539 695.688,-386.021 687.715,-379.044 685.105,-385.539"/>
<text text-anchor="middle" x="615" y="-362.8" font-family="Times,serif" font-size="14.00">takes</text>
</g>
<!-- 45&#45;&gt;26 -->
<g id="edge33" class="edge"><title>45&#45;&gt;26</title>
<path fill="none" stroke="black" d="M522.867,-281.025C573.26,-296.455 644.167,-318.167 686.366,-331.089"/>
<polygon fill="black" stroke="black" points="685.35,-334.438 695.936,-334.019 687.399,-327.745 685.35,-334.438"/>
<text text-anchor="middle" x="615" y="-318.8" font-family="Times,serif" font-size="14.00">takes</text>
</g>
<!-- 45&#45;&gt;28 -->
<g id="edge34" class="edge"><title>45&#45;&gt;28</title>
<path fill="none" stroke="black" d="M562.275,-272.523C605.519,-276.713 653.654,-281.377 685.666,-284.479"/>
<polygon fill="black" stroke="black" points="685.583,-287.987 695.874,-285.468 686.258,-281.02 685.583,-287.987"/>
<text text-anchor="middle" x="615" y="-283.8" font-family="Times,serif" font-size="14.00">takes</text>
</g>
<!-- 45&#45;&gt;30 -->
<g id="edge35" class="edge"><title>45&#45;&gt;30</title>
<path fill="none" stroke="orange" d="M562.275,-251.954C605.519,-247.093 653.654,-241.682 685.666,-238.084"/>
<polygon fill="orange" stroke="orange" points="686.327,-241.532 695.874,-236.937 685.545,-234.576 686.327,-241.532"/>
<text text-anchor="middle" x="615" y="-252.8" font-family="Times,serif" font-size="14.00">takes</text>
</g>
<!-- 45&#45;&gt;32 -->
<g id="edge36" class="edge"><title>45&#45;&gt;32</title>
<path fill="none" stroke="black" d="M492.949,-244.807C529.979,-221.915 596.453,-182.08 656,-153 665.779,-148.224 676.624,-143.545 686.651,-139.458"/>
<polygon fill="black" stroke="black" points="687.966,-142.702 695.951,-135.739 685.366,-136.203 687.966,-142.702"/>
<text text-anchor="middle" x="615" y="-187.8" font-family="Times,serif" font-size="14.00">takes</text>
</g>
<!-- 45&#45;&gt;34 -->
<g id="edge37" class="edge"><title>45&#45;&gt;34</title>
<path fill="none" stroke="black" d="M480.437,-244.759C511.555,-211.265 582.56,-139.671 656,-99 665.602,-93.6821 676.47,-88.8091 686.575,-84.7107"/>
<polygon fill="black" stroke="black" points="687.931,-87.9385 695.964,-81.0294 685.376,-81.4216 687.931,-87.9385"/>
<text text-anchor="middle" x="615" y="-145.8" font-family="Times,serif" font-size="14.00">takes</text>
</g>
<!-- 45&#45;&gt;36 -->
<g id="edge38" class="edge"><title>45&#45;&gt;36</title>
<path fill="none" stroke="orange" d="M519.982,-244.99C570.473,-228.747 643.216,-205.345 686.243,-191.503"/>
<polygon fill="orange" stroke="orange" points="687.544,-194.762 695.991,-188.367 685.4,-188.098 687.544,-194.762"/>
<text text-anchor="middle" x="615" y="-225.8" font-family="Times,serif" font-size="14.00">output</text>
</g>
<!-- 45&#45;&gt;39 -->
<g id="edge39" class="edge"><title>45&#45;&gt;39</title>
<path fill="none" stroke="black" d="M474.263,-244.817C499.283,-202.301 567.884,-96.1283 656,-45 665.494,-39.4911 676.329,-34.5594 686.437,-30.4659"/>
<polygon fill="black" stroke="black" points="687.788,-33.6957 695.837,-26.8065 685.249,-27.1725 687.788,-33.6957"/>
<text text-anchor="middle" x="615" y="-96.8" font-family="Times,serif" font-size="14.00">output</text>
</g>
<!-- 45&#45;&gt;42 -->
<g id="edge40" class="edge"><title>45&#45;&gt;42</title>
<path fill="none" stroke="black" d="M474.505,-281.221C499.798,-323.292 568.513,-427.383 656,-477 665.548,-482.415 676.399,-487.318 686.506,-491.414"/>
<polygon fill="black" stroke="black" points="685.312,-494.705 695.9,-495.084 687.859,-488.185 685.312,-494.705"/>
<text text-anchor="middle" x="615" y="-468.8" font-family="Times,serif" font-size="14.00">output</text>
</g>
</g>
</svg>
