<?xml version="1.0" encoding="UTF-8" standalone="no"?>
<!DOCTYPE svg PUBLIC "-//W3C//DTD SVG 1.1//EN"
 "http://www.w3.org/Graphics/SVG/1.1/DTD/svg11.dtd">
<!-- Generated by graphviz version 2.36.0 (20140111.2315)
 -->
<!-- Title: G Pages: 1 -->
<svg width="216pt" height="203pt"
 viewBox="0.00 0.00 216.00 203.00" xmlns="http://www.w3.org/2000/svg" xmlns:xlink="http://www.w3.org/1999/xlink">
<g id="graph0" class="graph" transform="scale(1 1) rotate(0) translate(4 199)">
<title>G</title>
<polygon fill="white" stroke="none" points="-4,4 -4,-199 212,-199 212,4 -4,4"/>
<g id="clust1" class="cluster"><title>cluster_1</title>
<polygon fill="none" stroke="black" points="8,-8 8,-187 200,-187 200,-8 8,-8"/>
<text text-anchor="middle" x="104" y="-171.8" font-family="Times,serif" font-size="14.00">SemanticModeling</text>
</g>
<!-- code1 -->
<g id="node1" class="node"><title>code1</title>
<ellipse fill="#4876ff" stroke="#3a5fcd" cx="37" cy="-134" rx="21.1728" ry="21.3963"/>
<text text-anchor="middle" x="37" y="-130.3" font-family="Times,serif" font-size="14.00">c₁ </text>
</g>
<!-- code2 -->
<g id="node2" class="node"><title>code2</title>
<ellipse fill="indianred" stroke="#cd3333" cx="37" cy="-38" rx="21.1728" ry="21.3963"/>
<text text-anchor="middle" x="37" y="-34.3" font-family="Times,serif" font-size="14.00">c₂ </text>
</g>
<!-- code1&#45;&gt;code2 -->
<g id="edge4" class="edge"><title>code1&#45;&gt;code2</title>
<path fill="none" stroke="black" d="M37,-112.138C37,-99.6389 37,-83.523 37,-69.6016"/>
<polygon fill="black" stroke="black" points="40.5001,-69.4799 37,-59.4799 33.5001,-69.4799 40.5001,-69.4799"/>
<text text-anchor="middle" x="46.5" y="-82.3" font-family="Times,serif" font-size="14.00"> &#160;T′</text>
</g>
<!-- m1 -->
<g id="node3" class="node"><title>m1</title>
<ellipse fill="mediumseagreen" stroke="forestgreen" cx="170" cy="-134" rx="22.1473" ry="22.1965"/>
<text text-anchor="middle" x="170" y="-130.3" font-family="Times,serif" font-size="14.00">m₁</text>
</g>
<!-- code1&#45;&gt;m1 -->
<g id="edge2" class="edge"><title>code1&#45;&gt;m1</title>
<path fill="none" stroke="black" d="M58.3688,-134C79.7328,-134 112.863,-134 137.489,-134"/>
<polygon fill="black" stroke="black" points="137.797,-137.5 147.797,-134 137.797,-130.5 137.797,-137.5"/>
<text text-anchor="middle" x="102.951" y="-140.8" font-family="Times,serif" font-size="14.00">Model(Expr)</text>
</g>
<!-- m2 -->
<g id="node4" class="node"><title>m2</title>
<ellipse fill="#cd69c9" stroke="#b452cd" cx="170" cy="-38" rx="22.1473" ry="22.1965"/>
<text text-anchor="middle" x="170" y="-34.3" font-family="Times,serif" font-size="14.00">m₂</text>
</g>
<!-- m1&#45;&gt;m2 -->
<g id="edge1" class="edge"><title>m1&#45;&gt;m2</title>
<path fill="none" stroke="black" d="M170,-111.67C170,-99.5313 170,-84.0973 170,-70.5779"/>
<polygon fill="black" stroke="black" points="173.5,-70.2456 170,-60.2456 166.5,-70.2457 173.5,-70.2456"/>
<text text-anchor="middle" x="178" y="-82.3" font-family="Times,serif" font-size="14.00"> &#160;T</text>
</g>
<!-- m2&#45;&gt;code2 -->
<g id="edge3" class="edge"><title>m2&#45;&gt;code2</title>
<path fill="none" stroke="black" d="M147.797,-38C126.133,-38 92.9632,-38 68.5606,-38"/>
<polygon fill="black" stroke="black" points="68.3688,-34.5001 58.3688,-38 68.3687,-41.5001 68.3688,-34.5001"/>
<text text-anchor="middle" x="102.951" y="-44.8" font-family="Times,serif" font-size="14.00">Expr(Model)</text>
</g>
</g>
</svg>
